<?xml version="1.0" encoding="utf-8"?>
<!-- Generator: Adobe Illustrator 27.2.0, SVG Export Plug-In . SVG Version: 6.00 Build 0)  -->
<svg version="1.1" id="Layer_1" xmlns="http://www.w3.org/2000/svg" xmlns:xlink="http://www.w3.org/1999/xlink" x="0px" y="0px"
	 viewBox="0 0 1080 1080" style="enable-background:new 0 0 1080 1080;" xml:space="preserve">
<g>
	<polygon points="235.76,657.65 219.5,617.51 211.65,617.51 211.65,668.56 215.7,668.56 215.7,625.46 232.86,668.51 235.39,668.51 
		252.96,625.46 252.96,668.56 259.64,668.56 259.64,617.51 252.03,617.51 	"/>
	<polygon points="735.2,657.65 718.91,617.51 711.06,617.51 711.06,668.56 715.12,668.56 715.12,625.46 732.31,668.51 
		734.82,668.51 752.37,625.46 752.37,668.56 759.07,668.56 759.07,617.51 751.46,617.51 	"/>
	<path d="M777.29,644.67l6.84-20.14l6.46,20.14H777.29z M782.81,618.46l-18.84,50.1h5.32l6.77-20.62h15.62l6.37,20.62h6.86
		l-16.79-51.96L782.81,618.46z"/>
	<polygon points="817.92,617.56 811,617.47 811,668.55 837.14,668.5 837.23,665.57 817.92,665.57 	"/>
	<polygon points="849.38,665.57 849.38,617.56 842.46,617.47 842.46,668.55 868.59,668.5 868.68,665.57 	"/>
	<path d="M300.73,652.78c0,1.02-0.01,1.98-0.06,2.83c-0.07,0.86-0.13,1.58-0.25,2.13c-0.12,0.65-0.23,1.23-0.37,1.77
		c-0.11,0.55-0.31,1.05-0.56,1.54c-0.82,1.78-2.22,3.15-4.19,4.11c-2.01,0.92-4.36,1.39-7.15,1.39c-4.2,0-7.19-1.1-8.96-3.25
		c-1.83-2.16-2.72-5.83-2.72-11.07v-34.7h-6.86v36.28c0,5.58,1.4,9.64,4.19,12.12c2.88,2.54,7.41,3.82,13.63,3.82
		c4.16,0,7.69-0.63,10.57-1.89c2.84-1.28,4.92-3.15,6.18-5.58c0.62-1.19,1.03-2.52,1.23-3.97c0.12-0.74,0.18-1.65,0.27-2.8
		c0.1-1.12,0.13-2.39,0.13-3.91v-34.09h-5.08V652.78z"/>
	<path d="M335.71,643.43l-8.24-5.46c-1.41-0.93-2.56-1.79-3.55-2.54c-0.98-0.8-1.67-1.54-2.16-2.26c-0.93-1.42-1.39-3.03-1.39-4.92
		c0-2.33,0.85-4.32,2.48-6.01c1.66-1.66,3.67-2.46,6.09-2.46c0.35,0,0.99,0.07,1.97,0.18c0.97,0.13,1.93,0.29,2.93,0.5
		c0.67,0.16,1.42,0.33,2.26,0.56c0.82,0.19,1.59,0.43,2.32,0.66c0.74,0.23,1.58,0.51,2.46,0.8l-0.02-4.1
		c-2.15-0.56-4.16-0.96-6.01-1.16c-0.99-0.12-1.93-0.24-2.83-0.31c-0.87-0.05-1.73-0.07-2.54-0.07c-4.56,0-8.3,1.3-11.2,3.87
		c-2.95,2.5-4.44,5.73-4.44,9.71c0,2.64,0.61,4.87,1.71,6.71c1.15,1.84,3.14,3.74,5.91,5.66l9.13,6.33
		c2.09,1.43,3.49,2.76,4.28,3.93c0.78,1.27,1.16,2.62,1.16,4.08c-0.11,2.71-1.11,4.92-2.96,6.51c-1.96,1.66-4.46,2.51-7.47,2.51
		h-2.41c-1.23,0-2.41-0.14-3.57-0.39c-0.67-0.19-1.36-0.42-2.08-0.78c-0.75-0.37-1.42-0.7-2.04-1.05c-0.62-0.35-1.33-0.78-2.11-1.29
		l-0.16,4.66c1.1,0.42,2.16,0.74,3.2,1.03c1.03,0.23,2.04,0.49,3.11,0.68c1.04,0.25,2.08,0.44,3.09,0.5
		c0.99,0.08,2.01,0.13,3.06,0.13c5.24,0,9.4-1.36,12.46-4.07c3.21-2.83,4.78-6.45,4.74-10.77c0-2.36-0.53-4.4-1.55-6.16
		C340.33,646.96,338.45,645.23,335.71,643.43"/>
	<path d="M374.19,669.53c1.02-0.08,2.03-0.17,3.08-0.27c1.05-0.16,2.11-0.35,3.21-0.53c1.13-0.22,2.25-0.44,3.4-0.72l0.63-4.59
		c0,0.16-0.53,0.37-1.53,0.66c-1.02,0.29-2.15,0.57-3.4,0.9c-1.23,0.3-2.42,0.6-3.49,0.81c-1.09,0.25-1.74,0.41-1.94,0.44
		c-0.82,0.13-1.71,0.24-2.74,0.24c-5.26,0-9.34-2.01-12.3-6.08c-2.94-3.93-4.43-9.51-4.43-16.71c0-7.39,1.54-13.15,4.6-17.31
		c3.18-4.23,7.32-6.33,12.53-6.29c1.15,0,2.03,0.06,2.63,0.25c0.18,0.02,0.79,0.16,1.89,0.32c1.09,0.13,2.23,0.3,3.45,0.53
		c1.23,0.23,2.34,0.43,3.33,0.7c0.97,0.26,1.45,0.5,1.45,0.78v-4.37c-2.42-0.53-4.68-0.91-6.76-1.16c-1.04-0.12-2.07-0.19-3.08-0.27
		c-0.99-0.06-1.97-0.1-2.9-0.1c-7.67,0-13.8,2.5-18.36,7.53c-4.53,4.98-6.78,11.68-6.78,20.08c0,8.17,2.09,14.42,6.22,18.84
		c4.18,4.28,10.26,6.45,18.29,6.45C372.19,669.65,373.17,669.62,374.19,669.53"/>
	<path d="M398.22,644.67l6.88-20.14l6.41,20.14H398.22z M403.74,618.46l-18.84,50.1h5.3l6.77-20.62h15.65l6.38,20.62h6.84
		l-16.78-51.96L403.74,618.46z"/>
	<polygon points="449.37,668.51 449.37,621.02 466.17,621.02 466.17,617.54 425.7,617.54 425.7,621.02 442.51,621.02 442.51,668.51 
			"/>
	<path d="M502.21,620.08c0.61,0,1.51,0.04,2.76,0.06c1.23,0.11,2.47,0.21,3.8,0.51c0.85,0.13,1.77,0.35,2.85,0.66
		c1.03,0.26,1.88,0.5,2.51,0.72c0.65,0.2,1,0.36,1.09,0.41v-4.14c-0.92-0.25-1.85-0.48-2.81-0.68c-0.93-0.17-1.92-0.3-2.94-0.39
		c-1.04-0.18-2.09-0.27-3.14-0.32c-1.03-0.06-2.08-0.07-3.17-0.07c-8.31,0-14.79,2.44-19.45,7.32c-4.67,4.8-7,11.55-7,20.22
		c0,8.04,2.01,14.24,6.06,18.59c4.22,4.43,9.95,6.63,17.27,6.63c1.37,0,2.68-0.05,3.88-0.16c1.24-0.08,2.5-0.18,3.73-0.32
		c1.34-0.17,2.57-0.36,3.81-0.54c1.18-0.2,2.41-0.42,3.61-0.7V648.4l-6.86,0.08V666c-0.84,0.1-1.53,0.17-2.15,0.2
		c-0.59,0.04-1.09,0.05-1.49,0.11c-0.45,0.06-0.81,0.06-1.18,0.06h-0.94c-5.9-0.1-10.34-2.02-13.28-5.82
		c-3.02-3.93-4.51-9.7-4.51-17.25c0-7.23,1.54-12.91,4.66-17.06C492.47,622.09,496.79,620.05,502.21,620.08"/>
	<path d="M531.79,641.02v-20.63h3.94c3.4,0,5.92,0.84,7.61,2.48c1.74,1.77,2.62,4.31,2.57,7.64c0,3.32-0.88,5.9-2.64,7.76
		c-1.83,1.84-4.34,2.74-7.54,2.74H531.79z M578.22,624.53l6.44,20.14h-13.29L578.22,624.53z M563.34,668.55l6.77-20.62h15.65
		l6.4,20.62h6.83l-16.81-51.96l-5.32,1.86l-18.27,48.7c-0.57-0.72-1.19-1.49-1.67-2.09c-0.82-0.98-1.7-2.05-2.63-3.28
		c-0.92-1.18-1.83-2.32-2.65-3.4l-11.36-15.49c4.22-0.63,7.45-2.1,9.75-4.44c2.26-2.44,3.43-5.49,3.43-9.17
		c0-2.08-0.48-4.01-1.41-5.84c-0.94-1.82-2.13-3.18-3.56-4.12c-1.19-0.72-2.52-1.18-3.94-1.41c-0.68-0.2-1.61-0.33-2.8-0.38
		c-1.17-0.05-2.57-0.08-4.18-0.08h-12.61v51.07h6.83v-26.15l18.36,26.04l7.94,0.1l-0.02,0.06H563.34z"/>
	<polygon points="636.12,655.73 611.16,617.52 604.69,617.52 604.69,668.57 608.75,668.57 608.75,626.32 636.69,668.87 
		640.09,668.87 640.09,617.52 636.12,617.52 	"/>
	<path d="M657.23,621.02h8.19c5.51,0,9.67,1.88,12.53,5.66c2.93,3.74,4.35,9.13,4.35,16.21c0,7.24-1.53,12.76-4.6,16.51
		c-3.09,3.75-7.62,5.6-13.62,5.6h-6.86V621.02z M675.18,666.91c2.94-1.02,5.55-2.77,7.87-5.17c2.28-2.41,4.01-5.27,5.21-8.65
		c1.11-3.36,1.71-7.29,1.71-11.74c0-7.8-2.1-13.69-6.22-17.74c-4.17-4.03-10.16-6.07-18.04-6.07h-15.25v51.03l11.86-0.07
		C667.89,668.5,672.18,667.96,675.18,666.91"/>
	<rect x="455.83" y="529.55" width="5.83" height="67.02"/>
	<path d="M585.87,585.59c-0.56-10.36-1.16-4.73-1.82-15.1c-1.22-10.93-5.39-17.24-12.6-19.04c-4.06-1-5.98-1.48-5.79-1.48h-4.14
		c8.73,0.66,14.25,7.55,16.55,20.63c0.79,4.41,1.18-2.2,1.18,12.2c0,0.92,0.17,2.17,0.51,3.82c0.31,1.64,0.48,2.91,0.48,3.79h-85.95
		v-37.36h-5.82v43.78c0,4.71-3.97,7.98-11.75,9.75c0.3,0,0.9,0.07,1.74,0.25c0.82,0.17,1.47,0.24,1.92,0.24
		c5.79,0,9.47-1.03,11.05-3.11c1.22-2.42,2.45-4.89,3.69-7.38h87.58c3,6.61,8.65,10.58,16.91,12.05
		C591.88,605.17,587.3,597.51,585.87,585.59"/>
	<path d="M697.87,590.41h-13.31v-28.85c0-1.31,0.76-2.56,2.33-3.69c1.54-1.13,2.99-1.73,4.34-1.73c1.09,0,2.47,0.6,4.16,1.73
		c1.65,1.13,2.48,2.22,2.48,3.18V590.41z M635.87,590.72h-14.79v-18.23c0-4.56,0.93-8.38,2.85-11.5c2.25-3.65,5.49-5.45,9.76-5.45
		h2.17V590.72z M845.9,556.14h2.53c3.48,0,6.41,1.53,8.76,4.53c2.34,3.02,3.52,6.31,3.52,9.87v24.5h-2.53
		c-3.13,0-5.95-1.45-8.47-4.36c-2.56-2.94-3.81-5.97-3.81-9.02V556.14z M771,596.57h63.23c3.54-0.44,6.53-2.33,8.95-5.66
		c2.45,3.79,5.34,5.66,8.64,5.66h14.76v-27.89c0-3.83-1.52-7.26-4.55-10.26c-3.05-2.97-6.5-4.46-10.38-4.46h-5.79
		c-2.32,0.14-4.25,0.14-5.8,0v28.02c0,1.89-0.66,3.7-1.98,5.45c-1.33,1.79-2.68,2.77-3.98,2.97h-2.66v0.31h-57.13v-0.31h-2.74
		c-1.16-0.21-1.72-0.72-1.72-1.52v-36.14c-1.3,3.76-3.26,6.26-5.86,7.48v31.02c0,0.56-0.33,1.22-1,1.99
		c-0.66,0.82-1.28,1.16-1.83,1.16c-2.02,0-3.02-1.24-3.02-3.77v-37.14c-1.18,3.93-3.17,6.28-5.86,7.08v30.37
		c0,2.31-0.97,3.45-2.85,3.45c-0.68,0-1.34-0.47-2.01-1.47c-0.67-1-0.98-1.76-0.98-2.31v-30.09c-2.85-1-4.79-3.61-5.88-7.79v37.97
		h-2.94v-0.31h-33.84v-25.56c0-3.28-1.27-5.9-3.74-7.91c-2.53-1.99-5.45-2.97-8.92-2.97c-3.79,0-6.81,1.09-9.15,3.21
		c-2.32,2.16-3.48,5.1-3.48,8.83v24.4h-34.22v0.31h-2.51v-36.75h-14.97c-0.65,0-1.68,0.47-3.12,1.42c-1.4,0.93-2.27,1.79-2.58,2.56
		v-27.78h-5.86v60.56h-8.33l3.33,5.85h128.13l2.48-0.42l1.86-2.66c1.67,2.04,3.8,3.08,6.43,3.08c3.11,0,5.08-1.04,5.97-3.08
		c1,2.04,3.03,3.08,6.13,3.08c3.07,0,5.29-1.04,6.64-3.08C768.29,594.4,769.35,595.45,771,596.57"/>
	<path d="M573.89,604.22c0-2.03-1-3.01-3-3.01c-2.32,0-3.46,1.03-3.46,3.17c0,0.6,0.36,1.28,1.15,1.96
		c0.76,0.68,1.54,1.03,2.32,1.03C572.88,607.36,573.89,606.31,573.89,604.22"/>
	<path d="M261.8,595.63h-1.51c-1.71,0-3.76-0.78-6.2-2.31c-2.5-1.53-3.7-3.12-3.7-4.78V560.6c0-0.76,0.65-1.72,2.02-2.79
		c1.34-1.12,2.41-1.67,3.19-1.67h6.2V595.63z M334.06,556.13h2.52c3.46,0,6.39,1.54,8.76,4.54c2.33,3.02,3.54,6.31,3.54,9.85v24.51
		h-2.53c-3.18,0-5.97-1.45-8.54-4.36c-2.48-2.94-3.74-5.97-3.74-9.03V556.13z M331.32,590.91c2.46,3.79,5.34,5.66,8.62,5.66h14.78
		v-27.89c0-3.83-1.51-7.27-4.56-10.26c-3.02-2.97-6.5-4.46-10.36-4.46h-5.8c-2.33,0.13-4.28,0.13-5.8,0v28.02
		c0,1.88-0.66,3.7-2.01,5.45c-1.3,1.78-2.64,2.77-3.99,2.96h-2.64v0.32h-46.36v-0.32h-5.53v-36.43h-12.41
		c-2.84,0-5.38,1.19-7.53,3.46c-2.14,2.33-3.2,4.94-3.2,7.91v22.18c0,6.03,4.1,9.05,12.35,9.05h4.74l0.18,1.11
		c0,3.8-3.89,6.77-11.65,8.9c0.44,0.1,1.05,0.23,1.93,0.3c0.87,0.12,1.53,0.18,1.95,0.18c4.77,0,7.9-0.81,9.4-2.47
		c0.43-0.32,1.84-2.97,4.23-8.01h54.69C325.92,596.12,328.89,594.23,331.32,590.91"/>
	<path d="M223.96,604.26c8.6,0,12.96-4.16,12.96-12.58v-62.15h-6c0,62.4-0.16,67.52-0.49,68.19l-4.59,4.12l-1.89,0.5
		c-2.91-0.74-5.17-2.46-6.81-5.12v-37.47c0-2.63,1.88-4.8,5.6-6.46l-3.15-0.3c-1.86,0-3.74,0.84-5.54,2.54
		c-1.85,1.71-2.74,3.45-2.74,5.22v32.61c0,3.2,1.3,5.8,3.92,7.86C217.8,603.27,220.73,604.26,223.96,604.26"/>
	<path d="M687.59,548.73c0.44,0,1.59-0.8,3.43-2.38c0.1,0.08,0.16,0.27,0.16,0.47c0.66,1.28,1.55,1.91,2.75,1.91
		c2.02,0,3.05-1.02,3.05-3.01c0-2.11-1.06-3.17-3.18-3.17c-1.09,0-1.84,0.39-2.21,1.16c-0.41,0.75-0.79,1.21-1.1,1.31
		c-0.79-1.65-1.77-2.47-3-2.47c-2.13,0-3.17,0.98-3.17,3.01c0,0.66,0.35,1.31,1.04,2.08C686.01,548.39,686.77,548.73,687.59,548.73"
		/>
	<path d="M447.74,553.97h-5.85v36.43h-43.38v-27.13c0-2.96-1.59-5.47-4.83-7.42c-2.68-1.7-5.61-2.48-8.84-2.48
		c-0.88,0-2.25,1.21-4.01,3.6c2.15,0,4.5,0.57,7.09,1.68c3.17,1.31,4.74,2.88,4.74,4.62v27.13h-14.82v6.18h69.9V553.97z"/>
	<path d="M444.98,542.27h-0.8c-1.12,0-1.9,0.72-2.29,2.1c-0.06,0.25-0.06,0.63,0,1.19c0,2.08,0.97,3.11,2.91,3.11
		c0.32,0,0.54-0.06,0.63-0.17c1.52-0.63,2.31-1.56,2.31-2.85c0-0.68-0.3-1.4-0.93-2.2C446.2,542.64,445.58,542.27,444.98,542.27"/>
	<polygon points="558.59,302.33 540.6,284.34 522.67,302.33 540.6,320.29 	"/>
	<polygon points="540.6,470.34 522.67,488.34 540.6,506.31 558.59,488.34 	"/>
	<polygon points="464.98,395 446.98,377.01 428.99,395 446.98,412.95 	"/>
	<polygon points="650.97,395 633.01,377.01 615.04,395 633.01,412.95 	"/>
	<path d="M417.05,751.38c-3.2,1.59-6.04,2.82-8.5,3.77c-4.95,1.86-9.36,2.81-13.26,2.81c-6.8,0-12.08-1.71-15.93-5.17
		c-3.83-3.45-5.79-8.25-5.79-14.44c0-8.1,2.94-16.05,8.74-23.9c5.26-7.1,11.94-12.95,20.09-17.5c8.15-4.57,15.81-6.88,22.97-6.88
		c8.28,0,12.42,3.33,12.42,9.99c0,4.26-1.29,7.85-3.83,10.75c-1.52,1.76-4.35,3.91-8.54,6.56c-3.98,2.5-7.76,3.76-11.44,3.76
		c-0.87,0-1.46-0.21-1.78-0.66c-0.33-0.44-0.72-1.54-1.18-3.27c-0.87,0-1.74,0.41-2.6,1.22c-0.88,0.81-1.33,1.71-1.33,2.71
		c0,0.82,0.57,1.45,1.74,1.92c0.9,0.35,1.72,0.51,2.44,0.51c6.14,0,12.67-2.79,19.6-8.4c7.29-5.86,10.95-11.81,10.95-17.82
		c0-3.05-1.3-5.53-3.86-7.44c-2.59-1.95-5.84-2.89-9.79-2.89c-8.05,0-16.65,2.69-25.81,8.09c-9.14,5.41-16.73,12.14-22.74,20.25
		c-6.41,8.71-9.6,17.24-9.6,25.73c0,6.06,2.01,10.92,6.01,14.67c4.04,3.67,9.34,5.53,15.92,5.53c6.14,0,13.57-2.03,22.32-6.12
		c4.94-2.34,7.44-4.04,7.44-5.17c0-0.39-0.19-0.6-0.54-0.6C421,749.39,419.61,750.06,417.05,751.38"/>
	<path d="M483.9,755.41c-1.19,0-2.78-0.62-4.85-1.9c-0.13-0.08-0.37-0.11-0.66-0.11c1.96-1.35,4.26-3.14,6.74-5.15
		c0.13-0.11,0.27-0.23,0.39-0.33c1.13-0.92,2.21-1.78,3.44-2.84c0.35-0.1,0.86-0.17,1.55-0.17c1.42,0,2.13,0.7,2.13,2.1
		c0,1.62-0.84,3.34-2.45,5.18C488.32,754.35,486.22,755.41,483.9,755.41 M465.76,748.5c0-1.27,0.47-2.44,1.4-3.55
		c0.93-1.08,2.01-1.6,3.17-1.6c1,0,1.47,0.5,1.47,1.47c0,2.45-1.61,5-4.9,7.63C466.17,751.75,465.76,750.43,465.76,748.5
		 M458.25,756.89c-1.64,0-2.45-0.99-2.45-2.96c0-3.27,3.24-6.4,9.72-9.38c-0.99,0.97-1.51,2.62-1.51,5.02
		c0,1.67,0.54,3.08,1.56,4.19C462.99,755.85,460.52,756.89,458.25,756.89 M430.09,747.98c0-2.29,0.7-5.36,2.19-9.27
		c1.6-4.43,3.64-8.48,6.21-12.17c3.75-5.42,8.48-10.59,14.27-15.56c5.77-4.96,10.12-7.55,13.09-7.79c2.83-0.25,4.2,0.76,4.2,3
		c0,3.36-1.33,7-4.11,10.91c-1.97,2.94-5.32,6.69-9.96,11.3c-4.86,4.78-10.19,9.56-16.1,14.35c-4.78,3.85-7.93,6.18-9.46,6.98
		C430.22,749.38,430.09,748.8,430.09,747.98 M507.07,745.47c1.51-1.6,2.75-2.38,3.69-2.38c0.64,0,0.93,0.19,0.93,0.6
		c0,0.43-0.48,0.93-0.75,1.4c-2.4,1.78-4.43,3.21-6.07,4.26C504.98,748.25,505.68,746.97,507.07,745.47 M532.51,742.99
		c-6.01,4.52-9.6,7.15-10.76,7.91c-5.39,3.61-9.52,5.4-12.43,5.4c-1.1,0-2.1-0.31-2.96-0.88c-1.21-0.74-1.74-1.85-1.56-3.3
		c2.41-1.15,4.46-2.45,6.1-3.91c0.99-0.79,1.96-1.68,2.95-2.57c0.97-0.91,1.46-1.85,1.46-2.85c0-0.61-0.3-1.19-0.87-1.7
		c-0.59-0.48-1.19-0.72-1.86-0.72c-2.1,0-4.55,1.51-7.33,4.55c-2.14,2.34-3.18,4.44-3.68,6.45c-4.81,2.88-8.86,4.48-11.9,4.48
		c1.29-0.69,2.75-2.14,4.38-4.32c1.64-2.19,2.44-4.09,2.44-5.63c0-2.47-1.29-3.71-3.94-3.71c-1.12,0-2.19,0.38-3.23,0.93
		c-0.06-0.07-0.07-0.2-0.18-0.21c-0.24-0.12-0.42-0.11-0.51,0.08c-0.92,0.97-2.03,1.95-3.15,2.94c-4.67,3.57-9.17,6.53-13.43,8.65
		c-0.39,0.11-0.96,0.41-1.27,0.41c-1.06,0-1.92-0.32-2.59-1.05c3.22-2.72,4.87-5.55,4.87-8.49c0-2.56-1.42-3.87-4.2-3.87
		c-1.43,0-3.05,0.48-4.81,1.35c-0.14-0.01-0.3-0.02-0.44,0.07c-0.96,0.72-1.72,1.29-2.56,1.92c-0.85,0.57-1.6,0.93-2.51,1.67
		c-0.42,0.35-0.72,0.68-1.09,1.03c-2.59,1.95-4.19,3.14-4.51,3.36c-5.48,3.55-10.15,5.32-13.99,5.32c-2.07,0-3.91-0.43-5.57-1.29
		c-1.66-0.91-2.58-1.97-2.68-3.25c5.54-4.03,10.34-7.69,14.36-11.04c6.22-5.18,11.79-10.43,16.72-15.73
		c7.98-8.58,11.94-15.16,11.94-19.79c0-1.22-0.41-2.25-1.25-3.08c-0.84-0.85-1.95-1.27-3.27-1.27c-4.34,0-9.99,3-17.06,9.01
		c-6.7,5.71-12.6,12.33-17.67,19.86c-5.43,8.07-8.15,14.75-8.15,20.01c0,5.72,3.71,8.58,11.12,8.58c4.31,0,9.25-1.71,14.87-5.12
		c0.33-0.23,0.8-0.59,1.16-0.84c-0.79,1.4-1.27,2.76-1.27,4.05c0,2.15,1.42,3.25,4.22,3.25c1.92,0,4.07-0.63,6.45-1.84
		c1.98-1.05,3.22-1.98,3.7-2.72c1.11,1.06,2.42,1.56,3.95,1.56c0.13,0,0.36-0.13,0.49-0.14c0.18,0.17,0.36,0.32,1.05,0.32
		c1.58-0.61,3.31-1.49,5.16-2.62c-0.11,0.23-0.17,0.51-0.17,0.87c1.46,1.4,2.42,2.26,2.89,2.51c1.27,0.84,2.85,1.28,4.8,1.28
		c5.82,0,11.31-1.73,16.57-4.73c0.35,3.09,1.99,4.87,5.4,4.87c4.19,0,9.07-1.84,14.58-5.57c2.17-1.4,6.07-4.47,11.74-9.22
		c0.23-0.23,0.35-0.54,0.35-0.86c0-0.24-0.11-0.39-0.35-0.44C532.87,742.87,532.71,742.88,532.51,742.99"/>
	<path d="M577.93,748.5c0-1.27,0.44-2.44,1.37-3.55c0.94-1.07,1.99-1.6,3.15-1.6c1,0,1.52,0.5,1.52,1.47c0,2.44-1.62,5-4.93,7.62
		C578.3,751.74,577.93,750.44,577.93,748.5 M570.42,756.9c-1.67,0-2.47-0.99-2.47-2.96c0-3.28,3.24-6.4,9.72-9.38
		c-0.99,0.96-1.49,2.62-1.49,5c0,1.68,0.54,3.09,1.55,4.19C575.11,755.86,572.69,756.9,570.42,756.9 M601.64,743.35
		c0-0.25-0.11-0.41-0.35-0.45c-0.24-0.11-0.42-0.11-0.53,0.08c-2.34,2.46-5.32,4.97-8.95,7.54c-4.18,2.96-7.17,4.47-8.91,4.47
		c-1.05,0-1.96-0.33-2.63-1.05c3.26-2.72,4.9-5.55,4.9-8.49c0-2.56-1.4-3.87-4.23-3.87c-1.42,0-3.03,0.48-4.8,1.35
		c-0.14-0.01-0.27-0.02-0.43,0.07c-0.87,0.67-1.74,1.3-2.63,1.97c-0.81,0.56-1.55,0.9-2.44,1.61c-0.39,0.33-0.68,0.66-1.04,0.99
		c-1.4,1.05-2.81,2.13-4.2,3.15c-5.12,3.48-9.19,5.22-12.14,5.22c-2.31,0-3.44-0.88-3.44-2.63c0-2.65,2.72-7.12,8.15-13.33
		c0.56-0.64,4.49-4.79,11.81-12.46h17.04h3.95c2.08-0.26,3.14-0.94,3.14-2.03l-21.45-0.88l7.11-6.31c0.18-0.17,0.18-0.45,0-0.85
		c-0.23-0.36-0.49-0.53-0.79-0.53c-0.93,0-1.62,0.22-2.02,0.61l-7.25,7.07h-31.22c-0.98,0-1.56,0.25-1.67,0.72
		c-0.25,0.92,0.04,1.39,0.78,1.39l29.23,0.81c-3.91,4.11-7.86,8.21-11.8,12.26c-5.48,6.24-8.24,10.96-8.24,14.18
		c0,1.37,0.42,2.56,1.28,3.57c0.85,0.98,1.95,1.47,3.28,1.47c3.54,0,8.03-1.84,13.39-5.58c0.2-0.13,0.61-0.47,0.85-0.63
		c-0.62,1.23-1.03,2.44-1.03,3.58c0,2.16,1.4,3.25,4.18,3.25c1.94,0,4.09-0.63,6.5-1.84c1.97-1.04,3.2-1.97,3.64-2.72
		c1.11,1.08,2.44,1.58,3.93,1.58c2.17,0,5.41-1.53,9.73-4.63c3.94-2.72,6.93-5.28,8.93-7.69
		C601.53,744.08,601.64,743.77,601.64,743.35"/>
	<path d="M630.96,750.26c-4.56,3.71-7.9,5.6-9.99,5.6c-2.83,0-4.22-0.91-4.22-2.7c0-1.95,0.96-4.06,2.83-6.4
		c1.91-2.33,2.87-3.4,2.87-3.15c0-0.66-0.51-0.91-1.48-0.8c-1.17,0.54-2.57,2.02-4.22,4.38c-1.79,2.75-2.7,5.24-2.7,7.47
		c0,2.63,1.28,3.89,3.81,3.89c2.58,0,6.14-1.47,10.69-4.46l-26.91,29.78c-3.07,3.3-4.55,6.21-4.55,8.74c0,0.74,0.08,1.77,0.33,3.05
		c1.88,0,3.17-0.9,3.92-2.72c0.08-0.31,0.05-0.75-0.07-1.35c-0.14-0.61-0.18-1.06-0.18-1.37c0-1.07,1.09-3.09,3.3-6.02
		c5.08-6.59,10.73-13.19,16.94-19.84c2.16-2.22,6.5-6.59,13.02-13.14c3.5-3.43,5.26-5.48,5.26-6.14c0-0.25-0.32-0.42-0.9-0.42
		C638.13,744.66,635.55,746.51,630.96,750.26"/>
	<path d="M653.78,748.5c0-1.27,0.44-2.44,1.39-3.55c0.93-1.08,1.98-1.6,3.14-1.6c0.99,0,1.51,0.5,1.51,1.47c0,2.45-1.65,5-4.91,7.63
		C654.15,751.75,653.78,750.43,653.78,748.5 M646.24,756.89c-1.62,0-2.44-0.99-2.44-2.96c0-3.27,3.22-6.4,9.69-9.38
		c-0.98,0.97-1.48,2.62-1.48,5.02c0,1.67,0.54,3.08,1.58,4.19C650.96,755.85,648.5,756.89,646.24,756.89 M709.1,742.99
		c-5.63,4.25-9.19,6.88-10.63,7.87c-5.18,3.51-8.95,5.27-11.2,5.27c-0.69,0-1.43-0.51-2.2-1.48c-0.75-1.02-1.11-2.11-1.11-3.33
		c0-1.29,0.99-2.88,3-4.77c2.01-1.9,3.01-3.12,3.01-3.66c0-0.63-0.36-0.96-1.13-0.96c-0.76,0-2.13,1.27-4.08,3.76
		c-2.47,3.18-4.25,5.17-5.39,6.09c-1.15,0.9-2.7,1.77-4.57,2.65c-1.72,0.75-2.77,1.15-3.18,1.15c-0.99,0-1.49-0.9-1.49-2.71
		c0-1.12,0.66-2.33,1.62-3.58c1.7-1.35,3.13-2.65,4.3-3.92c0.76-0.56,1.54-1.15,2.31-1.68c0.3-0.78,0.13-1.13-0.44-1.13
		c-0.27,0.18-0.43,0.3-0.69,0.47c-0.05-0.04-0.05-0.11-0.11-0.12c-0.23-0.12-0.39-0.11-0.51,0.08c-0.5,0.53-1.16,1.08-1.73,1.61
		c-2.96,1.99-5.34,3.75-6.52,4.96c-0.3,0.31-0.42,0.63-0.66,0.94c-0.01,0.01-0.01,0.01-0.01,0.01c-4.2,2.96-7.19,4.47-8.92,4.47
		c-1.05,0-1.92-0.32-2.63-1.05c3.27-2.72,4.9-5.55,4.9-8.49c0-2.56-1.39-3.87-4.19-3.87c-2.79,0-6.22,1.68-10.33,5.02
		c-4.19,3.57-6.28,6.82-6.28,9.79c0,2.15,1.4,3.25,4.2,3.25c1.92,0,4.08-0.63,6.43-1.84c2.02-1.05,3.24-1.98,3.71-2.72
		c1.11,1.06,2.41,1.56,3.94,1.56c1.79,0,4.5-1.33,7.81-3.49c-0.17,0.61-0.38,1.21-0.38,1.85c0,0.97,0.36,1.82,1.09,2.54
		c0.72,0.69,1.58,1.02,2.48,1.02c0.9,0,2.4-0.5,4.65-1.48c2.63-1.22,4.69-2.63,6.23-4.19c0.33,4.19,1.84,6.31,4.53,6.31
		c4.61,0,12.86-4.99,24.76-14.98c0.23-0.21,0.35-0.51,0.35-0.86c0-0.24-0.12-0.39-0.35-0.45
		C709.48,742.87,709.33,742.88,709.1,742.99"/>
	<path d="M553.16,406.63c-3.33,3.37-7.42,5.05-12.2,5.05c-4.81,0-8.89-1.68-12.24-5.05c-3.32-3.34-5.03-7.39-5.03-12.21
		s1.71-8.89,5.03-12.23c3.36-3.37,7.43-5.05,12.24-5.05c4.78,0,8.86,1.68,12.22,5.05c3.37,3.34,5.04,7.42,5.04,12.23
		S556.56,403.29,553.16,406.63 M608.71,416.12v-41.58c-15.66,8.35-28.97,12.53-39.86,12.54c-2.54,0-4.66-0.49-6.76-1.02
		c1.1-1.79,2.4-3.56,4.14-5.3c7.78-7.8,20.13-14.21,37.05-19.34L573.89,332c-5.11,16.96-11.55,29.31-19.31,37.08
		c-1.74,1.76-3.52,3.07-5.32,4.17c-0.53-2.1-1.03-4.22-1.03-6.78c0-10.99,4.2-24.27,12.58-39.88h-41.59
		c8.34,15.61,12.53,28.89,12.53,39.88c0,2.56-0.5,4.68-1.03,6.78c-1.79-1.1-3.57-2.41-5.33-4.17c-7.75-7.76-14.18-20.11-19.31-37.08
		l-29.38,29.42c16.94,5.12,29.29,11.54,37.06,19.34c1.73,1.74,3.03,3.51,4.13,5.29c-2.09,0.51-4.2,1.02-6.76,1.02
		c-11.01,0-24.27-4.18-39.88-12.53v41.58c15.61-8.36,28.87-12.54,39.88-12.54c2.56,0,4.67,0.5,6.77,1.03
		c-1.1,1.78-2.41,3.56-4.14,5.3c-7.69,7.69-20.07,14.14-37.06,19.3l29.38,29.42c5.14-16.93,11.56-29.29,19.31-37.05
		c1.74-1.74,3.52-3.06,5.32-4.16c0.54,2.1,1.04,4.23,1.04,6.78c0,10.88-4.19,24.16-12.53,39.82h41.59
		c-8.37-15.52-12.58-28.83-12.58-39.82c0-2.56,0.5-4.68,1.03-6.78c1.79,1.1,3.57,2.41,5.32,4.16c7.76,7.76,14.2,20.13,19.31,37.05
		l29.4-29.42c-17.02-5.16-29.34-11.61-37.05-19.3c-1.74-1.74-3.05-3.52-4.14-5.3c2.09-0.53,4.22-1.03,6.76-1.03
		C579.86,403.57,593.14,407.75,608.71,416.12"/>
</g>
</svg>
