<?xml version="1.0" encoding="utf-8"?>
<!-- Generator: Adobe Illustrator 27.2.0, SVG Export Plug-In . SVG Version: 6.00 Build 0)  -->
<svg version="1.1" id="Layer_1" xmlns="http://www.w3.org/2000/svg" xmlns:xlink="http://www.w3.org/1999/xlink" x="0px" y="0px"
	 viewBox="0 0 1080 1080" style="enable-background:new 0 0 1080 1080;" xml:space="preserve">
<g>
	<path d="M699.86,478.76c0.11-1.04,0.18-2.1,0.27-3.16l-52.96,33.15l52.12-42.61l-61.67,22.97l59.77-31.63l-65.92,9.2l62.73-17.45
		l-64.63-4.31l66.37-4.43l-64.19-18.87l64.5,9.97l-58.5-31.2l57.43,21.62c-0.31-1.11-0.62-2.21-0.95-3.31l-46.25-38.91l42.22,27.26
		c-2.59-6.58-5.62-12.93-9.07-19.03l-20.36-25.06l11.02,10.62c-24.98-34.4-64-57.93-108.68-62.1c-4.09,0-7.62,8.5-11.22,13.21
		c10.27,0.03,19.8-0.96,29.69,1.26c-3.1,4-7.01,6.31-10.75,9.91c1.94,0.62,3.3,1.04,4.64,1.49c7.41,2.49,14.28,6.06,19.11,12.31
		c5.69,7.36,11.3,14.72,18.63,20.55c2.11,1.68,1.29,2.44-0.9,2.88c-2.27,0.44-4.49,1.29-6.77,1.51c-4.31,0.4-4.39,2.05-1.84,4.9
		c0.67,0.75,1.18,1.66,1.7,2.53c12.31,20.52,18.42,42.09,11.32,65.97c-1.11,3.74-1.59,7.66-2.5,11.45
		c-1.11,4.62-0.01,8.63,3.15,12.08c4.41,4.8,8.81,9.63,13.37,14.28c8.01,8.15,5.91,18.08-4.91,22.16c-2.27,0.86-2.73,1.94-1.55,3.82
		c1.7,2.69,3.51,5.32,5.31,7.95c3.67,5.37,3.47,8.36-1.01,13.05c-0.79,0.83-1.69,1.16-0.82,2.75c3.71,6.81,3.51,7.64-2.77,12.39
		c-2.85,2.15-4.52,4.51-4.46,8.34c0.26,15.4-5.91,22.49-21.25,24.8c-12.16,1.82-24.32,0.71-36.46-0.26
		c-11.5-0.91-16.77,2.86-19.59,14.24c-1.58,6.33-2.32,12.79-2.82,19.27c2.79,0.15,5.59,0.24,8.43,0.24
		c61.47,0,114.38-36.55,138.28-89.08l-10.88,15.33l17.17-31.52c1.91-5.94,3.45-12.04,4.64-18.26l-37.27,35.88L699.86,478.76z"/>
	<path d="M408.93,518.95c-0.03,0.05-0.06,0.09-0.09,0.14l0.2,0.13C409,519.12,408.96,519.04,408.93,518.95"/>
	<path d="M425.83,512.57l-16.75,5.54c0,0.01,0.01,0.03,0.01,0.05l16.76-5.55L425.83,512.57z"/>
	<polygon points="427.09,480.98 427.06,480.94 418.65,497.37 418.71,497.36 	"/>
	<polygon points="429.88,475.43 427.15,480.77 427.18,480.8 429.93,475.43 	"/>
	<path d="M441.6,455.51c-0.01,0.01-0.03,0.01-0.04,0.03l18.76,25.41l0.07,0.01L441.6,455.51z"/>
	<path d="M418.13,498.4l-9.64,18.83c0.01,0.01,0.03,0.01,0.04,0.02l9.62-18.8L418.13,498.4z"/>
	<polygon points="418.59,497.48 418.18,498.3 418.2,498.34 418.65,497.47 	"/>
	<polygon points="425.92,512.54 425.94,512.58 440.67,507.7 440.67,507.66 	"/>
	<polygon points="460.55,481.18 460.48,481.16 464.28,486.32 464.33,486.3 	"/>
	<polygon points="464.39,486.38 464.34,486.4 467.14,490.18 467.18,490.15 	"/>
	<path d="M472.5,497.37l-5.22-7.07l-0.04,0.03l5.22,7.07C472.48,497.38,472.49,497.38,472.5,497.37"/>
	<path d="M440,455.65l-10.03,19.61l0.05,0.01l10.03-19.59C440.03,455.67,440.01,455.66,440,455.65"/>
	<path d="M472.01,498.71l-20.59,5.47c0.01,0.02,0.01,0.03,0.01,0.05l20.58-5.47C472.01,498.75,472.01,498.73,472.01,498.71"/>
	<path d="M448.82,504.96l-8.1,2.68v0.05l8.11-2.68C448.83,504.99,448.83,504.97,448.82,504.96"/>
	<polygon points="577.49,447.98 578.73,441.55 578.69,441.52 577.44,447.97 	"/>
	<polygon points="545.31,500.32 545.36,500.34 551.55,493.95 551.49,493.94 	"/>
	<path d="M551.63,493.86l20.17-20.81c-0.01-0.01-0.03-0.01-0.03-0.03l-20.2,20.83H551.63z"/>
	<path d="M580.82,430.74c-0.01-0.01-0.03-0.01-0.05-0.01l-2.06,10.69l0.04,0.03L580.82,430.74z"/>
	<path d="M573.08,470.53c0.01,0,0.03,0.01,0.05,0.01l4.34-22.46l-0.05-0.01L573.08,470.53z"/>
	<path d="M523.67,522.64c0.01,0.01,0.03,0.02,0.04,0.03l21.58-22.26l-0.05-0.01L523.67,522.64z"/>
	<path d="M581.99,340.14l-0.19,9.04c0.02,0,0.03,0.01,0.05,0.01l0.19-9.04C582.03,340.15,582.01,340.14,581.99,340.14"/>
	<path d="M582.1,349.24c0.01,0,0.03,0.01,0.05,0.01l1.6-8.24c-0.01-0.01-0.03-0.02-0.04-0.03L582.1,349.24z"/>
	<path d="M550.82,316.52l7.13-4.11c-0.03,0-0.06,0-0.09-0.01l-7.07,4.08C550.8,316.49,550.82,316.5,550.82,316.52"/>
	<path d="M537.33,355.39l5.38-16.49l-0.05,0.01l-5.38,16.47C537.3,355.39,537.32,355.39,537.33,355.39"/>
	<path d="M486.52,358.24l-3.7-17.82h-0.05l3.71,17.82C486.49,358.25,486.5,358.25,486.52,358.24"/>
	<path d="M499.72,359.31l-10.85,0.71c0,0.01,0.01,0.03,0.01,0.05l10.82-0.71L499.72,359.31z"/>
	<polygon points="547.75,323.51 547.71,323.47 542.7,338.82 542.75,338.82 	"/>
	<path d="M482.8,340.34l-2.36-11.39c-0.01,0.01-0.03,0.01-0.05,0.02l2.36,11.36L482.8,340.34z"/>
	<path d="M449.16,362.9l-0.05,0.01l-1.7,7.7c0.02,0,0.03,0,0.05,0.01L449.16,362.9z"/>
	<polygon points="451.34,352.99 451.31,352.93 449.13,362.85 449.17,362.85 	"/>
	<path d="M451.37,352.85l1.19-5.39c-0.02,0.02-0.04,0.03-0.06,0.05l-1.16,5.27L451.37,352.85z"/>
	<path d="M433.91,366.07c-0.01,0.01-0.02,0.03-0.03,0.04l11.14,5.64c0.01-0.01,0.01-0.02,0.02-0.03L433.91,366.07z"/>
	<polygon points="508.69,358.77 508.68,358.73 499.91,359.3 499.9,359.35 	"/>
	<path d="M535.2,357.05c0-0.01-0.01-0.03-0.01-0.05l-26.48,1.72l0.01,0.05L535.2,357.05z"/>
	<path d="M547.75,323.36l0.03,0.05l1.72-5.26c-0.01-0.01-0.03,0-0.04-0.01L547.75,323.36z"/>
	<path d="M411.57,437.7l-5.28-22.54c-0.01,0.03-0.02,0.05-0.03,0.08l5.26,22.46H411.57z"/>
	<path d="M411.58,437.74h-0.05l7.9,33.73c0.01,0,0.03-0.01,0.05-0.01L411.58,437.74z"/>
	<path d="M398.46,459.81c0,0.02,0,0.03,0,0.05l19.71,12.52c0.01-0.01,0.02-0.03,0.03-0.04L398.46,459.81z"/>
	<polygon points="467.25,550 467.23,550.04 478.4,549.74 478.44,549.7 	"/>
	<path d="M440.7,455.84c-0.01,0-0.01,0-0.02,0v21.42l0.04,0.01v-21.44C440.71,455.84,440.71,455.84,440.7,455.84"/>
	<path d="M440.72,538.12v-21.16h-0.05v21.16c0.01,0,0.01-0.01,0.03-0.01C440.71,538.12,440.72,538.12,440.72,538.12"/>
	<polygon points="440.72,507.69 440.68,507.7 440.68,516.92 440.72,516.92 	"/>
	<polygon points="440.72,477.46 440.68,477.45 440.68,492.03 440.72,492.02 	"/>
	<path d="M453,551.07c-0.01,0.01-0.01,0.03-0.01,0.04l11.72,4.93l0.02-0.05L453,551.07z"/>
	<polygon points="440.68,492.13 440.68,494.7 440.72,494.75 440.72,492.11 	"/>
	<polygon points="470.8,558.55 464.77,556.02 464.75,556.06 470.76,558.59 	"/>
	<path d="M467.2,550l-14.09,0.38c0,0.01,0.01,0.03,0.01,0.05l14.06-0.38L467.2,550z"/>
	<polygon points="440.72,495.01 440.68,494.97 440.68,507.66 440.72,507.64 	"/>
	<polygon points="440.72,507.64 440.68,507.65 440.68,507.71 440.72,507.69 	"/>
	<polygon points="451.45,438.78 431.63,438.24 431.65,438.29 451.42,438.82 	"/>
	<path d="M481.03,516.52c-0.01-0.01-0.03-0.01-0.05-0.01l-7.79,18.93l0.05-0.01L481.03,516.52z"/>
	<polygon points="512.81,385.84 512.85,385.82 512.05,380.55 512.01,380.59 	"/>
	<path d="M479.97,515l-13.94,0.68l-0.02,0.05l13.96-0.68C479.97,515.04,479.97,515.02,479.97,515"/>
	<path d="M409.09,518.46c0,0.01-0.01,0.03-0.01,0.05l19.45-0.95l-0.02-0.04L409.09,518.46z"/>
	<polygon points="510.84,372.62 508.73,358.77 508.69,358.77 510.79,372.6 	"/>
	<polygon points="521.66,443.96 521.7,443.95 517.97,419.45 517.94,419.52 	"/>
	<polygon points="455.65,438.89 453.99,438.85 454.02,438.89 455.72,438.94 	"/>
	<polygon points="473.17,535.61 473.12,535.62 472.93,536.09 472.99,536.04 	"/>
	<polygon points="513.96,393.42 514.02,393.49 512.86,385.91 512.82,385.93 	"/>
	<polygon points="446.99,516.62 446.98,516.66 465.96,515.74 465.98,515.68 	"/>
	<polygon points="516.57,410.24 515.81,405.23 515.76,405.22 516.52,410.26 	"/>
	<polygon points="467.18,550.04 464.73,556 464.77,556.02 467.24,550.04 	"/>
	<polygon points="472.97,536.12 472.9,536.16 467.2,550 467.25,549.99 	"/>
	<polygon points="517.91,419.37 517.95,419.3 516.58,410.28 516.53,410.3 	"/>
	<polygon points="479.54,439.58 479.55,439.54 456.01,438.9 456.08,438.95 	"/>
	<path d="M411.53,437.74l-0.01-0.05l-10.87-0.29c-0.01,0.01-0.01,0.03-0.01,0.05L411.53,437.74z"/>
	<path d="M521.49,451.32c0.01-0.01,0.01-0.03,0.01-0.05l-17-4.81c-0.01,0.01-0.02,0.03-0.03,0.04L521.49,451.32z"/>
	<polygon points="510.81,372.71 512,380.54 512.04,380.5 510.86,372.74 	"/>
	<polygon points="431.41,438.24 420.5,437.94 420.5,437.98 431.44,438.28 	"/>
	<path d="M508.72,358.72l-2.23-14.63c-0.02,0-0.03,0.01-0.05,0.01l2.23,14.63L508.72,358.72z"/>
	<polygon points="446.8,516.62 440.72,516.92 440.72,516.97 446.79,516.67 	"/>
	<polygon points="515.79,405.13 514.03,393.58 513.97,393.51 515.74,405.13 	"/>
	<path d="M522.67,450.28l-0.96-6.29l-0.05,0.01l0.96,6.29C522.63,450.29,522.65,450.28,522.67,450.28"/>
	<path d="M453.79,438.89h0.01v-0.01C453.79,438.88,453.79,438.89,453.79,438.89"/>
	<path d="M502.34,445.9c0-0.01,0.01-0.03,0.01-0.05l-22.27-6.3l-0.29-0.01l0.03,0.05l0.26,0.01L502.34,445.9z"/>
	<polygon points="420.32,437.98 420.32,437.93 411.57,437.7 411.58,437.74 	"/>
	<polygon points="440.68,516.92 428.62,517.51 428.64,517.56 440.68,516.97 	"/>
	<polygon points="508.69,358.77 508.73,358.77 508.73,358.73 508.68,358.73 	"/>
	<polygon points="411.57,437.7 411.52,437.7 411.54,437.74 411.58,437.74 	"/>
	<polygon points="467.23,550.04 467.25,550 467.2,550 467.18,550.04 	"/>
	<rect x="440.68" y="516.92" width="0.05" height="0.05"/>
	<polygon points="464.77,556.02 464.73,556 464.71,556.05 464.75,556.06 	"/>
	<path d="M516.95,375.82l0.05,0.02l18.65-17.78c-0.01-0.01-0.01-0.03-0.03-0.04L516.95,375.82z"/>
	<path d="M516.57,410.28l6.53-2.74c-0.01-0.01-0.01-0.03-0.01-0.04l-6.53,2.73L516.57,410.28z"/>
	<polygon points="483.82,407.4 468.78,421.74 468.8,421.78 483.81,407.48 	"/>
	<path d="M476.21,476.02l12.64,10.09l0.09,0.01l-12.71-10.14C476.23,475.99,476.22,476,476.21,476.02"/>
	<polygon points="486.91,404.51 490.87,400.74 490.82,400.73 486.89,404.47 	"/>
	<path d="M472.72,499.59l-4.53,10.82l0.04,0.01l4.53-10.82C472.75,499.6,472.73,499.6,472.72,499.59"/>
	<polygon points="495.64,370.89 495.62,370.94 507.17,385.14 499.61,392.35 499.75,392.28 507.2,385.18 509.19,387.63 
		509.23,387.61 507.23,385.14 512.01,380.59 512,380.54 507.2,385.11 	"/>
	<polygon points="509.25,387.7 513.97,393.51 513.96,393.42 509.29,387.68 	"/>
	<path d="M472.8,428.59l-18.01,7.55c0,0.02,0.01,0.03,0.01,0.05l18.03-7.56L472.8,428.59z"/>
	<path d="M488.16,361.69c-0.01,0.01-0.03,0.01-0.04,0.03l7.37,9.06l0.02-0.05L488.16,361.69z"/>
	<path d="M468.65,421.87l-14.3,13.63c0.01,0.01,0.02,0.03,0.03,0.04l14.3-13.63L468.65,421.87z"/>
	<path d="M484.93,360.33c0-0.01-0.01-0.03-0.01-0.05l-28.73,2.06l0.02,0.05L484.93,360.33z"/>
	<path d="M548.38,441.17c0-0.01-0.01-0.03-0.01-0.05l-25.13,2.66v0.05L548.38,441.17z"/>
	<polygon points="456.09,362.35 449.17,362.85 449.16,362.89 456.11,362.4 	"/>
	<polygon points="488.55,525.67 488.57,525.71 495.36,521.19 495.3,521.17 	"/>
	<path d="M477.9,497.77l-0.01-0.05l-3.4,0.48c0.01,0.01,0.01,0.03,0.01,0.05L477.9,497.77z"/>
	<path d="M569.07,409.79l-11.18,18.24l0.04,0.02l11.18-18.25c0.01-0.01,0.01-0.02,0-0.03l-0.34-0.55h-0.05L569.07,409.79z"/>
	<polygon points="468.12,510.58 465.98,515.69 466.03,515.69 468.16,510.59 	"/>
	<polygon points="568.67,409.13 568.72,409.13 568.69,409.08 568.6,409.02 	"/>
	<polygon points="568.49,408.84 568.58,408.9 552.06,381.85 552.02,381.88 	"/>
	<path d="M456.76,537.79l-0.05,0.01l-4.64,11.08c0.01,0.01,0.03,0.01,0.05,0.01L456.76,537.79z"/>
	<polygon points="501.23,517.27 501.2,517.24 495.95,520.74 479.44,504.48 479.46,504.56 495.91,520.77 495.49,521.04 
		495.53,521.06 495.94,520.8 496.79,521.63 496.91,521.68 495.98,520.77 	"/>
	<path d="M521.24,494.46l1.47,27.89c0.01,0,0.03-0.01,0.05-0.01l-1.47-27.89C521.27,494.45,521.25,494.46,521.24,494.46"/>
	<path d="M501.28,517.19l0.03,0.03l13.36-8.91c-0.01-0.01-0.03-0.01-0.04-0.03L501.28,517.19z"/>
	<path d="M474.15,499.33l5.2,5.12l-0.02-0.09l-5.15-5.07C474.17,499.31,474.16,499.32,474.15,499.33"/>
	<polygon points="478.36,499.49 478.38,499.53 489.08,501.83 489.03,501.78 	"/>
	<path d="M474.49,498.65c0,0.01-0.01,0.03-0.01,0.05l3.8,0.81l-0.01-0.05L474.49,498.65z"/>
	<polygon points="474.2,535.29 488.49,525.76 488.47,525.72 474.09,535.31 	"/>
	<path d="M489.22,501.86l25.11,5.4c0.01-0.02,0.01-0.03,0.01-0.05l-25.17-5.41L489.22,501.86z"/>
	<path d="M504.64,445.81l17.02-1.8l-0.01-0.05l-17.02,1.8C504.64,445.77,504.64,445.79,504.64,445.81"/>
	<polygon points="485.05,496.71 477.98,497.71 477.99,497.76 485.08,496.75 	"/>
	<path d="M502.67,446.71l-11.33,11.52l0.02,0.04l11.34-11.53C502.7,446.73,502.69,446.72,502.67,446.71"/>
	<polygon points="548.63,376.32 551.97,381.8 552.01,381.77 548.68,376.32 	"/>
	<path d="M548.58,376.24l0.05-0.01l-10.97-17.96c-0.01,0.01-0.03,0.02-0.04,0.03L548.58,376.24z"/>
	<polygon points="481.68,424.86 481.67,424.92 492.98,420.18 492.96,420.13 	"/>
	<polygon points="473.75,535.54 472.99,536.04 472.97,536.12 473.86,535.52 	"/>
	<path d="M518.34,492.04c0-0.01-0.01-0.03-0.01-0.04l-18.69,2.65l-10.55-8.42l-0.09-0.02l10.58,8.44l-14.43,2.04l0.03,0.04
		l14.45-2.05l14.99,11.97c0.01-0.01,0.03-0.01,0.04-0.03l-14.97-11.95L518.34,492.04z"/>
	<path d="M550.82,439.58c0.01,0.01,0.03,0.02,0.04,0.03l7.02-11.47l-0.04-0.03L550.82,439.58z"/>
	<polygon points="491.21,458.37 489.6,460.02 489.63,460.04 491.24,458.41 	"/>
	<polygon points="486.82,404.54 484.03,407.2 484.02,407.27 486.84,404.58 	"/>
	<polygon points="466.01,515.73 465.96,515.73 461.1,527.33 461.17,527.29 	"/>
	<path d="M449.13,362.85l-13.25,0.95c-0.01,0.01-0.03,0.03-0.04,0.05l13.28-0.95L449.13,362.85z"/>
	<polygon points="523.15,443.84 523.15,443.8 521.7,443.95 521.71,444 	"/>
	<polygon points="460.98,527.61 456.79,537.6 456.85,537.59 461.05,527.57 	"/>
	<polygon points="490.9,400.65 490.96,400.67 499.52,392.49 499.38,392.56 	"/>
	<path d="M472.93,536.09l-20.12,13.42c0.01,0.01,0.01,0.03,0.03,0.04l20.06-13.38L472.93,536.09z"/>
	<path d="M523.64,405.39c0.01-0.01,0.03-0.02,0.04-0.03l-9.66-11.88l0.01,0.09L523.64,405.39z"/>
	<polygon points="512.04,380.5 512.05,380.55 516.92,375.91 516.88,375.88 	"/>
	<polygon points="516.52,410.25 493.04,420.1 493.05,420.14 516.53,410.3 	"/>
	<polygon points="481.48,424.95 472.97,428.52 473,428.56 481.48,425 	"/>
	<path d="M476.13,473.78l13.38-13.61l-0.04-0.02l-13.37,13.6C476.1,473.76,476.11,473.76,476.13,473.78"/>
	<polygon points="449.17,362.85 449.13,362.86 449.11,362.9 449.17,362.89 	"/>
	<polygon points="513.97,393.51 514.03,393.58 514.02,393.49 513.96,393.42 	"/>
	<polygon points="466.03,515.68 465.97,515.68 465.96,515.73 466.01,515.73 	"/>
	<polygon points="473,536.04 472.93,536.09 472.9,536.16 472.96,536.11 	"/>
	<polygon points="516.53,410.3 516.58,410.28 516.57,410.23 516.52,410.25 	"/>
	<polygon points="512,380.54 512.01,380.59 512.05,380.55 512.04,380.5 	"/>
	<rect x="521.66" y="443.95" transform="matrix(0.9899 -0.1416 0.1416 0.9899 -57.6003 78.3278)" width="0.05" height="0.05"/>
	<path d="M476.43,483.99c-0.01,0.03-0.01,0.06-0.02,0.09l12.6,2.14l-0.15-0.12L476.43,483.99z"/>
	<path d="M518.36,491.11l-29.41-4.99l0.15,0.11l29.25,4.97C518.35,491.17,518.36,491.15,518.36,491.11"/>
	<polygon points="488.86,486.1 489,486.22 489.09,486.23 488.95,486.11 	"/>
	<path d="M516.06,506.55c0.03,0.02,0.05,0.03,0.08,0.05l4.12-12.29c-0.03-0.01-0.06-0.01-0.09-0.02L516.06,506.55z"/>
	<path d="M515.43,508.61c-0.02,0-0.03-0.01-0.05-0.01l-5.67,16.9c0.03,0.01,0.07,0.01,0.09,0.02l5.67-16.92
		C515.45,508.61,515.44,508.61,515.43,508.61"/>
	<path d="M494.95,532.13c0.01,0.03,0.01,0.06,0.02,0.09l26.76-8.35c-0.01-0.03-0.01-0.06-0.02-0.09L494.95,532.13z"/>
	<polygon points="489.03,501.78 489.17,501.81 485.18,496.74 485.08,496.76 	"/>
	<path d="M475.83,485l9.22,11.72l0.11-0.01l-9.25-11.76C475.88,484.96,475.85,484.98,475.83,485"/>
	<polygon points="478.36,499.49 477.99,497.76 477.9,497.77 478.27,499.47 	"/>
	<path d="M475.29,485.24c-0.03,0.01-0.06,0.01-0.09,0.02l2.7,12.46l0.09-0.01L475.29,485.24z"/>
	<polygon points="478.28,499.51 479.33,504.37 479.45,504.48 478.38,499.53 	"/>
	<path d="M507.97,525.85c0.03-0.02,0.05-0.03,0.08-0.05l-6.75-8.57l-0.08,0.05L507.97,525.85z"/>
	<path d="M492.22,531.6c0.03-0.02,0.05-0.03,0.07-0.05l-3.72-5.83l-0.07,0.05L492.22,531.6z"/>
	<path d="M482.51,516.38l5.96,9.35l0.07-0.05l-5.95-9.35C482.57,516.34,482.54,516.36,482.51,516.38"/>
	<polygon points="489.08,501.83 501.2,517.24 501.27,517.19 489.22,501.87 	"/>
	<path d="M481.26,513.32c0.03-0.01,0.06-0.01,0.09-0.02l-1.89-8.74l-0.12-0.12L481.26,513.32z"/>
	<rect x="477.9" y="497.72" transform="matrix(0.961 -0.2765 0.2765 0.961 -118.9997 151.5674)" width="0.09" height="0.05"/>
	<polygon points="479.34,504.45 479.46,504.57 479.44,504.48 479.32,504.37 	"/>
	<polygon points="501.2,517.24 501.22,517.27 501.3,517.22 501.28,517.19 	"/>
	<polygon points="478.27,499.47 478.28,499.51 478.37,499.53 478.37,499.49 	"/>
	<polygon points="489.08,501.83 489.22,501.87 489.18,501.81 489.03,501.78 	"/>
	<polygon points="488.47,525.72 488.5,525.76 488.57,525.71 488.54,525.67 	"/>
	<polygon points="485.08,496.75 485.19,496.74 485.15,496.7 485.05,496.71 	"/>
	<path d="M427.77,383.63c-0.03,0.01-0.05,0.04-0.08,0.05l5.89,12.52l0.05-0.09L427.77,383.63z"/>
	<path d="M465.51,382.89c-0.03-0.01-0.06-0.01-0.09-0.02l-5.24,22.41c0.03,0.01,0.06,0.01,0.09,0.02L465.51,382.89z"/>
	<path d="M459.24,409.31l-5.99,25.62c0.03,0,0.06,0.01,0.09,0.01l5.99-25.62C459.29,409.32,459.26,409.32,459.24,409.31"/>
	<polygon points="433.73,396.32 433.68,396.41 441.38,412.8 441.47,412.78 	"/>
	<path d="M441.55,412.94l-0.09,0.03l10.39,22.12c0.03-0.01,0.05-0.04,0.08-0.05L441.55,412.94z"/>
	<polygon points="464.28,486.31 440.72,492.03 440.72,492.12 464.34,486.39 	"/>
	<path d="M473.45,484.09l-9.12,2.21l0.06,0.08l9.08-2.2C473.46,484.15,473.46,484.12,473.45,484.09"/>
	<polygon points="440.68,492.13 440.68,492.03 438.58,492.54 438.65,492.62 	"/>
	<path d="M474.97,482.25v-5.61c-0.02,0.01-0.03,0.01-0.05,0.01c-0.02,0-0.03-0.01-0.05-0.01v5.61c0.02,0,0.03-0.01,0.05-0.01
		C474.95,482.24,474.95,482.25,474.97,482.25"/>
	<polygon points="418.59,497.48 418.65,497.37 417.79,497.58 417.83,497.66 	"/>
	<polygon points="438.37,492.59 418.71,497.35 418.65,497.47 438.44,492.67 	"/>
	<path d="M412.66,498.92l0.03-0.1l-9.58,2.32c0.01,0.03,0.01,0.06,0.02,0.09L412.66,498.92z"/>
	<polygon points="417.69,497.6 412.89,498.77 412.86,498.87 417.74,497.69 	"/>
	<polygon points="418.65,497.47 418.71,497.36 418.65,497.37 418.59,497.48 	"/>
	<polygon points="464.33,486.3 464.28,486.31 464.34,486.39 464.39,486.38 	"/>
	<polygon points="440.72,492.12 440.72,492.02 440.68,492.03 440.68,492.13 	"/>
	<path d="M523.76,492.63l21.47,7.76l0.07-0.07l-21.53-7.78C523.77,492.57,523.78,492.6,523.76,492.63"/>
	<path d="M489.9,477.49c-0.01,0.03-0.03,0.05-0.05,0.08l28.65,12.93c0.01-0.03,0.04-0.05,0.05-0.08L489.9,477.49z"/>
	<polygon points="545.31,500.32 545.24,500.39 545.29,500.4 545.36,500.34 	"/>
	<polygon points="510.67,464.93 522.17,466.24 522.18,466.15 510.63,464.83 	"/>
	<path d="M495.65,463.12c0,0.03-0.01,0.06-0.02,0.09l14.94,1.7l-0.04-0.1L495.65,463.12z"/>
	<polygon points="522.27,466.25 534.72,467.67 534.77,467.59 522.27,466.16 	"/>
	<path d="M495.16,464.11l23.97,25.48c0.02-0.03,0.05-0.03,0.07-0.05l-23.97-25.48C495.21,464.08,495.19,464.09,495.16,464.11"/>
	<path d="M523.77,490.66l47.68-18.12c-0.01-0.03-0.01-0.07-0.02-0.09l-47.68,18.12C523.77,490.6,523.76,490.64,523.77,490.66"/>
	<path d="M534.82,467.68l36.54,4.17c0-0.03,0.01-0.06,0.02-0.09l-36.52-4.16L534.82,467.68z"/>
	<path d="M550.92,442.31l21.01,28.5c0.02-0.02,0.05-0.03,0.07-0.05l-21.01-28.51C550.97,442.28,550.94,442.29,550.92,442.31"/>
	<path d="M548.99,439.69c0.03-0.02,0.05-0.03,0.08-0.05l-23.13-31.39c-0.03,0.01-0.05,0.03-0.08,0.05L548.99,439.69z"/>
	<path d="M487.25,400.09l3.57,0.64l0.08-0.08l-3.63-0.65C487.26,400.03,487.26,400.06,487.25,400.09"/>
	<polygon points="515.76,405.22 515.74,405.13 490.95,400.66 490.87,400.74 	"/>
	<path d="M523.01,406.52c0.01-0.03,0.01-0.06,0.02-0.09l-7.24-1.3l0.02,0.09L523.01,406.52z"/>
	<polygon points="515.76,405.22 515.8,405.23 515.79,405.13 515.74,405.13 	"/>
	<polygon points="490.81,400.73 490.87,400.75 490.95,400.67 490.89,400.65 	"/>
	<path d="M541.72,391.22l0.07-0.07L526,380.71c-0.01,0.02-0.03,0.05-0.05,0.07L541.72,391.22z"/>
	<path d="M510.56,464.92l9.47,24.08c0.03-0.01,0.06-0.01,0.09-0.02l-9.45-24.04L510.56,464.92z"/>
	<polygon points="510.53,464.82 510.63,464.83 507.81,457.67 507.73,457.71 	"/>
	<path d="M507.69,457.62l0.09-0.03l-4.15-10.55c-0.03,0-0.06,0.01-0.09,0.02L507.69,457.62z"/>
	<path d="M485.86,401.84c-0.03,0.01-0.06,0.01-0.09,0.02l1.05,2.68l0.07-0.07L485.86,401.84z"/>
	<polygon points="509.25,387.7 509.19,387.62 499.74,392.28 499.53,392.49 	"/>
	<path d="M523.25,443.79l1.53-35.13c-0.03,0-0.06-0.02-0.09-0.02l-1.53,35.16L523.25,443.79z"/>
	<polygon points="568.69,409.08 568.78,409.14 568.88,409.15 568.87,409.09 568.58,408.9 	"/>
	<path d="M512.86,385.91l10.71-5.28c-0.01-0.03-0.04-0.05-0.05-0.08l-10.67,5.26L512.86,385.91z"/>
	<path d="M521.19,488.79c0.03,0,0.06,0.01,0.09,0.01l0.98-22.55l-0.09-0.01L521.19,488.79z"/>
	<path d="M522.96,450.26l0.28-6.43l-0.09,0.01l-0.28,6.4C522.9,450.25,522.93,450.26,522.96,450.26"/>
	<polygon points="486.84,404.58 492.96,420.14 493.04,420.1 486.91,404.52 	"/>
	<path d="M493.06,420.14l-0.09,0.03l9.78,24.86c0.02-0.02,0.05-0.03,0.08-0.05L493.06,420.14z"/>
	<polygon points="541.79,391.27 568.6,409.02 568.49,408.84 541.86,391.21 	"/>
	<path d="M522.18,466.15l0.09,0.01l0.57-13.03c-0.03,0-0.06-0.01-0.09-0.01L522.18,466.15z"/>
	<polygon points="509.29,387.68 512.82,385.93 512.81,385.84 509.23,387.6 	"/>
	<path d="M487.1,398.62l12.29-6.06l0.22-0.21l-12.56,6.19C487.06,398.56,487.09,398.59,487.1,398.62"/>
	<polygon points="512.82,385.94 512.87,385.92 512.85,385.82 512.81,385.84 	"/>
	<polygon points="499.52,392.49 499.74,392.28 499.61,392.35 499.39,392.56 	"/>
	<polygon points="568.6,409.02 568.7,409.08 568.58,408.9 568.49,408.84 	"/>
	<polygon points="509.29,387.68 509.23,387.6 509.19,387.62 509.25,387.7 	"/>
	<polygon points="486.89,404.47 486.82,404.53 486.84,404.58 486.91,404.51 	"/>
	<polygon points="523.15,443.84 523.24,443.84 523.24,443.78 523.15,443.8 	"/>
	<polygon points="493.04,420.1 492.95,420.13 492.97,420.18 493.06,420.14 	"/>
	<polygon points="510.53,464.82 510.56,464.92 510.66,464.93 510.63,464.83 	"/>
	<polygon points="522.18,466.24 522.27,466.25 522.27,466.16 522.18,466.15 	"/>
	<path d="M561.33,373.12l19.35-20.93c-0.03-0.02-0.06-0.03-0.08-0.05l-19.35,20.93C561.28,373.09,561.31,373.1,561.33,373.12"/>
	<path d="M568.96,409.06l-8.46-32.7c-0.03,0.01-0.06,0.01-0.09,0.02l8.46,32.71l0.09,0.06l0.05,0.01l8.43-17.89
		c-0.03-0.01-0.05-0.03-0.08-0.05L568.96,409.06z"/>
	<path d="M583.47,350.67l10.36-1.7c-0.03-0.03-0.05-0.05-0.07-0.08l-10.3,1.7C583.46,350.61,583.47,350.64,583.47,350.67"/>
	<path d="M568.87,409.09l0.01,0.05l0.07,0.01c0.01,0,0.03,0.01,0.03,0.02l0.01,0.02l0.01-0.03l-0.05-0.01L568.87,409.09z"/>
	<path d="M426.31,380.27l-1.12-2.78c-0.02,0.03-0.05,0.06-0.07,0.09l1.09,2.71C426.25,380.28,426.28,380.28,426.31,380.27"/>
	<path d="M504.72,343.56c-0.02-0.02-0.04-0.05-0.06-0.07l-16.08,15.67c0.01,0.03,0.04,0.05,0.05,0.07L504.72,343.56z"/>
	<path d="M523.54,379.36c0.01-0.03,0.04-0.05,0.05-0.07l-6.6-3.45l-0.07,0.07L523.54,379.36z"/>
	<polygon points="456.09,362.35 456.19,362.35 451.37,352.85 451.34,352.99 	"/>
	<path d="M431.95,368.44l-4.41,11.82c0.03,0.01,0.06,0.01,0.09,0.02l4.51-12.08C432.08,368.29,432.02,368.37,431.95,368.44"/>
	<path d="M497.4,365.6l-8.73-4.56c-0.01,0.03-0.03,0.05-0.05,0.08l8.74,4.56L497.4,365.6z"/>
	<polygon points="510.86,372.74 516.88,375.88 516.95,375.81 510.84,372.62 	"/>
	<path d="M451.34,352.79l-1.51-2.97c-0.02,0.02-0.05,0.04-0.07,0.06l1.55,3.05L451.34,352.79z"/>
	<path d="M506.1,340.02l-1.12-21.14c-0.03,0.01-0.06,0.01-0.09,0.03l1.11,21.13C506.04,340.03,506.07,340.02,506.1,340.02"/>
	<path d="M466.95,380.35l18.96-18.47c-0.03-0.01-0.05-0.03-0.08-0.05l-18.94,18.46C466.91,380.3,466.93,380.33,466.95,380.35"/>
	<path d="M456.21,362.39l-0.1,0.01l8.96,17.64c0.03-0.01,0.05-0.03,0.08-0.05L456.21,362.39z"/>
	<path d="M456.54,344.26c-0.03,0.02-0.05,0.04-0.08,0.06l28.66,14.97c0.01-0.03,0.04-0.05,0.05-0.07L456.54,344.26z"/>
	<polygon points="510.81,372.71 510.79,372.6 497.56,365.69 497.53,365.77 	"/>
	<polygon points="451.37,352.85 451.34,352.79 451.31,352.93 451.34,352.99 	"/>
	<polygon points="510.86,372.74 510.84,372.62 510.79,372.6 510.81,372.71 	"/>
	<polygon points="456.21,362.39 456.19,362.34 456.1,362.35 456.12,362.4 	"/>
	<polygon points="516.88,375.88 516.93,375.91 516.99,375.84 516.95,375.82 	"/>
	<path d="M558.77,353.93l0.09-0.01l-0.81-14.27c-0.03,0.01-0.06,0.02-0.09,0.02L558.77,353.93z"/>
	<path d="M559.82,372.6c0.03,0,0.06-0.02,0.09-0.02l-1.05-18.56l-0.09,0.01L559.82,372.6z"/>
	<path d="M504.11,341.98c0-0.03,0.01-0.06,0.02-0.09l-21.34-1.55l0.02,0.09L504.11,341.98z"/>
	<polygon points="417.83,497.66 417.74,497.68 418.13,498.4 418.17,498.3 	"/>
	<path d="M425.88,383.46c-0.03-0.02-0.05-0.03-0.07-0.05l-14.59,19.03c-0.05,0.13-0.11,0.24-0.17,0.36L425.88,383.46z"/>
	<path d="M505.23,340.26l-9.8-18.04c-0.03,0.01-0.05,0.02-0.09,0.03l9.8,18.06C505.18,340.3,505.2,340.27,505.23,340.26"/>
	<path d="M482.77,340.43l-0.02-0.09l-19-1.39c-0.04,0.03-0.08,0.06-0.12,0.09L482.77,340.43z"/>
	<polygon points="404.73,473.56 404.62,473.56 409.8,483.08 409.87,483.01 	"/>
	<path d="M428.64,517.56l-0.1,0.01l11.32,20.81c0.02-0.01,0.05-0.03,0.07-0.05L428.64,517.56z"/>
	<path d="M425.19,381.53l-2.34-0.55c-0.02,0.03-0.04,0.05-0.05,0.08l2.37,0.55C425.18,381.59,425.18,381.56,425.19,381.53"/>
	<polygon points="417.79,497.58 414.78,492.06 414.75,492.18 417.69,497.6 	"/>
	<polygon points="418.2,498.35 418.15,498.45 425.83,512.57 425.92,512.54 	"/>
	<polygon points="409.96,483.18 409.89,483.24 414.62,491.95 414.66,491.83 	"/>
	<polygon points="425.85,512.61 428.52,517.52 428.62,517.51 425.94,512.58 	"/>
	<path d="M404.63,473.37l-6.22-11.43c0,0.06-0.01,0.12-0.01,0.18l6.12,11.25H404.63z"/>
	<polygon points="425.92,512.54 425.83,512.57 425.85,512.61 425.94,512.58 	"/>
	<polygon points="418.2,498.35 418.17,498.3 418.12,498.39 418.15,498.45 	"/>
	<polygon points="482.8,340.34 482.75,340.33 482.77,340.43 482.82,340.43 	"/>
	<polygon points="428.62,517.51 428.52,517.52 428.54,517.56 428.64,517.56 	"/>
	<polygon points="417.79,497.58 417.69,497.6 417.74,497.69 417.83,497.67 	"/>
	<path d="M551.49,493.95l0.09-0.09l-27.64-2.07c0,0.03-0.01,0.06-0.01,0.09L551.49,493.95z"/>
	<path d="M522.47,489.16c0.03,0.01,0.05,0.03,0.08,0.05l12.27-21.53l-0.1-0.01L522.47,489.16z"/>
	<path d="M577.42,448.06l0.02-0.09l-25.87-6.63c0,0.03-0.01,0.06-0.01,0.09L577.42,448.06z"/>
	<path d="M534.77,467.59l0.1,0.01l14.36-25.18c-0.03-0.02-0.05-0.04-0.08-0.05L534.77,467.59z"/>
	<polygon points="577.47,448.07 577.49,447.98 577.44,447.97 577.42,448.06 	"/>
	<polygon points="551.49,493.95 551.55,493.95 551.64,493.87 551.58,493.86 	"/>
	<polygon points="534.72,467.67 534.82,467.68 534.86,467.6 534.77,467.58 	"/>
	<path d="M504.09,444.92l13.85-25.41l-0.02-0.15l-13.9,25.5C504.04,444.88,504.06,444.91,504.09,444.92"/>
	<path d="M525.42,378.7c0.03,0.01,0.05,0.03,0.08,0.05l10.6-20.38c-0.03-0.01-0.05-0.04-0.07-0.05L525.42,378.7z"/>
	<path d="M523.97,408.44c-0.03-0.01-0.05-0.03-0.07-0.05l-5.95,10.92l0.02,0.15L523.97,408.44z"/>
	<path d="M507.81,457.67l13.72-5.42c-0.01-0.03-0.01-0.06-0.02-0.09l-13.73,5.42L507.81,457.67z"/>
	<path d="M568.92,409.23l-0.14-0.09h-0.05l0.06,0.09H568.92l11.11,17.66c0.03-0.01,0.05-0.03,0.07-0.05l-11.07-17.59l-0.09-0.01
		C568.93,409.24,568.93,409.23,568.92,409.23"/>
	<path d="M502.92,446.88l-8.07,14.8c0.03,0.01,0.05,0.03,0.07,0.05l8.07-14.8C502.96,446.92,502.94,446.9,502.92,446.88"/>
	<path d="M555.75,337.67l-13.01,1.15l-0.03,0.09l13.05-1.15C555.77,337.73,555.75,337.7,555.75,337.67"/>
	<path d="M583.01,349.68c0.02,0.02,0.03,0.05,0.05,0.08l5.8-5.52c-0.03-0.01-0.05-0.03-0.07-0.05L583.01,349.68z"/>
	<path d="M526.15,405.52c0.02,0.02,0.03,0.05,0.05,0.07l15.6-14.31l-0.08-0.05L526.15,405.52z"/>
	<path d="M524.2,451.2l24.27-9.58c-0.01-0.03-0.01-0.07-0.02-0.09l-24.27,9.58C524.19,451.14,524.19,451.18,524.2,451.2"/>
	<path d="M542.67,338.91l0.03-0.09l-34.5,3.04c0,0.03,0.01,0.06,0.01,0.09L542.67,338.91z"/>
	<path d="M526.32,407.83l31.52,20.29l0.05-0.08l-31.52-20.28C526.36,407.78,526.34,407.8,526.32,407.83"/>
	<path d="M556.61,335.83c0.03-0.02,0.05-0.03,0.07-0.05l-8.9-12.37l-0.03,0.11L556.61,335.83z"/>
	<path d="M558.86,354.01l21.27-2.84c-0.01-0.03-0.01-0.07-0.02-0.09l-21.26,2.84L558.86,354.01z"/>
	<path d="M527.57,315.25l-0.11-0.01l-20.06,25.21c0.03,0.02,0.05,0.03,0.08,0.05L527.57,315.25z"/>
	<polygon points="547.75,323.36 542.85,316.56 542.74,316.55 547.72,323.47 	"/>
	<path d="M558.09,374.86c-0.01-0.03-0.01-0.06-0.02-0.09l-9.44,1.47l0.05,0.09L558.09,374.86z"/>
	<path d="M527.7,315.08l1.16-1.45c-0.05,0.01-0.09,0.01-0.13,0.02l-1.13,1.43L527.7,315.08z"/>
	<path d="M538.4,356.75l20.37-2.72l-0.01-0.09l-20.38,2.72C538.39,356.69,538.4,356.72,538.4,356.75"/>
	<path d="M526.64,406.95l42.08,2.28l-0.06-0.09l-42.01-2.28C526.66,406.89,526.64,406.92,526.64,406.95"/>
	<polygon points="541.86,391.21 552.02,381.88 551.98,381.8 541.78,391.16 	"/>
	<path d="M542.72,316.36l-2.77-3.84c-0.03,0-0.07,0-0.11,0.01l2.75,3.82L542.72,316.36z"/>
	<path d="M507.69,457.62l-12.14,4.79c0.01,0.03,0.01,0.06,0.02,0.09l12.15-4.8L507.69,457.62z"/>
	<path d="M526.2,379.8l22.43-3.48l-0.05-0.08l-22.4,3.47C526.19,379.74,526.2,379.77,526.2,379.8"/>
	<path d="M552.01,381.77l0.05,0.08l6.51-5.98c-0.02-0.03-0.03-0.05-0.05-0.08L552.01,381.77z"/>
	<path d="M557.93,428.06l-0.05,0.08l9.32,6l-15.7,6.19c0.01,0.03,0.01,0.06,0.02,0.09l15.77-6.22l11.39,7.33l0.02-0.1l-11.3-7.27
		l11.8-4.66c-0.01-0.03-0.01-0.06-0.02-0.09l-11.88,4.68L557.93,428.06z"/>
	<polygon points="578.75,441.45 578.71,441.43 578.69,441.52 578.73,441.55 	"/>
	<polygon points="547.71,323.47 547.75,323.51 547.78,323.41 547.75,323.36 	"/>
	<polygon points="542.72,338.91 542.75,338.81 542.7,338.82 542.66,338.91 	"/>
	<polygon points="517.93,419.52 517.97,419.45 517.95,419.3 517.91,419.37 	"/>
	<polygon points="548.63,376.32 548.68,376.32 548.63,376.23 548.58,376.24 	"/>
	<polygon points="551.98,381.8 552.02,381.88 552.06,381.85 552.01,381.77 	"/>
	<polygon points="557.89,428.14 557.93,428.06 557.9,428.04 557.85,428.11 	"/>
	<polygon points="568.73,409.23 568.78,409.24 568.72,409.14 568.67,409.14 	"/>
	<path d="M568.92,409.23c0.01,0,0.01,0.01,0.02,0.01l0.09,0.01l-0.03-0.06l-0.01,0.02c-0.01,0.02-0.03,0.03-0.04,0.03h-0.01
		c-0.02,0-0.03-0.01-0.04-0.03l-0.01-0.06l-0.11-0.01L568.92,409.23z"/>
	<rect x="507.71" y="457.6" transform="matrix(0.934 -0.3574 0.3574 0.934 -130.0173 211.6727)" width="0.09" height="0.09"/>
	<polygon points="541.79,391.27 541.86,391.21 541.79,391.16 541.71,391.22 	"/>
	<path d="M568.94,409.24L568.94,409.24c0.02,0,0.04-0.01,0.05-0.03l0.01-0.03l-0.01-0.02c-0.01-0.01-0.02-0.02-0.03-0.02h-0.06
		l0.01,0.06C568.91,409.23,568.92,409.24,568.94,409.24"/>
	<polygon points="558.77,354.03 558.86,354.01 558.86,353.92 558.76,353.93 	"/>
	<path d="M483.15,515.71l12.16,5.45l0.18-0.12l-12.25-5.5C483.21,515.61,483.17,515.66,483.15,515.71"/>
	<polygon points="474.1,535.31 473.25,535.42 473.17,535.61 473.75,535.54 	"/>
	<polygon points="495.54,521.07 495.36,521.19 497.16,522 496.78,521.63 	"/>
	<path d="M478.69,549.69l13.45-15.58c-0.05-0.04-0.11-0.06-0.15-0.11l-13.55,15.69L478.69,549.69z"/>
	<path d="M461.17,527.29l-0.12,0.28l19.23-11.69c-0.03-0.05-0.07-0.1-0.1-0.15L461.17,527.29z"/>
	<path d="M496.91,521.68l0.38,0.37l10.13,4.54c0.02-0.06,0.05-0.11,0.09-0.17L496.91,521.68z"/>
	<path d="M473.86,535.52l17.71-2.35c-0.01-0.06-0.03-0.11-0.03-0.18l-17.33,2.3L473.86,535.52z"/>
	<path d="M442.35,539.52c0.01,0.06,0.03,0.12,0.03,0.18l14.33-1.9l0.09-0.19L442.35,539.52z"/>
	<polygon points="473.2,535.43 456.84,537.59 456.76,537.79 473.12,535.62 	"/>
	<path d="M461.1,527.33l-19.01,11.55c0.03,0.05,0.07,0.1,0.1,0.15l18.79-11.42L461.1,527.33z"/>
	<polygon points="470.8,558.55 470.98,558.63 478.65,549.73 478.41,549.74 	"/>
	<polygon points="470.77,558.59 470.94,558.66 470.98,558.63 470.8,558.56 	"/>
	<polygon points="478.4,549.74 478.66,549.74 478.69,549.69 478.44,549.7 	"/>
	<polygon points="473.25,535.42 473.2,535.43 473.12,535.62 473.17,535.61 	"/>
	<polygon points="456.85,537.6 456.79,537.6 456.72,537.8 456.77,537.79 	"/>
	<polygon points="473.86,535.52 474.2,535.29 474.09,535.31 473.75,535.54 	"/>
	<polygon points="496.79,521.63 497.16,522 497.28,522.05 496.9,521.68 	"/>
	<polygon points="495.49,521.05 495.31,521.16 495.35,521.19 495.54,521.07 	"/>
	<polygon points="461.17,527.29 461.1,527.33 460.98,527.61 461.05,527.57 	"/>
	<path d="M473.46,483.41l-13.08-2.45l0.16,0.21l12.89,2.42C473.44,483.53,473.45,483.47,473.46,483.41"/>
	<path d="M439.34,538.84l-30.31-19.63c0.04,0.09,0.08,0.19,0.11,0.29l30.1,19.49C439.27,538.94,439.31,538.89,439.34,538.84"/>
	<path d="M441.04,538.19c0.06,0.01,0.13,0.02,0.18,0.03l5.76-21.56l-0.19,0.01L441.04,538.19z"/>
	<path d="M473.71,484.68l-6.54,5.48l0.11,0.15l6.53-5.47C473.77,484.79,473.75,484.73,473.71,484.68"/>
	<polygon points="430.01,475.27 429.93,475.44 440.68,477.45 440.68,477.27 	"/>
	<path d="M418.37,474.83l-8.51,8.18l0.09,0.17l8.53-8.2C418.44,474.93,418.41,474.88,418.37,474.83"/>
	<path d="M467.25,490.33l-0.11-0.15l-16.04,13.42c0.05,0.05,0.07,0.11,0.11,0.15L467.25,490.33z"/>
	<path d="M449.68,505.85l-2.88,10.78l0.19-0.01l2.87-10.73C449.8,505.87,449.74,505.87,449.68,505.85"/>
	<path d="M421.96,473.75c-0.01,0.06-0.02,0.12-0.03,0.18l7.96,1.49l0.09-0.17L421.96,473.75z"/>
	<polygon points="460.32,480.95 440.72,477.28 440.72,477.46 460.48,481.16 	"/>
	<path d="M409.8,483.08l-8.78,8.44c0.01,0.07,0.02,0.15,0.03,0.22l8.84-8.49L409.8,483.08z"/>
	<polygon points="467.28,490.3 467.17,490.16 467.14,490.18 467.25,490.33 	"/>
	<polygon points="460.39,480.96 460.32,480.95 460.48,481.17 460.55,481.17 	"/>
	<polygon points="429.97,475.26 429.88,475.43 429.93,475.43 430.01,475.26 	"/>
	<polygon points="440.72,477.27 440.68,477.27 440.68,477.45 440.72,477.46 	"/>
	<polygon points="446.8,516.62 446.79,516.67 446.98,516.66 446.99,516.62 	"/>
	<polygon points="409.86,483.01 409.8,483.08 409.88,483.24 409.96,483.18 	"/>
	<path d="M451,435.89l-28.54-15.8c-0.03,0.05-0.07,0.1-0.11,0.15l28.54,15.8C450.93,435.99,450.97,435.94,451,435.89"/>
	<polygon points="484.02,407.27 483.81,407.47 481.48,424.94 481.68,424.87 	"/>
	<path d="M426.74,383.8c-0.06-0.01-0.12-0.03-0.18-0.03l-5.65,33.48c0.06,0.01,0.12,0.02,0.18,0.03L426.74,383.8z"/>
	<path d="M441.38,412.8l-18.84,5.74c0.02,0.05,0.02,0.12,0.04,0.18l18.88-5.75L441.38,412.8z"/>
	<path d="M451.42,438.82l-9.95,14.25c0.05,0.03,0.11,0.07,0.15,0.1l10.01-14.34L451.42,438.82z"/>
	<polygon points="479.55,439.51 479.54,439.54 479.57,439.54 	"/>
	<path d="M461.72,406.61c0.02,0.06,0.02,0.12,0.03,0.18l20.95-6.38c-0.02-0.05-0.02-0.12-0.04-0.18L461.72,406.61z"/>
	<path d="M421.73,420.88c-0.05,0.03-0.1,0.07-0.15,0.11l9.84,17.25l0.21,0.01L421.73,420.88z"/>
	<polygon points="479.6,439.58 479.54,439.58 477.81,452.6 477.98,452.71 479.7,439.75 	"/>
	<path d="M444.94,373.57l-16.37,7.57c0.03,0.06,0.07,0.11,0.09,0.17l16.38-7.58C445,373.67,444.96,373.63,444.94,373.57"/>
	<path d="M483.27,397.91l-16.29-15.52c-0.04,0.05-0.07,0.1-0.12,0.14l16.3,15.53C483.2,398.01,483.23,397.96,483.27,397.91"/>
	<path d="M431.65,438.29l-0.21-0.01l8.44,14.82c0.05-0.03,0.1-0.07,0.15-0.1L431.65,438.29z"/>
	<path d="M484.72,401.98c-0.06-0.01-0.12-0.03-0.18-0.03l-0.73,5.45l0.21-0.2L484.72,401.98z"/>
	<path d="M451.67,438.78c-0.05-0.03-0.11-0.07-0.15-0.11l-0.07,0.1L451.67,438.78z"/>
	<polygon points="481.48,425 479.59,439.22 479.74,439.46 481.68,424.92 	"/>
	<path d="M449.02,373.57c-0.03,0.06-0.07,0.11-0.09,0.16l15.44,7.11c0.02-0.06,0.06-0.11,0.09-0.17L449.02,373.57z"/>
	<path d="M477.78,452.8l-2.73,20.5c0.07,0.01,0.13,0.03,0.19,0.03l2.71-20.42L477.78,452.8z"/>
	<path d="M457.75,407.82l-16.28,4.95l0.08,0.17l16.23-4.95C457.76,407.95,457.76,407.88,457.75,407.82"/>
	<polygon points="451.64,438.83 451.67,438.78 451.45,438.78 451.42,438.82 	"/>
	<polygon points="431.63,438.24 431.42,438.23 431.44,438.28 431.65,438.29 	"/>
	<polygon points="479.6,439.58 479.57,439.54 479.55,439.54 479.54,439.58 	"/>
	<polygon points="481.67,424.92 481.68,424.86 481.48,424.95 481.47,425 	"/>
	<polygon points="484.03,407.2 483.82,407.4 483.81,407.47 484.02,407.27 	"/>
	<polygon points="441.47,412.78 441.39,412.8 441.46,412.97 441.55,412.94 	"/>
	<path d="M561.79,373.83l22.66-9.9c-0.03-0.06-0.02-0.13-0.04-0.18l-22.7,9.92C561.74,373.72,561.77,373.77,561.79,373.83"/>
	<path d="M580.27,350.15c0.03-0.05,0.07-0.1,0.11-0.15l-20.58-11.51c-0.03,0.06-0.07,0.11-0.1,0.15L580.27,350.15z"/>
	<path d="M585.41,361.75c0.06-0.02,0.12-0.02,0.18-0.03l-3.14-9.22c-0.06,0.03-0.13,0.02-0.18,0.03L585.41,361.75z"/>
	<path d="M559.94,337.04l14.27-4.01c0.11-0.1,0.23-0.19,0.35-0.29l-14.65,4.12C559.92,336.92,559.93,336.98,559.94,337.04"/>
	<path d="M576.93,388.76l-1.85-1.57c-0.05,0.03-0.11,0.07-0.17,0.1l1.91,1.62C576.86,388.86,576.89,388.81,576.93,388.76"/>
	<path d="M574.77,387.17c0.06-0.03,0.11-0.06,0.17-0.1l-13.44-11.38c-0.03,0.05-0.06,0.11-0.1,0.15L574.77,387.17z"/>
	<path d="M578.41,388.34c0.06,0.01,0.12,0.01,0.18,0.03l1.17-3.92c-0.08,0.05-0.15,0.09-0.23,0.13L578.41,388.34z"/>
	<path d="M585.57,364.87c-0.06-0.01-0.13-0.01-0.18-0.03l-5.79,19.49c0.07-0.05,0.15-0.09,0.23-0.14L585.57,364.87z"/>
	<path d="M607.45,374.44l-1.23-0.65c-0.09,0.02-0.19,0.04-0.28,0.06l1.24,0.66C607.28,374.48,607.36,374.46,607.45,374.44"/>
	<path d="M610.62,371.67c0.03,0,0.06-0.02,0.09-0.02c0.03,0,0.06,0.01,0.09,0.02l-0.07-3.36c-0.06-0.05-0.13-0.11-0.18-0.16
		L610.62,371.67z"/>
	<path d="M603.64,361.1c-0.05-0.05-0.1-0.11-0.15-0.17l-15.93,1.94c0.01,0.06,0.03,0.12,0.03,0.18L603.64,361.1z"/>
	<path d="M605.97,373.65l-18.45-9.78c-0.02,0.06-0.05,0.11-0.08,0.16l18.25,9.68C605.79,373.69,605.88,373.67,605.97,373.65"/>
	<path d="M453.85,438.84h0.14l-0.04-0.07C453.92,438.8,453.89,438.82,453.85,438.84"/>
	<path d="M445.98,374.67c-0.05-0.03-0.1-0.07-0.15-0.1l-12.19,21.54l0.1,0.2L445.98,374.67z"/>
	<polygon points="477.98,452.71 477.95,452.91 489.46,460.15 489.6,460.02 	"/>
	<path d="M492.88,463.7l-16.6,10.31c0.03,0.05,0.07,0.09,0.1,0.15l16.6-10.31C492.95,463.81,492.91,463.75,492.88,463.7"/>
	<polygon points="479.74,439.47 479.73,439.55 479.79,439.55 	"/>
	<path d="M548.68,317.06c0-0.07,0.03-0.12,0.04-0.18l-6.01-0.52l0.15,0.2L548.68,317.06z"/>
	<path d="M404.52,473.37h-5.79c0.01,0.06,0.01,0.13,0.02,0.18h5.87L404.52,473.37z"/>
	<path d="M489.63,460.04l-0.13,0.13l3.39,2.13c0.03-0.05,0.07-0.1,0.1-0.15L489.63,460.04z"/>
	<path d="M493.57,464.36l-4.42,11.61c0.06,0.02,0.12,0.03,0.17,0.05l4.43-11.61C493.69,464.39,493.62,464.38,493.57,464.36"/>
	<path d="M417.85,473.56c0-0.03-0.02-0.06-0.02-0.09s0.02-0.06,0.02-0.09h-13.22l0.1,0.18H417.85z"/>
	<path d="M460.91,409.02c-0.05,0.03-0.1,0.07-0.15,0.11l7.88,12.74l0.14-0.13L460.91,409.02z"/>
	<polygon points="479.82,439.59 479.72,439.59 479.7,439.75 491.21,458.37 491.34,458.23 	"/>
	<path d="M476.58,475.12c-0.01,0.06-0.03,0.12-0.03,0.18l11.14,1.68c0.01-0.07,0.03-0.12,0.04-0.18L476.58,475.12z"/>
	<path d="M491.24,458.41l2.1,3.4c0.05-0.03,0.1-0.07,0.15-0.1l-2.12-3.43L491.24,458.41z"/>
	<polygon points="472.99,428.56 472.82,428.63 479.55,439.51 479.59,439.22 	"/>
	<path d="M459.12,405.32l-11.29-30.56c-0.05,0.02-0.13,0.02-0.18,0.04l11.29,30.56C458.99,405.34,459.06,405.34,459.12,405.32"/>
	<polygon points="456.08,438.95 455.73,438.94 477.78,452.8 477.81,452.6 	"/>
	<path d="M439.55,455.27l-18.15,16.71c0.05,0.05,0.07,0.11,0.11,0.15l18.16-16.72C439.61,455.38,439.59,455.32,439.55,455.27"/>
	<path d="M454.02,438.89l-0.22-0.01l20.21,34.69c0.05-0.03,0.1-0.07,0.15-0.11L454.02,438.89z"/>
	<path d="M456.01,438.9l-1.36-0.85c-0.03,0.05-0.07,0.1-0.1,0.15l1.1,0.69L456.01,438.9z"/>
	<path d="M442.02,455.02c-0.03,0.05-0.07,0.1-0.11,0.15l31.54,19c0.03-0.05,0.07-0.1,0.1-0.15L442.02,455.02z"/>
	<path d="M421.57,417.44c0.05,0.03,0.1,0.07,0.15,0.11l11.96-21.13l-0.09-0.2L421.57,417.44z"/>
	<path d="M556.47,317.72c0.04-0.06,0.07-0.12,0.11-0.17l-5.6-0.48c0,0.06-0.03,0.11-0.04,0.18L556.47,317.72z"/>
	<path d="M527.6,315.07l-5.04-0.43c-0.24,0.04-0.47,0.08-0.7,0.13l5.6,0.48L527.6,315.07z"/>
	<polygon points="542.74,316.55 542.6,316.35 527.7,315.08 527.57,315.25 	"/>
	<polygon points="468.8,421.78 468.67,421.91 472.8,428.59 472.97,428.52 	"/>
	<polygon points="456.01,438.9 455.65,438.89 455.73,438.94 456.08,438.95 	"/>
	<polygon points="479.82,439.59 479.79,439.55 479.73,439.55 479.72,439.59 	"/>
	<path d="M453.99,438.85h-0.14c-0.02,0.01-0.03,0.03-0.05,0.03l0.01,0.01l0.21,0.01L453.99,438.85z"/>
	<polygon points="489.63,460.04 489.6,460.01 489.46,460.15 489.5,460.17 	"/>
	<polygon points="491.37,458.28 491.34,458.24 491.21,458.37 491.23,458.41 	"/>
	<polygon points="468.8,421.78 468.78,421.74 468.64,421.86 468.67,421.91 	"/>
	<polygon points="472.97,428.52 472.8,428.59 472.82,428.63 473,428.56 	"/>
	<polygon points="433.64,396.11 433.58,396.21 433.68,396.41 433.73,396.32 	"/>
	<polygon points="404.63,473.37 404.52,473.37 404.62,473.56 404.73,473.56 	"/>
	<polygon points="542.74,316.55 542.86,316.56 542.72,316.36 542.6,316.35 	"/>
	<polygon points="527.57,315.25 527.71,315.08 527.59,315.07 527.46,315.25 	"/>
	<polygon points="479.72,439.59 479.6,439.58 479.7,439.75 	"/>
	<polygon points="477.98,452.71 477.81,452.61 477.78,452.8 477.95,452.91 	"/>
	<polygon points="479.73,439.54 479.73,439.46 479.59,439.22 479.55,439.5 479.57,439.54 	"/>
	<polygon points="479.73,439.54 479.57,439.54 479.6,439.58 479.72,439.59 	"/>
	<path d="M407.48,411.64c-0.02,0.06-0.04,0.12-0.06,0.18l11.47,6.49c0.03-0.05,0.07-0.1,0.11-0.15L407.48,411.64z"/>
	<path d="M420.73,421.21c-0.02,0-0.04,0.01-0.07,0.01c-0.04,0-0.07-0.02-0.12-0.03l-0.22,16.75h0.18L420.73,421.21z"/>
	<path d="M419.92,471.38c0.04,0,0.08,0.02,0.12,0.03l0.46-33.42l-0.18-0.01l-0.46,33.41C419.88,471.39,419.9,471.38,419.92,471.38"
		/>
	<path d="M418.56,471.91l-19.67-20.42c-0.01,0.09-0.01,0.17-0.02,0.24l19.55,20.3C418.46,471.99,418.51,471.95,418.56,471.91"/>
	<polygon points="420.5,437.94 420.32,437.93 420.32,437.98 420.5,437.99 	"/>
	<polygon points="497.56,365.69 499.9,359.35 499.7,359.36 497.39,365.6 	"/>
	<polygon points="495.51,370.72 495.64,370.89 497.53,365.77 497.36,365.69 	"/>
	<path d="M535.41,356.14l-27.33-13.23c-0.03,0.05-0.07,0.1-0.11,0.15l27.34,13.23C535.33,356.24,535.37,356.19,535.41,356.14"/>
	<path d="M557.01,335.56c0.05-0.03,0.12-0.03,0.18-0.05l-4.19-10.65c-0.07,0-0.13,0.01-0.2,0.01L557.01,335.56z"/>
	<path d="M550.16,318.14l2.31,5.87c0.04-0.06,0.08-0.12,0.13-0.18l-2.27-5.75C550.28,318.11,550.22,318.12,550.16,318.14"/>
	<path d="M495.62,370.94l-0.13-0.17l-9.82,26.6c0.06,0.02,0.13,0.01,0.18,0.04L495.62,370.94z"/>
	<path d="M549.33,316.04c0.05-0.03,0.11-0.04,0.17-0.06l-1.48-3.77c-0.07,0-0.13,0.01-0.2,0.01L549.33,316.04z"/>
	<path d="M538.05,355.9l18.31-16.85c-0.05-0.04-0.07-0.1-0.11-0.15l-18.32,16.86C537.98,355.79,538.01,355.85,538.05,355.9"/>
	<path d="M499.92,359.3l5.63-15.27c-0.06-0.02-0.13-0.01-0.18-0.04l-5.65,15.32L499.92,359.3z"/>
	<polygon points="499.7,359.36 499.9,359.35 499.92,359.3 499.72,359.31 	"/>
	<polygon points="495.64,370.89 495.51,370.72 495.49,370.78 495.62,370.94 	"/>
	<polygon points="497.36,365.69 497.53,365.77 497.56,365.69 497.4,365.6 	"/>
	<path d="M559.09,335.78l7.03-11.12c-0.07,0-0.15,0.01-0.22,0.01l-6.97,11C558.99,335.71,559.04,335.75,559.09,335.78"/>
	<path d="M451.43,504.89c-0.01,0.06-0.01,0.13-0.03,0.18l16.73,5.51l0.07-0.17L451.43,504.89z"/>
	<path d="M412.86,498.87l-0.2,0.05l-4.84,17.2c0.03,0.1,0.07,0.19,0.11,0.28L412.86,498.87z"/>
	<path d="M468.23,510.43l-0.07,0.17l11.88,3.91c0.02-0.06,0.01-0.13,0.04-0.18L468.23,510.43z"/>
	<polygon points="414.75,492.18 414.62,491.95 412.69,498.82 412.89,498.77 	"/>
	<polygon points="438.65,492.62 438.45,492.67 440.68,494.96 440.68,494.71 	"/>
	<path d="M419.28,475.43l-4.62,16.4l0.12,0.23l4.68-16.59C419.4,475.45,419.34,475.45,419.28,475.43"/>
	<path d="M449.24,503.52l-8.51-8.77v0.26l8.38,8.63C449.14,503.6,449.19,503.56,449.24,503.52"/>
	<path d="M421.44,474.89c-0.04,0.05-0.09,0.08-0.14,0.12l5.76,5.93l0.09-0.17L421.44,474.89z"/>
	<polygon points="438.58,492.54 427.18,480.8 427.09,480.98 438.37,492.59 	"/>
	<polygon points="427.18,480.8 427.15,480.77 427.06,480.94 427.09,480.98 	"/>
	<polygon points="440.72,494.75 440.68,494.71 440.68,494.96 440.72,495.02 	"/>
	<polygon points="468.19,510.41 468.11,510.58 468.16,510.6 468.23,510.43 	"/>
	<polygon points="412.89,498.77 412.69,498.82 412.66,498.92 412.86,498.87 	"/>
	<polygon points="438.58,492.54 438.37,492.59 438.45,492.67 438.65,492.62 	"/>
	<polygon points="414.78,492.06 414.66,491.82 414.62,491.95 414.75,492.18 	"/>
	<path d="M579.46,389.16c0.03,0.05,0.05,0.11,0.07,0.17l23.96-9.9c-0.05-0.05-0.08-0.1-0.13-0.15L579.46,389.16z"/>
	<path d="M574.92,387.29c0.05-0.03,0.11-0.07,0.17-0.1l-0.15-0.13c-0.07,0.04-0.11,0.07-0.17,0.1L574.92,387.29z"/>
	<path d="M579.76,384.45l0.08-0.26c-0.08,0.05-0.16,0.09-0.23,0.13l-0.08,0.26C579.61,384.54,579.68,384.49,579.76,384.45"/>
	<path d="M605.94,373.85c0.09-0.02,0.18-0.04,0.28-0.06l-0.25-0.13c-0.09,0.02-0.19,0.04-0.28,0.06L605.94,373.85z"/>
	<path d="M408.53,517.25c-0.01-0.01-0.03-0.02-0.04-0.03l-0.13,0.26c0.01,0.02,0.01,0.04,0.02,0.06L408.53,517.25z"/>
	<path d="M451.45,550.46c-0.01,0-0.01,0.01-0.01,0.01l-0.01-0.01l0.04,0.02l-0.01-0.03L451.45,550.46z"/>
	<path d="M451.42,550.44c0,0.01,0.01,0.01,0.01,0.01C451.42,550.44,451.42,550.44,451.42,550.44"/>
	<path d="M451.42,550.43L451.42,550.43L451.42,550.43c0,0,0.01,0,0.01-0.01C451.43,550.43,451.42,550.42,451.42,550.43"/>
	<path d="M451.43,550.46C451.43,550.46,451.43,550.46,451.43,550.46s0-0.01-0.01-0.01C451.43,550.45,451.42,550.45,451.43,550.46"/>
	<path d="M451.46,550.44v0.02l0.05-0.04h-0.08v0.01c0,0,0.01-0.01,0.01,0C451.46,550.42,451.46,550.43,451.46,550.44"/>
	<path d="M451.45,550.46l0.01-0.01l-0.01-0.02c0-0.01-0.01-0.01-0.01-0.01c-0.01-0.01-0.01,0-0.01,0.01c-0.01,0-0.01,0-0.01,0.01
		c0,0.01,0,0.01,0,0.01c0.01,0.01,0.01,0.01,0.01,0.01l0.01,0.01C451.45,550.47,451.45,550.46,451.45,550.46"/>
	<path d="M610.84,373.58c0.11-0.03,0.22-0.05,0.32-0.07l-0.34-0.48L610.84,373.58z"/>
	<path d="M610.8,371.66c-0.03,0-0.05-0.02-0.09-0.02c-0.03,0-0.07,0.02-0.1,0.02c-0.63,0.05-1.14,0.57-1.14,1.22
		c0,0.01,0,0.01,0,0.02c0,0.07,0.03,0.12,0.04,0.18c0.05,0.3,0.19,0.55,0.41,0.74c0.24-0.07,0.48-0.13,0.73-0.19
		c0.06-0.02,0.12-0.03,0.18-0.04l-0.01-0.55l0.33,0.48c0.07-0.01,0.13-0.03,0.19-0.05c0.17-0.04,0.34-0.08,0.51-0.11
		c0.06-0.15,0.09-0.3,0.09-0.47C611.95,372.23,611.44,371.71,610.8,371.66"/>
	<path d="M442.71,539.76c0,1.1-0.89,1.99-1.99,1.99c-1.1,0-1.99-0.89-1.99-1.99c0-1.1,0.89-1.99,1.99-1.99
		C441.82,537.77,442.71,538.67,442.71,539.76"/>
	<path d="M512.1,527.29c0,1.51-1.23,2.75-2.75,2.75c-1.52,0-2.75-1.24-2.75-2.75c0-1.52,1.23-2.75,2.75-2.75
		C510.88,524.54,512.1,525.77,512.1,527.29"/>
	<path d="M517.09,507.63c0,0.96-0.78,1.75-1.74,1.75c-0.97,0-1.75-0.79-1.75-1.75c0-0.96,0.78-1.75,1.75-1.75
		C516.31,505.88,517.09,506.67,517.09,507.63"/>
	<path d="M524.5,523.44c0,0.96-0.78,1.74-1.74,1.74c-0.97,0-1.75-0.78-1.75-1.74c0-0.96,0.78-1.74,1.75-1.74
		C523.72,521.69,524.5,522.47,524.5,523.44"/>
	<path d="M476.72,483.74c0,0.96-0.78,1.74-1.74,1.74c-0.97,0-1.75-0.78-1.75-1.74c0-0.96,0.78-1.75,1.75-1.75
		C475.94,481.99,476.72,482.78,476.72,483.74"/>
	<path d="M459.18,504.47c0,5.15-4.17,9.32-9.32,9.32c-5.15,0-9.32-4.17-9.32-9.32c0-5.15,4.17-9.32,9.32-9.32
		C455,495.15,459.18,499.32,459.18,504.47"/>
	<path d="M495.85,462.86c0,0.96-0.78,1.74-1.74,1.74c-0.97,0-1.75-0.78-1.75-1.74c0-0.96,0.78-1.75,1.75-1.75
		C495.07,461.1,495.85,461.89,495.85,462.86"/>
	<path d="M442.47,454.31c0,0.96-0.78,1.75-1.74,1.75c-0.97,0-1.75-0.79-1.75-1.75s0.78-1.74,1.75-1.74
		C441.69,452.57,442.47,453.35,442.47,454.31"/>
	<path d="M509.18,446c0,3.11-2.52,5.63-5.63,5.63c-3.12,0-5.64-2.52-5.64-5.63s2.52-5.63,5.64-5.63
		C506.65,440.36,509.18,442.89,509.18,446"/>
	<path d="M525.21,451.44c0,1.36-1.1,2.46-2.46,2.46c-1.35,0-2.46-1.1-2.46-2.46s1.1-2.46,2.46-2.46
		C524.11,448.98,525.21,450.08,525.21,451.44"/>
	<path d="M563.6,440.97c0,7.39-5.99,13.38-13.38,13.38c-7.39,0-13.38-5.99-13.38-13.38c0-7.39,5.99-13.38,13.38-13.38
		C557.61,427.59,563.6,433.58,563.6,440.97"/>
	<path d="M530.42,406.79c0,3.08-2.5,5.59-5.59,5.59c-3.08,0-5.58-2.5-5.58-5.59s2.5-5.59,5.58-5.59
		C527.92,401.2,530.42,403.7,530.42,406.79"/>
	<path d="M468.65,381.3c0,1.55-1.26,2.81-2.81,2.81c-1.56,0-2.82-1.26-2.82-2.81c0-1.55,1.26-2.81,2.82-2.81
		C467.38,378.49,468.65,379.75,468.65,381.3"/>
	<path d="M429.35,381.92c0,1.17-0.94,2.11-2.11,2.11s-2.11-0.94-2.11-2.11c0-1.17,0.94-2.11,2.11-2.11S429.35,380.75,429.35,381.92"
		/>
	<path d="M427.69,418.9c0,3.75-3.03,6.78-6.78,6.78c-3.75,0-6.78-3.03-6.78-6.78c0-3.75,3.04-6.78,6.78-6.78
		C424.66,412.12,427.69,415.16,427.69,418.9"/>
	<path d="M462.84,407.27c0,1.68-1.37,3.05-3.05,3.05c-1.68,0-3.05-1.36-3.05-3.05c0-1.68,1.36-3.05,3.05-3.05
		C461.47,404.23,462.84,405.59,462.84,407.27"/>
	<path d="M460.98,436.95c0,4.47-3.62,8.09-8.09,8.09c-4.47,0-8.09-3.62-8.09-8.09c0-4.47,3.63-8.09,8.09-8.09
		C457.36,428.87,460.98,432.49,460.98,436.95"/>
	<path d="M580.15,389.7c0,1.17-0.94,2.11-2.11,2.11s-2.11-0.94-2.11-2.11c0-1.17,0.94-2.11,2.11-2.11S580.15,388.53,580.15,389.7"/>
	<path d="M562.02,374.5c0,1.17-0.94,2.11-2.11,2.11c-1.16,0-2.11-0.94-2.11-2.11c0-1.17,0.95-2.11,2.11-2.11
		C561.08,372.39,562.02,373.33,562.02,374.5"/>
	<path d="M560.1,337.54c0,1.27-1.03,2.31-2.31,2.31c-1.27,0-2.3-1.03-2.3-2.31c0-1.27,1.03-2.31,2.3-2.31
		C559.07,335.23,560.1,336.26,560.1,337.54"/>
	<path d="M508.75,341.98c0,1.27-1.03,2.31-2.31,2.31c-1.27,0-2.3-1.03-2.3-2.31c0-1.27,1.03-2.31,2.3-2.31
		C507.72,339.67,508.75,340.71,508.75,341.98"/>
	<path d="M551.38,317.06c0,0.9-0.73,1.62-1.63,1.62c-0.9,0-1.62-0.73-1.62-1.62c0-0.9,0.73-1.63,1.62-1.63
		C550.65,315.42,551.38,316.16,551.38,317.06"/>
	<path d="M588.15,363.37c0,1.17-0.94,2.11-2.11,2.11c-1.17,0-2.11-0.94-2.11-2.11s0.94-2.11,2.11-2.11
		C587.2,361.25,588.15,362.2,588.15,363.37"/>
	<path d="M583.75,350.67c0,1.07-0.87,1.94-1.94,1.94c-1.07,0-1.94-0.87-1.94-1.94c0-1.07,0.87-1.94,1.94-1.94
		C582.88,348.74,583.75,349.6,583.75,350.67"/>
	<path d="M546.12,357c0,5.15-4.18,9.33-9.33,9.33c-5.15,0-9.33-4.18-9.33-9.33c0-5.15,4.18-9.33,9.33-9.33
		C541.94,347.67,546.12,351.85,546.12,357"/>
	<path d="M493.14,360.06c0,3.36-2.73,6.09-6.09,6.09s-6.08-2.73-6.08-6.09s2.72-6.09,6.08-6.09S493.14,356.7,493.14,360.06"/>
	<path d="M449.76,372.74c0,1.37-1.12,2.5-2.49,2.5c-1.38,0-2.5-1.12-2.5-2.5c0-1.37,1.12-2.49,2.5-2.49
		C448.65,370.25,449.76,371.36,449.76,372.74"/>
	<path d="M498.53,399.44c0,7.51-6.09,13.6-13.6,13.6c-7.51,0-13.6-6.09-13.6-13.6c0-7.51,6.09-13.6,13.6-13.6
		C492.44,385.84,498.53,391.93,498.53,399.44"/>
	<path d="M526.86,380.04c0,1.12-0.91,2.02-2.02,2.02c-1.12,0-2.02-0.9-2.02-2.02s0.91-2.02,2.02-2.02
		C525.95,378.02,526.86,378.93,526.86,380.04"/>
	<path d="M498.92,476.97c0,5.51-4.47,9.97-9.97,9.97c-5.5,0-9.97-4.46-9.97-9.97c0-5.51,4.47-9.97,9.97-9.97
		C494.45,467,498.92,471.46,498.92,476.97"/>
	<path d="M477.02,474.59c0,1.18-0.96,2.14-2.13,2.14c-1.18,0-2.14-0.96-2.14-2.14c0-1.18,0.96-2.13,2.14-2.13
		C476.06,472.46,477.02,473.41,477.02,474.59"/>
	<path d="M422.17,473.56c0,1.27-1.03,2.31-2.31,2.31c-1.27,0-2.31-1.03-2.31-2.31c0-1.27,1.04-2.31,2.31-2.31
		C421.14,471.25,422.17,472.28,422.17,473.56"/>
	<path d="M495.71,533c0,1.59-1.29,2.89-2.89,2.89c-1.59,0-2.88-1.29-2.88-2.89s1.29-2.89,2.88-2.89
		C494.42,530.11,495.71,531.4,495.71,533"/>
	<path d="M483.78,515c0,1.24-1.01,2.25-2.25,2.25c-1.24,0-2.25-1.01-2.25-2.25s1.01-2.25,2.25-2.25
		C482.77,512.75,483.78,513.76,483.78,515"/>
	<path d="M575.28,471.93c0,1.35-1.09,2.44-2.44,2.44c-1.34,0-2.43-1.09-2.43-2.44c0-1.35,1.09-2.44,2.43-2.44
		C574.19,469.5,575.28,470.59,575.28,471.93"/>
	<path d="M583.72,428.63c0,1.33-1.08,2.41-2.41,2.41c-1.33,0-2.41-1.08-2.41-2.41c0-1.33,1.08-2.41,2.41-2.41
		C582.64,426.22,583.72,427.3,583.72,428.63"/>
	<path d="M528.02,491.49c0,3.77-3.05,6.82-6.82,6.82c-3.77,0-6.82-3.06-6.82-6.82c0-3.77,3.06-6.82,6.82-6.82
		C524.96,484.66,528.02,487.71,528.02,491.49"/>
	<path d="M453.86,550.56c0,1.29-1.05,2.34-2.34,2.34c-1.29,0-2.34-1.05-2.34-2.34c0-1.29,1.04-2.34,2.34-2.34
		C452.81,548.23,453.86,549.27,453.86,550.56"/>
	<path d="M472.63,558.24c0,0.91-0.74,1.65-1.65,1.65c-0.92,0-1.66-0.74-1.66-1.65c0-0.91,0.74-1.65,1.66-1.65
		C471.89,556.59,472.63,557.33,472.63,558.24"/>
	<polygon points="363.98,767.51 357.03,767.51 363.28,732.15 370.23,732.15 	"/>
	<polygon points="406.3,737.58 395.28,737.58 389.98,767.51 383.02,767.51 388.33,737.58 377.31,737.58 378.25,732.15 
		407.24,732.15 	"/>
	<polygon points="438.13,767.51 431.17,767.51 433.89,751.78 418.8,751.78 416.03,767.51 409.08,767.51 415.32,732.15 
		422.27,732.15 419.86,745.95 435,745.95 437.42,732.15 444.38,732.15 	"/>
	<path d="M481.15,741.29c-2.42-2.41-5.48-4.19-10.13-4.19c-6.31,0-11.73,4.31-12.85,12.26c-1.12,7.84,3.18,13.2,9.31,13.2
		c4.84,0,8.19-1.94,11.2-4.36l-0.89,6.48c-3.12,2.24-7.31,3.59-11.67,3.59c-9.54,0-16.74-7.6-15.15-19.04
		c1.59-11.43,10.31-17.85,20.09-17.85c4.37,0,8.55,1.35,10.97,3.59L481.15,741.29z"/>
	<path d="M509.97,767.51l-1.71-8.72h-13.26l-4.95,8.72h-6.72l20.21-35.36h5.48l7.72,35.36H509.97z M504.79,741.17l-7.19,12.73h9.78
		L504.79,741.17z"/>
	<path d="M570.51,741.05c-2.48-2.48-5.66-4.24-10.49-4.24c-6.96,0-12.44,4.6-13.61,12.55c-1.18,8.13,3.12,13.79,9.84,13.79
		c2.3,0,4.06-0.54,5.71-1.42l1.24-7.07h-5.83l0.89-5.24h12.44l-2.77,15.62c-1.95,0.83-6.25,3.47-12.68,3.47
		c-10.25,0-17.45-7.83-15.85-19.27c1.59-11.43,10.14-17.97,20.92-17.97c4.37,0,8.67,1.29,11.14,3.53L570.51,741.05z"/>
	<path d="M607.05,767.22c-1.35,0.47-3.3,0.71-4.48,0.71c-3.89,0-6.66-1.88-8.13-6.54l-2.48-7.89h-3.65l-2.48,14.02h-6.95l6.24-35.36
		h13.15c7.54,0,10.43,5.54,9.43,11.26c-0.82,4.83-4.06,8.6-9.25,9.66l2.13,5.83c1.18,3.24,2.65,4.31,5.07,4.31
		c0.65,0,1.41-0.13,2.18-0.36L607.05,767.22z M595.97,737.1h-4.72l-2.06,11.43h4.78c4.3,0,6.36-2.3,6.95-5.54
		C601.51,739.76,600.15,737.1,595.97,737.1"/>
	<path d="M652.07,750.13c-1.53,10.85-10.25,18.39-20.56,18.39c-10.14,0-17.39-8.13-15.85-18.98s10.13-18.39,20.56-18.39
		C646.24,731.15,653.61,739.29,652.07,750.13 M622.84,749.72c-1.12,8.01,3.01,13.15,9.31,13.15c5.95,0,11.55-4.72,12.67-12.91
		c1.12-8.2-3.01-13.15-9.25-13.15C629.5,736.81,624.02,741.47,622.84,749.72"/>
	<path d="M692.1,751.19c-2.12,11.96-8.9,17.33-17.56,17.33c-8.78,0-15.09-5.36-12.97-17.33l3.36-19.04h7.01l-3.36,18.69
		c-1.47,8.07,1.24,11.72,6.72,11.72c5.01,0,8.67-3.66,10.08-11.72l3.3-18.69h6.78L692.1,751.19z"/>
	<path d="M716.62,754.08h-6.78l-2.36,13.44h-6.95l6.24-35.36h12.73c7.78,0,10.73,5.77,9.67,11.67
		C728.11,749.65,724.28,754.08,716.62,754.08 M717.62,737.1h-4.72l-2.18,12.02h4.78c4.3,0,6.36-2.59,6.95-5.83
		C723.05,740.05,721.75,737.1,717.62,737.1"/>
	<path d="M345.07,691.59h-10.61c-2.47,0-4.37-0.83-5.69-2.5c-1.38-1.55-2.07-3.56-2.07-6.04c0-2.75,0.79-5.1,2.37-7.02
		c1.59-1.93,3.63-2.89,6.17-2.89c5.23,0,8.56,3.31,10,9.92c1.2-1.61,1.81-3.77,1.81-6.46c0-2.64-1.05-4.85-3.14-6.6
		c-2.1-1.75-5.02-2.63-8.76-2.63c-4.6,0-8.28,1.64-11.07,4.91c-2.79,3.28-4.18,7.19-4.18,11.73c0,3.05,0.59,5.58,1.81,7.59h-5.01
		l-1.2,4.91h34.32C348.44,693.23,346.85,691.59,345.07,691.59"/>
	<path d="M414.39,674.34c-0.92-0.23-2.15-0.34-3.71-0.34h-18.46l4.49-6.81c2.58-4.08,4.97-6.88,7.15-8.41c2.18-1.52,5-2.4,8.45-2.62
		c-2.53-2.31-4.69-3.6-6.47-3.88c-5.92-0.92-11.24,2.27-15.95,9.57l-12.68,19.31h31.56c2.53,0,4.54,0.23,6.03,0.69
		c1.49,0.46,2.87,1.52,4.14,3.19c1.04,1.43,1.3,3.16,0.78,5.17h-46.38h-3.45h-0.78c-2.12,0-3.19-0.87-3.19-2.59
		c0-0.52,0.09-1.12,0.26-1.81l7.8-34c0.52-2.25-1.59-4.21-3.8-3.53l-2.59,0.8c-1.35,0.42-2.15,1.72-2.09,3.13
		c0.03,1-0.09,2.08-0.36,3.26l-7.25,31.3c-0.22,0.98-0.34,1.78-0.34,2.41c0,2.3,0.87,4.1,2.62,5.39c1.76,1.29,3.78,1.94,6.08,1.94
		h3.63h3.45h48.11c2.42,0,4.08-1.59,5-4.74c0.17-0.46,0.32-1.41,0.43-2.85c0.23-3.28-0.48-6.21-2.15-8.79
		C422.73,677.36,419.28,675.43,414.39,674.34"/>
	<path d="M462.15,659.43c-5.58-1.1-10.98-0.52-16.21,1.72c-4.83,2.35-7.67,5.43-8.53,9.23c-0.46,2.01-0.38,3.79,0.26,5.34
		c0.63,1.55,1.59,2.48,2.85,2.77c1.49,0.28,3.53-0.2,6.12-1.47c-1.38-0.69-2.21-1.64-2.5-2.85c-0.29-1.21,0.13-2.44,1.26-3.71
		c1.12-1.26,2.89-2.18,5.3-2.75c3.57-0.87,7.19-0.87,10.86,0c2.54,0.57,4.34,1.58,5.44,3.01c1.09,1.44,1.41,3.1,0.95,5
		c-1.2,5.28-2.13,9.12-2.79,11.52c-0.49,1.78-2.1,2.97-3.94,2.97h-23.27c-1.32,0-2.7,2.1-4.13,6.3h33.03c1.52,0,2.95-0.8,3.63-2.17
		c1.44-2.93,3.13-8.62,5.07-17.06c1.03-4.43,0.46-8.24-1.72-11.46C471.61,662.65,467.73,660.52,462.15,659.43"/>
	<path d="M451.32,649.67c1.6,1.62,4.21,1.63,5.82,0.03l0.22-0.22c1.6-1.61,1.6-4.2,0-5.8c-1.59-1.59-4.17-1.6-5.78-0.02l-0.22,0.22
		C449.75,645.47,449.73,648.06,451.32,649.67z"/>
	<path d="M496.66,648.15l-3.15,0.97c-1.26,0.38-2.01,1.61-1.9,2.92c0.09,1.09-0.01,2.26-0.32,3.51l-8.45,36.47
		c-0.05,0.4-0.46,2.04-1.2,4.91c1.43,0,2.87-0.26,4.31-0.78c2.93-1.09,4.68-2.93,5.26-5.52l8.94-39.25
		C500.62,649.33,498.69,647.53,496.66,648.15"/>
	<path d="M490.78,711.59h-3.62h-1.04c-0.98,0-1.78-0.34-2.42-1.04c-0.63-0.69-0.94-1.55-0.94-2.58c0.05-1.27,0.41-2.31,1.08-3.15
		c0.66-0.83,1.51-1.25,2.54-1.25c2.24,0,3.71,1.41,4.4,4.23c0.57-0.69,0.83-1.61,0.77-2.76c-0.06-1.15-0.46-2.07-1.21-2.75
		c-0.92-0.98-2.36-1.41-4.31-1.29c-1.96,0.11-3.51,0.94-4.66,2.5c-1.04,1.26-1.59,2.77-1.64,4.52c-0.06,1.76,0.22,3.01,0.87,3.75
		c-1.04,0-1.76-0.03-2.16-0.08l-0.43,2.15l6.64-0.09h0.09h1.55l6.55-0.17C492.27,712.25,491.58,711.59,490.78,711.59"/>
	<path d="M552.21,652.32l0.17-0.17c1.6-1.6,1.6-4.18,0-5.78c-1.59-1.59-4.18-1.59-5.77,0l-0.17,0.18c-1.6,1.59-1.6,4.17,0,5.77
		C548.03,653.91,550.61,653.91,552.21,652.32"/>
	<path d="M536.86,652.32l0.17-0.17c1.6-1.6,1.6-4.18,0-5.78c-1.59-1.59-4.18-1.59-5.77,0l-0.17,0.18c-1.6,1.59-1.6,4.17-0.01,5.77
		C532.68,653.91,535.26,653.91,536.86,652.32"/>
	<path d="M585.62,690.21h-2.85h-9.4c-3.1,0-5.52-1-7.24-3.02c-1.72-2.01-2.59-4.69-2.59-8.02c0-3.56,1.01-6.6,3.03-9.1
		c2.01-2.5,4.62-3.75,7.84-3.75c6.67,0,11.01,4.29,13.02,12.85c1.55-2.13,2.33-4.88,2.33-8.28c0-3.45-1.35-6.3-4.06-8.53
		c-2.7-2.25-6.49-3.36-11.38-3.36c-5.98,0-10.75,2.11-14.31,6.33c-3.57,4.23-5.35,9.24-5.35,15.05c0,3.91,0.75,7.19,2.25,9.83h-4.57
		h-3.45h-2.59c-2.01,0-3.01-0.83-3.01-2.5c0-0.52,0.08-1.06,0.26-1.64c1.09-4.25,2.24-8.67,3.45-13.23c1.2-4.57,2.02-7.68,2.45-9.31
		c0.44-1.64,0.65-2.54,0.65-2.71c-3.74-1.49-7.68-1.94-11.82-1.34c-4.14,0.61-7.79,1.92-10.95,3.92c-2.87,1.9-5.38,4.52-7.5,7.85
		c-2.13,3.34-3.42,7.27-3.88,11.81c-0.52,4.49-0.03,8.02,1.47,10.61c1.49,2.58,3.84,3.88,7.07,3.88c4.02,0,7.56-2.3,10.61-6.9
		c0.4,1.84,1.39,3.28,2.97,4.31c1.58,1.04,3.49,1.55,5.73,1.55h5.09h3.45h39.32C590.04,692.31,588.03,690.21,585.62,690.21
		 M538.82,674.08c-1.16,3.75-2.6,7.05-4.33,9.92c-2.3,3.79-4.91,5.75-7.85,5.87c-0.98,0-1.72-0.55-2.24-1.64
		c-0.57-1.14-0.75-2.79-0.52-4.91c0.4-4.08,2.15-7.74,5.26-10.95c1.14-1.19,2.39-2.19,3.73-3
		C535.99,667.48,539.9,670.6,538.82,674.08"/>
	<path d="M696.76,705.23l-0.54,0.59c-1.45,1.59-1.39,4.03,0.13,5.54c1.62,1.62,4.27,1.56,5.82-0.14l0.53-0.59
		c1.45-1.59,1.39-4.03-0.13-5.54C700.95,703.47,698.3,703.53,696.76,705.23"/>
	<path d="M764.08,673.57c-1.15-6.09-4.31-10.37-9.48-12.85c-2.59-1.32-5.35-1.99-8.28-2.02c-1.65-0.02-3.12,0.12-4.41,0.4
		c-1.62,0.36-2.84,1.7-3.23,3.31l-5.47,22.88c-0.46,1.32-0.87,2.27-1.25,2.85c-0.37,0.57-1.14,1.06-2.28,1.47
		c-1.16,0.4-2.85,0.6-5.09,0.6h-1.29h-7.24c-0.11-0.34-0.49-1.15-1.12-2.41c-1.09-1.96-2.15-3.79-3.18-5.52
		c-1.04-1.73-2.85-4.6-5.44-8.63c-2.58-4.02-5.16-7.33-7.72-9.92c-2.56-2.59-4.78-4.08-6.68-4.49c-4.54-0.86-7.99-0.26-10.34,1.82
		c-1.26,1.03-2.18,2.11-2.75,3.23c-0.58,1.12-0.73,2.6-0.44,4.44c0.28,1.84,1.15,3.97,2.59,6.38c0.86-2.47,2.01-4.25,3.45-5.34
		c1.43-1.1,2.89-1.53,4.35-1.29c1.47,0.23,2.87,0.79,4.23,1.68c1.35,0.89,2.51,2.03,3.49,3.41c2.48,3.55,4.84,7.02,7.05,10.41
		c1.75,2.68-0.16,6.23-3.37,6.23h-24.2h-3.45h-0.77c-2.13,0-3.19-0.87-3.19-2.58c0-0.23,0.05-0.81,0.17-1.72
		c0.75-2.07,1.2-4.27,1.33-6.6c0.15-2.33-0.04-4.67-0.56-7.02c-0.52-2.36-1.56-4.58-3.14-6.64c-1.58-2.07-3.61-3.71-6.08-4.92
		c-2.58-1.32-5.36-1.99-8.32-2.02c-1-0.01-1.94,0.03-2.79,0.13c-2.48,0.28-4.47,2.16-5.05,4.58l-5.22,21.88
		c-0.46,1.32-0.88,2.27-1.26,2.85c-0.37,0.57-1.13,1.06-2.28,1.47c-1.15,0.4-2.85,0.6-5.09,0.6h-1.29h-0.69
		c-2.13,0-3.19-0.83-3.19-2.5c0-0.18,0.05-0.55,0.17-1.12c0-0.11,0.2-1,0.61-2.67l4-17.43c0.55-2.42-0.73-4.94-3.06-5.79
		c-2.62-0.96-5.26-1.45-7.93-1.45c-4.08,0-7.85,1.3-11.3,3.88c-3.45,2.59-6.1,5.82-7.97,9.7c-1.87,3.88-2.8,7.83-2.8,11.86
		c0,7.87,3.22,11.81,9.66,11.81c2.07,0,4.06-0.76,5.99-2.29c1.92-1.52,2.89-3.14,2.89-4.87c0-1.78-0.66-3.59-1.98-5.42
		c-0.34,1.37-1.09,2.67-2.24,3.88c-1.16,1.2-2.25,1.81-3.28,1.81c-1.84,0-2.76-1.53-2.76-4.57c0-4.37,1.35-8.59,4.05-12.68
		c2.7-4.08,5.93-6.12,9.66-6.12c1.26,0,2.27,0.2,3.01,0.6l-2.42,10.77l-2.15,9.31l-1.03,4.23l-0.87,3.79
		c-0.66,2.83-1.53,4.91-2.64,6.22c-0.3,0.36-0.63,0.66-1.02,0.91c-1.42,0.93-3.39,1.4-5.92,1.4h-1.29c2.48,2.76,5.15,4.14,8.02,4.14
		c3.8,0,6.53-1.55,8.2-4.66c0.8-1.21,1.57-3.47,2.33-6.81c0.69,0.22,1.49,0.34,2.41,0.34h3.54h3.45h4.14h0.26h2.5
		c3.04,0,4.99-0.8,5.86-2.42c1.09,1.27,2.27,2.19,3.53,2.76c5.17,2.59,10,1.9,14.49-2.07c0.46,0.34,0.95,0.63,1.47,0.87
		c1.08,0.57,2.5,0.86,4.22,0.86h3.62h3.45h47.42h3.36h4.14h0.26h2.59c2.99,0,4.94-0.8,5.86-2.42c1.09,1.27,2.27,2.19,3.54,2.76
		c2.18,0.98,4.38,1.44,6.59,1.38c2.21-0.05,4.43-0.89,6.64-2.5c2.21-1.61,4.04-3.88,5.48-6.82
		C764.32,684.09,765.06,678.97,764.08,673.57 M659.68,685.73c-1.03,2.12-2.41,3.59-4.14,4.4c-1.72,0.86-3.47,0.83-5.26-0.09
		c-0.87-0.34-1.65-0.92-2.37-1.72c-0.72-0.81-1.05-1.38-0.99-1.72l4.83-20.7c2.07-0.63,4.22-0.21,6.47,1.26
		c2.24,1.46,3.45,4.07,3.62,7.8C662.12,678.69,661.41,682.28,659.68,685.73 M754,685.73c-1.04,2.12-2.41,3.59-4.14,4.4
		c-1.73,0.8-3.48,0.77-5.26-0.09c-0.87-0.34-1.66-0.92-2.37-1.72c-0.72-0.81-1.06-1.38-1-1.72l4.84-20.7
		c2.12-0.63,4.28-0.21,6.46,1.26c2.19,1.46,3.42,4.07,3.71,7.8C756.47,678.57,755.72,682.16,754,685.73"/>
</g>
</svg>
