<?xml version="1.0" encoding="utf-8"?>
<!-- Generator: Adobe Illustrator 27.2.0, SVG Export Plug-In . SVG Version: 6.00 Build 0)  -->
<svg version="1.1" id="Layer_1" xmlns="http://www.w3.org/2000/svg" xmlns:xlink="http://www.w3.org/1999/xlink" x="0px" y="0px"
	 viewBox="0 0 1080 1080" style="enable-background:new 0 0 1080 1080;" xml:space="preserve">
<g>
	<path d="M500.49,535.95c4.8-0.68,3.94-6.51,1.97-5.74c-2,0.79-4.11-1.37-4.34-5.54c-0.23-4.16-2.62-4.74-2.62-4.74
		c0,0,1.63,1.12,1.12,4.77C496.09,528.38,495.69,536.64,500.49,535.95"/>
	<path d="M435.54,488.82c3.52,0.75,4.42-3.51,2.83-3.49c-1.57,0.04-2.5-2-1.59-4.95c0.91-2.96-0.6-3.97-0.6-3.97s0.86,1.2-0.46,3.61
		C434.43,482.44,432.03,488.07,435.54,488.82"/>
	<path d="M410.15,488.58c3.52,0.77,4.43-3.52,2.84-3.49c-1.58,0.04-2.49-2-1.59-4.95c0.91-2.96-0.6-3.97-0.6-3.97
		s0.84,1.19-0.46,3.61C409.05,482.19,406.65,487.82,410.15,488.58"/>
	<path d="M289.27,506.76c4.68-0.73,5.03-5.38,3-4.68c-2.03,0.7-3.61-0.96-3-4.3c0.6-3.35-1.53-3.71-1.53-3.71s1.31,0.82,0.11,3.8
		C286.61,500.83,284.57,507.49,289.27,506.76"/>
	<path d="M150.9,544.09c4.03,0.86,5.05-4.03,3.25-3.99c-1.8,0.04-2.86-2.29-1.82-5.69c1.05-3.37-0.68-4.54-0.68-4.54
		s0.97,1.36-0.52,4.13C149.63,536.78,146.88,543.22,150.9,544.09"/>
	<path d="M530.94,516.1c4,0.37,4.41-4.48,2.67-4.23c-1.74,0.24-3.05-1.87-2.44-5.27c0.61-3.39-1.2-4.3-1.2-4.3s1.09,1.2-0.03,4.05
		C528.85,509.19,526.96,515.74,530.94,516.1"/>
	<path d="M257.02,491.8c-1.21-0.12-2.02-0.05-2.48-0.45c0.4-1.63,0.4-3.05,0.24-4.11c-0.05-0.28-0.11-0.54-0.17-0.78
		C255.64,487.62,259.41,492.01,257.02,491.8 M249.83,491.19c-1.4,0.74-1.3-2.26,0.34-4.23c0,0,0.07,0.19,0.14,0.48
		C250.35,488.74,250.18,489.98,249.83,491.19 M253.95,482.53c0,0-1.56-0.25-1.72-2.88c-0.16-2.6-2.4-1.18-3.12-0.31
		c0,0,1.69,5.46-0.99,7.22c-1.76,1.16-2.91,5.51,0.54,7.59c-2.6,4.86-7.78,8.69-12.74,11.43c0,0-4.7,1.83-0.12,1.84
		c9.75-3.58,14.74-8.13,17.11-12.16c1.5,0.07,3.29-0.06,5.43-0.46C264.62,491.65,258.71,483.91,253.95,482.53"/>
	<path d="M443.97,542.96c-6.21-1.65-0.5-10.63-0.5-10.63C452.11,535.32,450.19,544.6,443.97,542.96 M448.04,525.79
		c4.74-3.88,6.47-14.25,6.47-14.25s-3.78-0.06-3.98,3.02c-0.18,3.08-4.35,9.51-4.35,9.51s-0.27,0.2-0.69,0.54
		c-2.08-1.41-6.19-4.4-6.99-6.54c-1.11-2.89-5.89-1.24-5.89-1.24s4.09,7.48,10.09,10.27c-4.82,4.64-12.1,13.62-3.77,19.53
		C450.12,554.54,460.86,538.55,448.04,525.79"/>
	<path d="M672.48,484.35c-1.05,0.43-2.4-0.46-3.03-1.99c-0.64-1.53-0.32-3.13,0.72-3.56c1.03-0.43,2.38,0.46,3.02,1.99
		C673.85,482.34,673.53,483.93,672.48,484.35 M671.84,474.79c-2.75,0-4.99,3.3-4.99,7.38c0,2.77,1.03,5.15,2.55,6.42l-0.11,0.08
		c0,0,1.33,5.6-6.66,11.49c0,0,0.93,1.73,3.87,0.13c2.94-1.6,10.37-7.66,10.32-18.12C676.81,478.09,674.59,474.79,671.84,474.79"/>
	<path d="M586.06,486.54c-1.11,0.01-2.05-1.32-2.09-2.98c-0.02-1.65,0.87-3.02,1.99-3.05c1.11-0.01,2.06,1.32,2.09,2.98
		C588.09,485.15,587.18,486.51,586.06,486.54 M588.98,477.39c-2.56-1-5.85,1.24-7.36,5.04c-1.02,2.6-0.94,5.23,0.05,6.97l-0.1,0.04
		c0,0-0.75,5.72-10.32,8.35c0,0,0.26,1.96,3.57,1.5c3.3-0.44,12.34-3.43,16.05-13.15c0.01-0.01,0.01-0.01,0.02-0.03v-0.03
		c0,0,0.02-0.01,0.02-0.03C592.39,482.27,591.53,478.42,588.98,477.39"/>
	<path d="M227.37,492.06c-0.99,0.03-1.8-1.12-1.85-2.57c-0.05-1.44,0.71-2.64,1.69-2.68c0.98-0.02,1.8,1.11,1.85,2.57
		C229.1,490.83,228.35,492.03,227.37,492.06 M229.82,484.07c-2.25-0.86-5.1,1.14-6.37,4.46c-0.86,2.24-0.74,4.51,0.09,6.02
		l-0.1,0.04c0,0-0.67,4.99-9.01,7.28c0,0,0.21,1.71,3.12,1.31c2.88-0.38,10.82-3.01,14.02-11.54
		C232.84,488.31,232.05,484.92,229.82,484.07"/>
	<polygon points="653.42,501.35 647.67,495.61 653.42,489.87 659.16,495.61 	"/>
	<polygon points="590.12,508.57 584.39,502.83 590.12,497.08 595.87,502.83 	"/>
	<polygon points="591.6,517.5 585.86,511.77 591.6,506.03 597.35,511.77 	"/>
	<polygon points="437.96,510.51 432.81,505.36 437.96,500.22 443.1,505.36 	"/>
	<rect x="356.78" y="478.41" transform="matrix(0.7076 -0.7066 0.7066 0.7076 -234.6044 394.1125)" width="4.24" height="4.24"/>
	<polygon points="332.37,528.13 326.64,522.39 332.37,516.65 338.11,522.39 	"/>
	<polygon points="447.1,509.59 441.96,504.44 447.1,499.29 452.25,504.44 	"/>
	<polygon points="254.86,518.27 249.14,512.53 254.86,506.78 260.62,512.53 	"/>
	<rect x="162.08" y="502.95" transform="matrix(0.7076 -0.7066 0.7066 0.7076 -309.6721 265.6257)" width="8.11" height="8.11"/>
	<rect x="252.05" y="517.33" transform="matrix(0.7066 -0.7076 0.7076 0.7066 -293.8018 334.2155)" width="8.12" height="8.12"/>
	<polygon points="162.97,539.1 157.24,533.36 162.97,527.61 168.71,533.36 	"/>
	<polygon points="549.11,510.46 542.06,506.46 546.04,499.39 553.1,503.4 	"/>
	<polygon points="553.47,557.46 546.41,553.47 550.4,546.39 557.46,550.39 	"/>
	<polygon points="558.65,506.75 551.58,502.75 555.58,495.68 562.66,499.69 	"/>
	<polygon points="627.69,476.2 624.21,472.7 627.69,469.23 631.19,472.7 	"/>
	<polygon points="614.44,507.49 609.77,502.82 614.44,498.14 619.11,502.82 	"/>
	<path d="M598.4,504.29c0,0-0.67-6.4,6.02-9.34c6.68-2.94,38.83-17.49,41.25-21.24c0,0,5.6,1.47,2.8,4.95
		c-2.8,3.46-43.27,20.02-43.27,20.02s-5.19,5.21-3.6,8.8C601.61,507.49,598.94,506.83,598.4,504.29"/>
	<path d="M442.82,491.49c0,0,0.07-3.19,3.03-4.31c2.97-1.15,17.25-6.83,18.46-8.56c0,0,3.48,2.18,2.12,3.77
		c-1.37,1.57-18.78,8.87-18.78,8.87s-2.31,1.13-3.65,1.96C444,493.2,442.93,492.75,442.82,491.49"/>
	<path d="M338.75,560.24c0,0,0.86-3.07,4-3.46c3.14-0.37,19.53-3.43,21.11-4.82c0,0,0.9,3.74-0.8,4.94
		c-1.71,1.19-20.38,4.05-20.38,4.05c0,0-1.93,0.09-3.2,1.25C339.48,562.2,338.55,561.49,338.75,560.24"/>
	<path d="M256.54,562.45c0,0-0.12-2.79,2.41-3.94c2.53-1.15,15.43-8.04,16.38-9.61c0,0,1.74,2.89,0.63,4.34
		c-1.11,1.46-15.96,8.76-15.96,8.76s-1.58,0.59-2.34,1.89C257.66,563.89,256.69,563.55,256.54,562.45"/>
	<path d="M207,500.36c0,0-2.42-1.76-2.23-4.14c0.2-2.39,0.35-15.19-0.54-16.85c0,0,3.27,0.77,4,2.44c0.7,1.67,0,16.04,0,16.04
		s-0.24,1.4,0.52,2.74C208.76,500.59,208.01,501,207,500.36"/>
	<path d="M631.34,484.58c0,0,5.34,5.48,3.47,12.29c-1.86,6.79-2.68,14.68,3.2,10.41C643.89,503,639.22,486.58,631.34,484.58"/>
	<path d="M487.78,477.86c0,0,4.67,5.11,3.04,11.46c-1.64,6.36-2.32,13.7,2.81,9.73C498.77,495.05,494.68,479.73,487.78,477.86"/>
	<path d="M508.06,475.89c0,0-3.75,4.09-2.44,9.17c1.31,5.1,1.88,10.98-2.24,7.78C499.25,489.66,502.53,477.37,508.06,475.89"/>
	<path d="M166.14,496.46c0,0-15.4-12.25-8.35-13.8c0,0,4.62-1,5.07,4.4C163.29,492.45,163.89,492.29,166.14,496.46"/>
	<path d="M165.97,496.49c0,0,8.36-11.31,3.19-11.07c0,0-3.37,0.17-2.67,3.97C167.19,493.18,166.74,493.18,165.97,496.49"/>
	<path d="M413.54,515.26c0,0-15.88-9.85-9.4-12.08c0,0,4.26-1.45,5.26,3.57C410.41,511.79,410.97,511.57,413.54,515.26"/>
	<path d="M356.39,493.76c0,0-15.87-9.85-9.39-12.08c0,0,4.25-1.46,5.24,3.59C353.14,489.64,356.64,494.1,356.39,493.76"/>
	<path d="M413.38,515.29c0,0,6.62-11.57,1.8-10.77c0,0-3.17,0.53-2.1,4.03C414.17,512.04,413.74,512.09,413.38,515.29"/>
	<path d="M620.04,525.16c-2.62,0-4.75-1.09-4.75-2.45c0-1.36,2.13-2.46,4.75-2.46c2.63,0,4.74,1.1,4.74,2.46
		C624.77,524.07,622.66,525.16,620.04,525.16 M682.22,521.57c-16.59,11.8-30.74,2.8-29.22-4.44c1.51-7.24,18.72-3.31,18.72-3.31
		c2.26-2.83,0.09-4.74,0.09-4.74c-22.2-9.48-24.77,8.99-24.77,8.99c-2.8,9.23,6.32,13.44,6.32,13.44
		c-20.22,7.71-30.39,18.24-30.39,18.24c-11.82,5.84-9.7-4.91-9.7-4.91l-0.16-1.64c22.17,7.01,22.34-23.84,11.21-29.42
		c-12.28-6.14-16.83,13.89-11.21,16.42c5.61,2.54,12.4-2.14,12.4-2.14c0.54,13.89-14.02,8.28-16.95,4.54
		c-2.94-3.74-6.41-6.14-6.41-6.14c-10.41-7.07-16.41,24.31-22.96,24.04c-6.53-0.27-8.93-14.95-8.93-14.95s-2.69,16.28,6.94,21.76
		c9.61,5.47,14.15-8.01,18.02-17.1c3.87-9.08,10.41-0.39,10.41-0.39c2.14,1.23,4.13,2.14,5.98,2.84c-1.32,3.33-2.9,9.14,0.03,13.39
		c4.33,6.31,14.49-1.51,14.49-1.51c22.32-17.07,45.34-21.97,45.34-21.97C691.45,525.66,682.22,521.57,682.22,521.57"/>
	<path d="M567.31,522.44c0,0,5.34-3.46,2.4-14.15c-2.94-10.67-8.94,5.35-12.15,7.75c0,0-5.74,5.47-17.49,7.21
		c0,0-7.35,2.67-7.35,10.28c0,0,12.14,1.34,17.62,3.33c0,0-32.03,14.16-51.67,7.61c-19.61-6.55-17.48-36.57-18.15-47.93
		c-0.67-11.35-5.08-26.43-5.08-26.43s-4.95,1.59-2.8,12.4c2.12,10.82,0.8,54.61,14.69,65.03c13.89,10.41,47.79,3.07,93.45-12.96
		c0,0-2.17-7.37-15.45-3.96c-11.91,3.04-18.45-2.11-18.45-2.11s14.94-6.74,18.02-12.62C564.9,515.91,567.7,517.11,567.31,522.44"/>
	<path d="M568.23,475.05c0,0-69.95,29.91-76.76,33.77c0,0-2.4,1.07-2.54,7.07c0,0,12.68-5.18,27.85-11.46
		c-5.34,6.9-7.22,19.17-1.84,23.09c7.16,5.2,6.17-4.4,3.89-12.69c-1.37-5,0.46-9.4,2.11-12.11c20.67-8.55,44.14-18.38,46.62-19.93
		C567.56,482.79,573.31,478.67,568.23,475.05"/>
	<path d="M378.29,507.41c0,0-1.32,0.58-1.37,3.87c0,0,40.52-16.58,42.98-18.1c0,0,3.15-2.26,0.37-4.23
		C420.27,488.95,382.01,505.29,378.29,507.41"/>
	<path d="M461.99,512.07c0,0-1.75,10.48,5.36,20.08c7.11,9.59-23.81,21.7-39.4,25.93c0,0-6.98,0.62-10.35,6.61
		c0,0,2.62-1.62,16.59-2.49c13.96-0.88,38.14-13.72,39.89-28.68c0,0-6.99-10.34-5.23-18.96
		C468.85,514.55,467.46,509.57,461.99,512.07"/>
	<path d="M355.56,501.62c0,0,3.74,0.54,2.16,5.08c-1.62,4.53-5.36,9.74-1.48,10.68c3.87,0.94,7.08,4,3.06,6.94
		c-3.99,2.94-14.28-1.2-8.54-13.35C350.77,510.97,355.84,504.83,355.56,501.62"/>
	<path d="M396.95,477.86c0,0,2.27,5.74-11.35,10.02c-13.62,4.28-61.01,22.3-61.01,22.3s-3.6-0.67-1.59-4.68
		c1.98-4,5.85-15.23-2.68-25.64c0,0,6-2.12,9.07,5.08c3.08,7.21-1.33,17.61-1.33,17.61L396.95,477.86z"/>
	<path d="M300.43,477.99c0,0,2.94,4.28-1.73,6.67c-4.68,2.41-28.3,12.42-28.3,12.42s-3.74,3.22-2.27,6.41
		c1.47,3.21-2.41,4-4.66,2.81c-2.29-1.22-4.42-9.48,6.54-14.29C280.95,487.21,300.43,477.99,300.43,477.99"/>
	<path d="M416.58,532.06c-2.98,0-5.4-1.25-5.4-2.8c0-1.54,2.42-2.81,5.4-2.81c2.98,0,5.4,1.26,5.4,2.81
		C421.98,530.81,419.57,532.06,416.58,532.06 M377.61,540.11c-1.04-1.99,1.78-5.51,6.28-7.86c4.5-2.34,8.99-2.63,10.03-0.64
		c1.05,2-1.77,5.51-6.28,7.85C383.14,541.8,378.66,542.1,377.61,540.11 M291.11,538.65c-12.58-3.45-13.9-11.48-1.88-12.55
		c10.97-0.97,17.36-10.35,18.1-22.44c0.8,7.63,1.84,15.82,3.06,23C307.77,530.83,300.22,541.16,291.11,538.65 M407.11,528.46
		c-1.74,12.42,14.01,7.34,14.01,7.34s-2.39,15.22-20.91,20.92c-10.75,1.38-14.66-4.86-15.98-8.22c15.08-3,23.99-22.67,11.4-25.79
		c-15.09-3.74-25.32,17.9-25.76,18.03c-2.83,0.81-3.34-1.34-3.88-6.41c-0.53-5.07-4.94,4.14-6.67,7.22
		c-1.74,3.06-11.08,2.13-11.61-3.21c-0.54-5.34-4.54-1.46-5.48,0.67c-0.93,2.14-12.01,13.08-19.76,3.08
		c-7.75-10.02-9.35-43.12-9.61-56.75c-0.28-13.62-7.89-8.27-7.89-8.27c0,0,0.25,3.63,0.71,9.22c0,5.88-0.79,26.01-12.04,30.56
		c-13.23,5.34-28.44,7.22-14.28,22.96c0,0-1.22,2.8-5.75-1.2c-4.54-4.01-12.56-13.74-20.42,1.33c-7.88,15.09-12.82,18.16-15.9,12.28
		c-2.63-5.03-2.51-13.62-0.3-17.72c3.31-1.13,6.02-2.2,7.36-3.58c4.45-4.63-0.72-6.58-0.72-6.58c-12.45,7.83-23.85,7.47-29.72-1.25
		c-5.88-8.72,17.44-7.47,17.44-7.47c0-2.67-1.6-3.92-1.6-3.92c-6.94-3.21-23.14-3.38-22.61,9.97c0.54,13.36,10.14,14.78,10.14,14.78
		c-3.2,1.59-7.47,6.76-7.47,6.76c-10.5-9.79-10.86-37.03-14.06-52.86c-3.21-15.85-14.59-11.22-11.39-7.65
		c3.21,3.55,6.05,21.18,12.99,51.44c6.95,30.26,31.03,27.31,31.03,27.31c3.74-3.19-1.33-11.58-7.03-11.77
		c-4.81-0.16-7.4-1.7-7.4-1.7c3.68-7.01,12.89-10.1,20.36-12.56c-2.45,2.37-4.91,6.77-3.41,14.42c2.66,13.76,14.02,15.09,18.03,8.41
		c3.99-6.66,9.47-27.5,21.35-15.62c11.38,11.39,32.54,5.47,41.34-9.49c0.98,4.63,2.07,8.49,3.25,10.97
		c6.41,13.34,23.1,6.94,25.64,3.2c2.54-3.74,4.54-2.81,4.54-2.81s2.53,5.74,7.34,5.87c4.81,0.14,7.34-1.74,9.21-5.47
		c1.87-3.74,4.01-0.67,4.01-0.67c4.15,2.67,9.08,3.87,9.08,3.87c2.95,0.86,5.81,1,8.49,0.6c-1.14,7.7,3.65,10.75,3.65,10.75
		c15.36,12,38.99-8.68,40.73-25.51C429.25,517.11,408.84,516.05,407.11,528.46"/>
	<path d="M179.84,516.44c0,0,6.32,11.26,6.05,18.74c-0.15,4.13-12.38,16.64-29.64,16.27c-17.27-0.35-21.27-15.21-15.76-23.22
		c0,0,10.69-2.01,8.56-14.47c0,0-3.38-1.43-5.35,3.73c-1.94,5.17-4.09-2.48-1.78-7.11c2.32-4.63,8.74-17.09,2.51-23.32
		c0,0-4.46,2.68-3.04,8.19c1.43,5.52-10.14,15.48-6.23,25.64c0,0-8.36,23.31,2.14,33.1c10.51,9.79,50.02,4.11,54.11-17.09
		C191.41,536.9,190.88,507.18,179.84,516.44"/>
	<path d="M525.16,490.88c1.64-3.05,6.51-12.76,1.65-11.95c0,0-3.79,0.63-2.5,4.81c0.15,0.46,0.27,0.86,0.37,1.23
		c-0.21,0.79-0.62,1.54-1.5,1.55c-0.93,0.33-2.29-1.63-2.63-2.12c-0.21-0.75-0.41-1.67-0.64-2.8c-1.21-6.01-6.28-4.26-6.28-4.26
		c-7.32,2.51,9.19,13.13,11.05,14.31c-0.03,0.04-0.03,0.09-0.03,0.14c0,0,0.03-0.06,0.06-0.11c0.09,0.04,0.13,0.07,0.13,0.07
		c-0.03-0.04-0.07-0.09-0.1-0.13c0.03-0.04,0.07-0.11,0.1-0.16C524.98,491.32,525.08,491.12,525.16,490.88"/>
	<path d="M658.22,552.14c3.26,1.14,13.63,4.45,12.06-0.25c0,0-1.21-3.63-5.14-1.69c-0.43,0.21-0.81,0.38-1.16,0.54
		c-0.81-0.08-1.62-0.37-1.76-1.24c-0.48-0.87,1.23-2.52,1.68-2.92c0.73-0.33,1.59-0.68,2.67-1.08c5.75-2.12,3.23-6.86,3.23-6.86
		c-3.63-6.83-11.55,11.15-12.41,13.15h-0.15c0,0,0.07,0.01,0.14,0.03c-0.04,0.09-0.07,0.14-0.07,0.14c0.06-0.03,0.08-0.08,0.12-0.11
		c0.04,0.02,0.12,0.03,0.18,0.06C657.75,552.03,657.96,552.11,658.22,552.14"/>
	<path d="M617.18,490.16c1.64-3.05,6.51-12.76,1.65-11.95c0,0-3.78,0.63-2.49,4.82c0.14,0.46,0.26,0.86,0.36,1.24
		c-0.2,0.78-0.62,1.53-1.49,1.55c-0.94,0.31-2.3-1.63-2.63-2.11c-0.2-0.77-0.4-1.68-0.65-2.81c-1.19-6.01-6.28-4.28-6.28-4.28
		c-7.31,2.52,9.2,13.16,11.04,14.32c0,0.06-0.02,0.09-0.02,0.14c0,0,0.03-0.06,0.07-0.11c0.07,0.04,0.12,0.09,0.12,0.09
		c-0.03-0.06-0.06-0.1-0.09-0.14c0.02-0.04,0.06-0.11,0.09-0.17C617,490.6,617.1,490.41,617.18,490.16"/>
	<path d="M483.86,564.93c1.63-3.05,6.53-12.76,1.65-11.95c0,0-3.77,0.63-2.49,4.8c0.15,0.48,0.26,0.87,0.37,1.24
		c-0.21,0.79-0.63,1.54-1.51,1.55c-0.92,0.31-2.28-1.63-2.62-2.13c-0.21-0.76-0.41-1.67-0.64-2.8c-1.2-6-6.27-4.27-6.27-4.27
		c-7.31,2.53,9.2,13.16,11.04,14.32c0,0.05-0.03,0.08-0.03,0.14l0.09-0.12c0.07,0.04,0.12,0.08,0.12,0.08
		c-0.04-0.04-0.06-0.08-0.09-0.13c0.01-0.04,0.06-0.11,0.09-0.16C483.68,565.37,483.79,565.18,483.86,564.93"/>
	<path d="M295.36,553.79c0.7,3.37,3.18,13.97,6.4,10.22c0,0,2.48-2.9-1.19-5.28c-0.4-0.27-0.73-0.5-1.05-0.72
		c-0.36-0.74-0.52-1.57,0.14-2.15c0.51-0.85,2.8-0.22,3.37-0.05c0.65,0.44,1.39,1.02,2.29,1.74c4.77,3.83,7.56-0.75,7.56-0.75
		c4-6.61-15.5-4.19-17.65-3.91c-0.03-0.04-0.05-0.07-0.08-0.12c0,0,0.03,0.07,0.03,0.13c-0.09,0.02-0.15,0.02-0.15,0.02
		c0.06,0.01,0.1,0.03,0.15,0.05c0.02,0.04,0.02,0.12,0.04,0.18C295.21,553.33,295.27,553.54,295.36,553.79"/>
	<path d="M182.17,558.25c2.16,2.7,9.16,11.01,10.33,6.21c0,0,0.92-3.71-3.43-4.18c-0.48-0.06-0.9-0.1-1.28-0.16
		c-0.64-0.49-1.17-1.17-0.84-1.99c0.08-0.98,2.41-1.46,2.98-1.57c0.79,0.11,1.7,0.28,2.83,0.51c6,1.26,6.4-4.08,6.4-4.08
		c0.56-7.73-15.7,3.29-17.5,4.51c-0.04-0.03-0.08-0.05-0.13-0.08c0,0,0.04,0.06,0.09,0.11c-0.07,0.05-0.11,0.08-0.11,0.08
		c0.05,0,0.09-0.03,0.15-0.03c0.03,0.03,0.07,0.1,0.1,0.15C181.84,557.9,181.97,558.08,182.17,558.25"/>
	<path d="M142.28,595.46c3.41,0,5.47-2.78,5.47-6.52c0-3.54-2.03-6.53-5.47-6.53c-3.43,0-5.47,2.94-5.47,6.58
		c0,3.63,2.12,6.47,5.44,6.47H142.28z M142.05,599.06c-6.19,0-10.07-4.3-10.07-9.92c0-6.01,4.23-10.33,10.39-10.33
		c6.36,0,10.22,4.26,10.22,9.98c0,6.09-4.24,10.27-10.5,10.27H142.05z"/>
	<path d="M155.57,589.14c0-1.83-0.07-3.37-0.12-4.61h3.84l0.17,2h0.11c0.54-0.85,1.81-2.34,4.52-2.34c1.9,0,3.44,1,4.1,2.58h0.06
		c0.58-0.82,1.23-1.39,1.94-1.83c0.83-0.49,1.75-0.75,2.89-0.75c2.75,0,5.09,1.88,5.09,6.41v8.12h-4.41v-7.48
		c0-2.2-0.8-3.37-2.31-3.37c-1.11,0-1.89,0.79-2.2,1.63c-0.11,0.34-0.17,0.8-0.17,1.16v8.05h-4.42v-7.62c0-2.06-0.8-3.23-2.26-3.23
		c-1.31,0-2.01,1.02-2.26,1.68c-0.15,0.37-0.17,0.79-0.17,1.13v8.03h-4.41V589.14z"/>
	<path d="M189.91,592.07c-2.66-0.03-4.44,0.58-4.44,2.18c0,1.04,0.72,1.63,1.86,1.63c1.2,0,2.21-0.84,2.49-1.77
		c0.06-0.25,0.08-0.53,0.08-0.79V592.07z M194.32,595.21c0,1.41,0.09,2.75,0.23,3.5h-4.13l-0.25-1.42h-0.11
		c-0.97,1.16-2.52,1.77-4.33,1.77c-3.06,0-4.78-2.17-4.78-4.35c0-3.68,3.26-5.51,8.82-5.51v-0.14c0-0.61-0.31-1.77-2.77-1.77
		c-1.52,0-3.21,0.55-4.18,1.13l-0.83-2.89c1.03-0.61,3.03-1.34,5.78-1.34c4.82,0,6.56,2.71,6.56,6.18V595.21z"/>
	<path d="M198.03,589.14c0-1.83-0.06-3.37-0.12-4.61h3.95l0.2,2.06h0.12c0.51-0.84,2-2.4,4.64-2.4c2.92,0,5.43,1.86,5.43,6.35v8.17
		h-4.55v-7.51c0-2.06-0.77-3.34-2.48-3.34c-1.41,0-2.19,0.99-2.49,1.8c-0.11,0.26-0.15,0.67-0.15,1.01v8.03h-4.54V589.14z"/>
	<path d="M238.07,598.1c-0.86,0.43-2.95,0.96-5.61,0.96c-7.28,0-11.08-4.27-11.08-9.83c0-6.44,4.96-10.42,11.46-10.42
		c2.6,0,4.57,0.52,5.46,0.99l-0.98,3.6c-1-0.43-2.49-0.84-4.29-0.84c-3.89,0-6.84,2.2-6.84,6.38c0,3.68,2.46,6.35,6.87,6.35
		c1.57,0,3.26-0.32,4.26-0.75L238.07,598.1z"/>
	<path d="M240.96,577.94h4.56v8.36h0.06c0.49-0.67,1.14-1.19,1.89-1.54c0.69-0.38,1.54-0.58,2.37-0.58c2.86,0,5.36,1.86,5.36,6.36
		v8.18h-4.54v-7.52c0-2.06-0.79-3.33-2.55-3.33c-1.35,0-2.12,0.87-2.44,1.63c-0.14,0.29-0.14,0.6-0.14,0.93v8.3h-4.56V577.94z"/>
	<path d="M266.95,592.07c-2.66-0.03-4.44,0.58-4.44,2.18c0,1.04,0.71,1.63,1.86,1.63c1.21,0,2.21-0.84,2.5-1.77
		c0.05-0.25,0.09-0.53,0.09-0.79V592.07z M271.36,595.21c0,1.41,0.09,2.75,0.23,3.5h-4.13l-0.26-1.42h-0.12
		c-0.97,1.16-2.51,1.77-4.32,1.77c-3.06,0-4.78-2.17-4.78-4.35c0-3.68,3.26-5.51,8.81-5.51v-0.14c0-0.61-0.32-1.77-2.77-1.77
		c-1.52,0-3.21,0.55-4.18,1.13l-0.84-2.89c1.04-0.61,3.04-1.34,5.79-1.34c4.81,0,6.56,2.71,6.56,6.18V595.21z"/>
	<path d="M275.07,589.14c0-1.83-0.06-3.37-0.11-4.61h3.83l0.17,2h0.11c0.54-0.85,1.8-2.34,4.53-2.34c1.88,0,3.43,1,4.09,2.58h0.06
		c0.57-0.82,1.23-1.39,1.95-1.83c0.82-0.49,1.75-0.75,2.88-0.75c2.75,0,5.1,1.88,5.1,6.41v8.12h-4.41v-7.48
		c0-2.2-0.81-3.37-2.32-3.37c-1.12,0-1.89,0.79-2.2,1.63c-0.12,0.34-0.17,0.8-0.17,1.16v8.05h-4.41v-7.62c0-2.06-0.8-3.23-2.27-3.23
		c-1.31,0-2,1.02-2.26,1.68c-0.14,0.37-0.17,0.79-0.17,1.13v8.03h-4.41V589.14z"/>
	<path d="M305.95,592.39c0,0.23,0,0.49,0.06,0.72c0.29,1.22,1.43,2.36,3,2.36c2.04,0,3.4-1.42,3.4-3.89c0-2.11-1.11-3.92-3.4-3.92
		c-1.4,0-2.69,0.99-3,2.46c-0.03,0.23-0.06,0.49-0.06,0.79V592.39z M301.4,577.95h4.55v8.36h0.06c0.89-1.28,2.52-2.12,4.67-2.12
		c3.61,0,6.45,2.72,6.41,7.21c0,5.17-3.63,7.66-7.04,7.66c-1.81,0-3.64-0.66-4.66-2.43h-0.06l-0.17,2.08h-3.86
		c0.06-0.83,0.11-2.54,0.11-4.26V577.95z"/>
	<path d="M329.19,589.92c0-0.81-0.46-2.76-2.71-2.76c-2.06,0-2.89,1.66-3.03,2.76H329.19z M323.49,593.05
		c0.14,1.71,2.12,2.58,4.27,2.58c1.6,0,2.91-0.17,4.27-0.64l0.6,3.08c-1.61,0.67-3.45,0.98-5.51,0.98c-5.04,0-7.98-2.89-7.98-7.3
		c0-3.2,2.14-7.57,7.55-7.57c5.07,0,6.75,3.97,6.75,7.22c0,0.67-0.08,1.37-0.16,1.66H323.49z"/>
	<path d="M336.21,589.34c0-2.32-0.04-3.62-0.12-4.81h3.89l0.14,2.8h0.12c0.74-2.26,2.66-3.15,4.12-3.15c0.4,0,0.6,0,0.98,0.08v4.27
		c-0.37-0.09-0.77-0.15-1.31-0.15c-1.86,0-2.95,0.96-3.21,2.32c-0.06,0.26-0.06,0.55-0.06,0.85v7.16h-4.54V589.34z"/>
	<path d="M361.16,595.81c1.86,0,3.17-1.51,3.17-4.22c0-2.14-0.95-4.17-3.17-4.17c-2.32,0-3.26,2.06-3.26,4.2
		c0,2.41,1.22,4.18,3.23,4.18H361.16z M361.01,599.05c-4.32,0-7.87-2.75-7.87-7.3c0-4.42,3.09-7.58,8.19-7.58
		c4.6,0,7.76,3.05,7.76,7.28c0,4.93-3.75,7.6-8.05,7.6H361.01z"/>
	<path d="M372.41,598.71v-10.73h-1.84v-3.45h1.84V584c0-1.74,0.57-3.77,1.86-4.96c1.2-1.11,2.77-1.45,4.04-1.45
		c0.94,0,1.68,0.12,2.35,0.29l-0.12,3.55c-0.4-0.12-0.86-0.2-1.49-0.2c-1.48,0-2.15,1.13-2.15,2.56v0.75h2.96v3.45h-2.9v10.73
		H372.41z"/>
	<path d="M404.32,598.1c-0.86,0.43-2.94,0.96-5.6,0.96c-7.28,0-11.08-4.27-11.08-9.83c0-6.44,4.96-10.42,11.45-10.42
		c2.6,0,4.58,0.52,5.46,0.99l-0.97,3.6c-1-0.43-2.48-0.84-4.3-0.84c-3.89,0-6.84,2.2-6.84,6.38c0,3.68,2.46,6.35,6.87,6.35
		c1.57,0,3.26-0.32,4.26-0.75L404.32,598.1z"/>
	<path d="M413.79,595.81c1.86,0,3.18-1.51,3.18-4.22c0-2.14-0.95-4.17-3.18-4.17c-2.32,0-3.27,2.06-3.27,4.2
		c0,2.41,1.24,4.18,3.24,4.18H413.79z M413.65,599.05c-4.33,0-7.87-2.75-7.87-7.3c0-4.42,3.09-7.58,8.19-7.58
		c4.6,0,7.75,3.05,7.75,7.28c0,4.93-3.74,7.6-8.04,7.6H413.65z"/>
	<path d="M424.58,589.14c0-1.83-0.07-3.37-0.12-4.61h3.83l0.18,2h0.11c0.55-0.85,1.81-2.34,4.52-2.34c1.89,0,3.44,1,4.1,2.58h0.05
		c0.57-0.82,1.23-1.39,1.94-1.83c0.83-0.49,1.74-0.75,2.89-0.75c2.75,0,5.1,1.88,5.1,6.41v8.12h-4.41v-7.48
		c0-2.2-0.8-3.37-2.32-3.37c-1.12,0-1.88,0.79-2.2,1.63c-0.11,0.34-0.17,0.8-0.17,1.16v8.05h-4.41v-7.62c0-2.06-0.8-3.23-2.26-3.23
		c-1.31,0-2.01,1.02-2.26,1.68c-0.14,0.37-0.18,0.79-0.18,1.13v8.03h-4.4V589.14z"/>
	<path d="M450.91,589.14c0-1.83-0.06-3.37-0.12-4.61h3.83l0.18,2h0.11c0.54-0.85,1.81-2.34,4.53-2.34c1.89,0,3.44,1,4.09,2.58h0.06
		c0.57-0.82,1.23-1.39,1.95-1.83c0.83-0.49,1.74-0.75,2.89-0.75c2.75,0,5.1,1.88,5.1,6.41v8.12h-4.42v-7.48
		c0-2.2-0.8-3.37-2.31-3.37c-1.11,0-1.89,0.79-2.21,1.63c-0.11,0.34-0.17,0.8-0.17,1.16v8.05h-4.41v-7.62c0-2.06-0.8-3.23-2.27-3.23
		c-1.31,0-2.01,1.02-2.26,1.68c-0.14,0.37-0.17,0.79-0.17,1.13v8.03h-4.41V589.14z"/>
	<path d="M486.37,589.92c0-0.81-0.46-2.76-2.72-2.76c-2.06,0-2.89,1.66-3.03,2.76H486.37z M480.67,593.05
		c0.15,1.71,2.11,2.58,4.27,2.58c1.6,0,2.91-0.17,4.27-0.64l0.6,3.08c-1.61,0.67-3.44,0.98-5.51,0.98c-5.03,0-7.99-2.89-7.99-7.3
		c0-3.2,2.15-7.57,7.55-7.57c5.08,0,6.76,3.97,6.76,7.22c0,0.67-0.09,1.37-0.17,1.66H480.67z"/>
	<path d="M493.37,589.34c0-2.32-0.03-3.62-0.12-4.81h3.9l0.14,2.8h0.11c0.74-2.26,2.66-3.15,4.13-3.15c0.4,0,0.6,0,0.97,0.08v4.27
		c-0.37-0.09-0.78-0.15-1.32-0.15c-1.86,0-2.94,0.96-3.2,2.32c-0.06,0.26-0.06,0.55-0.06,0.85v7.16h-4.55V589.34z"/>
	<path d="M516.18,598.3c-0.91,0.43-2.57,0.75-4.41,0.75c-4.86,0-7.93-2.9-7.93-7.31c0-4.06,2.89-7.57,8.52-7.57
		c1.24,0,2.66,0.2,3.76,0.61l-0.75,3.39c-0.6-0.29-1.46-0.52-2.77-0.52c-2.46,0-4.1,1.63-4.07,3.89c0,2.64,1.95,3.94,4.18,3.94
		c1.2,0,2.11-0.2,2.85-0.52L516.18,598.3z"/>
	<path d="M527.6,589.92c0-0.81-0.46-2.76-2.72-2.76c-2.06,0-2.89,1.66-3.04,2.76H527.6z M521.9,593.05
		c0.15,1.71,2.12,2.58,4.27,2.58c1.6,0,2.92-0.17,4.27-0.64l0.6,3.08c-1.6,0.67-3.43,0.98-5.5,0.98c-5.03,0-7.98-2.89-7.98-7.3
		c0-3.2,2.15-7.57,7.56-7.57c5.05,0,6.75,3.97,6.75,7.22c0,0.67-0.09,1.37-0.18,1.66H521.9z"/>
	<path d="M548.24,581.65c-1.17,0-1.83,0.96-1.83,1.92c0,0.95,0.48,1.82,1.43,2.78c1.49-0.96,2.26-1.68,2.26-2.78
		c0-0.97-0.63-1.92-1.83-1.92H548.24z M547.71,595.72c1.21,0,2.24-0.46,2.85-0.98c-1.26-1.19-2.9-2.9-4.64-4.76
		c-0.89,0.58-1.66,1.42-1.66,2.7c0,1.66,1.29,3.04,3.44,3.04H547.71z M554.16,598.71c-0.46-0.43-0.91-0.9-1.37-1.45
		c-1.34,1.05-3.18,1.8-5.7,1.8c-5.09,0-7.19-2.92-7.19-5.53c0-2.68,1.58-4.56,3.9-5.71v-0.12c-0.77-0.78-1.48-2.2-1.48-3.59
		c0-2.45,1.94-5.28,6.12-5.28c3.14,0,5.55,1.8,5.55,4.64c0,2.06-1.34,3.77-3.98,4.93l-0.03,0.12c1.2,1.25,2.38,2.53,3.35,3.51
		c0.83-1.22,1.57-3.02,1.92-4.85h4.13c-0.6,3.08-1.61,5.55-3.47,7.61c1.26,1.4,2.43,2.7,3.64,3.94H554.16z"/>
	<rect x="567.87" y="579.15" width="4.55" height="19.55"/>
	<path d="M576.42,589.14c0-1.83-0.05-3.37-0.11-4.61h3.95l0.2,2.06h0.11c0.51-0.84,2.01-2.4,4.65-2.4c2.91,0,5.44,1.86,5.44,6.35
		v8.17h-4.55v-7.51c0-2.06-0.77-3.34-2.49-3.34c-1.4,0-2.17,0.99-2.5,1.8c-0.1,0.26-0.13,0.67-0.13,1.01v8.03h-4.56V589.14z"/>
	<path d="M604.53,590.74c0-0.23,0-0.56-0.05-0.78c-0.29-1.28-1.41-2.33-2.93-2.33c-2.23,0-3.4,1.74-3.4,3.94
		c0,2.29,1.31,3.83,3.38,3.83c1.48,0,2.66-1.07,2.92-2.41c0.08-0.32,0.08-0.67,0.08-1.02V590.74z M609.08,577.94v16.51
		c0,1.71,0.06,3.43,0.12,4.26h-4.07l-0.2-2.23h-0.06c-1,1.77-2.88,2.57-4.86,2.57c-3.41,0-6.52-2.72-6.52-7.27
		c-0.03-4.7,3.21-7.61,6.87-7.61c1.89,0,3.41,0.64,4.13,1.66h0.05v-7.89H609.08z"/>
	<path d="M627.03,594.1c0,1.94,0.05,3.48,0.11,4.61h-3.95l-0.21-2.17h-0.08c-0.51,0.87-1.89,2.53-4.78,2.53
		c-2.89,0-5.3-1.74-5.3-6.27v-8.26h4.55v7.45c0,2.15,0.74,3.4,2.46,3.4c1.38,0,2.18-0.96,2.48-1.74c0.12-0.26,0.15-0.55,0.15-0.84
		v-8.26h4.55V594.1z"/>
	<path d="M630.8,594.71c0.88,0.55,2.75,1.16,4.12,1.16c1.46,0,2.03-0.44,2.03-1.13c0-0.72-0.46-1.08-2.24-1.54
		c-3.09-0.88-4.37-2.52-4.35-4.3c0-2.7,2.34-4.72,6.08-4.72c1.8,0,3.4,0.43,4.29,0.87l-0.77,3.14c-0.66-0.35-2.06-0.88-3.41-0.88
		c-1.12,0-1.77,0.38-1.77,1.13c0,0.7,0.63,1.06,2.52,1.57c2.83,0.83,4.06,2.17,4.08,4.41c0,2.55-2.03,4.65-6.44,4.65
		c-2.02,0-3.75-0.46-4.98-1.08L630.8,594.71z"/>
	<path d="M649.29,580.64v3.89h3.27v3.45h-3.27v4.67c0,1.74,0.34,2.64,1.8,2.64c0.72,0,0.97-0.03,1.41-0.14l0.05,3.48
		c-0.6,0.23-1.72,0.43-3.01,0.43c-1.52,0-2.77-0.57-3.49-1.33c-0.8-0.9-1.21-2.32-1.21-4.26v-5.49h-1.91v-3.45h1.91v-2.7
		L649.29,580.64z"/>
	<path d="M655.32,589.34c0-2.32-0.03-3.62-0.12-4.81h3.89l0.14,2.8h0.11c0.75-2.26,2.66-3.15,4.12-3.15c0.4,0,0.6,0,0.97,0.08v4.27
		c-0.37-0.09-0.76-0.15-1.31-0.15c-1.86,0-2.95,0.96-3.21,2.32c-0.06,0.26-0.06,0.55-0.06,0.85v7.16h-4.54V589.34z"/>
	<path d="M670.9,584.53l2.31,6.85c0.26,0.84,0.57,2,0.81,2.73h0.08c0.23-0.78,0.48-1.92,0.72-2.76l1.91-6.82h4.98l-3.39,8.82
		c-2.45,6.61-3.91,8.7-5.52,9.98c-1.6,1.3-3.25,1.74-4.52,1.86l-0.88-3.85c0.54-0.09,1.2-0.26,1.93-0.61
		c0.71-0.32,1.54-1.07,1.99-1.8c0.15-0.23,0.27-0.46,0.27-0.63c0-0.18-0.04-0.41-0.24-0.82l-5.55-12.94H670.9z"/>
	<path d="M732.71,536.93c0.17-14.86-9.44-14.48-9.44-14.48s-2.67,6.94,1.76,14.39L732.71,536.93z"/>
	<path d="M736.03,536.76l7.98-0.2c2.41-7.25-2.77-16.39-2.77-16.39C741.24,520.17,732.17,527.6,736.03,536.76"/>
	<path d="M733.45,523.22c0,0,3.88-10.85-4.27-18.66c0,0-3.51-3.05-3.68,1.71c0,0-1.67,8.38,2.03,11.8
		C727.52,518.07,732.88,522.26,733.45,523.22"/>
	<path d="M748.08,521.3c1.3-1.69-0.94-14.47-0.94-14.47s-1.1-4.96-3.52,0.57c0,0-6.08,5.74-5.92,9.53c0,0,0,2.85,2.6,0.4l1.67-2.87
		c0,0,2.03-3.43,2.59,0.75c0,0,0.36,4.41,1.48,6.29C746.05,521.5,746.79,523.02,748.08,521.3"/>
	<path d="M736.78,485.48c0,0-1.49-3.61-3.15,0.77c0,0-4.8,10.09,4.07,20.94C737.71,507.2,743.07,495.39,736.78,485.48"/>
	<path d="M742.16,501.11c0,0-0.37,3.61,2.77,0.77l2.04-2.85c0,0,2.23-3.63,2.6,0.57c0,0,0.2,7.05,2.03,7.98c0,0,3.91-5.91,1.68-15.6
		c0,0-1.11-5.71-4.08,0C749.2,491.97,742.16,496.93,742.16,501.11"/>
	<path d="M744.57,468.91c0,0-9.28,8.96,0.36,22.1C744.93,491.01,752.34,475.2,744.57,468.91"/>
	<path d="M752.34,486.06c0,0,3.17-5.53,3.89,0.2c0,0-0.18,7.24,3.15,0.77c0,0,1.67-8.77,1.67-10.29c0,0,0.38-4.02-3.14-1.15
		c0,0-8.34,5.34-8.14,10.1C749.77,485.68,749.57,489.12,752.34,486.06"/>
	<path d="M756.98,470.04c0,0,1.1-4.37,0.37-11.23c0,0-0.75-5.32-3.88,0c0,0-5.01,6.86-1.12,14.11
		C752.34,472.93,753.82,478.43,756.98,470.04"/>
	<path d="M769,448.9c0,0,0.77-7.05-4.81-0.57c0,0-4.27,6.67-1.31,12.58C762.89,460.92,768.64,457.28,769,448.9"/>
	<path d="M765.32,476.34c0,0,4.81-1.14,7.04-10.67c0,0,1.66-7.42-3.71-3.25c0,0-5.18,2.3-6.29,4.97c0,0-1.49,1.91,1.28,1.51
		c0,0,1.85,0,1.13,2.11C764.77,471.03,763.64,475.94,765.32,476.34"/>
	<path d="M782.53,439.58c0,0,0-3.63-2.78-0.19c0,0-6.08,4.4-6.08,10.48C773.66,449.87,781.24,451,782.53,439.58"/>
	<path d="M773.82,456.34c0,0,4.65-2.29,3.53,0.95c0,0-1.47,7.06,1.12,5.35c0,0,4.43-4.58,6.29-11.06c0,0-6.48-1.53-13.51,4.18
		C771.24,455.76,770.13,458.62,773.82,456.34"/>
	<path d="M799.57,432.33c0,0,0.92-2.84-2.58-1.13c0,0-8.54,2.85-8.89,9.52C788.1,440.72,793.83,441.29,799.57,432.33"/>
	<path d="M806.77,437.86c0,0,5.19-4.37,5.74-6.66c0,0,1.11-6.86-4.42-1.53c0,0-4.46,2.87-5.95,7.23
		C802.15,436.9,801.05,439.77,806.77,437.86"/>
	<path d="M788.27,446.25c0,0,5.75-0.57,3.34,2.28c0,0-3.51,4.78,0.37,3.43c0,0,7.59-3.26,10-7.82c0,0,2.23-2.85-2.23-2.85
		C799.74,441.29,789.39,440.72,788.27,446.25"/>
	<path d="M808.45,443.19c0,0,9.46,2.87,15.37-4.95C823.83,438.24,815.67,430.43,808.45,443.19"/>
	<path d="M824.2,451c0,0-6.3-6.86-19.09-4.37C805.11,446.63,813.27,456.15,824.2,451"/>
	<path d="M798.28,454.43c0,0,6.46,4.76,13.14,3.62C811.42,458.05,807.35,446.81,798.28,454.43"/>
	<path d="M799.74,462.63c0,0-7.39-8.59-13.32-3.06C786.43,459.57,783.1,463.77,799.74,462.63"/>
	<path d="M934.57,536.93l7.7-0.09c4.43-7.45,1.75-14.39,1.75-14.39S934.41,522.07,934.57,536.93"/>
	<path d="M931.24,536.76c3.88-9.15-5.21-16.59-5.21-16.59c0,0-5.17,9.15-2.75,16.39L931.24,536.76z"/>
	<path d="M933.82,523.22c0.59-0.95,5.94-5.15,5.94-5.15c3.67-3.42,2.02-11.8,2.02-11.8c-0.19-4.77-3.69-1.71-3.69-1.71
		C929.93,512.36,933.82,523.22,933.82,523.22"/>
	<path d="M925.3,514.45l1.68,2.87c2.6,2.46,2.6-0.4,2.6-0.4c0.18-3.79-5.94-9.53-5.94-9.53c-2.39-5.53-3.5-0.57-3.5-0.57
		s-2.22,12.78-0.94,14.47c1.29,1.72,2.05,0.2,2.05,0.2c1.11-1.88,1.47-6.29,1.47-6.29C923.28,511.02,925.3,514.45,925.3,514.45"/>
	<path d="M933.65,486.25c-1.67-4.38-3.16-0.77-3.16-0.77c-6.29,9.91-0.91,21.72-0.91,21.72
		C938.46,496.34,933.65,486.25,933.65,486.25"/>
	<path d="M914.01,491.97c-2.2,9.7,1.68,15.6,1.68,15.6c1.83-0.93,2.02-7.98,2.02-7.98c0.37-4.2,2.6-0.57,2.6-0.57l2.04,2.85
		c3.13,2.85,2.79-0.77,2.79-0.77c0-4.18-7.06-9.14-7.06-9.14C915.12,486.26,914.01,491.97,914.01,491.97"/>
	<path d="M922.72,468.91c-7.78,6.29-0.37,22.1-0.37,22.1C931.98,477.87,922.72,468.91,922.72,468.91"/>
	<path d="M907.9,487.02c3.35,6.47,3.15-0.77,3.15-0.77c0.77-5.73,3.88-0.2,3.88-0.2c2.77,3.06,2.57-0.37,2.57-0.37
		c0.19-4.76-8.11-10.1-8.11-10.1c-3.54-2.87-3.17,1.15-3.17,1.15C906.23,478.25,907.9,487.02,907.9,487.02"/>
	<path d="M914.93,472.93c3.9-7.25-1.1-14.11-1.1-14.11c-3.18-5.32-3.88,0-3.88,0c-0.76,6.86,0.36,11.23,0.36,11.23
		C913.45,478.43,914.93,472.93,914.93,472.93"/>
	<path d="M904.39,460.92c2.95-5.91-1.29-12.58-1.29-12.58c-5.57-6.48-4.82,0.57-4.82,0.57
		C898.68,457.28,904.39,460.92,904.39,460.92"/>
	<path d="M903.65,468.91c2.78,0.4,1.3-1.51,1.3-1.51c-1.11-2.67-6.26-4.97-6.26-4.97c-5.39-4.18-3.74,3.25-3.74,3.25
		c2.23,9.53,7.05,10.66,7.05,10.66c1.66-0.39,0.56-5.31,0.56-5.31C901.8,468.91,903.65,468.91,903.65,468.91"/>
	<path d="M893.64,449.87c0-6.08-6.08-10.48-6.08-10.48c-2.79-3.43-2.79,0.19-2.79,0.19C886.06,451,893.64,449.87,893.64,449.87"/>
	<path d="M889.95,457.28c-1.11-3.23,3.5-0.95,3.5-0.95c3.71,2.29,2.59-0.58,2.59-0.58c-7.04-5.71-13.52-4.18-13.52-4.18
		c1.86,6.48,6.32,11.06,6.32,11.06C891.43,464.34,889.95,457.28,889.95,457.28"/>
	<path d="M879.19,440.71c-0.36-6.66-8.89-9.51-8.89-9.51c-3.51-1.71-2.58,1.13-2.58,1.13C873.45,441.29,879.19,440.71,879.19,440.71
		"/>
	<path d="M860.5,437.86c5.73,1.91,4.65-0.96,4.65-0.96c-1.5-4.36-5.95-7.23-5.95-7.23c-5.57-5.33-4.45,1.53-4.45,1.53
		C855.3,433.49,860.5,437.86,860.5,437.86"/>
	<path d="M865.32,444.14c2.4,4.56,9.99,7.82,9.99,7.82c3.88,1.35,0.37-3.43,0.37-3.43c-2.38-2.86,3.34-2.28,3.34-2.28
		c-1.09-5.54-11.47-4.96-11.47-4.96C863.07,441.29,865.32,444.14,865.32,444.14"/>
	<path d="M858.83,443.19c-7.23-12.76-15.38-4.95-15.38-4.95C849.37,446.06,858.83,443.19,858.83,443.19"/>
	<path d="M862.15,446.63c-12.77-2.49-19.06,4.37-19.06,4.37C854.02,456.15,862.15,446.63,862.15,446.63"/>
	<path d="M855.88,458.05c6.65,1.14,13.15-3.62,13.15-3.62C859.93,446.81,855.88,458.05,855.88,458.05"/>
	<path d="M833.89,459.71c20.55,0,39.13,8.44,52.61,22.11c13.48,13.67,21.81,32.54,21.81,53.41c0,20.87-8.34,39.74-21.81,53.41
		c-13.48,13.67-32.06,22.11-52.61,22.11c-20.55,0-39.13-8.44-52.61-22.11c-13.47-13.67-21.8-32.54-21.8-53.41
		c0-20.87,8.33-39.74,21.8-53.41C794.76,468.16,813.34,459.72,833.89,459.71 M946.63,553.2c0.8-5.27,1.28-10.67,1.38-16.14h-34.94
		c0.02-0.61,0.09-1.21,0.09-1.83c0-0.32-0.05-0.64-0.05-0.96c0.51,0.82,1.11,1.66,1.81,2.48h5.37c-0.25-6.59-5.07-10.48-7.92-12.23
		c-0.29-2.22-0.63-4.42-1.1-6.59c4.99,7.24,4.78,1.46,4.78,1.46c0.17-7.61-6.11-10.85-6.11-10.85c-0.77-0.68-1.36-1.1-1.86-1.4
		c-1.06-2.86-2.24-5.65-3.6-8.35c6.04,4.65,5.82-0.17,5.82-0.17c-1.11-4.18-7.41-6.67-7.41-6.67c-1.21-0.48-2.11-0.75-2.81-0.9
		c-1.36-2.09-2.81-4.1-4.35-6.05c1.77,0.82,3.07,1.24,3.07,1.24c7.25,1.71,4.65-3.24,4.65-3.24c-3.94-4.6-9.93-4.75-13.32-4.41
		c-0.06-0.06-0.12-0.13-0.18-0.2c-1.66-1.68-3.41-3.28-5.21-4.81c3.82,0.52,5.56-0.3,5.56-0.3c5.18-0.76,1.68-3.63,1.68-3.63
		c-4.44-4.38-13.15-3.04-13.15-3.04c-1.26,0.14-2.06,0.4-2.68,0.69c-2.69-1.73-5.5-3.28-8.39-4.67c16.37,1.08,13.11-3.07,13.11-3.07
		c-5.67-5.28-12.66,2.3-13.27,2.99c-10.24-4.89-21.64-7.71-33.7-7.71c-15.64,0-30.19,4.66-42.48,12.59
		c-0.63-0.35-1.53-0.66-2.97-0.82c0,0-8.71-1.34-13.16,3.04c0,0-3.51,2.87,1.69,3.63c0,0,1.97,0.87,6.19,0.18
		c-1.85,1.57-3.64,3.2-5.34,4.93c-0.08,0.08-0.14,0.16-0.22,0.24c-3.28-0.4-9.66-0.44-13.79,4.37c0,0-2.6,4.94,4.64,3.24
		c0,0,1.7-0.54,3.88-1.62c-1.62,2.03-3.14,4.13-4.57,6.31c-0.75,0.09-1.84,0.39-3.4,1.01c0,0-6.28,2.48-7.39,6.67
		c0,0-0.26,5.22,6.65-0.53c-1.46,2.83-2.71,5.77-3.83,8.77c-0.57,0.21-1.33,0.67-2.46,1.67c0,0-6.31,3.23-6.11,10.85
		c0,0-0.22,6.38,5.6-2.7c-0.57,2.45-1.02,4.95-1.37,7.48c-2.73,1.57-8.22,5.57-8.49,12.58h5.37c1.02-1.19,1.76-2.37,2.38-3.54
		c-0.02,0.68-0.1,1.34-0.1,2.02c0,0.62,0.08,1.22,0.09,1.83l-35.46,0.1c0.13,5.88,0.91,11.53,1.83,17.15l0.22-0.02l16.94-3.05
		l-0.01,0.15c0.8,4.81,1.9,9.49,3.34,14.04l0.11,0.14l-16.33,5.61l-0.17,0.17c1.75,5.51,3.89,10.85,6.38,15.97l0.21-0.06l15.33-8.03
		l-0.02,0.02c2.14,4.4,4.6,8.62,7.3,12.61l0.07,0.06l-14.02,10.27l-0.16,0.15c3.23,4.73,6.79,9.23,10.67,13.4l0.21-0.1l12.39-12.28
		c3.28,3.55,6.81,6.85,10.57,9.88l0.03,0.03l-10.46,14.03l-0.15,0.21c4.45,3.58,9.19,6.82,14.14,9.7l0.07-0.27l8.32-15.46l-0.2-0.12
		c4.16,2.44,8.52,4.57,13.03,6.35l0.16,0.07l-6.04,16.56l-0.09,0.27c5.22,2.07,10.65,3.73,16.21,5.02l0.08-0.31l3.59-17.29
		l-0.12-0.03c4.6,1.04,9.34,1.74,14.16,2.11l0.15,0.02l-1.06,17.67l-0.05,0.28c2.61,0.17,5.23,0.27,7.85,0.27
		c3.02,0,5.99-0.11,8.95-0.37l0.17-0.28l-1.51-17.61l-0.14-0.03c4.88-0.39,9.66-1.15,14.3-2.25l0.04,0.02l3.99,17.19l-0.04,0.32
		c5.65-1.32,11.11-3.09,16.4-5.25l-0.24-0.25l-6.42-16.41l-0.05,0.01c4.51-1.83,8.86-4,12.99-6.48v0.06l8.71,15.24l0.08,0.31
		c4.92-2.94,9.59-6.24,14.05-9.89l-0.17-0.22l-10.82-13.74l-0.02-0.03c3.78-3.11,7.34-6.5,10.65-10.16l-0.08,0.16l12.66,11.96
		l0.22,0.16c3.88-4.28,7.42-8.85,10.65-13.7l-0.31-0.05l-14.25-9.87l-0.04-0.05c2.75-4.11,5.2-8.41,7.32-12.93l-0.06,0.2l15.53,7.64
		l0.26,0.14c2.45-5.23,4.58-10.69,6.29-16.32l-16.76-5.17v-0.01c1.42-4.67,2.51-9.47,3.28-14.39v0.04L946.63,553.2z"/>
	<path d="M798.74,528.74c1.96,0.88,3-1.51,2.08-1.68c-0.92-0.17-1.21-1.47-0.32-3.08c0.89-1.6,0.14-2.38,0.14-2.38
		s0.34,0.79-0.7,2.04C798.87,524.89,796.79,527.87,798.74,528.74"/>
	<path d="M799.38,551.04c0,0,1.43-0.66,0.66-2.63c-0.77-1.98-0.7-4.39,0.93-7.78C800.97,540.62,795.19,546.95,799.38,551.04"/>
	<polygon points="801.67,519.69 805.04,516.32 801.88,513.16 805.04,509.99 801.67,506.63 798.32,509.99 801.48,513.16 
		798.32,516.32 	"/>
	<path d="M850.67,546.87c-0.08,1.36-5.79,5.26-6.81,5.78c-1.03,0.52-1.03,2.67-1.03,2.67c0.64-1.08,1.68-1.55,1.68-1.55
		s4.74-2.89,5.95-4.11C851.68,548.46,850.67,546.87,850.67,546.87"/>
	<rect x="848.69" y="554.25" transform="matrix(0.7065 -0.7077 0.7077 0.7065 -143.9504 765.1308)" width="3.76" height="3.76"/>
	<path d="M826.25,564.58c3.91,1.74,6-3.01,4.15-3.36c-1.85-0.34-2.42-2.94-0.66-6.16c1.8-3.22,0.27-4.75,0.27-4.75
		s0.71,1.58-1.39,4.06C826.52,556.88,822.34,562.84,826.25,564.58"/>
	<polygon points="812.89,547.48 810.67,549.71 812.77,551.81 810.67,553.9 812.89,556.13 815.13,553.9 813.03,551.81 815.13,549.71 
			"/>
	<polygon points="837.52,551.75 834.14,555.12 837.32,558.28 834.14,561.44 837.52,564.8 840.89,561.44 837.72,558.28 
		840.89,555.12 	"/>
	<polygon points="889.75,547.08 887.09,549.75 889.75,552.41 892.42,549.75 	"/>
	<path d="M782.38,511.37c0,0,1.42-0.64,0.63-2.62c-0.78-1.99-0.69-4.39,0.93-7.78C783.94,500.97,778.18,507.29,782.38,511.37"/>
	<polygon points="779.23,518.33 775.87,521.7 779.03,524.86 775.87,528.02 779.23,531.39 782.6,528.02 779.44,524.86 782.6,521.7 	
		"/>
	<polygon points="820.69,540.37 823.34,537.7 820.69,535.04 818.01,537.7 	"/>
	<path d="M770.81,525.93c2.27,1.02,3.49-1.75,2.4-1.96c-1.06-0.2-1.41-1.71-0.37-3.59c0.8-1.46,0.44-2.33,0.26-2.64
		c1.03-0.36,5.02-1.87,5.36-4.56c0.39-3.09-3.59-1.06-3.96-0.48c-0.38,0.57,1.83-9.2,8.11-15.19c0,0,1.36-3.19-1.35-1.36
		c0,0-13.35,18.86-8.42,21.67l0.19-0.06c0.07,0.32,0.09,1.11-0.85,2.23C770.97,521.44,768.53,524.92,770.81,525.93"/>
	<path d="M780.25,555.39c-5.34-1.07-0.98-8.97-0.98-8.97C786.73,548.51,785.59,556.45,780.25,555.39 M778.35,542.04
		c-3.85,4.18-9.51,12.15-2.16,16.7c9.85,6.12,18.1-7.96,6.61-18.08c3.8-3.53,4.71-12.38,4.71-12.38s-3.2,0.14-3.2,2.75
		c0,2.61-3.19,8.27-3.19,8.27l-0.54,0.49c-1.83-1.08-5.46-3.4-6.26-5.16c-1.09-2.39-5.04-0.75-5.04-0.75
		S773.14,539.99,778.35,542.04"/>
	<path d="M798.7,481.33c0.86-0.26,1.84,0.47,2.21,1.64c0.37,1.17-0.05,2.33-0.9,2.6c-0.86,0.27-1.84-0.47-2.2-1.64
		C797.45,482.76,797.86,481.59,798.7,481.33 M797.59,487.1c1.47,0.71,3.45-0.34,4.44-2.37c0.97-2.02,0.57-4.23-0.9-4.94
		c-1.47-0.71-3.45,0.35-4.44,2.37C795.72,484.18,796.12,486.39,797.59,487.1"/>
	<path d="M794.95,500.81c0,0,1.25-0.93,0.08-2.71c-1.16-1.77-1.58-4.15-0.68-7.8C794.35,490.3,790,497.67,794.95,500.81"/>
	<path d="M888.63,556c1.87-0.6,1.85-1.76,1.85-1.76s-0.31,0.88-2.06,1.08c-1.75,0.21-5.6,1-4.69,3.14c0.89,2.12,3.46,1.02,2.87,0.2
		C886.01,557.85,886.73,556.61,888.63,556"/>
	<path d="M799.35,495.1l0.16,0.33c0.17,0.94,0.2,1.88,0.11,2.79C798.67,498.92,798.4,496.73,799.35,495.1 M804.91,497.81
		c-0.89,0.06-1.47,0.2-1.86-0.03c0.1-1.24-0.07-2.28-0.31-3.02l-0.22-0.56C803.41,494.93,806.69,497.68,804.91,497.81
		 M852.07,570.78c-1.13,0-2.06-1.63-2.06-3.62c0-2.01,0.93-3.64,2.06-3.64c1.15,0,2.07,1.63,2.07,3.64
		C854.14,569.16,853.22,570.78,852.07,570.78 M892.91,531.15c-1,1.45-2.74,1.97-3.89,1.17c-1.14-0.8-1.24-2.61-0.24-4.05
		c1.01-1.45,2.76-1.97,3.9-1.16C893.81,527.9,893.93,529.71,892.91,531.15 M786.75,513.46c-2.1,1.3-3.6,2.04-3.6,2.04
		c1.3-0.49,2.51-1,3.66-1.52c1.24,10.91,2.64,25.17,3.01,37.36c0.1,3.27,0.26,6.18,0.46,8.81c-5.65,3.24-11.9,6.11-16.43,6.57
		l-0.28,1.45c0,0,8.25-1.56,16.98-4.96c1.47,13.83,5.05,17.9,12.76,18.03c6.53,0.09,13.19-4.6,20.4-6.9
		c-4.29,4.75-4.2,20.41,2.23,21.69c6.52,1.3,5.51-4.35,8.12-12.76c2.62-8.42,6.11-6.97,6.11-6.97s1.2,7.88,10.8,6.33l-0.65,0.34
		c0,0-0.72,8.55,1.46,11.16c2.17,2.62,6.97,3.91,12.34-8.99c5.36-12.91,27.26-19.87,27.26-19.87c2.76-1.75,4.08-6.25,4.08-6.25
		c-3.48-0.14-7.11,3.77-12.34,5.95c-5.22,2.18-5.95,3.19-8.85,0.29c-2.91-2.9-4.5-5.95,1.6-6.25c6.81-0.31,7.98-6.53,7.98-6.53
		c0.38-1.54,0.31-2.25,0.06-2.53c4.7-2.94,9.09-6.96,12.13-12.41c0,0,4.2-4.64-0.73-13.2c-4.94-8.56-15.96,6.53-7.98,11.17
		c4.93,1.77,6.23-0.75,6.48-1.43c-0.52,1.51-5.47,13.24-34.32,22.17c0,0-1.31,1.46-0.16,1.74c0,0,12.19-0.81,23.28-7.24
		c-1.17,6.39-5.13,4.36-9.92,5.07c-4.94,0.73-4.79,7.26-4.79,7.26c0,4.49,5.53,7.39,5.53,7.39c-7.85,3.19-11.32,10.01-13.37,13.63
		c-2.02,3.64-2.31,7.12-5.37,7.26c-2.6,0.14-2.13-7.05-1.94-9.14c10.08-3.01,6.63-22.77,0.63-22.34c-6.09,0.43-7.54,7.69-7.54,7.69
		c-0.14,9,5.66,3.62,8.28,5.37c2.6,1.74,0.29,6.24-5.09,6.39c-5.37,0.14-6.67-7.11-6.67-7.11c-3.34-2.61-8.28,0.44-10.16,7.84
		c-1.88,7.4-2.61,9.29-5.08,10.73c-2.47,1.46-3.48-2.45-3.77-7.54c-0.24-4.4,1.35-8.35,1.78-9.34c2.93-0.8,5.95-1.13,9.1-0.54
		l2.19-4.93c0,0-18.15,1.89-26.27-3.19c0,0,7.69-3.92,9.87-8.13c0,0,1.15,3.49,0.72,5.66c0,0,2.51-2.03,1.45-9.86l-2.42-1.93
		c0,0-6.77,10.93-20.31,13.05c0,0-0.87,3.59,0.29,4.35c0,0,14.22,1.07,18.67,4.16c0,0-18.58,7.94-22.15-0.47
		c0,0-1.32-2.36-2.15-10.38c6.52-2.93,12.71-6.94,15.3-12.12l0.15-2.91c0,0-0.58-6.97-2.75-10.73c-1.31-0.29-2.46,2.18-2.46,2.18
		s2.16,9.14-0.43,12.33c-1.14,1.4-5.15,4.48-10.12,7.58c-0.16-2.34-0.29-5.04-0.34-8.16c0,0-0.27-19.02-2.14-38.17
		c6.68-3.77,9.76-7.67,11.02-10.91c1.08-0.11,2.37-0.42,3.87-0.97c4.23-3.04-1.01-7.98-4.63-8.42c0,0-1.16,0-1.6-1.88
		c-0.43-1.88-1.88-0.58-2.32,0.14c0,0,1.89,3.78,0.14,5.37c-1.15,1.05-1.47,4.37,1.3,5.47c-1.31,3.85-4.63,7.25-7.92,9.85
		c-0.86-8.54-2.05-17-3.68-23.73c0,0-5.07,2.75-2.9,10C784.61,496.64,785.61,503.62,786.75,513.46"/>
	<path d="M826.32,584.17c2,0.89,3.06-1.54,2.12-1.72c-0.94-0.18-1.23-1.5-0.33-3.14c0.91-1.65,0.14-2.43,0.14-2.43
		s0.35,0.81-0.72,2.08C826.46,580.24,824.32,583.28,826.32,584.17"/>
	<path d="M860.2,569.54c4.13-0.41,7.21-6.4,5.59-8.91c-1.58-2.51-4.09,3.16-4.09,3.16c0.3,1.26,0.97,0.27,0.97,0.27
		c1.09-2.6,1.9-1.02,1.9-1.02C865.79,565.31,860.2,569.54,860.2,569.54"/>
	<path d="M890.22,512.32c-0.23,1.16-0.49,3.06-0.27,4.61c-4.2,0.78-5.82,7.05-5.82,7.05c1.94-3.2,3.93-4.59,6.02-5.02l0.54-0.16
		c0.34,0.39,0.84,0.62,1.52,0.57c2.97-0.25,2.66-3.87,1.42-3.46c-1.26,0.41-2.48-0.99-2.47-3.56c0-2.58-1.42-3.02-1.42-3.02
		S890.68,510.09,890.22,512.32"/>
	<path d="M896.66,550.55c0,0,1.47-0.67,0.67-2.73c-0.79-2.05-0.73-4.57,0.97-8.08C898.3,539.74,892.32,546.31,896.66,550.55"/>
	<path d="M788.6,577.63c-1.25-0.23-1.65-1.99-0.44-4.18c1.21-2.19,0.2-3.23,0.2-3.23s0.46,1.07-0.96,2.77
		c-1.42,1.7-4.25,5.74-1.61,6.92C788.44,581.09,789.84,577.86,788.6,577.63"/>
	<path d="M867.34,504.13c-1.65,0.6-2,3.88-2,3.88c1.16-1.52,2.81-2.06,2.81-2.06s7.67-3.58,9.71-5.2c2.03-1.62,0.79-4.21,0.79-4.21
		C878.3,498.59,868.99,503.52,867.34,504.13"/>
	<path d="M887.78,505.37c3.11-1.12,0.46-6.7-0.91-9.06c-1.38-2.37-0.72-3.68-0.72-3.68s-1.28,1.19-0.21,4.15
		c1.08,2.96,0.4,5.16-1.02,5.27C883.51,502.17,884.68,506.5,887.78,505.37"/>
	<path d="M818.8,589.41c0.66-3.58-3.58-0.29-3.58-0.29c-4.15,5.61-12.36,5.58-15.29,4.15c-3.76-1.83,0.78-3.77,0.78-3.77
		c3.29-2.03,8.99-4.64,5.5-6.52c-3.47-1.9-7.38,3.05-7.38,3.05c1.97,1.74,1.88-1.46,3.63-0.29c1.73,1.16-3.78,3.48-3.78,3.48
		c-5.22,2.71-2.03,5.71-2.03,5.71c6.29,5.71,19.84-4.17,19.84-4.17s-2.71,8.32,0,9.48c2.69,1.17,3.58-3.96,3.58-3.96
		C816.28,596.18,818.12,592.98,818.8,589.41"/>
	<path d="M772.35,546.99c-1.07-0.2-1.41-1.71-0.38-3.58c1.04-1.88,0.17-2.77,0.17-2.77s0.4,0.92-0.83,2.37
		c-1.22,1.46-3.66,4.93-1.38,5.94C772.2,549.97,773.41,547.2,772.35,546.99"/>
	<path d="M875.49,536.21c3.77,1.74,0,5.21-8.99,7.63c-3.25,0.88-5.68,1.12-7.54,0.93C865.28,534.02,872.27,534.73,875.49,536.21
		 M799.83,532.05c-4.25,2.03-3.09-9.78-2.31-11.81c0.77-2.03-0.2-1.54-0.2-1.54c-3.76,4.55-2.91,11.02-2.02,14.7
		c0.87,3.68,3.3,7.42,8.41,1.16c2.4-2.94,4.2-5.22,5.58-6.93v13.19c1.08,12.25,17.27,3.48,17.27,3.48
		c10.96,13.64,24.3-0.14,24.3-0.14s1.15,1.41,3.41,2.66c-1.29,2.36-2.03,4.01-2.03,4.01c1.13,3.41,3.52,0.65,3.52,0.65
		c0.48-1.23,0.97-2.35,1.46-3.41c4.46,1.35,11.23,1.17,20.2-5.37c4.58-3.05,2.9-6.6,2.9-6.6c-9.31-12.46-19.11-0.76-24.33,7.72
		c-1.31-0.82-2.11-2.08-2.65-3.57c-1.36-3.68-3.77-0.09-3.77-0.09c-9.38,11.12-18.69,3.23-19.65,2.22
		c-1.82-1.94,1.68-7.58-5.12-1.85c-6.56,5.55-10.03,3-11.3,0.84c-1.05-1.79-0.86-4.8-0.86-4.8V524.1c1.18-0.64,1.49,1.3,3.38,5.14
		c2.01,4.16,4.34,4.65,4.34,4.65c9.48,0.77,18.96-5.71,21.38-7.74c2.42-2.03,2.02-4.16,2.02-4.16c-6.09,4.64-16.24,6.48-16.24,6.48
		c-5.43-0.19-4.94-7.65-4.94-7.65c1.14-5.11,5.38-5.22,8.89-4.36c-1.43,2.01-3.72,6.22-0.65,9.22c0,0,1.43-0.64,0.65-2.63
		c-0.67-1.72-0.7-3.77,0.37-6.51c2.49,0.67,4.55,1.77,4.76,1.77c0,0-2.33-7.07-10.55-5.03c-8.22,2.03-6.88,11.7-6.29,13.25
		c0.58,1.55,1.16,2.22,0.48,2.8c-0.68,0.58-2.13-3.96-5.8-7.83c-0.54-0.57-1.16-0.78-1.82-0.72v-48.65
		c-2.9,0.14-3.34,2.68-3.34,2.68v47.83C806.08,525.51,802.49,530.78,799.83,532.05"/>
	<path d="M880.08,580.65c0,0-2.6-1.59,1.3-4.93c0,0,1.45-1.88-0.58-2.32c0,0-8.56,7.54-4.34,10.88c4.19,3.33,13.19-5.65,13.19-15.96
		C889.65,568.32,883.85,583.12,880.08,580.65"/>
	<path d="M870.85,590.02c-1.21-0.22-1.6-2.36-0.41-5.07c1.19-2.73,0.18-3.95,0.18-3.95s0.46,1.28-0.94,3.43
		c-1.39,2.13-4.17,7.19-1.59,8.5C870.69,594.25,872.08,590.25,870.85,590.02"/>
	<path d="M849.02,598.1c-1.24-0.06-1.89-2.13-1.06-4.97s-0.31-3.94-0.31-3.94s0.62,1.23-0.5,3.51c-1.12,2.29-3.23,7.66-0.51,8.65
		C849.38,602.32,850.26,598.17,849.02,598.1"/>
	<path d="M834.95,591.53c0,0,6.82-5.08,5.67-0.72c-1.17,4.36-8.85,12.63-15.24,13.06c0,0,11.45,2.17,18.85-14.22
		C850.95,574.79,829.87,592.11,834.95,591.53"/>
	<polygon points="816.87,584.42 814.02,581.56 811.15,584.42 814.02,587.28 	"/>
	<path d="M793.92,585.49c-0.66,0.21-1.43-0.36-1.7-1.27c-0.29-0.91,0.02-1.81,0.69-2.02c0.65-0.2,1.42,0.37,1.7,1.27
		C794.88,584.39,794.58,585.29,793.92,585.49 M794.78,581.03c-1.13-0.55-2.68,0.26-3.43,1.82c-0.75,1.56-0.44,3.27,0.69,3.83
		c1.14,0.54,2.67-0.27,3.44-1.83C796.23,583.29,795.92,581.58,794.78,581.03"/>
	<path d="M845.41,534.02c3.38-0.63,6.82-1.34,8.47-1.87c3.83-1.25,2.83-4.02,2.83-4.02c-1.31,1.97-17.91,5.19-20.72,5.5
		c-2.83,0.31-4.65,3.48-4.65,3.48c2.4-1.31,5.22-1.55,5.22-1.55s3.87-0.62,8.05-1.39l-0.28,0.5c-1.14,1.73-3.31,5.79-0.59,6.51
		c2.74,0.71,3.66-2.42,2.4-2.46c-1.24-0.03-1.87-1.59-1.01-3.74L845.41,534.02z"/>
	<path d="M871.32,512.06c0,0,5,4.62,8.31,4.12c1.94-0.29,2.7-3.82,3.01-6.72c3.32,6.06-1.6,11.39-1.6,11.39
		c-9.65,10.39-18.64,3.02-18.64,3.02c-2.32-2.67-3.63-5.24-4.18-7.69C865.51,514.76,871.32,512.06,871.32,512.06 M880.42,508.62
		c1.6,3.01-3.75,4.68-5.65,2.15C874.77,510.78,878.83,505.6,880.42,508.62 M832.6,508.01c3.54,6.57,9.83,8.8,16.33,9.01
		c-0.06,0.43-0.25,0.99-0.66,1.66c-1.13,1.84-3.28,6.14-0.56,6.91c2.73,0.76,3.63-2.55,2.39-2.6c-1.23-0.05-1.87-1.69-1.01-3.97
		c0.31-0.84,0.35-1.49,0.28-1.97c1.76,0.03,3.53-0.08,5.24-0.29c1.51,14.47,15.98,17.06,25.21,9.27c9.9-8.36,7.13-17.84,3-20.36
		c-5.53-3.81-12.36,3.01-12.36,3.01c-4.72,2.32-8.88,3.71-12.54,4.43c0.3-12.09,18.02-20.68,19.37-21.83
		c1.72-1.48,1.03-4.01,1.03-4.01c-0.67,0.07-2.08,0.68-2.08,0.68c-4.46,2.25-7.99,4.67-10.81,7.08c-2.11-1.1-17.94-9.87,6.19-12.06
		c0,0-7.5-5.47-15.42,1.3c0,0-3.97,3.68-0.99,7.93c0,0,3.18,3.91,7.13,5.79c-7.32,7.73-7.81,14.64-7.81,14.64l-0.04,0.98
		c-12.59,1.18-18.07-5.97-18.67-6.8c22.57-9.61,12.99-17.99,12.8-20.26c-0.17-2.27,1.97-1.29,1.97-1.29
		c-1.78-6.82-6.41-9.29-6.41-9.29c-2.14,2.46-1.65,5.23-1.65,5.23c3.37,3.32,4.78,10.15,4.78,10.15s3.38,7.23-11.75,11.94
		l-0.18-36.48c-2.83-1.85-3.21,3.63-3.21,3.63l-0.11,33.81l-0.07,0.01c-21.46,2.65-12.17-16.98-12.17-16.98s2.34,0,4.05-3.68
		c1.72-3.7-2.46-1.42-2.46-1.42c-2.41-0.12-2.03-5.54-0.42-8.24c1.59-2.7,0.3-4.49,0.3-4.49c-7.57,10.21-3.32,17.78-3.32,17.78
		C813.35,492.97,812.75,514.47,832.6,508.01"/>
	<path d="M842.08,507.41c1.45-1.25,3.2-1.42,3.2-1.42s8.22-1.87,10.56-3.02c2.34-1.15,1.66-3.95,1.66-3.95
		c-0.76,1.94-10.92,4.78-12.65,5.02C843.13,504.29,842.08,507.41,842.08,507.41"/>
	<path d="M816.7,519.02c0,0,1.42-0.65,0.66-2.63c-0.78-1.97-0.7-4.39,0.92-7.78C818.27,508.61,812.51,514.93,816.7,519.02"/>
	<path d="M815.58,486.23c-0.81-1.42-1.14-3.28-0.64-6.12c0,0-2.67,5.67,0.64,8.24C815.58,488.35,816.4,487.65,815.58,486.23"/>
	<path d="M856.64,475.8c-0.3-0.98,0.04-1.95,0.75-2.16c0.71-0.23,1.53,0.38,1.84,1.36c0.3,0.98-0.04,1.95-0.74,2.17
		C857.77,477.39,856.95,476.78,856.64,475.8 M860.44,475.72c0.4-1.45,0.02-2.86-1.04-3.37c-1.21-0.59-2.88,0.29-3.69,1.97
		c-0.78,1.64-0.49,3.42,0.67,4.06c-0.75,2.84-4.14,5.88-4.14,5.88C860.31,479.38,860.44,475.93,860.44,475.72"/>
	<path d="M838.93,470.86c0.75-0.24,1.61,0.41,1.93,1.43c0.31,1.03-0.03,2.05-0.79,2.28c-0.73,0.23-1.62-0.41-1.92-1.44
		C837.83,472.1,838.18,471.09,838.93,470.86 M837.96,475.91c1.27,0.62,3.03-0.3,3.86-2.08c0.87-1.76,0.51-3.69-0.78-4.32
		c-1.27-0.62-3,0.3-3.87,2.06C836.32,473.35,836.66,475.29,837.96,475.91"/>
	<polygon points="842.77,490.26 839.41,486.89 836.03,490.26 839.41,493.63 	"/>
	<path d="M869.31,517.76c-0.34,1.73-0.77,5.62,1.53,5.45c2.3-0.2,2.06-2.98,1.1-2.67c-0.97,0.31-1.92-0.77-1.9-2.75
		c0.01-1.99-1.11-2.32-1.11-2.32S869.67,516.04,869.31,517.76"/>
	<path d="M825.62,478.66c-0.92,2.59,0.61,3.51,0.61,3.51c4.74-5.23-1.36-13.83-1.36-13.83
		C826.54,472.88,826.54,476.09,825.62,478.66"/>
	<path d="M827.27,487.95c1.3-3.07-0.23-4.31-0.23-4.31s0.79,1.36-0.87,3.83c-1.66,2.45-4.86,8.23-1.1,9.41
		c3.74,1.17,5.15-3.33,3.43-3.45C826.78,493.3,825.98,491.03,827.27,487.95"/>
</g>
</svg>
