<?xml version="1.0" encoding="utf-8"?>
<!-- Generator: Adobe Illustrator 27.2.0, SVG Export Plug-In . SVG Version: 6.00 Build 0)  -->
<svg version="1.1" id="Layer_1" xmlns="http://www.w3.org/2000/svg" xmlns:xlink="http://www.w3.org/1999/xlink" x="0px" y="0px"
	 viewBox="0 0 1080 1080" style="enable-background:new 0 0 1080 1080;" xml:space="preserve">
<g>
	<polygon points="542.19,496.44 579.67,496.44 579.67,502.41 548.93,554.76 579.36,554.76 579.36,560.88 541.6,560.88 541.6,554.81 
		572.34,502.55 542.19,502.55 	"/>
	<polygon points="598.09,502.55 598.09,524.7 621.77,524.7 621.77,530.81 598.09,530.81 598.09,554.77 624.2,554.77 624.2,560.87 
		591.71,560.87 591.71,496.43 624.2,496.43 624.2,502.55 	"/>
	<path d="M658.51,496.43c9.98,0,15.95,6.79,15.95,18.38c0,9.89-4.5,16.53-11.46,18.83l11.1,27.23h-6.92l-10.61-26.15h-13.66v26.15
		h-6.38v-64.44H658.51z M642.91,528.66h13.75c6.83,0,11.28-5.17,11.28-13.62c0-8.13-4.13-12.49-10.43-12.49h-14.61V528.66z"/>
	<path d="M730.42,528.66c0,23-7.24,33.71-22.52,33.71c-15.27,0-22.51-10.7-22.51-33.71c0-23.01,7.24-33.71,22.51-33.71
		C723.18,494.95,730.42,505.65,730.42,528.66 M691.91,528.66c0,19.01,5.08,27.59,16,27.59c10.92,0,16-8.59,16-27.59
		c0-19.01-5.08-27.59-16-27.59C696.99,501.06,691.91,509.65,691.91,528.66"/>
	<rect x="768.28" y="496.44" width="6.38" height="64.44"/>
	<polygon points="830.17,496.44 830.17,560.88 821.9,560.88 796.73,506.86 796.73,560.88 790.35,560.88 790.35,496.44 
		798.62,496.44 823.83,550.45 823.83,496.44 	"/>
	<path d="M868.43,496.47l-3.25,12.46l-3.28-12.46h-5.34v17.54h3.35v-13.29l3.12,11.78h4.25l3.15-11.78v13.29h3.36v-17.54H868.43z
		 M840.04,496.47v3.26h5.43v14.28h3.35v-14.28h5.41v-3.26H840.04z"/>
	<path d="M283.49,582.54c14.99,26.42,43.62,53.17,92.85,54.81c34.37-0.14,61.77-14.2,82.25-38.96c3.83-4.63,7.62-10.82,10.09-15.84
		l2.45-0.02c-22.75,54.69-75.31,92.3-134.23,91.33c-24.79-0.77-47.94-5.65-69.73-18c0,0-43.33-20.1-64.41-73.31L283.49,582.54z"/>
	<path d="M390.33,474.86c-15.01-26.44-43.59-53.17-92.82-54.81c-34.39,0.12-61.78,14.19-82.27,38.96
		c-3.83,4.62-7.62,10.82-10.08,15.83l-2.45,0.02c22.74-54.69,75.31-92.3,134.22-91.34c24.82,0.77,47.94,5.65,69.73,18
		c0,0,43.33,20.1,64.41,73.32L390.33,474.86z"/>
	<polygon points="313.94,496.46 333.91,519.15 353.99,496.46 381.23,496.46 350.11,528.45 382.78,561.04 355.15,561.04 
		333.91,537.86 312.87,561.04 284.56,561.04 317.62,528.45 287.08,496.46 	"/>
	<polygon points="410.19,496.46 431.23,522.35 451.4,496.46 477.09,496.46 441.7,538.25 441.7,561.04 421.34,561.04 421.34,538.25 
		384.3,496.46 	"/>
	<path d="M218.31,516.27c-1.16,2.22-1.55,5.9-1.55,14.11c0,8.03,0.58,10.64,2.9,12.48c2.61,2.03,5.71,2.32,21.95,2.32
		c15.76,0,18.95-0.39,21.57-2.32c2.22-1.74,2.9-4.55,2.9-12.38c0-9.57-0.58-13.25-2.32-15.37c-2.22-2.61-4.34-2.9-22.33-2.9
		C222.08,512.21,220.24,512.5,218.31,516.27 M279.31,499.94c4.93,3.77,6.38,10.25,6.38,28.72c0,18.56-1.45,25.04-6.38,28.81
		c-4.93,3.78-11.02,4.45-37.71,4.45c-27.16,0-33.16-0.67-38.09-4.45c-5.03-3.87-6.38-10.25-6.38-29.2c0-17.98,1.45-24.56,6.38-28.32
		c4.93-3.78,10.92-4.45,37.9-4.45C268.39,495.49,274.38,496.16,279.31,499.94"/>
</g>
</svg>
