<?xml version="1.0" encoding="utf-8"?>
<!-- Generator: Adobe Illustrator 27.2.0, SVG Export Plug-In . SVG Version: 6.00 Build 0)  -->
<svg version="1.1" id="Layer_1" xmlns="http://www.w3.org/2000/svg" xmlns:xlink="http://www.w3.org/1999/xlink" x="0px" y="0px"
	 viewBox="0 0 1080 1080" style="enable-background:new 0 0 1080 1080;" xml:space="preserve">
<g>
	<path d="M314.4,587.72v-10.25h5.78c4.51,0,6.39,1.4,6.39,4.82c0,1.56,0,5.43-5.44,5.43H314.4z M314.4,593.75h8.35
		c9.37,0,11.12-7.97,11.12-11.13c0-6.86-4.08-11.17-10.83-11.17h-15.95v34.89h7.31V593.75z"/>
	<path d="M342.46,590.83c0.4-3.4,2.09-5.43,5.3-5.43c2.19,0,4.85,1.26,5.24,5.43H342.46z M352.71,598.74
		c-0.54,1.86-2.48,2.83-4.36,2.83c-5.49,0-5.88-4.38-6.08-6.32H360v-1.21c0-11.8-7.03-14.25-12.14-14.25
		c-11.32,0-12.39,9.96-12.39,13.07c0,10.64,5.58,14.13,12.88,14.13c4.41,0,9.57-2.03,11.35-8.27H352.71z"/>
	<path d="M372.14,580.48h4.23v4.86h-4.23v14.03c0,1.52,0.06,2.09,2.82,2.09c0.44,0,0.93-0.05,1.4-0.1v5.14
		c-1.07,0.06-2.13,0.11-3.2,0.11h-0.89c-5.87,0-6.94-2.22-6.94-5.6v-15.68h-3.49v-4.86h3.49v-6.98h6.8V580.48z"/>
	<path d="M380.64,580.48h6.51v4.46h0.09c1.42-2.62,2.96-5.14,7.1-5.14c0.43,0,0.87,0.06,1.31,0.1v6.9c-0.58-0.1-1.31-0.1-1.94-0.1
		c-5.3,0-6.27,3.3-6.27,6.16v13.47h-6.81V580.48z"/>
	<path d="M416.54,593.4c0,3.3-0.97,7.88-6.21,7.88c-5.25,0-6.22-4.59-6.22-7.88c0-3.3,0.97-7.87,6.22-7.87
		C415.58,585.54,416.54,590.1,416.54,593.4 M423.54,593.4c0-9.33-6.26-13.6-13.2-13.6c-6.95,0-13.22,4.27-13.22,13.6
		c0,9.33,6.27,13.6,13.22,13.6C417.27,607,423.54,602.73,423.54,593.4"/>
	<rect x="428.5" y="571.45" width="6.79" height="34.89"/>
	<path d="M446.76,590.83c0.39-3.4,2.09-5.43,5.3-5.43c2.2,0,4.87,1.26,5.25,5.43H446.76z M457.01,598.74
		c-0.52,1.86-2.46,2.83-4.36,2.83c-5.49,0-5.88-4.38-6.07-6.32h17.73v-1.21c0-11.8-7.04-14.25-12.14-14.25
		c-11.33,0-12.39,9.96-12.39,13.07c0,10.64,5.59,14.13,12.87,14.13c4.42,0,9.57-2.03,11.36-8.27H457.01z"/>
	<path d="M492.13,606.34h-6.49v-3.65h-0.11c-1.56,2.77-4.27,4.32-7.88,4.32c-5.1,0-8.79-2.91-8.79-9.53v-16.99h6.81v16.03
		c0,3.98,2.33,4.77,4.41,4.77c2.24,0,5.25-1.26,5.25-5.89v-14.9h6.8V606.34z"/>
	<path d="M535.46,606.34h-6.79v-15.71c0-3.83-1.7-5.1-3.7-5.1c-3.39,0-4.62,2.24-4.62,5.3v15.51h-6.8v-15.56
		c0-2.18,0-5.24-4.09-5.24c-3.2,0-4.22,2.24-4.22,5.06v15.75h-6.79v-25.85h6.49v3.79h0.1c0.87-1.7,2.77-4.47,7.34-4.47
		c3.74,0,5.44,1.35,7.19,4.13c0.88-1.25,2.77-4.13,6.91-4.13c5.05,0,8.98,2.96,8.98,8.65V606.34z"/>
	<path d="M562.86,577.47h7c3.1,0,8.01,0.84,8.01,11.12c0,5.73-1.99,11.7-7.91,11.7h-7.1V577.47z M555.71,606.33h15.11
		c11.52,0,14.48-10.8,14.48-18.28c0-6.6-2.42-16.61-14.2-16.61h-15.4V606.33z"/>
	<path d="M595.21,590.83c0.39-3.4,2.1-5.43,5.3-5.43c2.19,0,4.86,1.26,5.25,5.43H595.21z M605.46,598.74
		c-0.52,1.86-2.48,2.83-4.37,2.83c-5.49,0-5.87-4.38-6.06-6.32h17.73v-1.21c0-11.8-7.04-14.25-12.14-14.25
		c-11.33,0-12.38,9.96-12.38,13.07c0,10.64,5.56,14.13,12.85,14.13c4.43,0,9.59-2.03,11.38-8.27H605.46z"/>
	<polygon points="630.43,606.34 623.29,606.34 614.01,580.49 621.59,580.49 626.93,599.53 627.04,599.53 632.52,580.49 
		639.76,580.49 	"/>
	<path d="M648.52,590.83c0.38-3.4,2.08-5.43,5.28-5.43c2.19,0,4.86,1.26,5.25,5.43H648.52z M658.75,598.74
		c-0.53,1.86-2.48,2.83-4.37,2.83c-5.49,0-5.86-4.38-6.07-6.32h17.73v-1.21c0-11.8-7.04-14.25-12.14-14.25
		c-11.31,0-12.38,9.96-12.38,13.07c0,10.64,5.59,14.13,12.87,14.13c4.43,0,9.56-2.03,11.38-8.27H658.75z"/>
	<rect x="670.76" y="571.45" width="6.81" height="34.89"/>
	<path d="M701.98,593.4c0,3.3-0.98,7.88-6.22,7.88c-5.25,0-6.21-4.59-6.21-7.88c0-3.3,0.96-7.87,6.21-7.87
		C701,585.54,701.98,590.1,701.98,593.4 M708.99,593.4c0-9.33-6.28-13.6-13.22-13.6c-6.95,0-13.22,4.27-13.22,13.6
		c0,9.33,6.27,13.6,13.22,13.6C702.71,607,708.99,602.73,708.99,593.4"/>
	<path d="M720.12,593.99c0-4.12,1.12-8.33,5.77-8.33c4.33,0,5.79,3.86,5.79,7.94c0,3.06-1.22,7.82-5.58,7.82
		C721.76,601.43,720.12,597.83,720.12,593.99 M720.12,580.48h-6.52v35.9h6.81v-13.36h0.09c0.84,1.42,2.54,3.99,7.29,3.99
		c7.66,0,10.88-6.81,10.88-13.9c0-8.93-5.05-13.3-10.74-13.3c-4.56,0-6.46,2.37-7.72,4.42h-0.09V580.48z"/>
	<path d="M780.4,606.34h-6.81v-15.71c0-3.83-1.7-5.1-3.69-5.1c-3.4,0-4.61,2.24-4.61,5.3v15.51h-6.8v-15.56c0-2.18,0-5.24-4.09-5.24
		c-3.2,0-4.21,2.24-4.21,5.06v15.75h-6.82v-25.85h6.52v3.79h0.11c0.88-1.7,2.76-4.47,7.33-4.47c3.74,0,5.43,1.35,7.17,4.13
		c0.88-1.25,2.78-4.13,6.91-4.13c5.05,0,9,2.96,9,8.65V606.34z"/>
	<path d="M791.55,590.83c0.4-3.4,2.1-5.43,5.31-5.43c2.16,0,4.86,1.26,5.24,5.43H791.55z M801.81,598.74
		c-0.53,1.86-2.48,2.83-4.37,2.83c-5.48,0-5.88-4.38-6.08-6.32h17.74v-1.21c0-11.8-7.05-14.25-12.14-14.25
		c-11.32,0-12.38,9.96-12.38,13.07c0,10.64,5.58,14.13,12.87,14.13c4.42,0,9.57-2.03,11.38-8.27H801.81z"/>
	<path d="M836.99,606.34h-6.8v-15.71c0-1.89-0.11-5.1-4.43-5.1c-3.01,0-5.35,2.04-5.35,5.98v14.82h-6.8v-25.85h6.51v3.79h0.1
		c0.92-1.56,2.86-4.47,7.77-4.47c5.07,0,9,2.96,9,8.65V606.34z"/>
	<path d="M850.93,580.48h4.21v4.86h-4.21v14.03c0,1.52,0.05,2.09,2.82,2.09c0.42,0,0.92-0.05,1.39-0.1v5.14
		c-1.06,0.06-2.14,0.11-3.2,0.11h-0.87c-5.89,0-6.96-2.22-6.96-5.6v-15.68h-3.49v-4.86h3.49v-6.98h6.81V580.48z"/>
	<path d="M879.25,588.88c0-9.78,5.54-12.18,9.47-12.18c3.94,0,9.47,2.41,9.47,12.18c0,9.76-5.53,12.21-9.47,12.21
		C884.79,601.09,879.25,598.64,879.25,588.88 M871.96,588.88c0,16.39,12.15,18.36,16.76,18.36s16.76-1.97,16.76-18.36
		c0-16.37-12.15-18.36-16.76-18.36S871.96,572.51,871.96,588.88"/>
	<path d="M947.75,606.34h-6.8v-15.71c0-3.83-1.7-5.1-3.69-5.1c-3.4,0-4.62,2.24-4.62,5.3v15.51h-6.8v-15.56c0-2.18,0-5.24-4.1-5.24
		c-3.2,0-4.2,2.24-4.2,5.06v15.75h-6.81v-25.85h6.49v3.79h0.1c0.89-1.7,2.77-4.47,7.34-4.47c3.75,0,5.45,1.35,7.2,4.13
		c0.87-1.25,2.77-4.13,6.89-4.13c5.06,0,9,2.96,9,8.65V606.34z"/>
	<path d="M968.24,597.05c0,3.15-3.06,5.1-6.08,5.1c-1.3,0-3.16-0.72-3.16-3.12c0-2.8,2.1-3.45,4.62-3.89
		c2.82-0.42,3.94-0.86,4.62-1.39V597.05z M974.9,587.28c0-6.35-6.66-7.49-10.31-7.49c-5.29,0-10.77,1.14-11.55,9.04h6.55
		c0.2-1.52,0.78-3.6,4.18-3.6c1.75,0,4.47,0.16,4.47,3.01c0,1.46-1.31,1.9-2.39,2.05l-6.12,0.92c-4.32,0.63-7.52,3.2-7.52,8.25
		c0,5.36,3.96,7.54,7.86,7.54c4.61,0,6.8-2.12,8.35-3.73c0.15,1.46,0.24,1.84,0.62,3.07h7.35v-1.04c-0.83-0.27-1.5-0.97-1.5-4.01
		V587.28z"/>
	<path d="M1004.33,606.34h-6.8v-15.71c0-1.89-0.1-5.1-4.43-5.1c-3,0-5.34,2.04-5.34,5.98v14.82h-6.81v-25.85h6.51v3.79h0.1
		c0.93-1.56,2.87-4.47,7.77-4.47c5.05,0,8.99,2.96,8.99,8.65V606.34z"/>
	<path d="M913.44,463.62c3.15,0.1,1.53,2.76,0.92,4.32c-0.37,0.89-0.56,1.88-1.11,2.66c-0.64,0.93-1.59,1.63-2.57,2.01
		c-2.4,0.98-4.94,1.44-7.5,2.14c-1.34,0.45-2.71,0.89-4.08,1.33c-1.07,0.24-2.11,0.5-3.18,0.73c-0.93,0.31-1.86,0.64-2.79,0.93
		c-1.01,0.25-2.04,0.5-3.05,0.74c-2.52,0.87-5.18,1.66-7.8,2.32c-1.64,0.41-9,2.42-9.22,4.06c-0.05,0.36,0.04,0.65,0.18,0.94
		c1.26,1.59,2.52,3.2,3.77,4.8c0.32,0.29,0.61,0.6,0.91,0.88c0.91,1.19,1.83,2.39,2.72,3.59c2.11,2.46,3.83,5.18,5.34,7.93
		c1.73,3.09,3.51,6.13,4.81,9.41c0.4,0.95,0.82,1.86,1.23,2.81c1.11,2.79,2.03,5.87,2.1,9.16c0,1.52-0.11,3.01-0.12,4.42
		c-0.06,3.33,0.07,6.37-2.51,8.37c-1.03,0.81-2.25,1.24-3.43,1.72c-0.46,0.2-0.91,0.39-1.36,0.57c-2.13,0.7-5.82,0.8-7.94,0.13
		c-0.92-0.28-1.73-0.69-2.57-1.06c-1.56-0.65-3-1.25-4.34-2.28c-0.48-0.44-0.94-0.87-1.4-1.31c-0.9-0.81-1.92-1.6-2.71-2.55
		c-0.79-0.91-1.25-1.93-1.84-2.94c-1.29-2.23-2.4-4.38-3.34-6.77c-0.65-1.62-1.3-3.24-1.95-4.88c-0.45-1.3-1.65-6.25-2.67-6.85
		c-0.52-0.3-1.12,0.15-1.37,0.55c-0.73,1.11-1.19,2.42-2.26,3.35c-0.44,0.39-1.06,0.59-1.55,0.87c-1.3,0.69-2.43,1.38-3.36,2.58
		c-0.27,0.34-0.55,0.71-0.54,1.18c0.06,1.39,4.58,1.2,5.89,1.2c0.53-0.3,1.22-0.42,1.79-0.62c0.56-0.29,1.12-0.58,1.7-0.87
		c0.2-0.05,0.38-0.05,0.54,0.11c0.98,0.89-2.9,6.95-3.73,7.9c-0.46,0.52-0.97,0.96-1.53,1.3c-1.57,0.9-4.78,1.11-6.77,0.92
		c-0.76-0.08-1.53-0.16-2.27-0.24c-0.48-0.02-0.96,0.11-1.41,0c-0.22-0.06-0.49-0.24-0.59-0.45c-0.59-1.25,0.76-4.11,1.22-5.21
		c1.46-3.55,2.64-7.38,5.22-10.33c0.58-0.52,1.16-1.07,1.73-1.61c0.78-0.75,1.38-1.56,2.23-2.18c0.84-0.61,1.86-1.21,2.53-2
		c0.83-0.98-0.41-6.57,1.25-6.51c1.8,0.08,4.83,11.44,5.63,13.35c0.79,1.9,1.65,3.82,2.56,5.63c0.3,0.59,0.58,1.18,0.87,1.79
		c0.33,0.37,0.65,0.77,0.98,1.17c1.22,1.47,2.68,3.05,4.22,4.24c0.55,0.42,1.16,0.67,1.75,1c1.88,1.04,3.98,2.14,6.21,2.5
		c1.61,0.25,3.49,0.15,5.25,0.15c0.84-0.21,1.66-0.42,2.5-0.63c1.36-0.34,3.97-1.58,4.58-3c0.78-1.82-1.6-6.02-2.23-7.74
		c-1.27-3.43-3.05-6.3-4.9-9.44c-1.09-1.84-2.16-3.67-3.25-5.52c-0.38-0.42-0.75-0.83-1.15-1.22c-0.79-0.96-1.58-1.92-2.37-2.87
		c-0.98-1.16-1.81-2.56-2.96-3.62c-1.09-0.96-2.1-0.33-3.33-0.72c-1.34-0.45-3.71-2.29-4.7-3.41c-0.24-0.35-0.51-0.7-0.74-1.04
		c-0.4-0.49-0.86-0.88-1.18-1.42c-2.67-4.41-0.74-10.74,3.25-13.58c0.81-0.57,1.78-0.82,2.72-1.13c1.29-0.42,2.53-0.88,3.83-1.3
		c1.37-0.46,3.52-1.35,5.04-1.35c1.12-0.69,3.3-1.01,4.63-1.39c1.08-0.32,2.83-1.01,3.96-1.01c0.43-0.1,0.88-0.23,1.32-0.33
		c1.42-0.41,2.84-0.8,4.28-1.16c1.59-0.42,3.2-0.87,4.78-1.28c0.98-0.26,2.07-0.67,3.13-0.67c0.41-0.25,1.02-0.37,1.55-0.37
		c0.77-0.47,2.29-0.65,3.21-0.87C908.49,465.03,911.05,464.43,913.44,463.62"/>
	<path d="M715.76,470.79c2.14,0.27,2.99,3.08,3.1,5c0.02,0.51,0.12,1.11-0.14,1.55c-0.2,0.33-0.71,0.61-1.07,0.36
		c-0.34-0.36-0.67-0.76-0.98-1.15c-1.22-1.03-2.44,0.23-3.06,1.26c-1.21,2.14-0.56,5.44-1.22,7.88c-0.41,1.51-1.25,3-2.07,4.34
		c-0.55,0.9-1.01,1.8-1.67,2.65c-1.98,2.58-6.01,5.03-8.89,5.95c-0.79,0.26-1.59,0.52-2.39,0.79v-0.11h-0.12
		c0-0.17-0.07-0.25,0.12-0.25c0.72-1.03,1.89-1.83,2.81-2.57c1.68-1.34,3.28-2.65,5-3.94c0.96-0.71,2.09-1.44,2.8-2.47
		c0.26-0.36,0.32-0.81,0.35-1.3c0-0.59,0-1.2,0-1.79c-0.11-0.99-1.1-3.47-1.91-4.02c-1.02-0.66-2.26-0.92-3.27-1.53
		c-0.99-0.59-1.76-1.34-2.65-2.1c-0.6-0.49-1.27-0.83-1.73-1.47c-0.48-0.65-0.86-1.41-1.07-2.22c-0.27-1,0.14-2.84,1.24-3.03
		c1.71-0.25,3.23,1.37,4.37,2.36c1.76,1.48,3.25,2.2,4.37,4.42c0.48,0.95,0.75,1.99,0.98,3.08c0.13,0.7,0.26,1.4,0.39,2.09
		c0.11,0.27,0.27,0.55,0.54,0.65c0.11,0.04,0.22,0.07,0.32,0.1h0.12c1.48-1.57,1.04-2.19,1.36-4.28c0.2-1.32,0.43-2.62,0.62-3.93
		c0.35-1.02,0.7-2.02,1.06-3.04c0.36-0.96,0.59-1.94,1.41-2.66C714.85,471.12,715.34,470.98,715.76,470.79"/>
	<path d="M972.17,470.79c0.38,0.01,0.87-0.06,1.13,0.18c0.83,0.69-1.03,2.7-1.61,3.16c-0.37,0.27-0.86,0.44-1.32,0.55
		c-5.14,1.13-10.45,1.77-15.75,2.45c-1.12,0.22-2.23,0.43-3.35,0.64c-1.82,0.3-3.6,0.44-5.35,0.8c-0.45,0.06-0.89,0.1-1.32,0.14
		c-1.01,0.22-1.99,0.44-2.99,0.65c-1.1,0.18-2.2,0.36-3.33,0.53c-0.18,0.05-0.84,0.18-0.84-0.04h-0.13
		c0.07-1.91,2.58-3.35,4.31-3.35c0.12-0.06,0.24-0.22,0.24,0c0.15,0,0.11,0.04,0.11-0.12c1.18-0.28,2.4-0.72,3.71-0.72
		c0.35-0.2,0.74-0.24,1.19-0.24c0.33-0.18,0.87-0.23,1.31-0.23c0.3-0.18,0.69-0.24,1.08-0.24c0.24-0.05,0.46-0.08,0.7-0.13
		c0.35-0.19,0.87-0.23,1.32-0.23c0.37-0.21,0.96-0.25,1.43-0.25c0.69-0.36,1.76-0.47,2.62-0.47c0.37-0.21,0.88-0.24,1.31-0.24
		c0.33-0.19,0.81-0.23,1.19-0.23c0.25-0.05,0.48-0.1,0.73-0.12c0.27-0.06,0.56-0.09,0.84-0.13c0.28-0.03,0.57-0.08,0.84-0.12
		c0.27-0.04,0.55-0.07,0.84-0.12c0.26-0.04,0.54-0.08,0.83-0.11c0.33-0.21,0.87-0.24,1.32-0.24c0.45-0.26,1.09-0.24,1.66-0.24
		c0.41-0.2,0.94-0.23,1.44-0.23c0.23-0.06,0.46-0.09,0.72-0.13c0.23-0.05,0.48-0.09,0.7-0.12c0.34-0.17,0.78-0.26,1.19-0.26
		c0.25-0.03,0.48-0.07,0.73-0.11c0.32-0.18,0.77-0.24,1.18-0.24C971.3,471.09,971.74,470.94,972.17,470.79"/>
	<path d="M575.49,472.1c1.12,0,2.44-0.15,3.26,0.44c1.8,1.32-0.86,6.56-2.12,7.6c-0.7,0.59-3.74,1.73-4.74,1.73v-0.13h-0.11v-0.34
		c0.33-0.29,0.66-0.61,1-0.9c0.71-0.53,4.36-2.72,2.8-3.86c-0.93-0.66-5.67,0.06-6.75,0.41c-0.8,0.35-1.59,0.71-2.38,1.07
		c-0.74,0.33-1.58,1.35-2.43,1.35c0.1-1.11,0.61-1.98,1.22-2.83c1.62-2.3,3.88-4.08,6.9-4.08c0.28-0.04,0.57-0.08,0.84-0.11
		c0.32-0.07,0.64-0.09,0.96-0.13C574.45,472.25,574.98,472.18,575.49,472.1"/>
	<path d="M634.58,472.1c2.05,0.12,1.01,2.22,0.06,3.04c-0.51,0.43-1.25,0.77-1.87,0.97c-1.45,0.36-2.92,0.71-4.39,1.04
		c-1.26,0.36-2.43,0.81-3.72,1.12c-0.88,0.15-1.76,0.32-2.63,0.46c-1.69,0.49-3.4,0.81-5.1,1.3c-1.35,0.39-2.86,1.02-4.33,1.02
		c-0.24-0.05-0.49-0.08-0.71-0.13c0.12-3.9,3.6-4.13,6.55-4.82c1.53-0.37,3.22-1.03,4.91-1.03c0.87-0.54,4-1.31,5.14-1.31
		c0.51-0.32,1.35-0.47,2.03-0.47c0.84-0.51,1.96-0.48,2.94-0.72C633.84,472.39,634.21,472.25,634.58,472.1"/>
	<path d="M845.39,472.57c1.17,0.32,2.33,0.5,3.46,0.85c0.89,0.24,1.71,0.71,2.62,0.95c1.16,0.33,2.48,0.5,3.54,1.03
		c0.38,0.19,0.69,0.51,0.66,0.98c-0.11,1.45-4.05,2.27-3.6,4.04c0.37,1.38,5.09,1.91,6.1,3.34c0.9,1.26-2.5,3.13-3.2,3.63
		c-0.64,0.47-1.16,1.14-1.88,1.43c-1.55,0.64-4.38-0.97-5.93-1.37c-1.12-0.3-2.37-0.32-3.38-0.8c-0.24-0.12-0.38-0.33-0.39-0.58
		c-0.03-1.67,4.34-4.06,3.57-5.31c-0.44-0.73-4.22-1.93-5.16-2.15c-0.88-0.22-2.26,0.07-2.78-0.71c-0.78-1.15,2.95-4.01,3.78-4.45
		C843.62,473.01,844.49,472.86,845.39,472.57"/>
	<path d="M824.5,472.92c2.76,0.76-2.46,3.78-3.23,4.03c-1.72,0.39-3.43,0.79-5.12,1.18c-0.4,0.05-0.79,0.08-1.18,0.12
		c-3.86,0.85-7.93,1.48-11.73,2.49c-1.92,0.44-3.81,0.9-5.72,1.33c-0.19,0.04-0.7,0.14-0.7-0.06h-0.13
		c0.03-1.22,0.54-2.11,1.48-2.79c1.1-0.84,2.77-1.09,4.12-1.43c1.88-0.49,3.71-0.99,5.61-1.41c0.8-0.2,1.62-0.46,2.51-0.46
		c0.3-0.18,0.67-0.24,1.08-0.24c0.25-0.05,0.49-0.07,0.73-0.12c0.42-0.25,1.1-0.36,1.66-0.36c0.73-0.43,3.17-0.84,4.17-0.84
		c0.3-0.18,0.69-0.23,1.07-0.23c0.25-0.04,0.48-0.09,0.73-0.12c0.54-0.33,1.44-0.48,2.15-0.48c0.23-0.05,0.47-0.08,0.71-0.11
		C823.31,473.24,823.9,473.08,824.5,472.92"/>
	<path d="M763.27,473.29c1.39,0,2.46,0.24,2.39,1.78c-0.15,2.98-2.69,5.4-4.86,7.07c-0.45,0.36-1.09,0.91-1.71,0.91
		c-0.55-0.01-0.48-0.63-0.23-0.95c0.52-0.66,1.54-0.9,2.2-1.37c0.61-0.44,2.5-2.87,1.97-3.54c-0.58-0.73-2.23-0.47-3.11-0.37
		c-0.79,0.03-1.58,0.08-2.38,0.09c-2.16,0.36-3.92,0.91-5.75,1.87c-0.2,0.1-0.83,0.36-0.83,0.6h-0.23c0.34-2.68,3.9-5.38,6.56-5.38
		c0.28-0.05,0.56-0.09,0.85-0.13c0.44-0.23,0.98-0.24,1.55-0.24C760.66,473.1,762.18,473.6,763.27,473.29"/>
	<path d="M361.69,476.03c1.32,0.08,2.05,0.99,2.79,1.97c0.49,0.65,1.03,1.22,1.43,1.88c1.53,2.54,1.68,5.87,1.72,9.05
		c-0.03,0.55-0.06,1.11-0.1,1.67h-0.23v-0.24c-0.11-0.51-0.21-1.02-0.32-1.54c-0.49-1.71-0.93-3.35-1.77-4.87
		c-0.45-0.81-1.48-1.99-2.1-2.67c-0.81-0.86-1.82-1.53-2.16-2.65C360.66,477.63,361.03,476.67,361.69,476.03"/>
	<path d="M668.84,476.98c2.73,0,5.06,1,7.52,1.57c1.15,0.27,2.47,0.33,3.54,0.79c0.54,0.23,0.87,0.72,0.45,1.28
		c-0.62,0.84-1.68,1.27-2.51,1.81c-1.16,0.71-2.51,1.68-3.89,1.9c-1,0.17-2.06-0.1-2.97-0.26c-2.02-0.37-3.94-0.71-6.08-0.75
		c-0.47-0.04-0.97-0.05-1.43-0.07c-2.07,0.25-3.25,1.99-5.04,2.73c-0.49,0.19-0.96,0.3-1.53,0.3c-2.59,0.04-5.08-0.57-7.52-0.92
		c-0.57-0.09-1.26-0.13-1.7-0.49c-1.39-1.21,4.7-5.14,5.53-5.48c0.28-0.03,0.55-0.09,0.84-0.14c0.45-0.24,1.31,0.02,1.78,0.07
		c2.38,0.37,4.69,1.01,7.16,1.01c0.63-0.35,1.24-0.68,1.88-1.03C666.22,478.46,667.4,477.64,668.84,476.98"/>
	<path d="M437.11,480.31c0.56-1.71,1.23-5.52-0.51-6.72c-0.43-0.3-1.02-0.3-1.61-0.3v0.12c-0.56,0-1.03,0.32-1.47,0.54
		c-0.86,0.44-1.73,1.01-2.4,1.8c-1.18,1.37-3.06,4.62-2.61,6.61c0.14,0.7,0.41,1.41,0.82,1.98c0.83,1.15,2.57,2.05,1.88,3.7
		c-0.55,1.34-1.83,2.3-2.77,3.4c-0.53,0.63-1.06,1.24-1.6,1.86c-0.41,0.38-0.82,0.77-1.24,1.14c-0.43,0.57-0.86,1.13-1.3,1.7
		c-0.4,0.46-1.08,0.65-1.36,1.19c-0.08,0.14-0.13,0.33-0.11,0.51c0.03,0.13,0.08,0.25,0.21,0.33c0.97,0.46,4.75-4.53,5.56-5.39
		c1.04-1.03,2.09-2.06,3.11-3.08c0.29-0.29,0.43-0.65,0.81-0.84c0.98-0.51,2.38,0.76,3.09-0.16c1.04-1.32-0.25-3.1,0.05-4.68
		C435.89,482.72,436.68,481.56,437.11,480.31 M433.9,482.7c-1.25,0.12-2.95-1.94-2.5-3.17c0.33-0.87,1.23-1.02,1.91-1.47
		c0.53,0.05,1.16,0.14,1.49,0.52C435.58,479.5,435.33,482.57,433.9,482.7"/>
	<path d="M966.56,482.36c2.67,0.09,5.2,0.85,7.67,1.48c1.44,0.36,3.07,0.43,4.37,1.09c0.47,0.24,0.7,0.72,0.56,1.22
		c-0.36,1.19-4.93,3.72-6.16,3.91c-1.37,0.21-2.87-0.43-4.17-0.63c-2.31-0.36-4.65-0.61-6.88-1.18c-0.49-0.12-1.12-0.21-1.41-0.68
		c-0.8-1.29,3.38-4.07,4.27-4.54C965.38,482.69,965.95,482.59,966.56,482.36"/>
	<path d="M414.93,483.19c0.29,0.05,0.56,0.08,0.83,0.12c0.14,0.83-0.14,1.16-0.79,1.51c-0.15,0.08-0.23,0.28-0.41,0.28
		c0.08,0.29,0.17,0.56,0.25,0.84c-2.05,1.35-4.37,1.54-6.72,2.22c-5.49,1.58-11.24,2.68-16.8,4.15c-2.35,0.61-4.61,1.36-6.93,2
		c-0.21,0.05-0.73,0.29-0.73,0.1c-0.5-0.64,0.11-1.64,0.52-2.12c1.76-2.06,5.53-2.53,8.08-3.27c1.15-0.34,2.7-0.95,3.95-0.95
		c0.73-0.48,3.61-1.07,4.66-1.07c0.59-0.19,1.18-0.39,1.78-0.59c1.79-0.44,3.58-0.89,5.37-1.31c1.04-0.25,1.96-0.71,3.11-0.71
		C412.11,483.8,413.81,483.76,414.93,483.19"/>
	<path d="M312.86,486.29c2.42,0,4.52,0.45,6.69,0.91c0.63,0.15,1.32,0.25,1.84,0.62c0.42,0.3,0.52,0.83,0.37,1.33
		c-0.3,0.92-1.15,1.57-1.82,2.32c-0.62,0.67-1.12,1.54-1.99,2.04c-1.38,0.72-4.66-0.45-6.18-0.71c-0.97-0.19-2.47-0.04-3.03-0.93
		c-0.59-0.92,1.72-4,2.43-4.64C311.68,486.75,312.21,486.53,312.86,486.29"/>
	<path d="M595.54,489.76c1.8,0.05,3.67,0.5,5.21,1.13c0.42,0.19,0.84,0.42,1.25,0.61c0.63,0.26,2.38,0.61,1.93,1.68
		c-0.3,0.76-4.93,3.46-5.8,3.63c-1.33,0.26-3.46-0.48-4.76-0.69c-1.09-0.19-2.27-0.2-3.31-0.47c-0.26-0.07-0.54-0.18-0.69-0.4
		c-0.82-1.18,3.8-4.45,4.65-4.96C594.5,490.03,595.01,489.93,595.54,489.76"/>
	<path d="M830.84,490.71c1.96,0.14,4.02,0.39,5.82,0.92c0.76,0.21,1.41,0.65,2.18,0.83c0.9,0.22,2.02,0.11,2.84,0.47
		c0.46,0.2,0.59,0.66,0.33,1.1c-0.39,0.66-2.34,1.95-3.04,2.32c-0.83,0.43-1.6,1.12-2.53,1.35c-1.59,0.41-2.01-0.18-3.34-0.4
		c-1.22-0.18-2.46-0.36-3.69-0.53c-0.92-0.21-2.09-0.72-3.1-0.59c-1.14,0.12-2,0.89-2.91,1.52c-1.18,0.83-2.5,1.92-3.92,2.25
		c-1.7,0.4-4.12-0.61-5.73-0.85c-0.77-0.13-3.68-0.62-4.09-1.05c-1.04-1.02,3.64-4.43,4.38-4.88c0.55-0.34,1.16-0.66,1.87-0.66
		c0.78-0.3,1.93,0.17,2.64,0.31c2.1,0.44,4.15,1.13,6.42,1.13c0.44-0.2,0.87-0.42,1.31-0.63c0.78-0.56,1.56-1.12,2.33-1.69
		C829.3,491.2,830.08,491,830.84,490.71"/>
	<path d="M980.18,491.67c1.77,0,3.41,0.39,5,0.88c0.96,0.39,1.93,0.77,2.87,1.13c0.98,0.23,1.97,0.46,2.93,0.71
		c0.43,0.17,0.78,0.5,0.62,1.04c-0.24,0.65-1.77,1.36-2.35,1.76c-1.24,0.87-2.47,1.95-3.97,2.25c-0.85,0.21-1.83-0.17-2.62-0.32
		c-1.38-0.29-2.7-0.5-4.03-0.8c-1.17-0.27-2.35-0.8-3.69-0.49c-0.8,0.19-1.46,0.8-2.09,1.32c-1.32,1.11-3.26,2.85-5.1,2.89
		c-1.91,0.03-3.64-0.5-5.38-0.78c-0.63-0.12-1.26-0.02-1.91-0.08c-0.78-0.07-1.44-0.25-2.17-0.4c-0.9-0.16-1.84-0.22-2.72-0.39
		c-0.33-0.08-0.73-0.17-0.83-0.53c-0.28-0.96,0.88-2.04,1.45-2.66c1.13-1.24,2.65-2.68,4.28-3.08c2.26-0.52,5.76,0.47,7.85,0.92
		c1.69,0.38,3.56,1.06,5.49,0.76c1.27-0.22,3.3-2.48,4.43-3.29C978.82,492.09,979.53,491.9,980.18,491.67"/>
	<path d="M628.5,492.62c1.2,0,2.13,0.33,3.22,0.47c1.31,0.18,6.14,0.66,5.73,2.46c-0.24,1.06-1.79,1.76-2.62,2.21
		c-1.03,0.56-1.92,1.59-3.05,1.94c-0.29,0-0.59,0.02-0.9,0.05c-0.23,0.05-0.47,0.11-0.7,0.16c-1.63,0.05-3.15-0.8-4.68-1.05
		c-0.97-0.16-1.98-0.16-2.97-0.32c-0.33-0.07-0.97-0.54-1.08-0.54C622.78,495.21,625.74,493.57,628.5,492.62"/>
	<path d="M771.14,496.91c3.2,0,6.59,0.62,9.42,1.48c0.67,0.22,1.53,0.32,2.08,0.77c0.27,0.23,0.4,0.6,0.31,0.95
		c-0.31,1.33-1.99,1.73-2.93,2.35c-0.92,0.58-1.82,1.54-2.91,1.69c-1.43,0.21-2.68-0.34-3.93-0.5c-2.58-0.37-5.15-0.62-7.63-1.15
		c-0.29-0.06-0.51-0.15-0.64-0.37c-0.76-1.22,5.05-5.08,6.24-5.08V496.91z"/>
	<path d="M333.75,508.02c3.14,0.41,8.55,10.1,9.61,12.86c0.28,0.52,0.54,1.04,0.81,1.58c0.33,0.98,0.67,1.98,0.99,2.97
		c0.17,0.37,0.33,0.75,0.49,1.1c0.38,1.18,0.77,2.37,1.15,3.55c0.11,0.57,0.22,1.13,0.31,1.7c0.3,1.71,0.5,3.39,0.62,5.25
		c0.07,1.03,0.25,2.14,0.21,3.22c-0.13,2.68-0.58,5.13-1.79,7.28c-0.45,0.56-0.91,1.14-1.37,1.71c-0.25,0.3-0.49,0.62-0.75,0.93
		c-0.55,0.36-1.1,0.76-1.63,1.12c-1.31,0.93-2.55,1.72-3.96,2.39c-1.85,0.86-3.64,1.79-5.66,2.31c-3.24,0.82-7.03,1.54-10.61,0.92
		c-0.7-0.13-1.36-0.44-2.01-0.68c-1.01-0.38-1.94-0.67-2.84-1.23c-1.34-0.83-2.59-2.15-3.66-3.34c-0.92-1.05-1.84-1.93-2.51-3.09
		c-0.63-1.05-0.92-2.37-1.32-3.5c-0.63-1.79-1.31-3.6-1.47-5.64c-0.39-4.8-0.65-9.57,0.05-14.34c0.19-1.2,0.15-2.51,0.59-3.59
		c0.17-0.44,0.49-1.53,1.12-1.53c0.44,0.81,0.37,1.63,0.36,2.62c-0.01,1.04-0.01,2.07-0.02,3.12c-0.11,1.4-0.21,2.85-0.3,4.28
		c0.12,2,0.14,4.11,0.62,5.95c1.14,4.39,4.06,8.91,8.43,10.83c1.65,0.69,3.73,1.01,5.71,1.01c0.39-0.19,1.15-0.11,1.67-0.11
		c0.35-0.2,0.87-0.24,1.31-0.24c0.24-0.04,0.48-0.08,0.73-0.12c0.32-0.17,0.76-0.25,1.18-0.25c0.29-0.19,0.7-0.22,1.07-0.22
		c0.32-0.19,0.78-0.25,1.19-0.25c1.04-0.37,2.07-0.73,3.1-1.1c2.31-0.85,8.06-3.89,8.65-6.57c0.31-1.44-0.27-3.06-0.69-4.29
		c-0.26-0.79-0.48-1.56-0.72-2.33c-0.29-0.84-0.74-1.53-1.06-2.35c-0.39-1.01-0.79-2.03-1.18-3.05c-0.39-0.67-0.79-1.34-1.19-2.03
		c-0.67-1.07-1.24-2.14-1.95-3.19c-0.91-1.19-1.83-2.39-2.74-3.6c-0.61-0.72-1.46-1.44-1.79-2.33
		C331.8,514.03,332.56,509.19,333.75,508.02"/>
	<path d="M1001.3,512.09c4.6,0.28,1.42,14.65,0.57,17.29c-0.52,1.65-2.28,4.98-3.92,5.83c-1.42,0.74-4.84-2.1-5.92-3.11
		c-0.7-0.67-1.37-2.08-2.53-1.91c-0.85,0.13-1.31,1.18-1.85,1.78c-0.61,0.66-1.31,1.35-2.03,1.9c-1.91,1.43-3.96,2.33-6.27,3.07
		c-1.29,0.39-3.34,0.27-4.78,0.35c-1.4,0.09-3,0.45-4.41,0.17c-0.67-0.15-1.2-0.6-1.83-0.83c-0.63-0.24-1.48-0.23-2.23-0.18
		c-1.26,0.03-2.32,0.49-3.46,0.67c-2.44,0.36-4.74,0.65-7.28,0.9c-1.08,0.21-2.15,0.42-3.24,0.62c-1,0.04-1.98,0.05-2.96,0.07
		c0.02-0.17,0.2-0.48,0-0.48v-0.13c-0.18,0-0.14-0.05-0.14,0.13c-0.19,0.14-0.36,0.29-0.54,0.46c-0.48,0.2-1.25,0.13-1.83,0.14
		c-1.35,0.03-2.8,0.15-4.19,0.05c-0.83-0.07-1.65-0.02-2.49-0.06c-0.81-0.12-1.59-0.22-2.4-0.35c-2.19-0.1-4.23-0.07-6.3-0.41
		c-2.59-0.43-5.15-1.07-7.55-1.9c-0.51-0.22-1.03-0.47-1.54-0.71c-0.94-0.45-1.88-0.8-2.86-1.19c-0.87-0.44-1.73-0.89-2.59-1.34
		c-0.56-0.4-1.11-0.79-1.67-1.18c-0.61-0.5-0.96-1.23-1.84-1.16c-0.22,0-0.38,0.08-0.54,0.21c-0.74,0.68-0.64,2.29-0.81,3.27
		c-0.19,0.79-0.4,1.61-0.58,2.38c-0.67,1.97-1.6,3.78-2.54,5.61c-0.67,1.36-1.81,2.39-2.85,3.57c-2.28,2.58-4.52,4.71-7.49,6.23
		c-1.11,0.58-2.21,1.25-3.57,1.28c-3.86,0.14-7.39-1.54-10.64-2.69c-1.77-0.64-10.02-5.07-10.02-7.19h0.23
		c1.23-0.46,4.52,1.4,5.75,1.76c0.98,0.3,1.97,0.4,3.09,0.4c0.37-0.05,0.72-0.07,1.09-0.13c0.72-0.28,1.92,0,2.74,0
		c0.66-0.3,1.83-0.12,2.62-0.12c0.24-0.04,0.49-0.08,0.72-0.12c0.52-0.2,1.29-0.11,1.9-0.11c0.53-0.38,1.39-0.4,2.02-0.54
		c1.18-0.32,2.36-0.7,3.45-1.2c2.83-1.35,5.32-3.56,7.59-5.87c0.82-0.86,1.71-1.54,2.41-2.48c0.94-1.23,1.63-2.73,2.24-4.12
		c0.39-0.86,0.82-2.08,0.76-3.11c-0.08-1.15-0.91-2.64-1.18-3.85c-0.65-2.66-0.19-5.89,0.7-8.24c0.32-0.84,0.55-1.73,1.39-2.16
		c0.64,0.04,0.64,0.96,0.72,1.45c0.16,1.1,0.04,2.3,0.25,3.34c0.5,2.26,2.74,4.32,4.64,5.6c2.3,1.55,4.84,2.45,7.46,3.33
		c0.85,0.28,1.71,0.57,2.57,0.85c4.77,1.23,10.24,1.6,15.5,1.6c0.56,0.03,1.11,0.06,1.66,0.11c0.44-0.21,1.12-0.13,1.67-0.13h3.82
		c0.36-0.16,0.91-0.11,1.33-0.11c0.31-0.15,0.82-0.12,1.18-0.12c0.42-0.17,0.96-0.12,1.43-0.12c0.29-0.06,0.57-0.09,0.86-0.11
		c0.43-0.27,1.09-0.25,1.66-0.25c0.33-0.04,0.64-0.09,0.96-0.13c0.31-0.14,0.82-0.12,1.2-0.12c0.32-0.03,0.65-0.08,0.95-0.12
		c0.3-0.05,0.56-0.08,0.84-0.12c0.56-0.31,1.34-0.36,2.03-0.36c1.03-0.25,2.06-0.5,3.09-0.77c2.04-0.63,5.37-2.23,6.88-3.83
		c1.17-1.25,1.93-2.58,2.5-4.15c0.23-0.86,0.48-1.72,0.72-2.56c0.31-0.64,0.62-1.25,0.94-1.86c0.15-0.32,0.3-0.76,0.6-0.98
		c0.16-0.11,0.41-0.23,0.61-0.09c1.06,0.59,0.2,5.76-0.06,6.83c-0.2,0.48-0.4,0.96-0.61,1.44c-0.23,0.72-1.15,3.84-0.71,4.43
		c0.39,0.53,1.35,0.46,2.02,0.46c0.69-0.38,1.89-0.24,2.75-0.24c0.31-0.05,0.62-0.09,0.96-0.13c0.83-0.45,1.86-0.56,2.7-1
		c1.93-1.03,3.75-3,4.45-5.09c0.21-0.98,0.41-1.96,0.62-2.96c0.16-0.54,0.33-1.09,0.59-1.56c0.08-0.17,0.7-0.94,0.7-0.98
		c0.18,0,0.25-0.07,0.25,0.14h0.23c0.25,0.88,0.23,1.83,0.24,2.85c0.07,3.66,0.14,5.92,3.67,7.1c0.9,0.29,1.73,0.78,2.78,0.78
		c0.37-0.29,0.73-0.45,1.09-0.83c0.89-1.03,0.91-2.74,0.51-4.05c-0.19-0.53-0.4-1.05-0.57-1.59c-0.16-0.7-0.03-1.6,0.11-2.27
		C999.79,515.23,999.8,513.26,1001.3,512.09"/>
	<path d="M639.47,516.25c-0.19-1.48-2.36-8.98-4.39-8.26c-0.67,0.25-0.95,1.26-1.16,1.84c-0.49,1.33-0.97,3.03-0.69,4.63
		c0.16,0.99,0.36,2.05,0.82,2.95c0.33,0.63,0.7,1.17,0.95,1.84c0.89,2.48,1.21,5.18,0.91,7.97c-0.13,1.05-0.3,2.12-0.92,2.93
		c-0.48,0.63-1.1,0.63-1.73,1.01c-0.34,0.05-0.69,0.08-1.06,0.13c-3.06,0-5.76-0.44-8.61-0.73c-1.46-0.12-3.23-0.3-4.5-0.89
		c-0.34-0.15-0.67-0.46-0.78-0.81c-0.25-0.86,0.08-1.75,0.23-2.5c0.17-0.93,0.33-1.89,0.5-2.84c0.23-1.89,0.47-3.81,0.71-5.72
		c0.16-3.26-0.7-6.36-1.89-8.97c-0.53-1.14-1.34-2.64-2.76-2.9c-1.32-0.22-2.42,0.73-3.31,1.5c-0.82,0.7-1.66,1.33-2.35,2.17
		c-1.85,2.25-2.58,5.07-3.44,7.83c-0.56,1.75-1.05,3.77-1.32,5.63c-0.02,1.1-0.04,2.22-0.05,3.31c0.03,0.65,0.12,1.28-0.14,1.81
		c-0.56,1.13-1.72,0.85-2.62,1.43c-0.24,0.06-0.47,0.09-0.71,0.12c-0.24,0.05-0.48,0.09-0.72,0.13c-0.43,0-0.95-0.04-1.29,0.12
		c-0.5,0-1.18-0.07-1.57,0.13c-0.53,0-1.26-0.1-1.67,0.12c-0.29,0.05-0.56,0.07-0.83,0.11c-0.94,0-3.3-0.17-3.96,0.14
		c-0.58,0-1.29-0.08-1.79,0.11c-0.6,0-1.4-0.08-1.9,0.13c-2.39,0-13.6,0.13-14.47-1.05c-0.14-0.19-0.18-0.51-0.09-0.76
		c0.22-0.79,0.7-1.48,1.11-2.19c0.79-1.35,2.11-3.76,2.29-5.34c0.6-5.27-1.98-8.84-6.31-11.02c-0.84-0.4-1.81-0.55-2.68-0.86
		c-1.68-0.6-3.77-1.44-5.64-1.47c-0.59,0.03-1.17,0.05-1.77,0.08c-1.08,0.26-1.86,0.82-2.78,1.34c-1.84,1.14-3.67,2.29-5.52,3.42
		c-1.32,0.79-2.78,1.39-4.11,2.14c-1.89,1.07-3.63,2.32-5.55,3.36c-2.81,1.51-5.7,3.07-8.35,4.91c-1.36,0.9-2.74,1.81-4.11,2.71
		c-1.21,0.85-2.4,1.89-3.77,2.41c-0.34,0.13-0.87,0.16-1.12-0.13c-0.05-0.12-0.11-0.22-0.16-0.31c-0.27-0.82-0.03-1.71,0.08-2.51
		c0.17-1.57,0.37-3.19,0.47-4.76c0.19-3.04-0.25-6.14-0.59-8.95c-0.19-0.93-0.36-1.84-0.53-2.76c-0.5-2.45-0.93-4.9-1.53-7.25
		c-0.47-1.83-0.63-3.65-0.96-5.51c-0.24-1.15-0.67-2.81-0.63-3.95c0.04-1.22,0.85-1.92,1.39-2.86c0.92-1.55,2.54-4.59,2.2-6.56
		c-0.08-0.4-0.27-0.76-0.59-1c-0.47-0.36-1.18-0.39-1.7-0.64c-1.26-0.56-2.75-1.62-3.55-2.83c-0.58-0.91-0.97-1.79-1.09-2.95
		c-0.18-1.51,0.18-3.01-0.63-4.16h-0.13c-0.54,0.48-0.79,1.12-1.17,1.7c-2.56,3.65-2.23,7.6-0.83,11.76
		c0.34,0.96,1.12,1.64,1.43,2.64c0.34,1.11,0.18,2.39,0.37,3.58c0.3,2.01,0.71,4.09,1.01,6.1c0.05,0.64,0.11,1.28,0.17,1.92
		c0.14,0.5,0.26,1.03,0.4,1.56c0.12,0.79,0.21,1.57,0.33,2.36c0.21,0.89,0.42,1.77,0.64,2.64c0.18,1.33,0.38,2.62,0.55,3.93
		c0.32,1.73,0.56,3.5,0.98,5.23c0.17,0.69,0.35,1.38,0.53,2.06c0.39,2.6,0.8,5.19,1.19,7.77c0,1.88-0.28,3.47-0.65,5.15
		c-0.2,0.91-0.18,1.71-0.74,2.42c-0.28,0.37-0.66,0.43-0.98,0.66c-0.88,0-1.62-0.13-2.41-0.2c-0.79-0.02-1.59-0.04-2.38-0.07
		c-0.57-0.09-1.11-0.2-1.68-0.29c-1.06-0.11-2.12-0.22-3.2-0.33c-1.8-0.32-3.6-0.66-5.4-0.98c-0.54-0.04-1.11-0.07-1.66-0.07
		c-1.39-0.23-2.79-0.39-4.17-0.6c-0.76-0.18-1.52-0.35-2.3-0.51c-1.31-0.24-2.66-0.35-3.93-0.63c-1.46-0.32-2.94-0.64-4.41-0.94
		c-0.79-0.12-1.59-0.22-2.37-0.32c-0.97-0.21-2.33-1.23-3.35-0.69c-0.16,0-0.12-0.03-0.12,0.13c0.17,1.8,2.46,3.21,3.66,4.34
		c0.89,0.86,1.42,1.67,2.47,2.43c1.18,0.8,2.37,1.72,3.63,2.35c1.18,0.42,2.33,0.86,3.49,1.29c1.21,0.46,2.28,1.09,3.58,1.38
		c1.63,0.35,3.43,0.51,5.12,0.79c0.48,0.16,0.98,0.34,1.46,0.48c0.83,0.14,1.66,0.26,2.47,0.39c0.49,0.17,0.98,0.33,1.47,0.47
		c0.95,0.18,1.96,0.22,2.7,0.81c1.07,0.87-0.46,2.88-0.73,3.81c-0.23,0.72-0.41,1.41-0.43,2.25h0.12c0,0.24,0.42,0,0.55-0.09
		c1.16-0.63,2.16-1.99,2.87-3.04c0.77-1.16,1.46-2.68,3.03-2.9c1.15-0.18,2.27,0.22,3.34,0.28c1.81,0.08,3.74-0.09,5.49-0.2
		c0.96-0.01,1.91-0.04,2.86-0.05c1.94-0.25,3.91-0.51,5.86-0.78c2.99-0.29,5.76-0.44,8.58-1.04c2.04-0.45,4-1.03,6.1-1.34
		c3.5-0.53,6.65-1.68,9.93-2.62c1.09-0.33,2.02-0.94,3.31-0.84c0.93,0.04,1.7,0.55,2.54,0.85c0.64,0.15,1.26,0.31,1.87,0.45
		c0.82,0.24,2.04,0.67,2.84,1c0.99,0.4,1.88,0.97,2.93,1.29c2.6,0.81,5.95,0.5,8.81,0.56c1.14,0.01,2.46,0.14,3.69,0.08
		c4.89-0.16,9.94-0.38,14.56-1.23c0.92-0.25,1.84-0.51,2.77-0.73c0.87-0.14,1.72-0.3,2.6-0.44c1.32-0.29,2.87-0.73,4.3-0.75
		c1.26-0.01,2.37,0.7,3.45,1.17c0.55,0.21,1.11,0.41,1.67,0.6c1.24,0.46,2.48,0.57,3.82,0.86c1.72,0.37,3.35,0.94,5.16,1.21
		c0.71,0.04,1.43,0.07,2.15,0.08c2.41,0.23,4.6,0.79,6.88-0.22c1.8-0.8,3.14-2.62,3.79-4.37c0.12-0.51,0.25-1.01,0.37-1.52
		c0.21-0.52,0.39-1.05,0.58-1.59c0.33-1.16,0.41-2.39,0.6-3.66c0.25-1.29,0.49-2.56,0.75-3.84
		C639.89,522.25,639.82,519.09,639.47,516.25 M569.03,523.03c-0.73,2.42-9.67,4.7-12.08,5.34c-0.92,0.25-2.16,0.38-2.96,0.91
		c-0.73,0-1.65,0.17-2.26,0.46c-0.57,0-1.33,0.13-1.8,0.37c-0.67,0-2.59,0.41-3.11,0.69c-0.23,0.07-0.46,0.1-0.7,0.13
		c-0.24,0.05-0.48,0.08-0.72,0.13c-0.62,0-1.42-0.05-1.92,0.25c-0.23,0.03-0.47,0.07-0.7,0.11c-0.27,0.03-0.56,0.08-0.85,0.12
		c-0.23,0.03-0.48,0.07-0.72,0.12c-0.34,0.05-0.7,0.09-1.07,0.12c-0.47,0-1.05,0.03-1.42,0.24c-0.25,0.03-0.48,0.08-0.71,0.12
		c-0.37,0.04-0.71,0.09-1.08,0.12c-0.31,0.05-0.63,0.09-0.97,0.12c-1.31,0-4.21,0.39-4.41-1.19c0-0.77,5.45-3.76,6.31-4.09
		c0.9-0.49,1.79-0.97,2.68-1.46c2.47-1.2,4.73-2.72,7.15-4.05c0.55-0.27,1.09-0.53,1.65-0.79c1.19-0.69,2.35-1.41,3.6-1.97
		c0.89-0.34,1.76-0.69,2.63-1.05c0.35-0.12,0.7-0.22,1.05-0.31c1.54,0,2.97,0.13,4.4,0.4C562.89,518.21,569.87,520.35,569.03,523.03
		 M616.96,522.32c-0.51,1.08-2.09,2.6-3.08,3.31c-0.45,0.26-0.92,0.54-1.38,0.79c-1.22,0-2.04-0.8-2.9-1.51
		c-0.88-0.74-1.72-1.68-1.91-2.81c-0.5-2.57,2.03-6.14,4.11-7.36c0.44-0.16,0.86-0.33,1.3-0.51c0.53,0.16,1.06,0.29,1.47,0.7
		c0.89,0.84,1.1,2.03,1.58,3.11c0.4,0.89,0.91,1.77,1.06,2.77C617.28,521.31,617.14,521.9,616.96,522.32"/>
	<path d="M828.4,518.3c-0.27-1.78-1.67-7.46-4.12-7.22c-0.76,0.1-0.88,0.99-1.02,1.6c-0.23,0.86-0.16,3.73,0.11,4.64
		c0.26,0.5,0.48,1,0.72,1.49c0.51,1.17,1.15,2.34,1.53,3.58c0.12,0.74,0.22,1.48,0.33,2.22c0.1,0.98,0.12,2.01-0.49,2.74
		c-0.27,0.34-0.63,0.47-0.95,0.72c-1.7,0-3.08-0.59-4.53-1.08c-0.75-0.26-1.56-0.48-2.21-0.91c-1.08-0.67-2.04-1.54-3.02-2.45
		c-0.88-0.81-1.62-1.52-1.79-2.7c-0.29-1.91,0.43-8.69-1.01-9.36c-2.1-1-3.26,6.02-3.7,7.18c-0.3,0.77-0.82,1.46-1.38,2.07
		c-1.95,2.01-4.54,3.03-7.09,3.87c-0.77,0.22-1.57,0.43-2.36,0.64c-1.03,0-2.26,0.19-3.1,0.61c-0.41,0-0.89,0.07-1.19,0.24
		c-0.42,0-0.88,0.06-1.2,0.24c-0.43,0-0.86,0.05-1.19,0.24c-0.62,0-1.4-0.05-1.91,0.24c-0.24,0.04-0.48,0.07-0.73,0.13
		c-0.22,0.03-0.46,0.06-0.71,0.09c-0.24,0.07-0.47,0.11-0.71,0.14c-0.24,0.04-0.48,0.08-0.72,0.12c-0.32,0.04-0.63,0.08-0.95,0.13
		c-0.38,0-0.89-0.03-1.19,0.12c-0.39,0-0.89-0.04-1.2,0.12c-0.36,0.04-0.71,0.08-1.08,0.11c-0.42,0-0.99-0.04-1.31,0.13
		c-0.23,0.04-0.49,0.07-0.72,0.12c-0.23,0.04-0.47,0.08-0.71,0.12c-0.27,0.05-0.57,0.09-0.84,0.13c-0.41,0-0.98-0.05-1.31,0.12
		c-0.52,0-1.26-0.08-1.67,0.12c-0.71,0-1.82-0.17-2.39,0.12c-0.27,0.04-0.55,0.09-0.83,0.12c-1.71,0-3.43-0.02-5.13-0.02
		c-0.92-0.07-1.84-0.13-2.74-0.21c-1.36-0.02-2.71-0.04-4.06-0.06c-1.55-0.21-3.1-0.4-4.67-0.6c-2.35-0.37-4.62-0.66-6.79-1.28
		c-1.16-0.45-2.34-0.9-3.5-1.35c-1.39-0.54-2.89-0.9-4.14-1.73c-1.18-0.78-2.7-1.45-3.18-2.88c-0.34-0.99-0.03-2.23-0.08-3.32
		c-0.05-1.76-0.5-3.47-0.77-5.14c-0.11-0.69-0.09-1.45-0.46-2c-0.33-0.52-1.46-0.78-2.07-0.51c-0.39,0-0.89-0.04-1.2,0.12
		c-1.11,0-2.11,0.45-3.02,0.89c-0.7,0.32-1.45,0.55-2.07,1.06c-1.96,1.63-2.62,3.92-3.19,6.28c-0.17,0.56-0.35,1.13-0.51,1.69
		c-0.16,0.79-0.32,1.56-0.48,2.35c-0.28,0.9-0.76,1.64-1.19,2.45c-0.29,0.58-0.51,1.19-0.93,1.71c-0.71,0.86-1.6,1.46-2.59,1.81
		c-0.48,0.16-0.95,0.34-1.43,0.5c-0.54,0-2.07,0.27-2.51,0.49c-0.47-0.09-0.95-0.17-1.44-0.24c-3.27-0.48-6.42-1.97-8.4-4.72
		c-0.51-0.7-0.82-1.59-1.21-2.36c-0.29-0.57-0.59-1.15-0.7-1.78c-0.16-0.98,0.12-3.84-0.95-4.11c-0.44-0.11-0.73,0.28-0.97,0.57
		c-1.85,2.32-2.46,5.45-4.63,7.57c-1.32,1.27-2.73,2.36-4.4,2.94c-1.13,0.4-2.28,0.78-3.42,1.15c-2.78,0-5.4,0.03-7.74-0.78
		c-5.74-1.98-8.28-9.04-8.82-14.74c-0.28-2.84-0.23-5.73-0.59-8.48c-0.25-1.97-1.41-10.98-2.66-11.7c-1.09,1.37-1.34,3.28-1.64,5.04
		c-0.17,0.93-0.14,2.01-0.81,2.68c-0.57,0.55-1.29,0.8-1.97,1.13c-1.03,0.52-2.07,1.05-3.1,1.58c-1.57,0.98-3.21,1.84-4.65,3.11
		c-3.14,2.78-4.88,6.86-6.01,10.7c-0.4,1.26-1.55,3.45-0.84,4.85c0.18,0.32,0.49,0.62,0.86,0.7c1.43,0.37,3.56,0.04,5.24,0.07
		c1.68,0.07,3.42,0.61,5.13,0.3c1.53-0.29,3.1-0.87,4.22-1.94c1.02-0.99,1.69-2.27,2.41-3.41c0.3-0.49,0.5-1.05,1.01-1.42
		c0.18-0.14,0.54-0.14,0.73,0.03c0.71,0.58,0.61,2.81,0.76,3.81c0.19,1.2,0.38,2.38,0.58,3.58c1.01,4.65,2.66,9.47,6.86,12.13
		c0.64,0.41,1.32,0.94,2.07,1.21c5.19,1.93,11.27,0.95,15.34-2.31c1.06-0.86,3.2-5.13,4.23-5.28c0.86-0.13,1.51,2.17,1.97,2.8
		c0.41,0.41,0.85,0.82,1.27,1.22c2.76,2.67,5.74,4.76,9.76,5.02c2.49,0.15,4.8-0.18,6.64-1.37c1.24-0.81,2.45-2.2,3.2-3.43
		c0.44-0.73,0.6-1.53,1.21-2.17c0.26-0.27,0.57-0.47,0.99-0.42c0.9,0.13,2.79,3.77,3.43,4.61c1.44,1.94,3.47,3.2,5.52,4.16
		c0.61,0.28,1.2,0.69,1.93,0.73c0.42,0.04,0.81-0.04,1.09-0.29c0.31-0.31,0.37-0.79,0.56-1.17c0.53-1.15,1.54-4.87,2.91-5.08
		c1.29-0.19,3.04,1.4,4.2,1.87c2.15,0.89,4.25,1.66,6.55,2.27c1.64,0.43,3.47,0.78,5.24,0.89c1.66,0,3.33,0,5,0.02
		c0.47-0.04,0.97-0.06,1.42-0.11c1.88,0.07,3.78,0.4,5.74,0.35c1-0.12,1.99-0.24,2.99-0.35c1.23,0.11,2.47,0.23,3.69,0.33
		c1.07-0.03,1.93-0.36,2.89-0.52c0.9-0.06,1.81-0.15,2.72-0.23c0.95-0.12,1.86-0.33,2.76-0.5c1.06-0.14,2.14-0.29,3.21-0.42
		c2.43-0.49,4.8-1.07,7.18-1.61c2.77-0.62,5.59-1.04,8.2-2.03c1.12-0.43,2.11-1.1,3.18-1.64c0.59-0.25,1.21-0.49,1.82-0.74
		c1.15-0.65,1.86-1.95,3.29-2.1c0.44-0.05,0.7,0.07,1.03,0.31c0.51,0.39,0.76,1.07,1.21,1.53c0.93,0.91,1.94,1.68,2.87,2.49
		c0.51,0.45,1,0.9,1.49,1.35c1.53,1.04,3.33,1.62,5.06,2.25c1,0.36,2.09,0.94,3.32,0.61c1.95-0.56,2.27-3.54,2.6-5.26
		c0.14-0.61,0.26-1.2,0.37-1.82c0.03-0.63,0.06-1.26,0.08-1.9C828.55,525.41,828.89,521.59,828.4,518.3 M667.87,512.29
		c-0.57,0.39-1.18,0.79-1.81,1.04c-0.41,0.15-0.84,0.29-1.27,0.43c-0.24,0.03-0.49,0.08-0.72,0.11c-1.03,0-5.69-0.47-5.33-1.75
		c0.16-0.53,0.93-0.98,1.36-1.28c1.02-0.75,1.94-1.48,3.13-1.87c0.61-0.2,1.26-0.26,1.91-0.37c0.98-0.21,1.96-0.71,2.75-1.3
		c0.91,0.07,1.31,0.39,1.56,1.2C670.1,510.51,669.3,511.28,667.87,512.29 M736.54,531.54v0.12c-3.1,0-10.2-8.5-8.27-11.51
		c0.71-1.12,2.28-1.05,3.37-1.5c0.71,0.21,1.42,0.28,1.8,1.01c0.36,0.7,0.25,1.62,0.41,2.43c0.17,0.53,0.34,1.06,0.52,1.58
		c0.26,1.1,0.49,2.22,0.76,3.33c0.17,0.57,0.36,1.16,0.7,1.67c0.43,0.69,0.93,1.19,1.08,2.04
		C736.94,531.07,736.81,531.34,736.54,531.54"/>
	<path d="M477.37,518.88c0-0.22-0.35-0.05-0.47,0.02c-1.53,0.84-2.84,2.21-4.23,3.27c-2.85,2.13-6.15,3.11-9.53,4.17
		c-1.22,0.35-2.45,0.69-3.69,1.02c-0.23,0.04-0.46,0.08-0.7,0.13c-0.65,0-1.58-0.22-2.15,0c-0.32,0.06-0.63,0.08-0.95,0.12
		c-2.31,0-4.16-0.36-5.93-1.37c-4.54-2.62-7.78-7.44-9.29-12.22c-0.45-1.39-0.87-3.21,0.01-4.5c0.65-0.95,1.75-1.55,2.68-2.09
		c0.5-0.32,1.03-0.68,1.57-1c2.26-1.04,4.71-1.27,7.25-1.78c1.09-0.24,2.15-0.62,3.35-0.63c1.55-0.05,3.05,0.38,4.54,0.54
		c1.08,0,2.15,0.01,3.24,0.04c0-0.71-1.19-1.35-1.66-1.71c-0.8-0.65-1.58-1.29-2.46-1.81c-0.46-0.22-0.93-0.44-1.39-0.64
		c-0.94-0.55-1.86-1.06-2.87-1.44c-1.12-0.38-2.36-0.54-3.55-0.8c-1.27-0.26-2.62-0.52-4.07-0.38c-2.6,0.25-4.93,1.76-6.47,3.89
		c-0.93,1.29-1.5,2.67-2.08,4.16c-0.34,0.82-0.7,1.63-1.07,2.44c-0.78,2.74-1.15,5.91-0.61,8.92c0.24,1.37,0.7,2.63,1.09,3.93
		c0.62,2.16,1.68,4.08,2.57,6.1c0.31,0.71,1.05,1.41,0.98,2.25c-0.04,0.56-0.5,0.69-0.86,0.99c-0.39,0-0.89,0.06-1.2,0.24
		c-0.31,0.04-0.64,0.07-0.95,0.11c-0.35,0.06-0.71,0.1-1.08,0.13c-0.27,0.05-0.55,0.08-0.83,0.12c-0.51,0-1.26-0.08-1.68,0.12
		c-0.51,0-1.12-0.05-1.54,0.13c-0.24,0.03-0.48,0.06-0.72,0.12c-0.69,0-1.56-0.12-2.15,0.12c-0.52,0-1.25-0.09-1.67,0.12
		c-0.27,0.05-0.56,0.09-0.83,0.13c-0.28,0.03-0.56,0.07-0.84,0.11c-8.15,0-15.79-0.22-23.17-1.56c-0.84-0.22-1.68-0.45-2.51-0.67
		c-2.23-0.53-4.6-1.04-6.48-2.27c-1.17-0.77-2.26-1.67-3.13-2.82c-0.27-0.45-0.55-0.91-0.83-1.36c-0.46-0.63-1.05-1.25-1.33-1.96
		c-0.27-0.77-0.52-1.58-0.79-2.36c-0.25-0.78-0.6-1.54-0.66-2.4c-0.14-1.58,0.41-4-0.29-5.25c-0.37-0.62-2.07-0.65-2.73-0.35
		c-0.28,0.03-0.55,0.08-0.82,0.13c-1.19,0-3.3,0.58-4.13,1.25c-0.34,0.43-0.67,0.84-1,1.26c-1.57,1.88-2.68,3.73-3.08,6.2
		c-0.17,0.97-0.33,1.95-0.38,2.98c-0.03,0.75,0.08,1.42-0.1,2.13c-0.45,1.66-1.28,3.42-2.31,4.79c-0.79,1.03-1.99,1.7-3.13,2.07
		c-0.47,0.15-0.94,0.29-1.4,0.44c-0.24,0.04-0.48,0.09-0.73,0.12c-0.82,0.02-1.66,0.04-2.49,0.05c-2.45-0.28-4.79-1.56-6.3-3.55
		c-2.31-3.1-2.88-6.96-3.46-10.94c-0.15-1.38-0.3-2.77-0.44-4.17c-0.59-3.61-0.83-7.35-1.19-11.1c-0.46-4.8-1.26-9.72-2.18-14.32
		c-0.45-2.24-2.48-12.44-4.21-13.01c-0.61,1.85-0.9,3.88-1.24,5.83c-0.13,0.67-0.37,1.41-0.25,2.14c0.15,1.05,0.65,1.95,0.97,2.9
		c0.19,0.74,0.38,1.49,0.56,2.23c0.49,1.53,0.96,3.05,1.44,4.56c0.21,1.04,0.41,2.07,0.6,3.11c0.08,0.56,0.08,1.12,0.19,1.66
		c0.38,1.71,0.89,3.29,1.03,5.14c0.29,3.72,0.45,7.48,0.93,11.12c0.04,0.46,0.08,0.92,0.1,1.4c0.14,0.65,0.26,1.28,0.39,1.92
		c0.02,0.95,0.04,1.9,0.07,2.85c0.62,7.64,2.18,17.49,9.56,20.7c1.12,0.5,2.38,0.97,3.66,1.11c1.05,0.12,1.88-0.15,2.76-0.38
		c1.92-0.49,2.97-0.7,4.49-2.13c0.87-0.81,1.75-1.82,2.24-2.84c0.36-0.77,0.62-1.68,1.19-2.32c0.23-0.28,0.61-0.38,0.98-0.28
		c0.68,0.17,1.64,1.68,2.23,2.22c0.43,0.41,0.92,0.62,1.41,0.99c0.7,0.52,1.38,1.22,2.15,1.62c0.86,0.45,1.85,0.71,2.68,1.19
		c0.76,0.45,1.53,1.41,2.45,1.49c1.83,0.16,1.11-6.24,3.44-6.27c0.82-0.01,1.19,0.6,1.81,0.97c0.61,0.32,1.24,0.62,1.86,0.94
		c0.41,0.29,0.84,0.55,1.26,0.85c1.17,0.64,2.44,0.98,3.82,1.25c0.57,0.11,1.08-0.15,1.65-0.15c0.75,0.1,1.5,0.18,2.27,0.29
		c1.24,0.16,2.53,0.48,3.83,0.57c1.32,0.05,2.55,0.18,3.8,0.23c0.84,0.04,1.67,0.04,2.51,0.05c1.75,0.16,3.68,0.38,5.5,0.42
		c0.72-0.07,1.42-0.14,2.16-0.2c1.5-0.03,3.01-0.03,4.52-0.05c1.08-0.12,2.15-0.25,3.22-0.38c0.39-0.06,0.81-0.18,1.2-0.26
		c0.53-0.04,1.04-0.08,1.56-0.09c1.15-0.21,2.32-0.42,3.46-0.62c0.6-0.02,1.2-0.06,1.79-0.09c0.91-0.15,1.82-0.29,2.74-0.44
		c1.32-0.26,2.64-0.53,3.96-0.8c0.67,0,1.34-0.03,2.02-0.07c0.71-0.07,1.42-0.17,2.13-0.26c0.89-0.14,1.55-0.6,2.41-0.76
		c2.06-0.33,4.06-0.55,6.06-1.05c0.9-0.32,1.78-0.64,2.67-0.96c3.72-0.98,7.31-2.51,10.19-5.11c2.69-2.46,6.43-5.19,7.1-8.91
		C477.46,520.01,477.59,519.4,477.37,518.88 M387.83,531.06v0.12c-2.16,0-8.26-7.52-7.78-9.51c0.34-1.39,2.04-1.73,3.13-2.18
		c0.59,0.04,1.28,0,1.61,0.52c0.36,0.56,0.35,1.54,0.41,2.23c0.18,0.79,0.36,1.57,0.54,2.36c0.33,0.97,0.65,1.93,0.98,2.9
		c0.48,1.13,1.16,2.26,1.23,3.57H387.83z"/>
	<path d="M726.5,525.45v0.11V525.45z"/>
	<path d="M509.36,534.89c0.11,0.17,0.23,0.33,0.47,0.33C509.7,535.05,509.56,534.97,509.36,534.89"/>
	<path d="M703.12,544.66c2.4,0,4.4,0.97,6.55,1.56c1.05,0.27,4.45,0.98,4.95,1.83c0.95,1.56-1.39,3.16-2.44,3.91
		c-0.63,0.44-1.17,1.01-1.83,1.36c-0.58,0.32-1.22,0.56-1.9,0.68c-1.1,0.21-2.49-0.36-3.46-0.66c-2.09-0.58-4.18-1.21-6.28-1.79
		c-0.85-0.31-1.69-0.75-2.66-0.75c-2.15,0-3.39,2.44-5.48,2.54c-0.65,0.01-1.15-0.22-1.69-0.39c-2.17-0.4-4.38-0.81-6.54-1.21
		c-0.85-0.15-2.34-0.18-2.88-0.82c-0.1-0.12-0.34-0.38-0.1-0.38c0.47-1.2,2.09-2.63,3.18-3.28c0.88-0.53,1.63-1.11,2.66-1.34
		c1.57-0.34,3.01,0.08,4.43,0.38c1.6,0.32,3.07,0.69,4.65,1c1.05,0.2,2.03,0.71,3.21,0.55c1.18-0.18,2.7-1.65,3.75-2.27
		C701.86,545.28,702.47,544.98,703.12,544.66"/>
	<path d="M325.28,549.2v0.12c-0.17,0-0.12-0.05-0.12,0.14c0.01,0.08,0.14,0.11,0.23,0.11c0-0.17-0.04-0.11,0.12-0.11v-0.14
		C325.44,549.28,325.36,549.24,325.28,549.2"/>
	<path d="M112.6,541.54c0-16.74,13.59-30.33,30.32-30.33c16.76,0,30.33,13.59,30.33,30.33c0,16.74-13.57,30.34-30.33,30.34
		C126.19,571.88,112.6,558.28,112.6,541.54"/>
	<path d="M178,539.14h66.77c-4.08-15.54-12.16-29.51-23.06-40.69l-47.38,27.27C176.4,529.81,177.68,534.35,178,539.14"/>
	<path d="M126.99,572.89l-16.1,27.87c8.87,4.79,18.94,7.65,29.64,8.02V576.6C135.68,576.3,131.11,574.98,126.99,572.89"/>
	<path d="M123.43,512.27l-16.07-27.84c-8.92,5.64-16.29,12.94-21.66,21.48l27.97,16.15C116.24,518.19,119.57,514.85,123.43,512.27"
		/>
	<path d="M144.87,576.65v32.15c10.73-0.28,20.83-3.11,29.74-7.86l-16.09-27.86C154.37,575.12,149.74,576.38,144.87,576.65"/>
	<path d="M111.49,525.8l-27.97-16.15c-4.75,8.81-7.5,18.78-7.85,29.49h32.19C108.18,534.37,109.45,529.86,111.49,525.8"/>
	<path d="M140.54,506.48v-34.7c-9.48,1.49-19.17,4.65-29.45,10.46l16.1,27.88C131.25,508.07,135.75,506.79,140.54,506.48"/>
	<path d="M113.48,560.75L85.6,576.81c5.42,8.79,12.81,16.24,21.56,21.75l16.09-27.86C119.37,568.07,116.05,564.67,113.48,560.75"/>
	<path d="M107.82,543.48H75.67c0.3,10.65,3.08,20.7,7.77,29.55l27.9-16.05C109.32,552.88,108.08,548.3,107.82,543.48"/>
	<path d="M162.28,570.89l16.08,27.87c8.83-5.48,16.3-12.95,21.77-21.77l-27.85-16.09C169.66,564.87,166.25,568.28,162.28,570.89"/>
	<path d="M178.02,543.48c-0.24,4.88-1.51,9.5-3.57,13.66l27.87,16.08c4.77-8.91,7.57-19.02,7.87-29.74H178.02z"/>
	<path d="M172.15,521.98l46.34-26.68c-9.84-9.18-21.71-16.22-34.86-20.39l-21.5,37.17C166.1,514.67,169.51,518.05,172.15,521.98"/>
	<path d="M158.36,509.95l20.99-36.29c-7.52-1.97-15.38-3.03-23.5-3.03c-3.65,0-7.31,0.18-10.97,0.57v35.23
		C149.69,506.7,154.26,507.93,158.36,509.95"/>
</g>
</svg>
