<?xml version="1.0" encoding="UTF-8"?>
<svg id="Layer_2" data-name="Layer 2" xmlns="http://www.w3.org/2000/svg" viewBox="0 0 260.87 268.95">
  <defs>
    <style>
      .cls-1 {
        stroke-width: 3px;
      }

      .cls-1, .cls-2, .cls-3, .cls-4, .cls-5, .cls-6 {
        fill: none;
      }

      .cls-1, .cls-2, .cls-4, .cls-5, .cls-6 {
        stroke-miterlimit: 10;
      }

      .cls-1, .cls-4 {
        stroke: #710dd9;
      }

      .cls-2 {
        stroke: #411697;
        stroke-width: 1.13px;
      }

      .cls-7 {
        fill: #fff;
      }

      .cls-8 {
        fill: #144ad4;
      }

      .cls-9 {
        fill: #411697;
      }

      .cls-10 {
        fill: #710dd9;
      }

      .cls-11 {
        fill: #5a55da;
      }

      .cls-12 {
        fill: #2827c6;
      }

      .cls-3 {
        stroke: #144ad4;
        stroke-linecap: round;
        stroke-linejoin: round;
        stroke-width: 5px;
      }

      .cls-4 {
        stroke-width: 2px;
      }

      .cls-5 {
        stroke-width: 1.16px;
      }

      .cls-5, .cls-6 {
        stroke: #fff;
      }
    </style>
  </defs>
  <g id="Layer_1-2" data-name="Layer 1">
    <g>
      <g>
        <path class="cls-9" d="m255,151.4c10.39,30.41-5.28,63.99-33.37,82.72-29.14,19.43-65.41,20.33-99.77,17.32-2.93-.26-5.87-.55-8.79-.86-21.61-2.29-43.76-7.3-62.27-18.42-19.58-11.76-43.44-34.45-43.77-57.78-.26-18.35,3.93-37.86,22.98-46.82,10.22-4.81,21.94-5.04,32.52-8.79,9.99-3.54,17.32-11.38,22.54-19.9,6.13-9.99,10.09-21.12,17.09-30.58,16.5-22.3,49.06-32.18,76.06-21.88,13.73,5.24,24.45,15.32,31.57,27.39,7.81,13.23,9.63,29.13,19.58,41.29,9.51,11.63,20.73,21.99,25.62,36.3Z"/>
        <path class="cls-11" d="m125.57,233.9c-4.58-2.79-8.91-6.02-13.3-9.28-8.31-6.18-16.16-11.03-26.64-13.19-10.66-2.21-21.86-2.44-31.98-6.62-13.8-5.69-23.39-18.31-27.73-31.88-4.34-13.57-4-28.07-2.35-42.15-11.05,10.87-17.23,25.98-16.78,41.01.77,25.99,21.88,47.07,44.01,60.37,18.5,11.12,40.66,16.13,62.27,18.42,2.93.31,5.86.6,8.79.86,24.98,2.19,51.53,2.63,75.44-5.57-5.08,1.74-12.7-.35-17.88-.83-12.53-1.16-25.26-1.05-37.51-4.07-6.02-1.48-11.33-4.01-16.34-7.06Z"/>
        <path class="cls-9" d="m221.63,234.11c-7.27,4.85-14.98,8.54-23,11.31-24.61,3.78-48.95-2.34-68.36-17.78-11.83-9.63-18.92-24.47-33.9-28.91-18.13-5.19-38.63.74-53.61-10.38-17.9-13.94-22.53-36.29-18.62-57.37,1.78-1.26,3.74-2.41,5.88-3.42,10.23-4.81,21.95-5.05,32.52-8.79,10-3.54,17.32-11.38,22.54-19.89,4.38-7.14,7.65-14.85,11.72-22.14,1.62-2.91,3.38-5.75,5.39-8.45,16.49-22.3,49.06-32.17,76.05-21.87,10.05,3.83,18.48,10.26,25.07,18.16,2.42,2.89,4.59,5.99,6.5,9.23,7.81,13.23,9.63,29.13,19.58,41.29,9.52,11.64,20.73,21.99,25.62,36.3,10.39,30.41-5.28,63.98-33.37,82.72Z"/>
        <path class="cls-11" d="m203.31,64.57c-4.27,4.42-10.63,6.9-16.75,6.04-2.86,3.31-7.92,4.51-11.97,2.85-4.04-1.66-6.8-6.07-6.5-10.44-.43,8.76-8.6,16.4-17.36,16.25-8.49-.13-16.18-7.56-16.78-15.99-.05,2.55-1.62,5.06-3.94,6.15-2.57,1.21-5.88.6-7.85-1.45-1.35,6.93-7.92,12.47-14.98,12.61-3.78.08-7.49-1.4-10.37-3.85,1.62-2.91,3.38-5.75,5.39-8.45,16.49-22.3,49.06-32.17,76.05-21.87,10.05,3.83,18.48,10.26,25.07,18.16Z"/>
        <path class="cls-9" d="m160.69,52.12c-.2-.87-1.56-.5-1.34.37.74,2.93-.8,6.34-3.82,7.26-2.72.83-5.63-.49-7.05-2.88-.36-.6-1.15-.28-1.22.33-.46,4.15-3.35,7.8-7.46,8.84-1.89.48-3.91.33-5.75-.29-2.1-.72-3.33-2.11-5.02-3.42-.3-.23-.67.05-.52.4,1.76,4.03,8.01,5.36,11.84,4.29,3.92-1.09,6.88-4.4,7.9-8.25,1.99,2.21,5.23,3.2,8.09,2.09,3.44-1.34,5.14-5.25,4.34-8.74Z"/>
        <path class="cls-11" d="m234.65,216.87c-3.28,5.64-5.53,10.4-10.93,14.52-4.61,3.52-9.84,6.13-14.53,9.54-9.25,6.73-19.95,11.23-31.06,13.81-6.41,1.49-10.27-3.46-6.64-8.71,3.43-4.96,9.08-7.96,12.05-13.31,5.93-10.68-1.74-24.77,3.07-36,1.08-2.53,3.51-5.07,6.16-4.36,3.27.88,3.45,5.42,2.85,8.75-.77,4.24.54,11.92,6.61,9.18,11.1-5.01,5.54-24.68,3.32-32.73-1.5-5.4-.97-10.34-1.35-15.83-.19-2.8.59-6.17,3.22-7.12,2.52-.92,5.31,1.08,6.42,3.52,1.12,2.44,1.09,5.23,1.45,7.89.16,1.15.42,2.35,1.18,3.23.76.88,2.15,1.32,3.11.67.97-.65,1.1-2,1.14-3.17.2-6.82.05-12.52-1.22-19.24-1.18-6.26-3.75-13.55-3.75-19.9-.63-3.34-1.11-7.26,1.23-9.74,2.91-3.09,8.5-1.56,10.97,1.88,2.48,3.45,2.72,7.96,2.87,12.2.37,10.28,1.85,20.93,1.25,31.1-.05.82-.08,1.71.39,2.38.95,1.37,3.29.76,4.16-.66s.79-3.2.85-4.86c.06-1.67.42-3.53,1.81-4.46,1.69-1.13,4.14-.18,5.26,1.5,1.13,1.69,1.24,3.84,1.15,5.87-.43,9.51-3.08,20.14-10.24,26.78-4.03,3.74-8.67,6.51-12.16,10.81-3.69,4.53-4.23,9.51-5.41,15.13,1.83,1.44,4.63.55,6.34-1.03,1.71-1.59,2.82-3.74,4.51-5.35s4.45-2.56,6.34-1.18c1.32.97,1.75,2.8,1.49,4.41-.26,1.61-1.1,3.06-1.92,4.47Z"/>
        <path class="cls-9" d="m238.53,167.48c-2.02,2.36-3.49,5.24-5.12,7.87-1.84,2.96-3.68,5.92-5.52,8.88-2.55,4.11-5.19,8.18-7.69,12.33,5-13.66,7.66-28.15,7.78-42.75.11-13.08-1.57-26.57-5.96-38.94-.16-.44-.83-.27-.71.19,2.99,11.35,5.1,22.76,5.36,34.52.24,11.44-1.03,22.9-3.84,33.99-1.52,6.01-3.51,11.88-5.91,17.58-2.32-12.02-5.2-23.95-7.81-35.91-.11-.51-.89-.29-.78.22,2.54,12.59,4.79,25.26,7.69,37.78-5.21,11.75-12.23,22.68-20.74,32.36-.1-9.85-1.54-20-5.01-29.18-.17-.44-.85-.28-.72.2,2.72,10.07,4.51,20.03,4.42,30.44-.3.33-.59.66-.9.99-3.43,3.69-7.06,7.07-10.85,10.23-11.13,1.12-22.38.66-33.41-1.5-7.73-1.51-15.32-3.8-22.57-6.88-7.3-3.11-14.23-7.03-21.66-9.84-14.82-5.61-31.15-4.53-45.96-10.16-13.2-5.01-24.81-14.22-32.63-25.98-9.4-14.14-12.94-31.5-10.72-48.26.07-.49-.79-.61-.88-.12-5.04,29.26,10.46,59,36.7,72.51,6.52,3.36,13.47,5.53,20.68,6.84,8.37,1.51,16.9,2.14,25.16,4.23,8.46,2.14,16.12,6.23,23.97,9.92,7.2,3.39,14.65,6.13,22.39,8.02,12,2.93,24.51,3.93,36.83,2.92-3.59,2.88-7.32,5.6-11.17,8.21-.13-.37-.64-.62-.95-.25-.58.68-1.15,1.35-1.7,2.06-.49.64.11,1.64.91,1.19,5.66-3.21,11.01-7.17,16-11.5,4.57-.5,9.12-1.27,13.59-2.33.9-.21.52-1.59-.38-1.39-3.72.84-7.47,1.49-11.23,1.97,2.13-1.92,4.19-3.9,6.17-5.91.87-.89,1.73-1.79,2.58-2.7.03.37.46.75.84.59,4.42-1.84,8.84-3.68,13.26-5.53,2.15-.9,4.3-1.79,6.45-2.69,2.05-.85,4.3-1.55,6.18-2.73.52-.32.18-1.12-.41-.98-2.22.53-4.38,1.68-6.49,2.56-2.15.9-4.3,1.79-6.45,2.69-4.02,1.68-8.03,3.35-12.05,5.03,0-.15,0-.29,0-.44,5.61-6.23,10.63-13.01,14.93-20.21,3.16-5.3,5.91-10.83,8.24-16.53,3.55-5.22,6.78-10.68,10.13-16.02,1.78-2.85,3.56-5.69,5.34-8.54,1.75-2.8,3.87-5.6,5.18-8.63.14-.33-.27-.76-.55-.43Z"/>
        <path class="cls-9" d="m124.95,251.15c-11.67-6.46-24.21-11.53-36.99-15.35-6.38-1.91-12.85-3.5-19.39-4.77-6.52-1.26-13.26-2.49-19.91-2.59-.3,0-.38.48-.07.53,6.54,1.18,13.15,1.89,19.67,3.2,6.41,1.29,12.76,2.89,19.01,4.79,12.84,3.9,25.12,9.14,37.04,15.27.72.37,1.35-.69.63-1.09Z"/>
      </g>
      <path class="cls-8" d="m168.58,253.76c-10.82,5.72-23.47,8.2-35.65,6.99-.74-.07-1.51-.17-2.32-.29,1.48-1.85,2.49-4.02,2.71-6.5.35-4.05-2.66-7.65-5.83-9.1-2.86-1.32-5.72-.93-7.64,1.04-1.29,1.33-1.96,3.12-1.92,5.18.06,2.56,1.2,5.14,3.06,6.9,1.88,1.77,4.19,2.81,6.53,3.45-2.18,1.9-4.92,3.3-7.53,4.16-13.34,4.42-29.52.55-42.24-10.12-9.94-8.34-17.91-20.35-25.09-37.78-2.33-5.65-4.45-11.5-6.51-17.17-2.94-8.11-5.98-16.48-9.68-24.46,3.14-3.99,5.5-8.99,6.8-14.59,1.96-8.43,1.53-17.35.93-25.76l-.16-2.16c-.57-7.66-1.15-15.6-.08-23.27,2.7-19.25,16.78-36.68,35.02-43.36,6.14-2.25,11.57-2.81,16.16-1.66-2.44,1.65-4.68,3.88-6.03,6.91-1.5,3.34-1.31,7.52.5,10.9,1.47,2.75,3.78,4.52,6.52,4.98,2.66.44,5.46-.48,7.7-2.54,2.56-2.36,3.97-5.83,3.7-9.07-.41-4.77-3.82-9.19-8.65-11.51,2.12-1.01,4.21-1.64,5.8-2.02,3-.72,6.14-1.09,9.18-1.44,3.03-.36,6.16-.73,9.19-1.43,12.28-2.87,23.2-11.75,28.53-23.18,4.62-9.9,5.08-25.45,1.54-36.83h-1.66c3.53,10.99,3.15,26.61-1.3,36.17-5.12,11-15.64,19.55-27.46,22.31-2.95.69-6.03,1.05-9.01,1.4-3.08.36-6.27.74-9.36,1.47-1.99.48-4.71,1.32-7.36,2.77-.35-.12-.71-.23-1.06-.32-4.98-1.35-10.84-.8-17.46,1.62-18.77,6.88-33.26,24.82-36.04,44.63-1.1,7.84-.5,15.86.06,23.61l.16,2.15c.62,8.63,1.02,17.07-.89,25.29-1.18,5.09-3.26,9.64-6.02,13.34-2.52-5.27-5.8-11.14-10.94-15.04-4.75-3.6-12.27-5.68-18.32-2.21-3.41,1.96-5.72,5.61-6.31,10.03-.67,4.95.93,10.06,4.18,13.32,5.96,5.99,16.57,6.91,24.69,2.13,2.32-1.37,4.45-3.15,6.34-5.29,3.53,7.71,6.47,15.81,9.31,23.65,2.07,5.68,4.19,11.56,6.54,17.24,7.27,17.67,15.39,29.87,25.53,38.38,9.53,7.99,20.96,12.29,31.82,12.29,4.1,0,8.13-.61,11.93-1.88,3.11-1.03,6.4-2.79,8.88-5.24,1.18.23,2.33.37,3.41.48,12.47,1.25,25.45-1.3,36.54-7.17l-.73-1.39ZM97.1,65.85c4.91,1.92,8.47,6.13,8.86,10.7.24,2.76-.99,5.74-3.2,7.77-1.87,1.73-4.19,2.51-6.36,2.14-2.24-.38-4.16-1.86-5.39-4.17-1.56-2.91-1.74-6.65-.46-9.51,1.42-3.16,3.91-5.39,6.55-6.94ZM28.22,181.31c-7.51,4.42-17.31,3.62-22.77-1.88-2.91-2.93-4.34-7.53-3.74-12.01.53-3.92,2.55-7.15,5.53-8.87,1.92-1.1,4.03-1.58,6.13-1.58,3.82,0,7.65,1.55,10.45,3.68,4.93,3.74,8.11,9.51,10.57,14.67.08.17.15.32.23.49-1.88,2.24-4.04,4.11-6.41,5.5Zm100.62,78.8c-2.43-.55-4.87-1.51-6.76-3.29-1.54-1.45-2.52-3.67-2.57-5.79-.02-1.14.22-2.76,1.48-4.05.99-1.01,2.13-1.32,3.17-1.32,1.12,0,2.12.36,2.68.62,2.66,1.22,5.2,4.19,4.9,7.52-.21,2.44-1.31,4.54-2.91,6.31Z"/>
      <g>
        <path class="cls-10" d="m180.97,142.44v43.52c0,1.45-.33,2.84-.92,4.08-1.52,3.22-4.8,5.44-8.6,5.44h-64.28l-15.65,15.65v-15.65h-2.62c-5.26,0-9.52-4.26-9.52-9.52v-43.52c0-5.26,4.26-9.52,9.52-9.52h82.55c5.26,0,9.52,4.26,9.52,9.52Z"/>
        <path class="cls-10" d="m180.97,142.44v43.52c0,1.45-.33,2.84-.92,4.08l-5.17-5.17h-64.28c-5.26,0-9.52-4.26-9.52-9.53v-42.43h70.37c5.26,0,9.52,4.26,9.52,9.52Z"/>
        <path class="cls-8" d="m200.47,116.82h-82.55c-5.26,0-9.52,4.26-9.52,9.52v43.53c0,5.26,4.26,9.52,9.52,9.52h64.28l15.65,15.65v-15.65h2.62c5.26,0,9.52-4.26,9.52-9.52v-43.53c0-5.26-4.26-9.52-9.52-9.52Z"/>
        <path class="cls-5" d="m205.69,168.69v-39.84c0-4.81-3.9-8.71-8.71-8.71h-75.55"/>
        <path class="cls-7" d="m141.09,162.88c0,2.3-1.87,4.17-4.17,4.17s-4.17-1.87-4.17-4.17,1.87-4.17,4.17-4.17,4.17,1.87,4.17,4.17Z"/>
        <path class="cls-7" d="m163.36,162.88c0,2.3-1.87,4.17-4.17,4.17s-4.17-1.87-4.17-4.17,1.87-4.17,4.17-4.17,4.17,1.87,4.17,4.17Z"/>
        <path class="cls-7" d="m185.63,162.88c0,2.3-1.87,4.17-4.17,4.17s-4.17-1.87-4.17-4.17,1.87-4.17,4.17-4.17,4.17,1.87,4.17,4.17Z"/>
      </g>
      <g>
        <rect class="cls-8" x="24.3" y="80.91" width="69.57" height="41.97" transform="translate(-30.23 25.1) rotate(-19.2)"/>
        <polyline class="cls-6" points="71.44 116.2 94.02 108.56 85.04 79.81"/>
        <polygon class="cls-8" points="98.84 110.27 59.38 102.74 33.14 133.15 98.84 110.27"/>
        <polygon class="cls-10" points="85.04 70.64 80.38 76.46 59.38 102.74 26.85 95.14 19.58 93.44 24.26 87.7 35.5 73.92 45.2 62.02 60.3 65.29 77.81 69.08 85.04 70.64"/>
        <polygon class="cls-10" points="74.74 60.26 80.38 76.46 59.38 102.74 26.85 95.14 21.2 78.9 74.74 60.26"/>
        <line class="cls-2" x1="33.16" y1="83.34" x2="43.27" y2="79.81"/>
        <line class="cls-2" x1="35.64" y1="90.47" x2="70.05" y2="78.49"/>
        <line class="cls-2" x1="37.03" y1="94.46" x2="71.44" y2="82.47"/>
      </g>
      <g>
        <g>
          <path class="cls-8" d="m253.49,171.51c.55,1.16,2.8,5.42,4.32,7.83,3.01,4.76,3.81,7.46,2.34,13.17-1.5,5.84-4.08,11.37-6.73,16.77-5.53,11.26-13.15,21.45-22.19,30.14-25.46,24.47-51.6,21.75-56.02,22.67-4.42.92-12.72-8.76-12.72-8.76,6.37-4.48,18.11-9.11,23.86-11.24,0,0,4.24,13.37,25.3-3.51,21.05-16.88,39.31-37.66,27.49-44.98,3.95-8.94,14.35-22.09,14.35-22.09Z"/>
          <path class="cls-6" d="m230.05,234.19s21.83-20.95,28.18-48.58"/>
          <path class="cls-10" d="m239.14,193.61s0-.01,0-.02c11.82,7.32-6.44,28.09-27.49,44.98-21.05,16.88-25.3,3.51-25.3,3.51h0c2.06-.76,3.34-1.21,3.34-1.21,8.61,10.66,42.65-28.91,47.43-34.57,4.79-5.66.79-9.32.79-9.32l1.21-3.37Z"/>
          <path class="cls-12" d="m239.14,193.61l-1.21,3.37c.26-1.01.67-2.15,1.21-3.37Z"/>
        </g>
        <path class="cls-8" d="m162.51,253.33l-4.91-7.95c-1.92-3.11-1.12-7.17,1.84-9.32,4.66-3.39,11.84-7.93,18.65-9.54,3.48-.82,7.01,1.13,8.19,4.5l3.44,9.86-27.2,12.45Z"/>
        <path class="cls-8" d="m237.93,196.98l-5.99-3.44c-1.86-1.07-2.96-3.1-2.82-5.24.36-5.52,2.35-16.02,11.93-21.49,1.89-1.08,4.24-.98,6.03.26l6.42,4.44s-7.86,12.03-15.56,25.47Z"/>
      </g>
      <path class="cls-1" d="m189.71,240.88s-10.74,8.2-27.2,12.45"/>
      <path class="cls-1" d="m237.93,196.98s14.2-13.38,15.56-25.47"/>
      <path class="cls-4" d="m234.91,100.45c5.01,4.8,8.26,11.4,9,18.3.4,3.74.05,7.68-1.76,10.97-1.82,3.3-5.29,5.83-9.05,5.82-3.76-.01-7.49-3.04-7.62-6.81-.15-4.15,4.01-7.55,8.16-7.65,4.15-.1,7.99,2.35,10.77,5.43,7.25,8.06,8.22,21.11,2.23,30.15"/>
      <g>
        <circle class="cls-10" cx="49.85" cy="229.46" r="33.11"/>
        <path class="cls-6" d="m49.85,199.12c16.76,0,30.35,13.59,30.35,30.35"/>
        <circle class="cls-7" cx="49.85" cy="229.46" r="26.68" transform="translate(-184.69 240.81) rotate(-80.51)"/>
        <path class="cls-10" d="m49.85,202.78c-7.88,0-14.95,3.41-19.83,8.84,4.73-4.25,10.98-6.85,17.84-6.85,14.73,0,26.68,11.94,26.68,26.68,0,6.86-2.59,13.11-6.84,17.84,5.43-4.88,8.84-11.96,8.84-19.83,0-14.73-11.94-26.68-26.68-26.68Z"/>
        <polyline class="cls-3" points="50.81 211.06 50.81 230.84 65.06 230.84"/>
      </g>
    </g>
  </g>
</svg>