<?xml version="1.0" encoding="UTF-8"?>
<svg id="Layer_2" data-name="Layer 2" xmlns="http://www.w3.org/2000/svg" xmlns:xlink="http://www.w3.org/1999/xlink" viewBox="0 0 815.54 409.69">
  <defs>
    <style>
      .cls-1 {
        clip-path: url(#clippath);
      }

      .cls-2 {
        fill: #f3f6fd;
      }

      .cls-3 {
        fill: #dde4f7;
      }
    </style>
    <clipPath id="clippath">
      <path class="cls-3" d="m94.93,55.88c74.68,32.48,153.9,49.95,239.96,48.24,90.84-1.8,186.39-23.78,272.01-44.47,67.47-16.29,138-29.3,208.64-27.21v302.01c-75.41-8.51-150.85,7.38-223.82,24.06-84.63,19.35-168.82,43.44-257.37,49.97-88.74,6.53-177.84-14.01-256.94-44.59-25.67-9.93-54.25-21.83-77.42-37.16V0c20.23,19.47,67.71,44.04,94.93,55.88"/>
    </clipPath>
  </defs>
  <g id="Layer_1-2" data-name="Layer 1">
    <g>
      <path class="cls-3" d="m94.93,55.88c74.68,32.48,153.9,49.95,239.96,48.24,90.84-1.8,186.39-23.78,272.01-44.47,67.47-16.29,138-29.3,208.64-27.21v302.01c-75.41-8.51-150.85,7.38-223.82,24.06-84.63,19.35-168.82,43.44-257.37,49.97-88.74,6.53-177.84-14.01-256.94-44.59-25.67-9.93-54.25-21.83-77.42-37.16V0c20.23,19.47,67.71,44.04,94.93,55.88"/>
      <g class="cls-1">
        <g>
          <path class="cls-2" d="m436.1,122.8c-139.67,4.42-241.66,43.25-241.66,43.25-79.3,33.94-171.76,29.36-216.03,24.31v37.33c2.7,1.74,5.88,3.63,9.4,5.76,37.68,22.97,115.16,68.83,138.38,71.51,0,0-106.22-1.34-147.78,2.29v39.15c139.26-30.15,506.77,55.41,506.77,55.41,184.58,27.86,313.55-25.65,351.93-44.67v-31.89c-48.67,26.52-174.82,46.65-174.82,46.65-152.01,18.94-282.04-26.44-291.86-29.99,53.49,7.5,235.54-42.46,235.54-42.46,113.1-27.15,203.98-16.42,231.13-12.08v-53.28c-125.79-76.72-262.82-115.71-401.02-111.29Zm79.77,175.78s-256.76,57.3-429.82-36.31c0,0-20.98-10.26-44.62-23.28,81.41.39,151.42-31.89,151.42-31.89,207.27-100.16,471.79-4.03,592.59,52.33-58.08.39-152.01,7.5-269.58,39.15Z"/>
          <path class="cls-2" d="m837.12-67.83v-43.96s-.02,0-.06-.03c-33.49,32.82-89.52,71.62-89.52,71.62-103.01,80.96-231.22,83.81-326.24,69.77-57.28-8.46-112.8-25.71-165.55-49.32C130.55-75.79,32.96-87.92-21.58-89.38v40.73c45.44-3.39,122.44-.32,211.85,39.31,0,0,194.45,96.61,251.06,86.27,0,0-145.43,76.09-313.78,32.91,0,0-88.53-27.63-149.13-63.62v55.88c44.5,29.76,117.27,66.85,212.38,75.3,53.55,4.82,107.34-1.26,159.89-16.02,94.11-26.44,355.17-92.9,486.43-59.67v-62.59c-51.85-6.31-133.97-9.47-133.97-9.47,21.69-2.6,84.65-54.7,126.74-91.48.12-.16,3.35-2.84,7.23-6Z"/>
        </g>
      </g>
    </g>
  </g>
</svg>