<?xml version="1.0" encoding="utf-8"?>
<!-- Generator: Adobe Illustrator 27.3.1, SVG Export Plug-In . SVG Version: 6.00 Build 0)  -->
<svg version="1.1" id="Layer_1" xmlns="http://www.w3.org/2000/svg" xmlns:xlink="http://www.w3.org/1999/xlink" x="0px" y="0px"
	 viewBox="0 0 841.9 595.3" style="enable-background:new 0 0 841.9 595.3;" xml:space="preserve">
<style type="text/css">
	.st0{fill:#4A1D96;}
</style>
<g>
	<path class="st0" d="M621,288.8c-46.9,1.5-81.2,14.7-81.2,14.7c-26.6,11.6-57.7,10-72.6,8.3v2v10.7c0.9,0.6,2,1.2,3.2,2
		c12.7,7.8,38.7,23.4,46.5,24.3c0,0-35.7-0.5-49.6,0.8v6.9v6.4c46.8-10.3,170.3,18.9,170.3,18.9c62,9.5,105.3-8.7,118.2-15.2v-10.9
		c-16.4,9-58.7,15.9-58.7,15.9c-51.1,6.4-94.8-9-98.1-10.2c18,2.6,79.1-14.5,79.1-14.5c38-9.2,68.5-5.6,77.7-4.1v-0.6v-8.4v-9.2
		C713.4,300.6,667.4,287.3,621,288.8z M647.8,348.6c0,0-86.3,19.5-144.4-12.4c0,0-7.1-3.5-15-7.9c27.4,0.1,50.9-10.9,50.9-10.9
		c69.6-34.1,158.5-1.4,199.1,17.8C718.8,335.4,687.2,337.8,647.8,348.6z"/>
	<path class="st0" d="M521.6,373.7c-7.2-0.5-14.2-0.9-20.7-0.9v10.8c20.7,2.5,0,0,20.7,2.5V373.7z"/>
	<path class="st0" d="M644,230.5c-11,1.6-6.8,1.2-22.1,1.9V244c7,0.9,14.4,1.4,22.1,1.5V230.5z"/>
	<path class="st0" d="M647.7,230.5v14.9c8.4-0.1,17-0.9,25.6-2.6v-15.1C665.3,229.4,656.7,230.4,647.7,230.5z"/>
	<path class="st0" d="M656.8,209.4c-3.5,0.3-7,0.4-10.6,0.4c-2.6,0-5.1-0.1-7.6-0.2v15c2.5,0.1,7.6,1.2,18.2-2.8V209.4z"/>
	<path class="st0" d="M755.7,223.9l0-15c0,0,0,0,0,0c-11.2,11.2-30.1,24.4-30.1,24.4c-34.6,27.6-77.7,28.5-109.6,23.7
		c-19.2-2.9-37.9-8.7-55.6-16.8c-42.1-19.1-74.8-23.2-93.2-23.7v13.9c15.3-1.2,41.1-0.1,71.2,13.4c0,0,65.3,32.9,84.3,29.4
		c0,0-48.9,25.9-105.4,11.2c0,0-29.7-9.4-50.1-21.7v19c14.9,10.1,39.4,22.8,71.4,25.6c18,1.6,36.1-0.4,53.7-5.5
		c31.6-9,119.3-31.6,163.4-20.3v-21.3c-17.4-2.1-45-3.2-45-3.2c7.3-0.9,28.4-18.6,42.6-31.1C753.3,225.9,754.4,225,755.7,223.9z"/>
	<path class="st0" d="M753.8,294.9c-5-1.3-10.7-2.1-16.8-2.5v11c5.6,0.4,18.7,7.2,18.7,7.2v-15.3L753.8,294.9z"/>
</g>
<g>
	<g>
		<path class="st0" d="M278.8,254.2c-5.1,1.4-7.7,1.5-9,1.4V304h-13.6v-23.6c-4.8,1.3-7.5,1.5-9,1.5V304h-10.4v-23.3
			c-4.8,1.3-7.5,1.4-9,1.4V304h-10v-23.3c-4.8,1.3-7.5,1.4-9,1.4V304h-13.1v-23.3c-4.8,1.3-7.5,1.4-9,1.4V304h-13.4v-49.9
			c-4.9,1.4-7.6,1.5-9,1.5v57.4h114.6V254.2z"/>
		<path class="st0" d="M298,254.2c-5.1,1.4-7.7,1.5-9,1.4v57.4h9V254.2z"/>
		<path class="st0" d="M154.4,280.8c-4.9,1.3-7.6,1.4-9,1.4V304c-24,0.7-32.9,0.7-57,0l-0.7,0c0,1.5-0.2,4.2-1.5,9h68.2V280.8z"/>
		<path class="st0" d="M388.3,313.3v-13.4l-9.6-9.6h-38.5l22.1-22.1c-3.2-1.8-4.8-3.2-5.7-4l-26.1,26.1l-3.8,3.8l3.2,3.1h46l5.5,5.5
			v3.7h-60.1v-15.8c-3.5,0.9-5.6,1.1-6.9,1.2v18.7c0,5.8-3.5,11.1-8.9,13.2c1.7,3.1,2.4,5.1,2.7,6.3c6.9-2.9,11.8-9.4,12.8-16.8
			H388.3z"/>
		<path class="st0" d="M421,313.3c7.3,0,13.3-5.9,13.3-13.2c0-7.3-5.9-13.3-13.3-13.3c-7.3,0-13.3,5.9-13.3,13.3
			c0,2.3,0.6,4.5,1.6,6.4h-6.9v-15.7c-3.5,0.9-5.6,1.1-6.9,1.2v18.7c0,5.8-3.5,11.1-8.9,13.2c1.7,3.1,2.4,5.1,2.7,6.3
			c6.9-2.9,11.8-9.4,12.8-16.8L421,313.3L421,313.3z M414.7,300.1c0-3.5,2.9-6.4,6.4-6.4c3.5,0,6.4,2.9,6.4,6.4
			c0,3.5-2.9,6.4-6.4,6.4C417.5,306.4,414.7,303.6,414.7,300.1z"/>
		<path class="st0" d="M316.4,276.1l-5.3,5.3c0.8,0.6,1.9,1.5,3.1,2.6c1.2,1.1,2.2,2.2,2.9,3.3l5.4-5.3c-0.7-1.2-1.7-2.3-2.9-3.4
			C318.4,277.5,317.4,276.7,316.4,276.1z"/>
		<path class="st0" d="M231.6,262.5l6.5-6.4c-0.9-1.4-2-2.8-3.5-4.1c-1.4-1.3-2.7-2.4-3.9-3.1l-6.4,6.4c1,0.8,2.3,1.8,3.7,3.2
			C229.5,259.9,230.7,261.2,231.6,262.5z"/>
		<path class="st0" d="M224.7,273.8l6.5-6.4c-0.9-1.4-2-2.8-3.5-4.1c-1.4-1.3-2.7-2.4-3.9-3.1l-6.4,6.4c1,0.8,2.3,1.8,3.7,3.2
			C222.7,271.1,223.8,272.4,224.7,273.8z"/>
		<path class="st0" d="M181.1,322.9c1,0.8,2.3,1.8,3.7,3.2c1.5,1.4,2.6,2.7,3.5,4l6.5-6.4c-0.9-1.4-2-2.8-3.5-4.1
			c-1.4-1.3-2.7-2.4-3.9-3.1L181.1,322.9z"/>
		<path class="st0" d="M113.4,322.9c1,0.8,2.3,1.8,3.7,3.2c1.5,1.4,2.6,2.7,3.5,4l6.5-6.4c-0.9-1.4-2-2.8-3.5-4.1
			c-1.4-1.3-2.7-2.4-3.9-3.1L113.4,322.9z"/>
		<path class="st0" d="M236.5,269.7c1.5,1.4,2.6,2.7,3.5,4l6.5-6.4c-0.9-1.4-2-2.8-3.5-4.1c-1.4-1.3-2.7-2.4-3.9-3.1l-6.4,6.4
			C233.8,267.3,235.1,268.4,236.5,269.7z"/>
		<path class="st0" d="M106.5,343.1l-6.3,11.3H100l-6.6-11.4c0,0,0,0,0,0c-0.9-0.1-1.9-0.2-2.8-0.2c-1.4,0-2.9,0.1-4.3,0.2
			l10.6,17.2v5.9h6.2v-5.9l10.7-17.3c-0.9-0.1-1.9-0.2-2.8-0.2C109.4,342.9,107.9,343.1,106.5,343.1z"/>
		<path class="st0" d="M138.5,345.6c-2.6-2.3-5.7-3.5-9.3-3.5c-3.6,0-6.7,1.2-9.3,3.5c-2.6,2.3-3.9,5.3-3.9,8.8
			c0,3.6,1.3,6.5,3.9,8.8c2.6,2.3,5.7,3.5,9.3,3.5c3.6,0,6.7-1.2,9.3-3.5c2.6-2.3,3.9-5.3,3.9-8.8
			C142.4,350.9,141.1,348,138.5,345.6z M134.2,359.6c-1.3,1.3-3,1.9-5,1.9c-2,0-3.7-0.6-5-1.9c-1.3-1.3-2-3-2-5.1
			c0-2.1,0.7-3.8,2-5.1c1.3-1.3,3-1.9,5-1.9c2,0,3.6,0.6,5,1.9c1.3,1.3,2,3,2,5.1C136.1,356.6,135.5,358.3,134.2,359.6z"/>
		<path class="st0" d="M166.5,343.1v11.6c0,4.4-1.9,6.6-5.8,6.6c-3.9,0-5.9-2.2-5.9-6.6V343c-0.5,0-1.1-0.1-1.6-0.1
			c-1.6,0-3.1,0.2-4.6,0.2v11.5c0,3.8,1.1,6.8,3.2,8.9c2.2,2.1,5.1,3.2,8.9,3.2c3.7,0,6.7-1,8.9-3.2c2.2-2.1,3.2-5.1,3.2-8.9v-11.6
			c-0.9-0.1-1.7-0.1-2.6-0.1C168.9,342.9,167.7,343,166.5,343.1z"/>
		<polygon class="st0" points="178.3,348.3 187.5,348.3 187.5,366.2 193.8,366.2 193.8,348.3 202.9,348.3 202.9,342.7 178.3,342.7 
					"/>
		<path class="st0" d="M228.4,343.1v8.2H215V343c-0.7-0.1-1.4-0.1-2.2-0.1c-1.4,0-2.7,0.1-4.1,0.2v23.1h6.2v-9.3h13.4v9.3h6.3v-23.1
			c-0.8-0.1-1.7-0.1-2.5-0.1C230.9,342.9,229.6,343,228.4,343.1z"/>
		<path class="st0" d="M269.2,362.9c-2.6,0-4.7-0.8-6.3-2.4c-1.6-1.6-2.4-3.6-2.4-6.1c0-2.6,0.8-4.6,2.4-6.2
			c1.6-1.5,3.7-2.3,6.3-2.3c3.6,0,6.4,1.3,8.4,4l3.4-2c-2.5-3.9-6.4-5.9-11.6-5.9c-3.8,0-6.9,1.1-9.3,3.4c-2.5,2.2-3.7,5.2-3.7,9
			c0,3.7,1.2,6.7,3.7,9c2.4,2.2,5.6,3.4,9.4,3.4c5.2,0,9.1-2,11.7-5.9l-3.4-2C275.6,361.6,272.8,362.9,269.2,362.9z"/>
		<path class="st0" d="M291.7,362.2v-6.1h14.8c0-0.6,0.1-1.1,0.1-1.7c0-0.7-0.1-1.4-0.1-2.2h-14.8v-5.6h16.4c0-0.7,0.1-1.4,0.1-2.1
			c0-0.6,0-1.2-0.1-1.8h-20.8v23.5h21.3c0-0.6,0.1-1.2,0.1-1.9c0-0.7-0.1-1.4-0.1-2.1H291.7z"/>
		<path class="st0" d="M335.7,343.1v17.1l-15.6-17.5h-4.3v23.5h4.3v-17.5l15.6,17.5h4.4v-23.3c-0.3,0-0.7,0-1,0
			C337.9,342.9,336.8,343,335.7,343.1z"/>
		<path class="st0" d="M346.3,342.7c0,0.3,0,0.6,0,0.9c0,1,0.1,2.1,0.2,3.1h9.7v19.6h4.3v-19.6h9.7c0-0.7,0.1-1.4,0.1-2.1
			c0-0.6,0-1.2-0.1-1.8H346.3z"/>
		<path class="st0" d="M380.8,362.2v-6.1h17c0-0.6,0.1-1.1,0.1-1.7c0-0.7-0.1-1.4-0.1-2.2h-17v-5.6h18.6c0-0.7,0.1-1.4,0.1-2.1
			c0-0.6,0-1.2-0.1-1.8h-23v23.5H400c0-0.6,0.1-1.2,0.1-1.9c0-0.7-0.1-1.4-0.1-2.1H380.8z"/>
		<path class="st0" d="M432.6,356.6c0.9-1.4,1.3-3,1.3-4.8c0-2.7-0.9-4.9-2.7-6.6c-1.8-1.7-4.1-2.5-6.8-2.5h-17.1v23.5h4.3v-5.4H425
			l3,5.4h4.7l-3.7-6.5C430.5,359,431.7,357.9,432.6,356.6z M428.1,355.5c-1,0.9-2.3,1.3-4,1.3h-12.6v-10.2h12.6c1.6,0,3,0.5,4,1.4
			c1,0.9,1.5,2.2,1.5,3.8C429.6,353.4,429.1,354.6,428.1,355.5z"/>
	</g>
</g>
</svg>
