<?xml version="1.0" encoding="UTF-8"?>
<svg id="Layer_2" data-name="Layer 2" xmlns="http://www.w3.org/2000/svg" viewBox="0 0 33.71 41.85">
  <defs>
    <style>
      .cls-1 {
        fill: #b8f200;
      }
    </style>
  </defs>
  <g id="Layer_1-2" data-name="Layer 1">
    <g id="_5CWQe7.tif" data-name="5CWQe7.tif">
      <g>
        <path class="cls-1" d="m16.87,41.85c-3.69,0-7.38,0-11.08,0-.74,0-1.01-.33-.9-1.06.62-3.99,2.68-6.99,6.18-9,.62-.36,1.29-.62,1.97-.86.1-.04.25-.03.27-.16.02-.13-.13-.17-.22-.23-3.19-2.38-3.64-6.77-.93-9.66,1.75-1.87,3.97-2.46,6.43-1.78,2.52.71,4.1,2.43,4.58,5,.49,2.62-.43,4.77-2.53,6.41-.09.07-.27.11-.24.26.03.13.2.13.32.17,4.61,1.73,7.31,5.04,8.1,9.89.11.68-.18,1.01-.87,1.01-3.69,0-7.38,0-11.08,0Zm-.01-1.41c3.24,0,6.48,0,9.72,0q.74,0,.55-.7c-1.44-5.43-6.56-8.75-12.11-7.83-4.1.68-7.53,3.88-8.49,7.92q-.14.61.47.61c3.28,0,6.57,0,9.85,0Zm.26-10.16c2.73-.11,4.88-2.46,4.73-5.18-.17-3.19-2.81-4.96-5.25-4.8-3.09.2-4.87,2.71-4.75,5.17.16,3.2,2.85,4.99,5.27,4.81Z"/>
        <path class="cls-1" d="m16.86,0c.5,0,.82.24,1.03.78.45,1.18.91,2.36,1.34,3.54.11.3.27.4.58.41,1.26.04,2.52.11,3.78.17.54.03.89.3,1.05.77.14.43,0,.85-.42,1.19-.99.81-1.98,1.61-2.99,2.4-.24.19-.28.37-.2.65.32,1.13.62,2.27.93,3.41.03.11.06.22.08.33.12.47,0,.87-.39,1.16-.39.29-.82.28-1.22.02-.83-.53-1.7-1.01-2.46-1.63-.8-.65-1.44-.7-2.25-.01-.71.6-1.56,1.04-2.35,1.56-.43.29-.88.38-1.33.07-.4-.27-.53-.72-.37-1.32.31-1.18.63-2.36.97-3.53.09-.33.06-.53-.23-.75-.97-.75-1.91-1.52-2.86-2.29-.5-.4-.66-.8-.5-1.27.17-.49.55-.73,1.19-.76,1.25-.05,2.49-.12,3.74-.16.28,0,.38-.15.47-.38.45-1.2.9-2.39,1.36-3.58C16.03.24,16.36,0,16.86,0Zm3.43,12.98c.09-.21,0-.32-.02-.44-.24-.91-.48-1.82-.74-2.72-.17-.59-.02-1.04.45-1.41.75-.59,1.49-1.19,2.23-1.79.11-.09.21-.18.36-.31-1.16-.07-2.24-.16-3.31-.18-.67-.02-1.03-.34-1.24-.93-.32-.87-.65-1.73-.98-2.6-.04-.11-.04-.26-.19-.3-.14.08-.15.24-.2.36-.34.88-.67,1.76-1,2.64-.17.45-.45.78-.97.81-.57.04-1.15.06-1.72.09-.57.03-1.14.07-1.74.11.08.18.22.26.33.35.72.58,1.44,1.17,2.17,1.74.49.38.64.84.46,1.45-.22.72-.4,1.46-.6,2.19-.08.3-.16.61-.27,1,.21-.13.33-.19.44-.27.8-.52,1.6-1.04,2.39-1.57.48-.32.93-.32,1.41,0,.64.43,1.29.85,1.94,1.27.26.17.51.33.79.51Z"/>
        <path class="cls-1" d="m3.37,15.68c.83,0,1.65,0,2.48,0,.55,0,.9.3.89.73,0,.41-.35.72-.88.72-1.67.01-3.34.01-5,0C.34,17.13,0,16.82,0,16.41c0-.44.34-.73.89-.73.83,0,1.65,0,2.48,0Z"/>
        <path class="cls-1" d="m30.35,15.68c.83,0,1.65,0,2.48,0,.53,0,.86.28.88.7.02.41-.32.74-.84.75-1.68.01-3.36.01-5.04,0-.53,0-.86-.32-.86-.73,0-.44.35-.72.91-.72.83,0,1.65,0,2.48,0Z"/>
        <path class="cls-1" d="m8.19,10.95c0,.58-.57.91-1.1.63-.56-.29-1.1-.62-1.64-.94-.96-.55-1.92-1.11-2.87-1.66-.31-.18-.46-.45-.39-.81.06-.31.28-.47.57-.55.21-.05.39.02.56.12,1.48.85,2.96,1.71,4.44,2.56.26.15.42.37.43.64Z"/>
        <path class="cls-1" d="m31.54,8.31c0,.3-.14.51-.38.65-1.5.87-3,1.75-4.51,2.6-.41.23-.83.11-1.03-.24-.21-.36-.1-.75.32-1,1.5-.88,3-1.75,4.51-2.61.51-.29,1.08.04,1.1.59Z"/>
        <path class="cls-1" d="m31.54,24.42c0,.64-.6.93-1.17.61-.98-.55-1.94-1.12-2.91-1.68-.52-.3-1.05-.6-1.56-.91-.27-.16-.42-.42-.36-.74.05-.3.25-.49.54-.58.22-.07.42.01.6.12,1.47.84,2.94,1.69,4.4,2.54.27.16.46.37.46.65Z"/>
        <path class="cls-1" d="m8.19,21.84c0,.26-.15.47-.4.62-1.51.87-3.01,1.75-4.52,2.61-.39.22-.8.1-1-.24-.21-.36-.11-.77.3-1.01,1.5-.88,3.01-1.75,4.52-2.61.51-.29,1.08.05,1.1.63Z"/>
      </g>
    </g>
  </g>
</svg>