<?xml version="1.0" encoding="UTF-8"?>
<svg id="Layer_2" data-name="Layer 2" xmlns="http://www.w3.org/2000/svg" viewBox="0 0 42.04 42.06">
  <defs>
    <style>
      .cls-1 {
        fill: #b8f200;
      }
    </style>
  </defs>
  <g id="Layer_1-2" data-name="Layer 1">
    <g id="ee1RFO.tif">
      <g>
        <path class="cls-1" d="m29.59,25.19c2.38,0,4.75,0,7.13,0,.84,0,1.06-.22,1.06-1.06q0-.97-.97-.97c-.35,0-.7,0-1.05,0-.49-.01-.79-.3-.78-.75.01-.42.3-.7.78-.71,1.44,0,2.89-.02,4.33,0,.39,0,.5-.11.5-.5-.02-1.06-.02-2.13,0-3.19,0-.33-.09-.47-.44-.46-1.09.02-2.19.02-3.28,0-.33,0-.44.12-.42.43.02.48,0,.96,0,1.44,0,.69-.23.92-.91.93-1.85,0-3.7.01-5.55,0-.43,0-.55.13-.54.55.03.9-.08.79.8.8.64,0,1.28,0,1.92,0,.49,0,.79.3.78.75,0,.42-.3.71-.77.71-4.17,0-8.34,0-12.5,0-.47,0-.76-.29-.77-.71,0-.44.29-.73.79-.74.76,0,1.52-.01,2.27,0,.31,0,.45-.08.44-.42-.03-1.09.11-.92-.89-.92-1.73,0-3.47,0-5.2,0-.67,0-.91-.23-.91-.89,0-4.56,0-9.12,0-13.68,0-.65.24-.88.91-.88,2.77,0,5.54,0,8.31,0,.19,0,.48.13.55-.18.07-.31.02-.56-.33-.75-.87-.47-1.25-1.49-.98-2.44C24.13.59,24.95,0,25.96,0c.96,0,1.78.64,2.03,1.56.25.93-.15,1.92-.98,2.41-.13.08-.3.12-.35.3-.12.43.02.62.47.62,2.77,0,5.54,0,8.31,0,.8,0,1,.2,1,1.01,0,1.36.01,2.71,0,4.07,0,.39.09.54.51.53,1.4-.02,2.8-.01,4.2,0,.66,0,.89.24.9.9,0,3.61,0,7.23,0,10.84,0,.68-.24.91-.93.91-.51,0-1.02,0-1.53,0-.24,0-.35.09-.34.33,0,.31,0,.61,0,.92,0,1.39-.86,2.25-2.27,2.25-4.74,0-9.47,0-14.21,0-.74,0-1,.26-1.01.94,0,.31.12.4.41.4,1.24-.01,2.48,0,3.72,0,2.82.01,4.96,2.14,4.97,4.95,0,.45,0,.9,0,1.36-.01.47-.3.75-.73.75-.43,0-.7-.29-.72-.76-.02-.54-.01-1.08-.04-1.61-.08-1.57-1.4-3.22-3.65-3.22-2.22,0-4.43,0-6.65,0-.41,0-.72-.13-.84-.55-.13-.44.17-.87.63-.91.32-.03.64-.03.96,0,.4.04.52-.13.48-.5-.1-1.17.69-1.96,1.44-2.21.26-.08.51-.1.78-.1,2.36,0,4.72,0,7.08,0Zm-3.52-6.3c.27,0,.4,0,.53,0,2.62,0,5.24,0,7.87,0,.4,0,.52-.11.52-.52-.01-3.83-.01-7.66,0-11.49,0-.43-.13-.54-.55-.53-5.68.01-11.36.01-17.04,0-.46,0-.55.15-.55.57.02,3.68,0,7.37.01,11.05,0,1.03-.18.89.94.91.31,0,.41-.12.4-.41-.02-.55,0-1.11,0-1.66,0-.47.13-.9.42-1.26.21-.25.21-.42.04-.71-.62-1-.66-2.05-.02-3.05.64-1.01,1.6-1.45,2.8-1.3,2.04.25,3.1,2.6,1.97,4.38-.1.16-.29.3-.07.53.25.25.39.03.55-.09.51-.37,1-.76,1.51-1.12.42-.31.76-.28,1.13.08.37.35.72.72,1.08,1.08.6.6.61.86.07,1.53-.51.63-1.01,1.27-1.6,2Zm-5.15,0c.41,0,.74-.01,1.07,0,.31.02.41-.12.4-.41-.02-.33,0-.67,0-1,0-1.2-.12-1.32-1.32-1.32-1.32,0-1.42.09-1.41,1.4,0,.42-.18.94.08,1.22.28.3.83.06,1.18.11Zm17.54-5.6c.41,0,.82,0,1.22,0,1-.02.87.16.89-.92,0-.33-.12-.43-.43-.42-.93.02-1.86,0-2.8,0-1.03.01-.9-.21-.91.98,0,.27.11.36.37.35.55-.01,1.11,0,1.66,0Zm.04,2.8c.39,0,.79,0,1.18,0,1.01-.02.87.16.9-.91,0-.32-.1-.43-.43-.43-.93.02-1.86,0-2.8,0-1.04.01-.9-.2-.92.97,0,.26.1.37.36.36.57-.01,1.14,0,1.7,0Zm-12.54,4.26c-.41,0-.82,0-1.22,0-1,.02-.87-.16-.89.92,0,.33.12.43.43.42.93-.02,1.86,0,2.8,0,1.03-.01.9.21.91-.98,0-.27-.11-.36-.37-.35-.55.01-1.11,0-1.66,0Zm-3.59-7.01c.01-.71-.6-1.34-1.32-1.37-.72-.02-1.38.62-1.38,1.35,0,.71.62,1.34,1.34,1.34.71,0,1.34-.62,1.36-1.33Zm1.48,4.55c0,.28,0,.45,0,.63,0,.12-.04.29.12.34.17.06.26-.08.35-.19.59-.74,1.18-1.48,1.77-2.21.15-.18.21-.31,0-.51-.21-.21-.35-.17-.55,0-.35.28-.7.57-1.08.81-.48.3-.77.66-.61,1.15Zm2.07-15.11c.33,0,.65-.32.64-.65,0-.33-.32-.65-.65-.64-.33,0-.64.32-.64.65,0,.33.32.65.65.64Z"/>
        <path class="cls-1" d="m7.05,9.1c2.03,0,4.05,0,6.08,0,.19,0,.38-.02.55.09.31.19.43.48.35.82-.09.35-.33.54-.7.55-.87,0-1.75,0-2.62,0-2.9,0-5.8,0-8.7,0-.4,0-.56.09-.55.53.02,2.43.02,4.87,0,7.3,0,.4.12.52.52.52,3.64-.01,7.29,0,10.93,0,.16,0,.32,0,.48,0,.4.04.67.33.67.72,0,.39-.26.7-.67.72-.36.02-.73.02-1.09,0-.24,0-.34.1-.33.34.01,1.22-.12.97.94,1,.17,0,.35,0,.52.01.38.04.63.34.63.72,0,.38-.25.67-.62.73-.09.01-.17,0-.26,0-3.16,0-6.32,0-9.49,0-.09,0-.18,0-.26-.01-.37-.06-.62-.35-.62-.73,0-.38.25-.68.63-.71.35-.03.7-.02,1.05,0,.29.01.43-.07.42-.39-.02-1.13.11-.94-.91-.95-1.02-.01-2.04,0-3.06,0-.69,0-.93-.23-.93-.91,0-3.15,0-6.29,0-9.44,0-.68.24-.91.93-.91,2.04,0,4.08,0,6.12,0Zm1.37,12.59c.39,0,.79,0,1.18,0,1.01-.02.87.16.9-.91,0-.32-.1-.43-.43-.43-.93.02-1.86,0-2.8,0-1.04.01-.9-.2-.92.97,0,.26.1.37.36.36.57-.01,1.14,0,1.7,0Z"/>
        <path class="cls-1" d="m11.2,35.66c0-1.01-.01-2.01,0-3.02.04-2.49,2.32-4.69,4.82-4.65.51,0,.82.26.83.69.02.44-.25.7-.76.77-1.76.23-2.9,1.11-3.28,2.56-.09.35-.14.71-.15,1.08,0,1.75,0,3.5,0,5.24,0,1.2.65,1.99,1.78,2.19,1.02.19,2.07-.55,2.27-1.58.13-.64.08-1.28.07-1.92,0-.45.17-.74.59-.91.92-.38,1.58-1.03,1.95-1.95.17-.42.45-.61.91-.59.54.02,1.08.02,1.62,0,.4-.01.68.15.83.51.4.99,1.09,1.67,2.07,2.07.35.14.51.41.5.79-.01.49-.02.99,0,1.49.05,1.23.91,2.12,2.05,2.13,1.12.01,2.01-.89,2.07-2.11.02-.44,0-.87,0-1.31.01-.47.29-.76.72-.76.43,0,.74.28.73.74,0,.75.09,1.52-.09,2.26-.43,1.73-2.1,2.85-3.91,2.63-1.71-.21-3.07-1.71-3.03-3.45.02-.79-.1-1.36-.89-1.76-.58-.29-.96-.88-1.3-1.45-.27-.46-.93-.47-1.19-.01-.45.77-1.05,1.4-1.83,1.83-.27.15-.36.34-.35.63.03.76.02,1.51-.33,2.22-.72,1.47-2.36,2.3-3.92,1.95-1.66-.37-2.79-1.76-2.8-3.44,0-.96,0-1.92,0-2.88h0Z"/>
        <path class="cls-1" d="m5.6,14.72c0-.67,0-1.34,0-2.01.01-.65.51-1.01,1.09-.72,1.39.67,2.77,1.35,4.14,2.07.61.32.6,1.03-.01,1.35-1.35.71-2.72,1.39-4.1,2.05-.61.29-1.11-.05-1.12-.73,0-.67,0-1.34,0-2.01Zm1.46-.03c0,.93,0,.94.76.55.29-.15.82-.25.81-.48,0-.32-.52-.37-.82-.53-.75-.4-.76-.39-.76.46Z"/>
        <path class="cls-1" d="m8.44,0c2.04.01,3.81.71,5.31,2.1.43.4.49.83.15,1.18-.32.33-.73.31-1.16-.08-1.19-1.11-2.62-1.7-4.23-1.72-1.67-.02-3.14.56-4.37,1.7-.21.19-.43.36-.73.32-.3-.04-.51-.21-.61-.49-.13-.35.02-.63.26-.86,1.02-.98,2.22-1.64,3.6-1.96C7.24.06,7.83-.02,8.44,0Z"/>
        <path class="cls-1" d="m12.13,4.73c0,.32-.12.54-.37.67-.28.15-.57.13-.82-.07-.34-.27-.67-.56-1.08-.73-1.3-.55-2.5-.38-3.61.47-.1.08-.2.17-.3.25-.35.25-.77.23-1.03-.05-.27-.29-.25-.75.05-1.06.77-.78,1.72-1.25,2.81-1.38,1.52-.18,2.88.23,4.02,1.28.19.17.34.36.33.61Z"/>
        <path class="cls-1" d="m16.13,35.04c-.44,0-.75-.3-.72-.79.03-.47-.12-.64-.6-.61-.5.03-.8-.27-.8-.72,0-.44.29-.72.79-.73q.58-.02.6-.59c.02-.51.28-.8.72-.8.44,0,.75.3.73.79-.03.47.12.65.6.61.5-.03.8.27.8.71,0,.44-.29.72-.79.74q-.57.02-.6.64c-.02.47-.3.76-.73.76Z"/>
        <path class="cls-1" d="m8.44,5.6c.54-.02,1.03.18,1.44.56.32.29.35.71.11,1.02-.25.32-.66.41-1.01.15-.41-.31-.74-.28-1.14.01-.33.24-.73.15-.97-.15-.24-.29-.23-.7.05-.99.41-.41.9-.62,1.52-.61Z"/>
        <path class="cls-1" d="m25.24,30.79c.43.01.73.34.71.77-.02.41-.34.69-.75.68-.42-.01-.73-.34-.71-.77.02-.41.33-.69.75-.68Z"/>
        <path class="cls-1" d="m28.04,32.93c0,.43-.33.73-.76.71-.41-.02-.7-.33-.69-.74,0-.43.33-.73.76-.71.41.02.7.33.69.74Z"/>
        <path class="cls-1" d="m25.21,35.04c-.43,0-.73-.33-.72-.76.01-.41.32-.7.74-.69.43,0,.73.33.72.76-.01.41-.33.7-.74.7Z"/>
        <path class="cls-1" d="m30.08,13.31c-.04-.19.11-.46-.09-.56-.16-.08-.32.16-.48.25-.15.09-.29.2-.44.28-.36.18-.76.08-.97-.23-.21-.31-.15-.73.16-.98.22-.18.47-.35.72-.49.24-.14.26-.26.1-.5-.67-1.02-.46-2.27.47-2.96.82-.6,1.94-.55,2.7.12.78.69.96,1.84.37,2.74-.25.37-.15.51.17.68.22.12.42.26.61.42.29.25.34.65.15.95-.2.32-.6.44-.96.25-.26-.13-.49-.31-.74-.47-.18-.12-.29-.14-.29.13,0,.48,0,.94.25,1.39.34.59.62,1.22.93,1.83.33.67.27,1.1-.19,1.32-.46.22-.82.01-1.16-.67-.12-.25-.25-.49-.37-.74-.12-.25-.22-.3-.36-.01-.16.33-.32.65-.49.98-.26.49-.67.65-1.08.44-.38-.2-.5-.62-.27-1.1.34-.71.69-1.41,1.06-2.11.16-.31.27-.61.23-.96Zm1.38-3.49c0-.33-.33-.64-.66-.63-.33,0-.64.33-.63.66,0,.33.33.64.66.63.33,0,.64-.33.63-.66Z"/>
        <path class="cls-1" d="m21.02,9.16c-.25,0-.49.01-.74,0-.43-.03-.7-.33-.69-.74,0-.39.27-.69.68-.7.49-.02.99-.02,1.48,0,.43.02.7.33.69.74,0,.39-.28.68-.68.7-.25.02-.49,0-.74,0Z"/>
      </g>
    </g>
  </g>
</svg>