<?xml version="1.0" encoding="UTF-8"?>
<svg id="Layer_2" data-name="Layer 2" xmlns="http://www.w3.org/2000/svg" viewBox="0 0 41.14 41.15">
  <defs>
    <style>
      .cls-1 {
        fill: #b8f200;
      }
    </style>
  </defs>
  <g id="Layer_1-2" data-name="Layer 1">
    <g id="_7774Li.tif" data-name="7774Li.tif">
      <g>
        <path class="cls-1" d="m16.88,32.2c0,1.9,0,3.8,0,5.7,0,1.42-.91,2.66-2.22,3.08-1.34.44-2.76,0-3.62-1.14-.47-.62-.67-1.33-.67-2.1,0-2.47,0-4.95,0-7.42,0-.57,0-.57-.57-.57-1.63,0-3.25,0-4.88,0-1.91,0-3.34-1.41-3.35-3.32-.01-3.77-.01-7.54,0-11.31,0-1.53,1.01-2.82,2.43-3.19,1.41-.37,2.88.24,3.63,1.52.31.53.45,1.12.45,1.73,0,2.5,0,5.01,0,7.51,0,.44.13.57.56.56,1.57-.02,3.14-.01,4.7,0,2.17,0,3.54,1.37,3.55,3.53,0,1.81,0,3.63,0,5.44ZM2.9,20.78h0c0,1.84,0,3.68,0,5.52,0,1.36.75,2.12,2.1,2.12,1.87,0,3.74,0,5.61,0,.91,0,1.1.19,1.1,1.08,0,2.8,0,5.61,0,8.41,0,1.08.82,1.89,1.88,1.9,1.11.02,1.96-.75,1.96-1.85.01-3.85,0-7.71,0-11.56,0-.49-.19-.89-.53-1.24-.4-.42-.9-.6-1.47-.6-1.97,0-3.94,0-5.91,0-.64,0-.88-.24-.89-.89,0-.14,0-.29,0-.43,0-2.69,0-5.38,0-8.07,0-.65-.2-1.19-.71-1.59-.62-.49-1.32-.57-2.03-.25-.73.33-1.11.94-1.12,1.75,0,1.9,0,3.8,0,5.69Z"/>
        <path class="cls-1" d="m24.26,32.2c0-1.84,0-3.68,0-5.52,0-2.01,1.41-3.42,3.42-3.43,1.62,0,3.25-.01,4.87,0,.4,0,.52-.12.52-.52-.02-2.53-.01-5.06,0-7.59,0-1.66,1.15-2.97,2.78-3.23,1.69-.27,3.34.9,3.65,2.6.05.3.08.6.08.9,0,3.61,0,7.22,0,10.83,0,2.14-1.37,3.51-3.5,3.52-1.58,0-3.16.01-4.75,0-.43,0-.57.11-.57.56.02,2.5.02,5,0,7.51,0,1.64-1.06,2.96-2.59,3.27-2.02.41-3.89-1.07-3.91-3.14-.02-1.91,0-3.83,0-5.74h0Zm1.33-.01c0,1.9,0,3.8,0,5.69,0,.65.24,1.18.76,1.57.62.46,1.31.51,2,.19.72-.33,1.09-.93,1.09-1.72,0-2.82,0-5.64,0-8.46,0-.83.2-1.04,1.05-1.04,1.81,0,3.63-.06,5.43.02,1.57.06,2.38-.98,2.33-2.31-.07-1.98-.02-3.97-.02-5.95,0-1.71,0-3.42,0-5.13,0-1.07-.84-1.87-1.91-1.88-1.11,0-1.93.79-1.94,1.93-.01,2.83,0,5.67,0,8.5,0,.76-.22.98-.98.98-1.91,0-3.82,0-5.74,0-1.32,0-2.09.77-2.09,2.09,0,1.84,0,3.68,0,5.52Z"/>
        <path class="cls-1" d="m19.36,0C21.2,0,23.04,0,24.88,0c.71,0,.92.2.95.92.01.29.02.58,0,.86-.02.35.11.49.47.48,1.01-.02,2.01,0,3.02,0,.36,0,.7.04.87.42.17.37-.06.63-.29.87-.43.46-.86.93-1.3,1.38-.24.24-.34.5-.34.84.01,2.1,0,4.2,0,6.3,0,.9-.19,1.09-1.08,1.09-3.61,0-7.22,0-10.83,0-.82,0-1.02-.2-1.04-1.01,0-.04,0-.09,0-.13q0-1.13-1.12-1.13c-.79,0-1.58,0-2.37,0-.36,0-.7-.05-.87-.43-.17-.37.06-.63.29-.88.43-.46.85-.94,1.3-1.38.27-.27.34-.57.34-.93-.01-2.08,0-4.17,0-6.25,0-.84.2-1.03,1.05-1.03,1.81,0,3.62,0,5.43,0Zm-6.26,9.55c.15.02.21.03.26.03,3.58,0,7.16,0,10.74,0,.38,0,.41-.19.41-.48,0-2.43-.01-4.86,0-7.29,0-.38-.12-.5-.49-.5-3.11.01-6.21.01-9.32,0-.41,0-.51.14-.51.53.02,1.93,0,3.85.02,5.78,0,.49-.1.9-.48,1.23-.21.19-.38.42-.63.69Zm14.95-5.96c-.28,0-.45-.01-.62,0-.51.04-1.15-.23-1.49.12-.32.33-.1.96-.1,1.46-.01,1.54,0,3.08,0,4.62,0,.91-.21,1.12-1.12,1.12-2.47,0-4.95,0-7.42,0-.13,0-.26,0-.39,0-.12,0-.22.04-.26.18-.16.46.03.75.51.75,3.09,0,6.18,0,9.27,0,.39,0,.52-.11.52-.51-.02-1.94,0-3.88-.02-5.82,0-.46.09-.84.44-1.16.22-.2.4-.44.69-.76Z"/>
        <path class="cls-1" d="m20.54,20.43c-2.9,0-5.81,0-8.71,0-.75,0-.95-.2-.95-.94,0-.88,0-1.75,0-2.63,0-.64.24-.88.89-.88,5.86,0,11.73,0,17.59,0,.65,0,.88.24.89.89,0,.89,0,1.78,0,2.67,0,.67-.23.89-.92.89-2.93,0-5.86,0-8.8,0Zm.07-3.13h-7.24q-1.17,0-1.16,1.15,0,.65.64.65c4.94,0,9.89,0,14.83,0,1.26,0,1.24,0,1.26-1.25,0-.43-.12-.57-.56-.57-2.59.02-5.17,0-7.76,0Z"/>
        <path class="cls-1" d="m9.64,6.56c0,2.7-2.16,4.86-4.85,4.86C2.17,11.43,0,9.22,0,6.58,0,3.92,2.19,1.73,4.84,1.74c2.65.01,4.8,2.17,4.8,4.82Zm-1.32.03c0-1.97-1.52-3.52-3.48-3.52-1.97,0-3.5,1.53-3.5,3.5,0,1.96,1.54,3.52,3.49,3.53,1.95.01,3.5-1.54,3.5-3.51Z"/>
        <path class="cls-1" d="m31.5,6.53c0-2.68,2.11-4.8,4.78-4.81,2.71,0,4.86,2.13,4.86,4.83,0,2.65-2.19,4.81-4.86,4.8-2.64,0-4.78-2.17-4.78-4.83Zm8.31,0c0-1.94-1.57-3.54-3.49-3.54-1.91,0-3.54,1.62-3.54,3.52,0,1.92,1.56,3.5,3.47,3.51,2,.01,3.54-1.5,3.55-3.49Z"/>
        <path class="cls-1" d="m19.33,4.7c-.86,0-1.72,0-2.58,0-.16,0-.32,0-.47-.05-.33-.1-.5-.33-.47-.68.03-.33.23-.51.54-.58.12-.03.26-.02.39-.02,1.75,0,3.5,0,5.25,0,.11,0,.23,0,.34.01.33.06.56.25.58.6.02.36-.18.6-.53.68-.14.03-.28.03-.43.03-.88,0-1.75,0-2.63,0Z"/>
        <path class="cls-1" d="m19.32,7.49c-.92,0-1.84,0-2.76,0-.49,0-.75-.23-.76-.63,0-.4.27-.64.75-.64,1.87,0,3.74,0,5.6,0,.48,0,.76.24.76.63,0,.39-.27.64-.75.64-.95,0-1.9,0-2.85,0Z"/>
      </g>
    </g>
  </g>
</svg>