<?xml version="1.0" encoding="UTF-8"?>
<svg id="Layer_2" data-name="Layer 2" xmlns="http://www.w3.org/2000/svg" viewBox="0 0 40.47 40.48">
  <defs>
    <style>
      .cls-1 {
        fill: #b8f200;
      }
    </style>
  </defs>
  <g id="Layer_1-2" data-name="Layer 1">
    <g id="V5NHan.tif">
      <g>
        <path class="cls-1" d="m14.52,23.48c0-.27,0-.49,0-.71,0-1.68,0-3.37,0-5.05,0-1.67,1.48-2.86,3.12-2.5.31.07.37-.01.35-.29-.02-.23,0-.46.11-.65.26-.47.22-.96.22-1.46,0-1.21,0-2.42,0-3.63,0-.64-.44-1-1.06-.91-.44.06-.72.43-.72.98,0,1.14,0,2.29,0,3.43,0,.34-.08.62-.38.81-.48.3-1.07.09-1.24-.45-.07-.22-.07-.44-.07-.66,0-2.3,0-4.6,0-6.9,0-.25.03-.51-.12-.73-.22-.32-.53-.47-.92-.4-.37.06-.68.39-.73.78-.02.14-.01.29-.01.43,0,2.66,0,5.31,0,7.97,0,.72-.29,1.12-.82,1.12-.54,0-.86-.41-.86-1.14,0-3.56,0-7.13,0-10.69,0-.33,0-.67-.28-.91-.27-.23-.58-.3-.92-.17-.34.13-.52.4-.57.74-.03.15-.02.31-.02.47,0,3.52,0,7.05,0,10.57,0,.73-.29,1.12-.81,1.13-.54,0-.87-.41-.87-1.14,0-2.67,0-5.34,0-8.01,0-.23.02-.48-.09-.7-.16-.33-.55-.53-.92-.47-.39.06-.71.39-.77.79-.02.14-.01.29-.01.43,0,2.96,0,5.92,0,8.88,0,.13,0,.26,0,.39-.02.59-.36,1-.9,1.07-.51.07-.97-.28-1.11-.85-.2-.76-.38-1.53-.57-2.3-.07-.3-.2-.57-.49-.73-.33-.18-.66-.18-.97.02-.32.2-.49.51-.42.87.36,1.88.64,3.79,1.17,5.63.34,1.21,1.05,2.23,1.93,3.12.56.56,1.11,1.12,1.68,1.67.26.25.39.54.39.91,0,5.08,0,10.15,0,15.23,0,.62-.31.98-.83.99-.53,0-.86-.36-.86-1.01,0-4.81,0-9.63,0-14.44,0-.44-.12-.76-.44-1.07-.74-.72-1.51-1.43-2.14-2.26-1.05-1.41-1.55-3.03-1.84-4.73-.2-1.16-.45-2.32-.67-3.48-.32-1.66.62-3.01,2.28-3.24.62-.09,1.2.1,1.72.44.11.07.18.19.33.2.09-.13.05-.28.05-.42,0-1.67,0-3.34,0-5.01,0-1.53.87-2.57,2.3-2.8.24-.04.48-.04.7.03.36.12.49-.02.52-.38.04-.66.34-1.21.83-1.65.78-.7,1.69-.85,2.64-.48.98.38,1.53,1.14,1.62,2.19.03.35.12.4.45.33,1.58-.31,3.02.88,3.04,2.49,0,.39,0,.79,0,1.18,0,.22.05.32.29.26,1.61-.42,3.28.83,3.19,2.72-.04.92,0,1.84-.01,2.76,0,.28.04.39.36.38,1.53-.05,2.59.92,2.72,2.45.02.25.1.32.35.26.37-.09.76-.12,1.13,0,.33.11.37-.01.37-.3,0-2,0-4,0-6,0-1.13.63-2.03,1.68-2.43.48-.18.98-.19,1.47-.08.24.05.32.01.33-.25.06-1.42,1.17-2.48,2.55-2.48,1.38,0,2.47,1.05,2.54,2.48.01.26.09.3.33.25,1.72-.35,3.14.81,3.15,2.55,0,.33.02.66,0,.99-.02.32.05.44.42.36,1.37-.28,2.62.52,2.99,1.87.06.22.07.44.07.66,0,2.63,0,5.26,0,7.89,0,1.69-.51,3.23-1.38,4.67-.3.5-.78.64-1.2.39-.43-.25-.54-.73-.23-1.24.9-1.45,1.19-3.04,1.18-4.71-.01-2.21,0-4.42,0-6.63,0-.22,0-.45-.07-.66-.12-.38-.43-.62-.82-.63-.39-.01-.72.2-.86.57-.08.2-.09.41-.09.62,0,1.46,0,2.92,0,4.38,0,.5-.34.83-.81.83-.47,0-.79-.33-.82-.83,0-.12,0-.24,0-.36,0-2.29,0-4.58,0-6.86,0-.43.02-.87,0-1.3-.04-.71-.59-1.12-1.2-.91-.3.1-.49.3-.56.61-.06.23-.06.47-.06.7,0,2.67,0,5.34,0,8.01,0,.59-.31.94-.83.94-.42,0-.75-.3-.8-.72-.02-.14,0-.29,0-.43,0-3.51,0-7.02,0-10.53,0-.22,0-.45-.07-.66-.14-.38-.47-.61-.88-.6-.39.01-.69.25-.81.63-.07.23-.07.47-.07.7,0,3.17,0,6.34,0,9.51,0,.14,0,.29,0,.43-.03.5-.36.82-.83.81-.45,0-.79-.33-.8-.8-.01-.89,0-1.79,0-2.68,0-1.62,0-3.24,0-4.85,0-.61-.23-.94-.68-1.07-.49-.14-.97.14-1.08.64-.04.19-.06.39-.06.59,0,3.17,0,6.34-.01,9.51,0,.34.08.42.42.35,1.58-.33,3.05.85,3.05,2.46,0,2.64.02,5.29,0,7.93-.02,2.37-.89,4.41-2.48,6.14-.31.34-.64.66-.97.98-.19.18-.26.37-.26.63.01.76,0,1.53,0,2.29,0,.58-.3.92-.79.94-.49.02-.85-.29-.87-.86-.03-1.01-.02-2.02,0-3.04,0-.3.16-.54.37-.76.53-.53,1.08-1.04,1.56-1.61,1.23-1.46,1.79-3.17,1.8-5.06.02-2.42,0-4.84,0-7.26,0-.63-.27-1.04-.71-1.13-.63-.13-1.11.31-1.12,1.04,0,1.39,0,2.79,0,4.18,0,.14,0,.29,0,.43-.04.44-.4.74-.83.73-.42-.01-.75-.31-.79-.73-.01-.14,0-.29,0-.43,0-2.63,0-5.26,0-7.89,0-.22,0-.45-.08-.66-.12-.36-.48-.61-.84-.61-.38,0-.72.26-.84.61-.08.23-.08.46-.08.7,0,2.62,0,5.23,0,7.85,0,.16,0,.32-.01.47-.05.4-.38.68-.79.69-.42,0-.77-.28-.82-.7-.02-.16-.01-.32-.01-.47,0-3.51,0-7.02,0-10.53,0-.21,0-.42-.06-.62-.14-.42-.45-.64-.89-.62-.42.01-.71.25-.82.67-.06.22-.06.44-.06.67,0,3.5,0,7,0,10.49,0,.75-.26,1.11-.8,1.13-.55.01-.84-.37-.84-1.13,0-2.63,0-5.26,0-7.89,0-.22,0-.45-.07-.66-.12-.38-.48-.65-.85-.64-.39,0-.73.27-.85.65-.07.22-.07.44-.07.66,0,3.06,0,6.13,0,9.19,0,.85-.78,1.34-1.48.96-.31-.17-.46-.46-.54-.79-.19-.78-.37-1.56-.57-2.34-.12-.46-.47-.74-.9-.76-.36-.02-.73.22-.88.56-.11.27-.08.54-.03.82.15.79.31,1.57.46,2.36.14.7.27,1.39.42,2.09.33,1.57,1.09,2.89,2.22,4.01.54.54,1.07,1.08,1.62,1.61.26.25.39.54.38.91-.01.92,0,1.84,0,2.76,0,.61-.29.96-.8.97-.52.01-.87-.34-.88-.95-.02-.76-.01-1.53,0-2.29,0-.26-.08-.45-.26-.63-.61-.6-1.23-1.19-1.8-1.83-1.14-1.29-1.85-2.8-2.17-4.49-.28-1.46-.58-2.91-.86-4.37-.23-1.21.23-2.27,1.21-2.85,1-.59,2.1-.48,3.08.31.02.02.04.03.14.08Z"/>
        <path class="cls-1" d="m36.75,35.48c0,1.38,0,2.76,0,4.14,0,.45-.25.76-.62.85-.36.08-.73-.08-.92-.39-.11-.19-.13-.4-.14-.61,0-2.67,0-5.33,0-8,0-.7.42-1.12.96-1.03.45.08.71.42.72.94,0,1.37,0,2.73,0,4.1Z"/>
        <path class="cls-1" d="m35.11,27.73c0-.46.35-.84.8-.85.44,0,.83.38.84.82,0,.45-.37.84-.81.85-.45,0-.82-.36-.83-.82Z"/>
      </g>
    </g>
  </g>
</svg>