<?xml version="1.0" encoding="UTF-8"?>
<svg id="Layer_2" data-name="Layer 2" xmlns="http://www.w3.org/2000/svg" viewBox="0 0 27.43 23.33">
  <defs>
    <style>
      .cls-1 {
        fill: none;
        stroke: #030f47;
        stroke-miterlimit: 10;
        stroke-width: .75px;
      }
    </style>
  </defs>
  <g id="Layer_1-2" data-name="Layer 1">
    <g>
      <g>
        <line class="cls-1" x1="17.52" y1="6.33" x2="17.51" y2="11.17"/>
        <line class="cls-1" x1="16.27" y1="6.32" x2="16.26" y2="8.34"/>
        <line class="cls-1" x1="9.22" y1="9.19" x2="9.21" y2="11.2"/>
        <path class="cls-1" d="m19.79,8.76c0,3.58-2.92,6.47-6.5,6.46-3.58,0-6.47-2.92-6.46-6.5"/>
        <line class="cls-1" x1="11.9" y1="15.4" x2="12.7" y2="20.19"/>
        <line class="cls-1" x1="14.79" y1="15.4" x2="13.96" y2="20.19"/>
        <line class="cls-1" x1="12.15" y1="21.73" x2="14.41" y2="21.73"/>
        <line class="cls-1" x1="10.71" y1="22.94" x2="15.84" y2="22.95"/>
        <line class="cls-1" x1="6.84" y1="4.36" x2="19.8" y2="4.4"/>
        <line class="cls-1" x1="19.8" y1="4.4" x2="19.79" y2="8.76"/>
        <line class="cls-1" x1="6.84" y1="4.36" x2="6.83" y2="8.87"/>
        <path class="cls-1" d="m21.7,10.82c0,.91-1.96,1.63-2.87,1.63h0c-.32.17.15-.24.61-1.64.46-1.4.36-3.02.36-3.02,0-.91,0-1.64,0-1.64h.27c.91,0,1.64.74,1.64,1.64v3.02Z"/>
        <path class="cls-1" d="m4.91,10.78c0,.91,1.96,1.64,2.86,1.65h0c.32.17-.15-.24-.6-1.64-.45-1.4-.35-3.02-.35-3.02,0-.91,0-1.64,0-1.64h-.27c-.9,0-1.64.73-1.64,1.63v3.02Z"/>
      </g>
      <g>
        <line class="cls-1" x1="1.47" y1="10.47" x2=".27" y2="9.26"/>
        <line class="cls-1" x1=".26" y1="10.46" x2="1.48" y2="9.26"/>
      </g>
      <g>
        <line class="cls-1" x1="22.09" y1="20.43" x2="20.56" y2="18.9"/>
        <line class="cls-1" x1="20.56" y1="20.43" x2="22.09" y2="18.9"/>
      </g>
      <path class="cls-1" d="m6.67,21.93c-.38,0-.38-.43-.76-.43-.38,0-.38.43-.76.43-.38,0-.38-.43-.76-.43"/>
      <path class="cls-1" d="m17.89.81c-.38,0-.38-.43-.76-.43-.38,0-.38.43-.76.42-.38,0-.38-.43-.76-.43-.38,0-.38.42-.77.42-.38,0-.38-.43-.77-.43"/>
      <line class="cls-1" x1="3.85" y1="4.61" x2="1.29" y2="4.61"/>
      <line class="cls-1" x1="27.43" y1="7.36" x2="24.86" y2="7.35"/>
      <line class="cls-1" x1="2.49" y1="14.81" x2=".86" y2="14.81"/>
      <line class="cls-1" x1="21.36" y1="16.77" x2="20.54" y2="16.77"/>
      <line class="cls-1" x1="1.7" y1="3.35" x2=".89" y2="3.35"/>
      <line class="cls-1" x1="26.55" y1="10.24" x2="25.74" y2="10.23"/>
      <line class="cls-1" x1="5.31" y1="16.73" x2="4.49" y2="16.73"/>
    </g>
  </g>
</svg>