<?xml version="1.0" encoding="UTF-8"?>
<svg id="Layer_2" data-name="Layer 2" xmlns="http://www.w3.org/2000/svg" viewBox="0 0 23.36 26.06">
  <defs>
    <style>
      .cls-1 {
        fill: none;
        stroke: #030f47;
        stroke-miterlimit: 10;
        stroke-width: .75px;
      }
    </style>
  </defs>
  <g id="Layer_1-2" data-name="Layer 1">
    <g>
      <g>
        <line class="cls-1" x1="21.83" y1="15.14" x2="23.09" y2="16.4"/>
        <line class="cls-1" x1="23.1" y1="15.14" x2="21.83" y2="16.4"/>
      </g>
      <g>
        <line class="cls-1" x1=".27" y1="4.71" x2="1.86" y2="6.32"/>
        <line class="cls-1" x1="1.87" y1="4.72" x2=".26" y2="6.31"/>
      </g>
      <path class="cls-1" d="m20.12,1.57c.4,0,.4.44.8.44.4,0,.4-.44.8-.44.4,0,.4.44.8.45"/>
      <path class="cls-1" d="m4.66,25.23c.4,0,.4.44.8.45.4,0,.4-.44.8-.44.4,0,.4.45.8.45.4,0,.4-.44.8-.44.4,0,.4.44.8.45"/>
      <line class="cls-1" x1="19.34" y1="21.26" x2="22.02" y2="21.26"/>
      <line class="cls-1" x1=".29" y1="15.71" x2="2.97" y2="15.72"/>
      <line class="cls-1" x1="6.79" y1=".37" x2="8.49" y2=".38"/>
      <line class="cls-1" x1="1.04" y1="8.54" x2="1.89" y2="8.55"/>
      <line class="cls-1" x1="21.59" y1="22.58" x2="22.45" y2="22.58"/>
      <line class="cls-1" x1="22.47" y1="8.6" x2="23.33" y2="8.6"/>
      <path class="cls-1" d="m17.38,16.39v-2.18c1.3-1.29,2.1-3.07,2.11-5.05,0-3.95-3.18-7.15-7.13-7.16-3.95-.01-7.15,3.18-7.16,7.13,0,2.07.87,3.94,2.28,5.25v1.99"/>
      <line class="cls-1" x1="7.69" y1="18.44" x2="16.97" y2="18.46"/>
      <line class="cls-1" x1="8.9" y1="20.72" x2="15.74" y2="20.74"/>
      <line class="cls-1" x1="9.96" y1="22.95" x2="14.37" y2="22.97"/>
      <line class="cls-1" x1="11.48" y1="11.26" x2="11.48" y2="14.11"/>
      <line class="cls-1" x1="13.09" y1="11.26" x2="13.08" y2="14.12"/>
      <line class="cls-1" x1="10.09" y1="9.87" x2="14.46" y2="9.88"/>
    </g>
  </g>
</svg>