<?xml version="1.0" encoding="UTF-8"?>
<svg id="Layer_2" data-name="Layer 2" xmlns="http://www.w3.org/2000/svg" viewBox="0 0 26.95 25.91">
  <defs>
    <style>
      .cls-1 {
        fill: none;
        stroke: #030f47;
        stroke-miterlimit: 10;
        stroke-width: .75px;
      }
    </style>
  </defs>
  <g id="Layer_1-2" data-name="Layer 1">
    <g>
      <line class="cls-1" x1="26.16" y1="23.21" x2="23.55" y2="23.2"/>
      <line class="cls-1" x1="23.9" y1="24.41" x2="23.08" y2="24.41"/>
      <g>
        <line class="cls-1" x1="25.45" y1="10.47" x2="26.68" y2="11.7"/>
        <line class="cls-1" x1="26.68" y1="10.47" x2="25.45" y2="11.7"/>
      </g>
      <g>
        <line class="cls-1" x1="14.63" y1="24.41" x2="15.86" y2="25.64"/>
        <line class="cls-1" x1="15.86" y1="24.41" x2="14.63" y2="25.64"/>
      </g>
      <g>
        <line class="cls-1" x1="1.63" y1="1.27" x2="3.18" y2="2.83"/>
        <line class="cls-1" x1="3.18" y1="1.27" x2="1.62" y2="2.82"/>
      </g>
      <path class="cls-1" d="m18.24.87c.39,0,.39.44.78.44.39,0,.39-.43.78-.43.39,0,.39.43.78.44"/>
      <path class="cls-1" d="m6.6,21.04c.39,0,.39.43.78.43.39,0,.39-.43.78-.43.39,0,.39.43.78.43.39,0,.39-.43.78-.43.39,0,.39.43.78.43"/>
      <line class="cls-1" x1=".81" y1="15.86" x2="3.42" y2="15.86"/>
      <line class="cls-1" x1="8.33" y1=".37" x2="9.99" y2=".38"/>
      <line class="cls-1" x1="0" y1="10.4" x2=".83" y2="10.41"/>
      <line class="cls-1" x1="25.63" y1="19.45" x2="26.46" y2="19.46"/>
      <line class="cls-1" x1="21.28" y1="5.79" x2="22.11" y2="5.79"/>
      <path class="cls-1" d="m9.97,18.3c-3.62-.75-6.35-3.97-6.34-7.81.01-4.39,3.58-7.94,7.98-7.93,3.84.01,7.04,2.74,7.78,6.37"/>
      <path class="cls-1" d="m7.98,15.88c.68.46,1.45.8,2.29.97"/>
      <path class="cls-1" d="m7.03,5.93c-1.18,1.17-1.91,2.78-1.91,4.57"/>
      <path class="cls-1" d="m13.6,4.37c-.63-.21-1.3-.32-1.99-.32"/>
      <path class="cls-1" d="m15.98,5.78c-.25-.23-.52-.45-.81-.63"/>
      <path class="cls-1" d="m23.52,16.44c0,3.3-2.69,5.97-5.99,5.96-3.3,0-5.97-2.69-5.96-5.99,0-3.3,2.69-5.97,5.99-5.96,3.3,0,5.97,2.69,5.96,5.99Z"/>
      <path class="cls-1" d="m14.98,20.11c-.05-.03-.1-.07-.15-.11-.32-.25-.61-.54-.86-.86"/>
      <path class="cls-1" d="m16.48,20.78c-.19-.05-.37-.1-.54-.17"/>
      <path class="cls-1" d="m17.13,11.96c.14-.01.29-.02.43-.02.58,0,1.14.11,1.65.32"/>
      <path class="cls-1" d="m11.23,10.73c-.62-.2-1.04-.43-1.28-.69-.26-.27-.39-.63-.39-1.05,0-.42.17-.76.49-1.03.3-.25.71-.41,1.19-.47v-.83s.72,0,.72,0v.82c.55.03,1.04.14,1.52.33l.11.04-.29.72-.11-.04c-.4-.16-.82-.25-1.23-.29v1.84c.47.16.8.3,1.03.44.07.04.13.09.19.14l.13.1-.14.09c-.19.13-.37.25-.53.38l-.07.06-.07-.05c-.13-.09-.31-.18-.54-.26v.94s-.03.03-.03.03c-.16.17-.32.37-.47.61l-.22.33v-2.16Zm0-2.47c-.25.05-.44.13-.57.25-.14.13-.21.28-.21.47,0,.21.06.38.18.51.11.12.31.23.59.35v-1.57Z"/>
      <path class="cls-1" d="m10.92,13.35c-.24-.01-.44-.03-.62-.07-.31-.05-.57-.12-.77-.21l-.07-.03v-.85s.17.07.17.07c.23.1.49.18.79.24.28.06.54.09.79.11h.2s-.1.18-.1.18c-.1.17-.19.33-.27.5l-.03.07h-.08Z"/>
      <path class="cls-1" d="m17.4,19.56v-.82c-.26,0-.51-.03-.75-.07-.27-.04-.48-.1-.65-.18l-.04-.02v-.7s.09.04.09.04c.2.09.43.16.69.22.24.05.46.08.66.09v-1.52c-.48-.16-.83-.35-1.04-.56-.21-.22-.32-.51-.32-.86,0-.34.14-.62.4-.83.25-.2.57-.33.97-.38v-.68s.59,0,.59,0v.66c.44.02.86.11,1.27.28l.06.02-.24.59-.06-.02c-.34-.13-.69-.22-1.04-.25v1.49c.36.12.65.24.83.35.2.12.35.26.44.42.1.16.14.35.14.58,0,.35-.14.64-.4.87-.25.22-.6.36-1.03.41v.86s-.6,0-.6,0Zm.6-1.49c.46-.08.68-.28.68-.61,0-.16-.05-.29-.15-.39-.09-.09-.27-.19-.53-.29v1.28Zm-.58-3.48c-.2.04-.35.11-.45.2-.11.1-.17.23-.17.38,0,.17.05.31.15.41.09.1.25.19.47.28v-1.27Z"/>
    </g>
  </g>
</svg>