<?xml version="1.0" encoding="UTF-8"?>
<svg id="Layer_2" data-name="Layer 2" xmlns="http://www.w3.org/2000/svg" viewBox="0 0 26.12 22.32">
  <defs>
    <style>
      .cls-1 {
        fill: none;
        stroke: #030f47;
        stroke-miterlimit: 10;
        stroke-width: .75px;
      }
    </style>
  </defs>
  <g id="Layer_1-2" data-name="Layer 1">
    <g>
      <g>
        <line class="cls-1" x1="1.37" y1="8.6" x2=".27" y2="7.49"/>
        <line class="cls-1" x1=".26" y1="8.6" x2="1.37" y2="7.49"/>
      </g>
      <g>
        <line class="cls-1" x1="22.5" y1="19.95" x2="21.11" y2="18.55"/>
        <line class="cls-1" x1="21.1" y1="19.95" x2="22.5" y2="18.55"/>
      </g>
      <path class="cls-1" d="m5.67,20.9c-.35,0-.35-.39-.7-.39-.35,0-.35.39-.7.39-.35,0-.35-.39-.7-.39"/>
      <path class="cls-1" d="m19.62.77c-.35,0-.35-.39-.7-.39s-.35.39-.7.39c-.35,0-.35-.39-.7-.39-.35,0-.35.39-.7.39-.35,0-.35-.39-.7-.39"/>
      <line class="cls-1" x1="6.01" y1="1.65" x2="3.66" y2="1.65"/>
      <line class="cls-1" x1="26.11" y1="7.87" x2="23.77" y2="7.86"/>
      <line class="cls-1" x1="16.27" y1="21.94" x2="14.78" y2="21.94"/>
      <line class="cls-1" x1="24.13" y1="14.08" x2="23.38" y2="14.08"/>
      <line class="cls-1" x1="4.51" y1="3.27" x2="3.77" y2="3.26"/>
      <line class="cls-1" x1="2.54" y1="14.75" x2="1.8" y2="14.75"/>
      <path class="cls-1" d="m21.16,10.73c-.01,4.71-3.83,8.51-8.54,8.5-4.71-.01-8.51-3.83-8.5-8.54.01-4.71,3.84-8.51,8.54-8.5,4.71.01,8.51,3.84,8.5,8.54Z"/>
      <line class="cls-1" x1="12.66" y1="4.21" x2="12.66" y2="4.83"/>
      <line class="cls-1" x1="12.63" y1="16.8" x2="12.63" y2="17.42"/>
      <line class="cls-1" x1="19.25" y1="10.84" x2="18.63" y2="10.83"/>
      <line class="cls-1" x1="6.66" y1="10.8" x2="6.04" y2="10.8"/>
      <line class="cls-1" x1="19.25" y1="10.84" x2="18.63" y2="10.83"/>
      <line class="cls-1" x1="6.66" y1="10.8" x2="6.04" y2="10.8"/>
      <line class="cls-1" x1="17.32" y1="6.16" x2="16.88" y2="6.6"/>
      <line class="cls-1" x1="8.4" y1="15.04" x2="7.96" y2="15.48"/>
      <line class="cls-1" x1="17.3" y1="15.5" x2="16.86" y2="15.06"/>
      <line class="cls-1" x1="8.42" y1="6.58" x2="7.98" y2="6.14"/>
      <polyline class="cls-1" points="10.11 8.98 12.64 10.71 16.19 7.27"/>
    </g>
  </g>
</svg>