<?xml version="1.0" encoding="UTF-8"?>
<svg id="Layer_2" data-name="Layer 2" xmlns="http://www.w3.org/2000/svg" viewBox="0 0 26.77 23.69">
  <defs>
    <style>
      .cls-1, .cls-2 {
        fill: none;
        stroke: #030f47;
        stroke-miterlimit: 10;
        stroke-width: .75px;
      }

      .cls-2 {
        fill-rule: evenodd;
      }
    </style>
  </defs>
  <g id="Layer_1-2" data-name="Layer 1">
    <g>
      <path class="cls-1" d="m5.31,19.46l.03-11.15c.01-4.08,3.32-7.37,7.4-7.36h0c4.08.01,7.37,3.32,7.36,7.4l2.08,3.37-2.35.63v1.87s-.01,2.24-.01,2.24h-2.1s0,1.55,0,1.55"/>
      <path class="cls-2" d="m8.39,7.61c-.56-.71-.3-1.65.55-1.97.06-.02.07-.06.08-.11.16-.64.75-1.08,1.41-1.05.09,0,.18.02.26.05.06.02.08,0,.11-.05.27-.55.71-.9,1.32-.99.23-.04.46,0,.69.05.04.01.1.01.14,0,.91-.37,1.85.13,2.2.87,0,.02.02.04.04.06.23-.09.45-.12.69-.1.63.05,1.25.62,1.32,1.25.01.08.04.12.1.17.29.22.47.51.53.86,0,.02.01.03.02.05,0,.08,0,.17,0,.25,0,.34-.39.69-.39.69"/>
      <path class="cls-2" d="m17.74,8.58c0,.3,0,.59,0,.9h-.12c-.29,0-.58,0-.87,0-.07,0-.1.02-.12.09-.07.2-.16.39-.24.6.25.24.5.5.75.75-.54.53-1.06,1.05-1.59,1.58-.01-.01-.04-.03-.06-.06-.21-.21-.43-.43-.64-.64-.04-.05-.08-.05-.14-.03-.17.08-.35.15-.52.22-.07.03-.09.06-.09.13,0,.29,0,.58,0,.88,0,.03,0,.07,0,.12-.75,0-1.49,0-2.24,0v-.18c0-.27,0-.54,0-.81,0-.07-.02-.1-.09-.13-.18-.07-.35-.14-.53-.22-.06-.03-.09-.02-.14.02-.23.24-.47.47-.7.7-.53-.53-1.05-1.05-1.58-1.58.25-.24.51-.49.75-.74-.09-.23-.18-.45-.26-.66-.01-.02-.06-.05-.09-.05-.3,0-.59,0-.89,0h-.12c0-.3,0-.6,0-.9"/>
      <path class="cls-2" d="m10.05,6.03c.34,0,.63.29.64.63"/>
      <path class="cls-2" d="m15.44,6.51c0-.34.29-.63.63-.64"/>
      <path class="cls-2" d="m13.46,5.54c-.05-.34.19-.66.53-.72"/>
      <path class="cls-2" d="m12.45,5.54c.05-.34-.19-.67-.52-.73"/>
      <path class="cls-2" d="m13.85,8.57c0,.5-.41.9-.9.9-.5,0-.9-.41-.9-.9,0-.5.41-.9.9-.9.5,0,.9.41.9.91Z"/>
      <line class="cls-1" x1="8.39" y1="7.61" x2="9.71" y2="7.61"/>
      <line class="cls-1" x1="16" y1="7.62" x2="17.33" y2="7.63"/>
      <g>
        <line class="cls-1" x1="22.08" y1="1.52" x2="20.98" y2=".41"/>
        <line class="cls-1" x1="20.97" y1="1.52" x2="22.08" y2=".41"/>
      </g>
      <g>
        <line class="cls-1" x1="1.75" y1="14.22" x2=".36" y2="12.82"/>
        <line class="cls-1" x1=".35" y1="14.21" x2="1.75" y2="12.82"/>
      </g>
      <path class="cls-1" d="m2.1,5.54c-.35,0-.35-.39-.7-.39-.35,0-.35.39-.7.39-.35,0-.35-.39-.7-.39"/>
      <path class="cls-1" d="m16.63,23.32c-.35,0-.35-.39-.7-.39-.35,0-.35.39-.7.39-.35,0-.35-.39-.7-.39"/>
      <line class="cls-1" x1="24.04" y1="5.4" x2="22.55" y2="5.39"/>
      <line class="cls-1" x1="2.44" y1="18.91" x2="1.69" y2="18.91"/>
      <line class="cls-1" x1="14.11" y1="20.01" x2="11.76" y2="20.01"/>
      <line class="cls-1" x1="11.61" y1="18.94" x2="10.86" y2="18.94"/>
      <line class="cls-1" x1="6.88" y1=".37" x2="7.62" y2=".38"/>
      <path class="cls-1" d="m26.77,16.81c-.35,0-.35-.39-.7-.39-.35,0-.35.39-.7.39-.35,0-.35-.39-.7-.39-.35,0-.35.39-.7.39-.35,0-.35-.39-.7-.39"/>
      <line class="cls-1" x1="21.85" y1="20.03" x2="21.11" y2="20.03"/>
    </g>
  </g>
</svg>