<?xml version="1.0" encoding="UTF-8"?>
<svg id="Layer_2" data-name="Layer 2" xmlns="http://www.w3.org/2000/svg" viewBox="0 0 25.03 23.83">
  <defs>
    <style>
      .cls-1 {
        fill: none;
        stroke: #030f47;
        stroke-miterlimit: 10;
        stroke-width: .75px;
      }
    </style>
  </defs>
  <g id="Layer_1-2" data-name="Layer 1">
    <g>
      <path class="cls-1" d="m6.72,14.34c.01-5.15,2.58-10.85,5.74-10.85,3.16,0,5.7,5.73,5.68,10.87"/>
      <path class="cls-1" d="m11.26,17.1c0-1.98.53-4.86,1.18-4.86.64,0,1.16,2.88,1.16,4.87h-2.34Z"/>
      <path class="cls-1" d="m16.96,19.6c0-1.98.53-4.86,1.18-4.86.65,0,1.16,2.88,1.16,4.86h-2.34Z"/>
      <path class="cls-1" d="m5.54,19.58c0-1.98.53-4.86,1.18-4.86.65,0,1.16,2.88,1.16,4.86h-2.34Z"/>
      <path class="cls-1" d="m14.18,8.3c0,.95-.78,1.72-1.73,1.72-.96,0-1.72-.78-1.72-1.73,0-.96.77-1.72,1.73-1.72.95,0,1.73.78,1.72,1.73Z"/>
      <line class="cls-1" x1="9.1" y1="18.75" x2="15.73" y2="18.76"/>
      <line class="cls-1" x1="9.82" y1="20.37" x2="9.81" y2="22.61"/>
      <line class="cls-1" x1="11.25" y1="20.37" x2="11.25" y2="21.5"/>
      <line class="cls-1" x1="5.99" y1="21.56" x2="5.98" y2="23.8"/>
      <line class="cls-1" x1="14.86" y1="20.38" x2="14.86" y2="22.62"/>
      <line class="cls-1" x1="13.43" y1="20.38" x2="13.43" y2="21.5"/>
      <line class="cls-1" x1="18.84" y1="21.59" x2="18.84" y2="23.83"/>
      <g>
        <line class="cls-1" x1="2.17" y1="19.01" x2="3.28" y2="20.12"/>
        <line class="cls-1" x1="3.28" y1="19.02" x2="2.17" y2="20.12"/>
      </g>
      <g>
        <line class="cls-1" x1="19.22" y1="2.98" x2="20.62" y2="4.39"/>
        <line class="cls-1" x1="20.62" y1="2.99" x2="19.22" y2="4.38"/>
      </g>
      <path class="cls-1" d="m22.93,19.83c.35,0,.35.39.7.39.35,0,.35-.39.7-.39.35,0,.35.39.7.39"/>
      <line class="cls-1" x1="3.54" y1="6.73" x2="5.03" y2="6.73"/>
      <line class="cls-1" x1="15.93" y1=".37" x2="16.67" y2=".38"/>
      <line class="cls-1" x1="20.75" y1="10.42" x2="23.1" y2="10.43"/>
      <line class="cls-1" x1="23.25" y1="11.5" x2="24" y2="11.5"/>
      <line class="cls-1" x1="21.52" y1="21.61" x2="22.27" y2="21.62"/>
      <path class="cls-1" d="m0,11.79c.35,0,.35.39.7.39.35,0,.35-.39.7-.39.35,0,.35.39.7.39.35,0,.35-.39.7-.39.35,0,.35.39.7.39"/>
      <line class="cls-1" x1="6.82" y1="1.69" x2="7.56" y2="1.69"/>
    </g>
  </g>
</svg>