<?xml version="1.0" encoding="UTF-8"?>
<svg id="Layer_2" data-name="Layer 2" xmlns="http://www.w3.org/2000/svg" viewBox="0 0 24.24 25.01">
  <defs>
    <style>
      .cls-1 {
        fill: none;
        stroke: #030f47;
        stroke-miterlimit: 10;
        stroke-width: .75px;
      }
    </style>
  </defs>
  <g id="Layer_1-2" data-name="Layer 1">
    <g>
      <g>
        <polyline class="cls-1" points="17.59 16.37 17.58 21.17 5.6 21.14 5.64 3.28 17.62 3.31 17.62 5.67"/>
        <line class="cls-1" x1="10.93" y1="7.35" x2="17.61" y2="7.37"/>
        <line class="cls-1" x1="10.93" y1="9.71" x2="17.61" y2="9.73"/>
        <line class="cls-1" x1="10.92" y1="12.07" x2="17.6" y2="12.08"/>
        <line class="cls-1" x1="10.92" y1="14.43" x2="17.6" y2="14.44"/>
        <line class="cls-1" x1="12.77" y1="18.81" x2="15.82" y2="18.82"/>
        <polyline class="cls-1" points="7.28 18.01 8.29 19.15 9.85 17.6"/>
      </g>
      <g>
        <line class="cls-1" x1="1.27" y1="2.71" x2="2.38" y2="3.83"/>
        <line class="cls-1" x1="2.38" y1="2.71" x2="1.26" y2="3.82"/>
      </g>
      <g>
        <line class="cls-1" x1="21.31" y1="18.48" x2="22.72" y2="19.9"/>
        <line class="cls-1" x1="22.72" y1="18.48" x2="21.3" y2="19.89"/>
      </g>
      <path class="cls-1" d="m.72,18.43c.35,0,.35.39.71.4.35,0,.35-.39.7-.39.35,0,.35.4.71.4"/>
      <path class="cls-1" d="m20.7,5.65c.35,0,.35.39.71.39.35,0,.35-.39.71-.39.35,0,.35.39.71.39.35,0,.35-.39.71-.39.35,0,.35.39.71.39"/>
      <line class="cls-1" x1="15.01" y1=".37" x2="16.52" y2=".38"/>
      <line class="cls-1" x1="0" y1="7.33" x2="2.37" y2="7.33"/>
      <line class="cls-1" x1="10.14" y1="24.63" x2="11.65" y2="24.63"/>
      <line class="cls-1" x1="20.56" y1="16.57" x2="21.31" y2="16.58"/>
      <line class="cls-1" x1="2.53" y1="8.41" x2="3.28" y2="8.41"/>
      <line class="cls-1" x1="12.39" y1="23.85" x2="13.14" y2="23.85"/>
      <line class="cls-1" x1="20.75" y1="4.23" x2="21.5" y2="4.24"/>
    </g>
  </g>
</svg>