<?xml version="1.0" encoding="UTF-8"?>
<svg id="Layer_2" data-name="Layer 2" xmlns="http://www.w3.org/2000/svg" xmlns:xlink="http://www.w3.org/1999/xlink" viewBox="0 0 25.41 25.82">
  <defs>
    <style>
      .cls-1 {
        fill: url(#linear-gradient);
      }

      .cls-2 {
        fill: url(#linear-gradient-3);
      }

      .cls-3 {
        fill: url(#linear-gradient-4);
      }

      .cls-4 {
        fill: url(#linear-gradient-2);
      }
    </style>
    <linearGradient id="linear-gradient" x1="46.39" y1="-19.05" x2="-18.41" y2="34.52" gradientUnits="userSpaceOnUse">
      <stop offset="0" stop-color="#730ad9"/>
      <stop offset="1" stop-color="#e80033"/>
    </linearGradient>
    <linearGradient id="linear-gradient-2" x1="48.41" y1="-16.61" x2="-16.39" y2="36.96" xlink:href="#linear-gradient"/>
    <linearGradient id="linear-gradient-3" x1="49.2" y1="-15.66" x2="-15.6" y2="37.91" xlink:href="#linear-gradient"/>
    <linearGradient id="linear-gradient-4" x1="48.66" y1="-16.32" x2="-16.15" y2="37.25" xlink:href="#linear-gradient"/>
  </defs>
  <g id="Layer_1-2" data-name="Layer 1">
    <g id="ky2bsN.tif">
      <g>
        <path class="cls-1" d="m0,18.55c.04-.19.07-.38.12-.56.52-1.96,1.75-3.19,3.73-3.66.45-.11.54-.2.54-.67,0-.34.01-.68,0-1.01-.01-.24.17-.21.27-.17.2.07.55-.21.6.16.06.43.03.87,0,1.31-.03.6-.46,1.07-1.09,1.2-1.26.25-2.22.91-2.82,2.05-.66,1.26-.63,2.54.06,3.79.1.19.08.26-.09.37-.55.35-.54.35-.84-.24C.22,20.62.12,20.08,0,19.54,0,19.21,0,18.88,0,18.55Z"/>
        <path class="cls-4" d="m19.28,24.04c0,.4,0,.72,0,1.04,0,.37-.16.53-.54.53-1.31,0-2.61,0-3.92,0-.23,0-.44-.02-.55-.26-.1-.22,0-.4.14-.57.57-.72.64-1.66.2-2.44-.42-.76-1.28-1.2-2.14-1.11-.89.1-1.63.71-1.87,1.58-.2.72-.06,1.37.39,1.96.14.18.26.36.14.59-.12.24-.34.24-.56.24-1.28,0-2.56,0-3.83,0-.46,0-.6-.14-.6-.6,0-1.05,0-2.1,0-3.17-1.59.56-2.93.25-3.9-1.17-.69-1.02-.66-2.38.07-3.37.98-1.33,2.29-1.61,3.83-1.06,0-.77,0-1.53,0-2.29,0-.86,0-1.72,0-2.57,0-.17-.04-.24-.22-.23-.32.02-.64,0-.96,0-1.15,0-1.89-.73-1.89-1.88,0-1.12,0-2.25,0-3.37,0-.19-.05-.32-.18-.45-.65-.63-1.28-1.28-1.92-1.91-.14-.13-.17-.21-.01-.36.46-.44.45-.45.9,0,.62.62,1.24,1.24,1.86,1.86.16.16.23.33.23.56,0,1.23,0,2.46,0,3.7,0,.63.35.98.99.98.34,0,.68,0,1.01,0,.13,0,.2-.02.19-.18-.01-.27,0-.55,0-.82,0-.1-.03-.17-.1-.24-.08-.07-.15-.14-.21-.21-.13-.15-.42-.3-.38-.43.07-.21.31-.37.48-.54.12-.12.18.02.24.08.55.55,1.1,1.1,1.65,1.64.05.05.1.11.16.15.23.21.51.21.71,0,.19-.2.19-.47-.01-.69-.17-.18-.35-.35-.52-.52-.46-.46-.92-.91-1.37-1.38-.26-.26-.26-.46-.02-.74.78-.91.74-2.05-.11-2.9-.93-.94-1.87-1.88-2.81-2.81-.14-.14-.18-.22-.01-.38.45-.43.44-.44.88,0,.46.46.92.93,1.44,1.45,0-.39,0-.72,0-1.04,0-.38.16-.53.53-.53,1.32,0,2.65,0,3.97,0,.22,0,.4.04.5.25.1.21.01.38-.12.55-.57.73-.68,1.53-.27,2.36.4.81,1.09,1.22,1.99,1.21.88-.01,1.54-.43,1.93-1.22.39-.79.3-1.56-.21-2.27-.06-.09-.14-.17-.19-.27-.14-.31.08-.61.46-.61.84,0,1.68,0,2.52,0,.49,0,.99,0,1.48,0,.39,0,.55.15.55.55,0,.99,0,1.99,0,2.98,0,.21.02.26.24.18,1.67-.62,3.48.27,4.01,1.97.52,1.68-.49,3.45-2.22,3.88-.65.16-1.28.1-1.9-.15-.03-.01-.07-.02-.12-.03v1.63c0,1.06,0,2.12,0,3.18,0,.22.04.31.28.29.32-.02.64,0,.96,0,1.09,0,1.83.75,1.84,1.85,0,1.13,0,2.26,0,3.4,0,.2.06.34.2.47.64.63,1.26,1.27,1.9,1.89.13.13.18.21.02.36-.46.44-.45.45-.9,0-.62-.62-1.24-1.24-1.86-1.86-.16-.16-.23-.33-.23-.56,0-1.23,0-2.46,0-3.7,0-.63-.35-.98-.98-.98-.34,0-.68,0-1.01,0-.16,0-.2.05-.2.2.01.24.01.48,0,.71,0,.16.04.28.16.38.16.14.29.3.45.44.14.12.11.19,0,.3-.47.47-.46.48-.92.02-.34-.34-.68-.69-1.03-1.03-.25-.25-.53-.27-.75-.06-.21.21-.2.5.05.75.46.47.93.93,1.39,1.4.28.29.29.47.02.78-.74.85-.71,2.01.08,2.82.95.96,1.91,1.92,2.87,2.86.15.15.17.23,0,.38-.45.43-.44.44-.88,0-.46-.46-.92-.93-1.44-1.44ZM7.01,10.03c0,.78,0,1.49,0,2.19,0,.21.07.25.26.25,1.12,0,2.25,0,3.37,0,.22,0,.4.04.5.25.1.21.02.38-.12.55-.31.37-.48.8-.5,1.28-.04.98.55,1.87,1.47,2.18.91.32,1.92,0,2.49-.78.58-.8.57-1.85-.05-2.65-.14-.18-.26-.36-.15-.59.12-.24.33-.25.56-.25,1.1,0,2.21,0,3.31,0,.21,0,.26-.06.25-.26-.01-1.12,0-2.25,0-3.37,0-.22.04-.4.25-.5.21-.1.38-.02.55.12.37.31.8.48,1.28.5.98.05,1.87-.55,2.18-1.46.32-.92,0-1.94-.79-2.51-.8-.57-1.85-.55-2.65.08-.18.14-.35.24-.57.13-.23-.11-.25-.31-.25-.53,0-1.12,0-2.25,0-3.37,0-.18-.04-.23-.23-.23-.63.01-1.26,0-1.89,0-.26,0-.52,0-.79,0,.5,1.66.18,2.89-.94,3.75-1,.77-2.39.84-3.47.17-.54-.34-.94-.8-1.2-1.38-.36-.84-.33-1.68.03-2.54-.94,0-1.84,0-2.74,0-.16,0-.17.07-.17.2,0,.33.02.66,0,.99-.02.28.08.47.27.67,1,1,1.18,2.45.46,3.61-.11.18-.09.27.05.4.51.5,1.02,1,1.51,1.51.46.48.52,1.15.17,1.69-.33.52-.97.75-1.56.57-.36-.11-.6-.37-.9-.68Zm2.89,14.71c-.44-1.8-.16-2.91.96-3.76.97-.74,2.33-.86,3.37-.21,1.51.94,1.85,2.31,1.29,3.97.92,0,1.82,0,2.73,0,.14,0,.17-.06.16-.18,0-.33-.02-.66,0-.99.02-.29-.07-.49-.28-.69-1.02-1.02-1.18-2.44-.43-3.66.09-.15.06-.21-.05-.31-.39-.38-.79-.76-1.16-1.17-.46-.5-.46-1.23-.04-1.76.41-.51,1.11-.65,1.71-.34.07.04.12.12.23.08,0-.74,0-1.47,0-2.21,0-.19-.1-.17-.23-.17-.75,0-1.5,0-2.24,0-.14,0-.28,0-.43,0,.49,1.68.17,2.91-.96,3.77-1.02.77-2.41.82-3.49.13-.54-.35-.93-.81-1.18-1.4-.34-.83-.31-1.65.05-2.49-.91,0-1.78,0-2.66,0-.23,0-.26.08-.26.28,0,1.1,0,2.19,0,3.29,0,.23,0,.45-.24.56-.23.12-.41,0-.59-.14-.37-.3-.79-.45-1.26-.47-.98-.04-1.86.56-2.17,1.48-.31.91.01,1.92.79,2.48.8.58,1.85.56,2.64-.06.17-.14.35-.25.57-.14.24.11.26.32.26.55,0,1,0,2.01,0,3.01q0,.57.57.57h2.32Z"/>
        <path class="cls-2" d="m25.41,7.03c-.03,1.23-.59,2.46-1.71,3.43-.15.13-.25.17-.37-.03-.09-.17-.3-.31-.31-.47-.01-.17.24-.27.37-.4,2.11-2.11,1.18-5.73-1.71-6.57-.26-.08-.32-.18-.23-.41,0,0,0-.02,0-.03q.11-.53.62-.37c1.98.64,3.34,2.51,3.34,4.85Z"/>
        <path class="cls-3" d="m1.92,22.87c-.09,0-.59-.47-.6-.53,0-.06.04-.08.07-.11.05-.05.11-.1.16-.15.41-.38.47-.37.83.05.04.05.06.09.02.14-.14.18-.27.36-.41.54-.02.03-.05.04-.06.05Z"/>
      </g>
    </g>
  </g>
</svg>