<?xml version="1.0" encoding="UTF-8"?>
<svg id="Layer_2" data-name="Layer 2" xmlns="http://www.w3.org/2000/svg" xmlns:xlink="http://www.w3.org/1999/xlink" viewBox="0 0 27.51 30.57">
  <defs>
    <style>
      .cls-1 {
        fill: url(#linear-gradient);
      }

      .cls-2 {
        fill: url(#linear-gradient-8);
      }

      .cls-3 {
        fill: url(#linear-gradient-9);
      }

      .cls-4 {
        fill: url(#linear-gradient-3);
      }

      .cls-5 {
        fill: url(#linear-gradient-4);
      }

      .cls-6 {
        fill: url(#linear-gradient-2);
      }

      .cls-7 {
        fill: url(#linear-gradient-6);
      }

      .cls-8 {
        fill: url(#linear-gradient-7);
      }

      .cls-9 {
        fill: url(#linear-gradient-5);
      }

      .cls-10 {
        fill: url(#linear-gradient-10);
      }

      .cls-11 {
        fill: url(#linear-gradient-11);
      }
    </style>
    <linearGradient id="linear-gradient" x1="52.16" y1="-9.29" x2="-11.65" y2="41.46" gradientUnits="userSpaceOnUse">
      <stop offset="0" stop-color="#730ad9"/>
      <stop offset="1" stop-color="#e80033"/>
    </linearGradient>
    <linearGradient id="linear-gradient-2" x1="48.1" y1="-14.38" x2="-15.7" y2="36.36" xlink:href="#linear-gradient"/>
    <linearGradient id="linear-gradient-3" x1="56.03" y1="-4.41" x2="-7.77" y2="46.33" xlink:href="#linear-gradient"/>
    <linearGradient id="linear-gradient-4" x1="54.84" y1="-5.92" x2="-8.97" y2="44.82" xlink:href="#linear-gradient"/>
    <linearGradient id="linear-gradient-5" x1="52.3" y1="-9.11" x2="-11.5" y2="41.64" xlink:href="#linear-gradient"/>
    <linearGradient id="linear-gradient-6" x1="58.62" y1="-1.16" x2="-5.19" y2="49.58" xlink:href="#linear-gradient"/>
    <linearGradient id="linear-gradient-7" x1="45.77" y1="-17.31" x2="-18.03" y2="33.43" xlink:href="#linear-gradient"/>
    <linearGradient id="linear-gradient-8" x1="43.11" y1="-20.66" x2="-20.69" y2="30.08" xlink:href="#linear-gradient"/>
    <linearGradient id="linear-gradient-9" x1="49.43" y1="-12.72" x2="-14.37" y2="38.02" xlink:href="#linear-gradient"/>
    <linearGradient id="linear-gradient-10" x1="41.46" y1="-22.73" x2="-22.34" y2="28.01" xlink:href="#linear-gradient"/>
    <linearGradient id="linear-gradient-11" x1="44.62" y1="-18.76" x2="-19.18" y2="31.98" xlink:href="#linear-gradient"/>
  </defs>
  <g id="Layer_1-2" data-name="Layer 1">
    <g id="PtDUJb.tif">
      <g>
        <path class="cls-1" d="m16.62,30.57c-.26-.18-.32-.43-.32-.74,0-3.37,0-6.75.01-10.12,0-.3-.09-.36-.37-.36-1.04.02-2.08,0-3.12,0-.24,0-.44-.07-.55-.31-.09-.18-.06-.35.06-.51.13-.18.33-.21.54-.21,1.25,0,2.5,0,3.76,0,1.1,0,1.72-.61,1.71-1.72,0-.43.04-.87-.05-1.3-.23-1.19-1.23-2.06-2.44-2.07-1.56-.02-3.12-.01-4.68,0-1.1,0-1.98.89-2,1.98-.01.53-.01,1.06,0,1.59.01.81.62,1.44,1.43,1.51.45.04.6.2.6.64,0,3.65,0,7.3,0,10.95,0,.29-.12.48-.32.64h-.38c-.26-.18-.32-.43-.32-.74,0-3.41,0-6.81.01-10.22,0-.23-.07-.32-.29-.39-1.04-.33-1.75-1.28-1.75-2.37,0-.7-.07-1.4.05-2.1.24-1.42,1.46-2.51,2.9-2.53,1.6-.02,3.2-.03,4.81,0,1.87.03,3.4,1.57,3.45,3.45.01.53.06,1.06-.04,1.59-.19.98-.78,1.63-1.71,1.96-.22.08-.28.17-.28.39,0,3.41,0,6.81.01,10.22,0,.31-.07.56-.32.74h-.38Z"/>
        <path class="cls-6" d="m0,16.37c.14-.46.24-.94.49-1.36.5-.86,1.16-1.52,2.17-1.72.13-.03.27-.04.41-.04,1.14,0,2.27,0,3.41,0,.41,0,.64.18.65.49,0,.33-.23.52-.65.52-1.09,0-2.19,0-3.28,0-.5,0-.91.17-1.26.51-.6.58-.92,1.29-.92,2.13,0,2.29,0,4.59,0,6.88,0,.43.18.67.5.67.33,0,.52-.24.52-.69,0-1.9,0-3.8,0-5.7,0-.11-.01-.22.01-.32.06-.26.22-.41.49-.42.27,0,.44.15.5.4.03.1.01.21.01.32,0,3.93,0,7.86,0,11.78,0,.31-.07.56-.32.74h-.38c-.26-.18-.33-.43-.32-.74.01-1.39,0-2.78,0-4.17,0-.2-.03-.29-.26-.22-.2.06-.42.03-.63-.02-.62-.16-.94-.6-1.15-1.16v-7.9Z"/>
        <path class="cls-4" d="m24.77,30.57c-.26-.18-.32-.43-.32-.74,0-3.93,0-7.85,0-11.78,0-.08,0-.17,0-.25.03-.28.24-.47.51-.47.27,0,.47.2.5.48,0,.09,0,.19,0,.29,0,1.87,0,3.74,0,5.6,0,.1,0,.19,0,.29.03.28.24.47.51.47.26,0,.47-.2.5-.48,0-.05,0-.11,0-.16,0-2.32,0-4.65,0-6.97,0-.83-.34-1.52-.94-2.09-.34-.33-.75-.49-1.24-.49-1.11.01-2.23,0-3.34,0-.23,0-.42-.07-.53-.28-.1-.18-.08-.35.03-.51.12-.18.29-.23.49-.23,1.19,0,2.38-.01,3.57,0,.79.01,1.42.4,1.93.97.69.77,1.05,1.68,1.05,2.72,0,2.27,0,4.54,0,6.81,0,1.17-.71,1.81-1.87,1.66-.21-.03-.17.1-.17.2,0,.81,0,1.61,0,2.42,0,.59-.01,1.19,0,1.78.01.31-.07.56-.32.74h-.38Z"/>
        <path class="cls-5" d="m13.56,30.57c-.26-.18-.33-.43-.32-.74.01-2.06,0-4.12,0-6.17,0-.1,0-.19,0-.29.05-.27.22-.44.5-.44.28,0,.45.17.5.44.02.09,0,.19,0,.29,0,2.06,0,4.12,0,6.17,0,.31-.07.56-.32.74h-.38Z"/>
        <path class="cls-9" d="m5.41,30.57c-.26-.18-.33-.43-.32-.74.01-1.21,0-2.42,0-3.63,0-.07,0-.15,0-.22.02-.3.23-.51.51-.51.28,0,.5.2.5.51,0,1.36,0,2.71,0,4.07,0,.24-.17.37-.32.52h-.38Z"/>
        <path class="cls-7" d="m21.72,30.57c-.26-.18-.33-.43-.32-.74.01-1.21,0-2.42,0-3.63,0-.07,0-.15,0-.22.02-.3.23-.51.51-.51.28,0,.5.2.5.51,0,1.36,0,2.71,0,4.07,0,.24-.17.37-.32.52h-.38Z"/>
        <path class="cls-8" d="m10.7,8.16c0-1.68,1.37-3.06,3.05-3.07,1.68,0,3.06,1.37,3.06,3.05,0,1.68-1.37,3.06-3.05,3.07-1.68,0-3.06-1.37-3.07-3.05Zm3.05-2.05c-1.12,0-2.04.93-2.03,2.05,0,1.11.92,2.02,2.03,2.02,1.12,0,2.05-.91,2.05-2.04,0-1.13-.92-2.04-2.04-2.04Z"/>
        <path class="cls-2" d="m2.55,9.16c0-1.68,1.39-3.05,3.07-3.05,1.68,0,3.05,1.38,3.05,3.07,0,1.68-1.38,3.05-3.07,3.05-1.68,0-3.05-1.39-3.05-3.07Zm5.09,0c0-1.12-.93-2.04-2.05-2.03-1.11,0-2.02.92-2.02,2.03,0,1.12.91,2.04,2.04,2.04,1.12,0,2.04-.92,2.03-2.05Z"/>
        <path class="cls-3" d="m21.91,6.11c1.68,0,3.05,1.38,3.05,3.06,0,1.68-1.38,3.05-3.06,3.05-1.68,0-3.05-1.38-3.05-3.06,0-1.68,1.38-3.05,3.06-3.05Zm-.01,5.09c1.12,0,2.04-.91,2.04-2.04,0-1.11-.91-2.03-2.01-2.04-1.13,0-2.05.9-2.06,2.02,0,1.13.91,2.05,2.03,2.05Z"/>
        <path class="cls-10" d="m7.13,2.53C7.14,1.13,8.29,0,9.7,0c1.4,0,2.54,1.17,2.53,2.58-.01,1.39-1.16,2.52-2.55,2.52-1.4,0-2.55-1.15-2.54-2.56Zm2.55-1.51c-.83,0-1.52.68-1.53,1.51,0,.85.68,1.55,1.52,1.55.83,0,1.52-.68,1.53-1.51.01-.85-.68-1.55-1.52-1.55Z"/>
        <path class="cls-11" d="m15.28,2.54C15.29,1.13,16.44,0,17.85,0c1.4,0,2.54,1.17,2.53,2.57-.01,1.39-1.16,2.52-2.55,2.52-1.4,0-2.55-1.15-2.54-2.56Zm4.07.02c0-.83-.67-1.53-1.5-1.54-.85-.01-1.55.67-1.56,1.51,0,.85.68,1.54,1.53,1.54.83,0,1.52-.68,1.53-1.51Z"/>
      </g>
    </g>
  </g>
</svg>