<?xml version="1.0" encoding="UTF-8"?>
<svg id="Layer_2" data-name="Layer 2" xmlns="http://www.w3.org/2000/svg" xmlns:xlink="http://www.w3.org/1999/xlink" viewBox="0 0 30.73 20.75">
  <defs>
    <style>
      .cls-1 {
        fill: url(#linear-gradient);
      }
    </style>
    <linearGradient id="linear-gradient" x1="39.88" y1="-12.88" x2="-16.89" y2="31.33" gradientUnits="userSpaceOnUse">
      <stop offset="0" stop-color="#730ad9"/>
      <stop offset="1" stop-color="#e80033"/>
    </linearGradient>
  </defs>
  <g id="Layer_1-2" data-name="Layer 1">
    <g id="wGLhXy.tif">
      <path class="cls-1" d="m15.45,20.75c-.39-.09-.75-.22-1.09-.43-.16-.1-.28-.07-.43.03-.76.51-1.6.42-2.26-.22-.32-.31-.63-.64-.74-1.09-.03-.13-.1-.15-.23-.14-1.13.12-2.02-.45-2.4-1.53-.06-.17-.12-.2-.3-.18-1.16.15-2.24-.68-2.42-1.84-.03-.17-.01-.34.04-.5.06-.21,0-.29-.21-.35-.89-.26-1.59-1.19-1.57-2.03,0-.41.15-.77.42-1.07.13-.15.11-.22-.06-.3-.74-.35-.57-.37-.82.31-.1.27-.19.54-.29.81-.15.4-.4.53-.8.4-.62-.2-1.23-.41-1.84-.62-.38-.13-.53-.41-.42-.73.1-.28.38-.4.74-.3.38.11.75.23,1.12.37.25.1.35.04.44-.21.81-2.34,1.63-4.68,2.45-7.02.08-.24.16-.49.26-.72.12-.27.02-.39-.23-.5-1.39-.57-2.78-1.16-4.17-1.75-.09-.04-.18-.07-.26-.12C.1.87,0,.6.11.32.21.06.51-.07.8.04c.36.13.71.29,1.06.43,1.32.56,2.64,1.11,3.96,1.67.52.22.57.3.5.86-.03.22.11.22.24.25.82.16,1.64.33,2.46.49.55.11.78.33.7.71-.07.35-.36.46-.91.36-.85-.17-1.71-.33-2.56-.51-.28-.06-.4,0-.5.29-.55,1.61-1.11,3.21-1.68,4.8-.1.28-.06.44.22.54.11.04.22.09.31.16.38.25.74.32,1.21.15.57-.21,1.13-.02,1.59.39.42.38.8.79.86,1.4.01.13.08.14.2.14,1.11,0,2,.73,2.21,1.81.03.18.08.24.27.25.99.03,1.89.83,2.03,1.82.03.21.13.23.29.23.96.04,1.85.82,2.02,1.77.07.41-.02.78-.22,1.13-.11.19-.06.28.12.36.41.19.86.14,1.12-.14.26-.26.28-.67.04-1.09-.13-.24-.15-.47.04-.67.2-.22.45-.27.72-.13.5.26.99.53,1.5.77.53.25,1.07.03,1.22-.47.11-.35,0-.68-.3-.89-.35-.24-.7-.48-1.05-.73-.37-.26-.47-.54-.3-.82.17-.29.48-.33.86-.12.81.44,1.62.89,2.43,1.32.41.22.72.17,1.02-.11.43-.41.4-.99-.09-1.33-.53-.37-1.08-.71-1.62-1.06-.22-.14-.36-.33-.31-.61.07-.37.44-.53.82-.35.66.31,1.32.64,1.97.97.46.23.91.46,1.37.68.5.24.96.1,1.2-.35.23-.42.07-.93-.4-1.19-1.07-.6-2.17-1.16-3.23-1.79-1.54-.92-3.06-1.88-4.58-2.83-.33-.2-.4-.51-.23-.78.17-.27.48-.33.81-.12,1.31.81,2.62,1.62,3.92,2.43.99.62,2.04,1.14,3.06,1.71.18.1.27.09.29-.13.02-.21.08-.42.08-.63,0-.4.21-.62.56-.75.4-.15.4-.17.25-.57-.6-1.72-1.21-3.44-1.8-5.16-.1-.29-.22-.35-.5-.25-.44.15-.9.25-1.35.38-.26.07-.49.04-.67-.16-.21-.22-.47-.31-.76-.37-1.63-.32-3.26-.66-4.92-.87-.43-.05-.81-.01-1.19.21-1.27.72-2.46,1.55-3.66,2.37-.1.07-.18.15-.2.27-.22.91-.57,1.77-.89,2.65-.1.28,0,.41.22.52.71.35,1.54.09,1.92-.6.22-.4.38-.83.5-1.27.09-.31.28-.47.6-.53.72-.14,1.43-.3,2.15-.44.43-.09.76.23.67.63-.05.25-.22.38-.46.43-.56.12-1.12.26-1.68.36-.22.04-.33.15-.4.35-.12.35-.26.7-.44,1.02-.86,1.49-2.85,1.81-4.2.4-.18-.19-.19-.41-.11-.65.27-.76.53-1.52.79-2.28.1-.29.21-.58.25-.88.05-.37.25-.6.55-.8,1.18-.79,2.36-1.59,3.57-2.33.71-.43,1.43-.59,2.24-.48,1.78.24,3.53.59,5.29.97.14.03.3.05.41.16.22.22.46.22.73.13.26-.09.53-.16.79-.23.16-.04.19-.11.16-.27-.08-.43.02-.6.43-.76,1.76-.71,3.53-1.41,5.29-2.12.39-.16.7-.05.82.27.11.3-.04.58-.42.73-1.52.61-3.03,1.22-4.55,1.82-.29.11-.36.23-.26.53.91,2.57,1.81,5.14,2.7,7.71.08.23.17.27.39.18.45-.19.91-.35,1.37-.52.49-.18.68-.1.92.37v.13c-.08.25-.24.41-.49.5-.7.25-1.39.52-2.09.78-.47.17-.72.05-.89-.42-.09-.26-.17-.52-.27-.78-.03-.08-.02-.21-.16-.2-.13.01-.15.12-.18.23-.05.26-.09.52-.17.78-.06.21-.04.36.11.54.59.71.59,1.74.03,2.44-.59.74-1.51.97-2.37.56-.3-.14-.34-.06-.37.22-.12,1.22-1.35,2.16-2.65,1.67-.21-.08-.27-.01-.31.2-.17,1.08-1.15,1.76-2.23,1.59-.31-.05-.59-.18-.86-.32-.14-.08-.24-.06-.28.11-.2.91-.82,1.35-1.68,1.51h-.45Zm-6.8-7.5c-.17,0-.32.04-.44.16-.46.45-.92.9-1.37,1.37-.24.25-.22.57,0,.83.08.1.17.19.27.27.36.34.69.35,1.05,0,.38-.37.74-.75,1.13-1.11.25-.23.39-.52.23-.82-.18-.34-.44-.65-.87-.7Zm.69,3.67c.01.39.3.59.56.8.27.21.55.19.81-.04.33-.3.65-.61.96-.93.33-.34.32-.66,0-1-.08-.09-.16-.17-.25-.25-.31-.28-.63-.29-.93,0-.32.31-.63.62-.95.94-.13.13-.21.29-.2.49Zm3.61,2.67c.09-.03.21-.05.29-.11.34-.25.65-.54.9-.89.15-.21.12-.47-.05-.68-.1-.13-.23-.25-.35-.37-.31-.28-.62-.29-.93-.02-.19.17-.36.35-.55.53-.22.22-.4.47-.23.79.2.35.46.66.91.74Zm-5.79-7.4c0-.26-.09-.4-.48-.75-.3-.27-.6-.29-.91-.01-.21.19-.41.39-.61.6-.24.24-.31.57-.14.81.29.41.62.71.99.62.05-.01.11-.03.15-.06.36-.25.67-.55.93-.9.07-.09.07-.2.07-.31Z"/>
    </g>
  </g>
</svg>