<?xml version="1.0" encoding="UTF-8"?>
<svg id="Layer_2" data-name="Layer 2" xmlns="http://www.w3.org/2000/svg" xmlns:xlink="http://www.w3.org/1999/xlink" viewBox="0 0 19.37 30.57">
  <defs>
    <style>
      .cls-1 {
        fill: url(#linear-gradient);
      }

      .cls-2 {
        fill: url(#linear-gradient-3);
      }

      .cls-3 {
        fill: url(#linear-gradient-4);
      }

      .cls-4 {
        fill: url(#linear-gradient-2);
      }

      .cls-5 {
        fill: url(#linear-gradient-6);
      }

      .cls-6 {
        fill: url(#linear-gradient-7);
      }

      .cls-7 {
        fill: url(#linear-gradient-5);
      }
    </style>
    <linearGradient id="linear-gradient" x1="51.29" y1="-17.04" x2="-38.64" y2="74.39" gradientUnits="userSpaceOnUse">
      <stop offset="0" stop-color="#730ad9"/>
      <stop offset="1" stop-color="#e80033"/>
    </linearGradient>
    <linearGradient id="linear-gradient-2" x1="45.9" y1="-22.34" x2="-44.03" y2="69.09" xlink:href="#linear-gradient"/>
    <linearGradient id="linear-gradient-3" x1="54.1" y1="-14.27" x2="-35.82" y2="77.16" xlink:href="#linear-gradient"/>
    <linearGradient id="linear-gradient-4" x1="50.59" y1="-17.72" x2="-39.33" y2="73.71" xlink:href="#linear-gradient"/>
    <linearGradient id="linear-gradient-5" x1="44.81" y1="-23.42" x2="-45.12" y2="68.02" xlink:href="#linear-gradient"/>
    <linearGradient id="linear-gradient-6" x1="41.17" y1="-26.99" x2="-48.76" y2="64.44" xlink:href="#linear-gradient"/>
    <linearGradient id="linear-gradient-7" x1="39.93" y1="-28.21" x2="-50" y2="63.22" xlink:href="#linear-gradient"/>
  </defs>
  <g id="Layer_1-2" data-name="Layer 1">
    <g id="PtDUJb.tif">
      <g>
        <path class="cls-1" d="m16.62,30.57c-.26-.18-.32-.43-.32-.74,0-3.37,0-6.75.01-10.12,0-.3-.09-.36-.37-.36-1.04.02-2.08,0-3.12,0-.24,0-.44-.07-.55-.31-.09-.18-.06-.35.06-.51.13-.18.33-.21.54-.21,1.25,0,2.5,0,3.76,0,1.1,0,1.72-.61,1.71-1.72,0-.43.04-.87-.05-1.3-.23-1.19-1.23-2.06-2.44-2.07-1.56-.02-3.12-.01-4.68,0-1.1,0-1.98.89-2,1.98-.01.53-.01,1.06,0,1.59.01.81.62,1.44,1.43,1.51.45.04.6.2.6.64,0,3.65,0,7.3,0,10.95,0,.29-.12.48-.32.64h-.38c-.26-.18-.32-.43-.32-.74,0-3.41,0-6.81.01-10.22,0-.23-.07-.32-.29-.39-1.04-.33-1.75-1.28-1.75-2.37,0-.7-.07-1.4.05-2.1.24-1.42,1.46-2.51,2.9-2.53,1.6-.02,3.2-.03,4.81,0,1.87.03,3.4,1.57,3.45,3.45.01.53.06,1.06-.04,1.59-.19.98-.78,1.63-1.71,1.96-.22.08-.28.17-.28.39,0,3.41,0,6.81.01,10.22,0,.31-.07.56-.32.74h-.38Z"/>
        <path class="cls-4" d="m0,16.37c.14-.46.24-.94.49-1.36.5-.86,1.16-1.52,2.17-1.72.13-.03.27-.04.41-.04,1.14,0,2.27,0,3.41,0,.41,0,.64.18.65.49,0,.33-.23.52-.65.52-1.09,0-2.19,0-3.28,0-.5,0-.91.17-1.26.51-.6.58-.92,1.29-.92,2.13,0,2.29,0,4.59,0,6.88,0,.43.18.67.5.67.33,0,.52-.24.52-.69,0-1.9,0-3.8,0-5.7,0-.11-.01-.22.01-.32.06-.26.22-.41.49-.42.27,0,.44.15.5.4.03.1.01.21.01.32,0,3.93,0,7.86,0,11.78,0,.31-.07.56-.32.74h-.38c-.26-.18-.33-.43-.32-.74.01-1.39,0-2.78,0-4.17,0-.2-.03-.29-.26-.22-.2.06-.42.03-.63-.02-.62-.16-.94-.6-1.15-1.16v-7.9Z"/>
        <path class="cls-2" d="m13.56,30.57c-.26-.18-.33-.43-.32-.74.01-2.06,0-4.12,0-6.17,0-.1,0-.19,0-.29.05-.27.22-.44.5-.44.28,0,.45.17.5.44.02.09,0,.19,0,.29,0,2.06,0,4.12,0,6.17,0,.31-.07.56-.32.74h-.38Z"/>
        <path class="cls-3" d="m5.41,30.57c-.26-.18-.33-.43-.32-.74.01-1.21,0-2.42,0-3.63,0-.07,0-.15,0-.22.02-.3.23-.51.51-.51.28,0,.5.2.5.51,0,1.36,0,2.71,0,4.07,0,.24-.17.37-.32.52h-.38Z"/>
        <path class="cls-7" d="m10.7,8.16c0-1.68,1.37-3.06,3.05-3.07,1.68,0,3.06,1.37,3.06,3.05,0,1.68-1.37,3.06-3.05,3.07-1.68,0-3.06-1.37-3.07-3.05Zm3.05-2.05c-1.12,0-2.04.93-2.03,2.05,0,1.11.92,2.02,2.03,2.02,1.12,0,2.05-.91,2.05-2.04,0-1.13-.92-2.04-2.04-2.04Z"/>
        <path class="cls-5" d="m2.55,9.16c0-1.68,1.39-3.05,3.07-3.05,1.68,0,3.05,1.38,3.05,3.07,0,1.68-1.38,3.05-3.07,3.05-1.68,0-3.05-1.39-3.05-3.07Zm5.09,0c0-1.12-.93-2.04-2.05-2.03-1.11,0-2.02.92-2.02,2.03,0,1.12.91,2.04,2.04,2.04,1.12,0,2.04-.92,2.03-2.05Z"/>
        <path class="cls-6" d="m7.13,2.53C7.14,1.13,8.29,0,9.7,0c1.4,0,2.54,1.17,2.53,2.58-.01,1.39-1.16,2.52-2.55,2.52-1.4,0-2.55-1.15-2.54-2.56Zm2.55-1.51c-.83,0-1.52.68-1.53,1.51,0,.85.68,1.55,1.52,1.55.83,0,1.52-.68,1.53-1.51.01-.85-.68-1.55-1.52-1.55Z"/>
      </g>
    </g>
  </g>
</svg>